G04 #@! TF.GenerationSoftware,KiCad,Pcbnew,(5.1.8)-1*
G04 #@! TF.CreationDate,2021-02-14T00:12:38+02:00*
G04 #@! TF.ProjectId,FR4_Top_Plate,4652345f-546f-4705-9f50-6c6174652e6b,0.95*
G04 #@! TF.SameCoordinates,Original*
G04 #@! TF.FileFunction,Profile,NP*
%FSLAX46Y46*%
G04 Gerber Fmt 4.6, Leading zero omitted, Abs format (unit mm)*
G04 Created by KiCad (PCBNEW (5.1.8)-1) date 2021-02-14 00:12:38*
%MOMM*%
%LPD*%
G01*
G04 APERTURE LIST*
G04 #@! TA.AperFunction,Profile*
%ADD10C,0.200000*%
G04 #@! TD*
G04 #@! TA.AperFunction,Profile*
%ADD11C,0.100000*%
G04 #@! TD*
G04 APERTURE END LIST*
D10*
X80708500Y-111823500D02*
X80772000Y-112649000D01*
X80772000Y-112649000D02*
X80899000Y-114109500D01*
X97594758Y-143271756D02*
X110319820Y-135905240D01*
X218511891Y-42966390D02*
X217795520Y-42621355D01*
X219501720Y-44145200D02*
X219704920Y-44856400D01*
X219133420Y-43510200D02*
X219501720Y-44145200D01*
X175719348Y-121193595D02*
X218180920Y-121193560D01*
X175013524Y-121264638D02*
X175719348Y-121193595D01*
X174356326Y-121468421D02*
X175013524Y-121264638D01*
X173761773Y-121790925D02*
X174356326Y-121468421D01*
X173243884Y-122218131D02*
X173761773Y-121790925D01*
X172816678Y-122736020D02*
X173243884Y-122218131D01*
X172494174Y-123330573D02*
X172816678Y-122736020D01*
X172290391Y-123987771D02*
X172494174Y-123330573D01*
X172194220Y-124696220D02*
X172290391Y-123987771D01*
X217795520Y-42621355D02*
X171704000Y-35687000D01*
X171532040Y-135649242D02*
X171277232Y-135787458D01*
X171753993Y-135466153D02*
X171532040Y-135649242D01*
X171937081Y-135244201D02*
X171753993Y-135466153D01*
X172075297Y-134989392D02*
X171937081Y-135244201D01*
X172162633Y-134707736D02*
X172075297Y-134989392D01*
X172193080Y-134427634D02*
X172162633Y-134707736D01*
X219704920Y-44856400D02*
X219704920Y-119684800D01*
X81163697Y-35869721D02*
X81342063Y-35772970D01*
X81008330Y-35997883D02*
X81163697Y-35869721D01*
X80880169Y-36153249D02*
X81008330Y-35997883D01*
X80783417Y-36331615D02*
X80880169Y-36153249D01*
X80722283Y-36528775D02*
X80783417Y-36331615D01*
X80700300Y-36744400D02*
X80722283Y-36528775D01*
X81539222Y-35711835D02*
X81754400Y-35690300D01*
X81342063Y-35772970D02*
X81539222Y-35711835D01*
X171704000Y-35687000D02*
X81754400Y-35690300D01*
X80645000Y-110617000D02*
X80700300Y-36744400D01*
X81419700Y-116395500D02*
X81978500Y-117665500D01*
X81153000Y-115379500D02*
X81419700Y-116395500D01*
X80645000Y-110617000D02*
X80708500Y-111823500D01*
X97426864Y-143357278D02*
X97594758Y-143271756D01*
X97268206Y-143404468D02*
X97426864Y-143357278D01*
X97119252Y-143413974D02*
X97268206Y-143404468D01*
X96980470Y-143386445D02*
X97119252Y-143413974D01*
X96852328Y-143322532D02*
X96980470Y-143386445D01*
X96735295Y-143222884D02*
X96852328Y-143322532D01*
X96629837Y-143088150D02*
X96735295Y-143222884D01*
X81978500Y-117665500D02*
X96629837Y-143088150D01*
X80899000Y-114109500D02*
X81153000Y-115379500D01*
X110319820Y-135905240D02*
X170693080Y-135905240D01*
X172194220Y-124696220D02*
X172193080Y-134427634D01*
X170995576Y-135874793D02*
X170693080Y-135905240D01*
X171277232Y-135787458D02*
X170995576Y-135874793D01*
X219133420Y-43510200D02*
X218511891Y-42966390D01*
X218500315Y-121165688D02*
X218180920Y-121193560D01*
X218781972Y-121078352D02*
X218500315Y-121165688D01*
X219036780Y-120940136D02*
X218781972Y-121078352D01*
X219258732Y-120757048D02*
X219036780Y-120940136D01*
X219441821Y-120535096D02*
X219258732Y-120757048D01*
X219580037Y-120280287D02*
X219441821Y-120535096D01*
X219667372Y-119998631D02*
X219580037Y-120280287D01*
X219704920Y-119684800D02*
X219667372Y-119998631D01*
D11*
X120300000Y-55900000D02*
X120300000Y-54280000D01*
X121300000Y-56900000D02*
X121300000Y-54280000D01*
X120300000Y-53018995D02*
X120300000Y-46940000D01*
X121300000Y-46940000D02*
X121300000Y-53020000D01*
X120300000Y-45750000D02*
X121300000Y-45750000D01*
X121300000Y-43100000D02*
X121300000Y-45750000D01*
X121300000Y-54280000D02*
X120300000Y-54280000D01*
X121300000Y-53020000D02*
X120300000Y-53018995D01*
X120300000Y-46940000D02*
X121300000Y-46940000D01*
X120300000Y-45750000D02*
X120300000Y-44100000D01*
X108500000Y-54250000D02*
X107500000Y-54250000D01*
X108500000Y-44100000D02*
X108500000Y-45720000D01*
X107500000Y-56900000D02*
X107500000Y-54250000D01*
X108500000Y-54250000D02*
X108500000Y-55900000D01*
X107500000Y-45720000D02*
X108500000Y-45720000D01*
X107500000Y-53060000D02*
X107500000Y-46980000D01*
X108500000Y-53060000D02*
X107500000Y-53060000D01*
X107500000Y-43100000D02*
X107500000Y-45720000D01*
X108500000Y-46981005D02*
X108500000Y-53060000D01*
X107500000Y-46980000D02*
X108500000Y-46981005D01*
X121300000Y-43100000D02*
X118660000Y-43100000D01*
X110150000Y-43100000D02*
X107500000Y-43100000D01*
X117410000Y-44100000D02*
X111330000Y-44100000D01*
X118660000Y-43100000D02*
X118660000Y-44100000D01*
X110150000Y-44100000D02*
X108500000Y-44100000D01*
X117411005Y-43100000D02*
X111330000Y-43100000D01*
X111330000Y-44100000D02*
X111330000Y-43100000D01*
X120300000Y-44100000D02*
X118660000Y-44100000D01*
X117411005Y-43100000D02*
X117410000Y-44100000D01*
X110150000Y-44100000D02*
X110150000Y-43100000D01*
X118650000Y-55900000D02*
X118650000Y-56900000D01*
X111381005Y-55900000D02*
X117460000Y-55900000D01*
X111380000Y-56900000D02*
X111381005Y-55900000D01*
X117460000Y-56900000D02*
X111380000Y-56900000D01*
X108500000Y-55900000D02*
X110120000Y-55900000D01*
X107500000Y-56900000D02*
X110120000Y-56900000D01*
X121300000Y-56900000D02*
X118650000Y-56900000D01*
X117460000Y-55900000D02*
X117460000Y-56900000D01*
X118650000Y-55900000D02*
X120300000Y-55900000D01*
X110120000Y-56900000D02*
X110120000Y-55900000D01*
X86667000Y-56694000D02*
X86667000Y-59694000D01*
X85667000Y-52634000D02*
X86667000Y-52634000D01*
X86667000Y-52634000D02*
X86667000Y-49494000D01*
X85667000Y-56694000D02*
X85667000Y-60694000D01*
X85667000Y-52634000D02*
X85667000Y-48494000D01*
X86667000Y-56694000D02*
X85667000Y-56694000D01*
X97467000Y-56554000D02*
X96467000Y-56554000D01*
X97467000Y-56554000D02*
X97467000Y-60694000D01*
X96467000Y-56554000D02*
X96467000Y-59694000D01*
X96467000Y-52494000D02*
X97467000Y-52494000D01*
X97467000Y-52494000D02*
X97467000Y-48494000D01*
X96467000Y-52494000D02*
X96467000Y-49494000D01*
X93597000Y-48494000D02*
X93597000Y-49494000D01*
X93597000Y-48494000D02*
X97467000Y-48494000D01*
X93597000Y-49494000D02*
X96467000Y-49494000D01*
X89537000Y-49494000D02*
X89537000Y-48494000D01*
X89537000Y-48494000D02*
X85667000Y-48494000D01*
X89537000Y-49494000D02*
X86667000Y-49494000D01*
X93597000Y-59694000D02*
X93597000Y-60694000D01*
X93597000Y-59694000D02*
X96467000Y-59694000D01*
X93597000Y-60694000D02*
X97467000Y-60694000D01*
X89537000Y-59694000D02*
X86667000Y-59694000D01*
X89537000Y-60694000D02*
X89537000Y-59694000D01*
X89537000Y-60694000D02*
X85667000Y-60694000D01*
X196500000Y-115450000D02*
X196500000Y-113830000D01*
X197500000Y-116450000D02*
X197500000Y-113830000D01*
X196500000Y-112568995D02*
X196500000Y-106490000D01*
X197500000Y-106490000D02*
X197500000Y-112570000D01*
X196500000Y-105300000D02*
X197500000Y-105300000D01*
X197500000Y-102650000D02*
X197500000Y-105300000D01*
X197500000Y-113830000D02*
X196500000Y-113830000D01*
X197500000Y-112570000D02*
X196500000Y-112568995D01*
X196500000Y-106490000D02*
X197500000Y-106490000D01*
X196500000Y-105300000D02*
X196500000Y-103650000D01*
X184700000Y-113800000D02*
X183700000Y-113800000D01*
X184700000Y-103650000D02*
X184700000Y-105270000D01*
X183700000Y-116450000D02*
X183700000Y-113800000D01*
X184700000Y-113800000D02*
X184700000Y-115450000D01*
X183700000Y-105270000D02*
X184700000Y-105270000D01*
X183700000Y-112610000D02*
X183700000Y-106530000D01*
X184700000Y-112610000D02*
X183700000Y-112610000D01*
X183700000Y-102650000D02*
X183700000Y-105270000D01*
X184700000Y-106531005D02*
X184700000Y-112610000D01*
X183700000Y-106530000D02*
X184700000Y-106531005D01*
X197500000Y-102650000D02*
X194860000Y-102650000D01*
X186350000Y-102650000D02*
X183700000Y-102650000D01*
X193610000Y-103650000D02*
X187530000Y-103650000D01*
X194860000Y-102650000D02*
X194860000Y-103650000D01*
X186350000Y-103650000D02*
X184700000Y-103650000D01*
X193611005Y-102650000D02*
X187530000Y-102650000D01*
X187530000Y-103650000D02*
X187530000Y-102650000D01*
X196500000Y-103650000D02*
X194860000Y-103650000D01*
X193611005Y-102650000D02*
X193610000Y-103650000D01*
X186350000Y-103650000D02*
X186350000Y-102650000D01*
X194850000Y-115450000D02*
X194850000Y-116450000D01*
X187581005Y-115450000D02*
X193660000Y-115450000D01*
X187580000Y-116450000D02*
X187581005Y-115450000D01*
X193660000Y-116450000D02*
X187580000Y-116450000D01*
X184700000Y-115450000D02*
X186320000Y-115450000D01*
X183700000Y-116450000D02*
X186320000Y-116450000D01*
X197500000Y-116450000D02*
X194850000Y-116450000D01*
X193660000Y-115450000D02*
X193660000Y-116450000D01*
X194850000Y-115450000D02*
X196500000Y-115450000D01*
X186320000Y-116450000D02*
X186320000Y-115450000D01*
X167850000Y-129700000D02*
X167850000Y-128080000D01*
X168850000Y-130700000D02*
X168850000Y-128080000D01*
X167850000Y-126818995D02*
X167850000Y-120740000D01*
X168850000Y-120740000D02*
X168850000Y-126820000D01*
X167850000Y-119550000D02*
X168850000Y-119550000D01*
X168850000Y-116900000D02*
X168850000Y-119550000D01*
X168850000Y-128080000D02*
X167850000Y-128080000D01*
X168850000Y-126820000D02*
X167850000Y-126818995D01*
X167850000Y-120740000D02*
X168850000Y-120740000D01*
X167850000Y-119550000D02*
X167850000Y-117900000D01*
X156050000Y-128050000D02*
X155050000Y-128050000D01*
X156050000Y-117900000D02*
X156050000Y-119520000D01*
X155050000Y-130700000D02*
X155050000Y-128050000D01*
X156050000Y-128050000D02*
X156050000Y-129700000D01*
X155050000Y-119520000D02*
X156050000Y-119520000D01*
X155050000Y-126860000D02*
X155050000Y-120780000D01*
X156050000Y-126860000D02*
X155050000Y-126860000D01*
X155050000Y-116900000D02*
X155050000Y-119520000D01*
X156050000Y-120781005D02*
X156050000Y-126860000D01*
X155050000Y-120780000D02*
X156050000Y-120781005D01*
X168850000Y-116900000D02*
X166210000Y-116900000D01*
X157700000Y-116900000D02*
X155050000Y-116900000D01*
X164960000Y-117900000D02*
X158880000Y-117900000D01*
X166210000Y-116900000D02*
X166210000Y-117900000D01*
X157700000Y-117900000D02*
X156050000Y-117900000D01*
X164961005Y-116900000D02*
X158880000Y-116900000D01*
X158880000Y-117900000D02*
X158880000Y-116900000D01*
X167850000Y-117900000D02*
X166210000Y-117900000D01*
X164961005Y-116900000D02*
X164960000Y-117900000D01*
X157700000Y-117900000D02*
X157700000Y-116900000D01*
X166200000Y-129700000D02*
X166200000Y-130700000D01*
X158931005Y-129700000D02*
X165010000Y-129700000D01*
X158930000Y-130700000D02*
X158931005Y-129700000D01*
X165010000Y-130700000D02*
X158930000Y-130700000D01*
X156050000Y-129700000D02*
X157670000Y-129700000D01*
X155050000Y-130700000D02*
X157670000Y-130700000D01*
X168850000Y-130700000D02*
X166200000Y-130700000D01*
X165010000Y-129700000D02*
X165010000Y-130700000D01*
X166200000Y-129700000D02*
X167850000Y-129700000D01*
X157670000Y-130700000D02*
X157670000Y-129700000D01*
X148797700Y-130728300D02*
X148797700Y-129108300D01*
X149797700Y-131728300D02*
X149797700Y-129108300D01*
X148797700Y-127847295D02*
X148797700Y-121768300D01*
X149797700Y-121768300D02*
X149797700Y-127848300D01*
X148797700Y-120578300D02*
X149797700Y-120578300D01*
X149797700Y-117928300D02*
X149797700Y-120578300D01*
X149797700Y-129108300D02*
X148797700Y-129108300D01*
X149797700Y-127848300D02*
X148797700Y-127847295D01*
X148797700Y-121768300D02*
X149797700Y-121768300D01*
X148797700Y-120578300D02*
X148797700Y-118928300D01*
X136997700Y-129078300D02*
X135997700Y-129078300D01*
X136997700Y-118928300D02*
X136997700Y-120548300D01*
X135997700Y-131728300D02*
X135997700Y-129078300D01*
X136997700Y-129078300D02*
X136997700Y-130728300D01*
X135997700Y-120548300D02*
X136997700Y-120548300D01*
X135997700Y-127888300D02*
X135997700Y-121808300D01*
X136997700Y-127888300D02*
X135997700Y-127888300D01*
X135997700Y-117928300D02*
X135997700Y-120548300D01*
X136997700Y-121809305D02*
X136997700Y-127888300D01*
X135997700Y-121808300D02*
X136997700Y-121809305D01*
X149797700Y-117928300D02*
X147157700Y-117928300D01*
X138647700Y-117928300D02*
X135997700Y-117928300D01*
X145907700Y-118928300D02*
X139827700Y-118928300D01*
X147157700Y-117928300D02*
X147157700Y-118928300D01*
X138647700Y-118928300D02*
X136997700Y-118928300D01*
X145908705Y-117928300D02*
X139827700Y-117928300D01*
X139827700Y-118928300D02*
X139827700Y-117928300D01*
X148797700Y-118928300D02*
X147157700Y-118928300D01*
X145908705Y-117928300D02*
X145907700Y-118928300D01*
X138647700Y-118928300D02*
X138647700Y-117928300D01*
X147147700Y-130728300D02*
X147147700Y-131728300D01*
X139878705Y-130728300D02*
X145957700Y-130728300D01*
X139877700Y-131728300D02*
X139878705Y-130728300D01*
X145957700Y-131728300D02*
X139877700Y-131728300D01*
X136997700Y-130728300D02*
X138617700Y-130728300D01*
X135997700Y-131728300D02*
X138617700Y-131728300D01*
X149797700Y-131728300D02*
X147147700Y-131728300D01*
X145957700Y-130728300D02*
X145957700Y-131728300D01*
X147147700Y-130728300D02*
X148797700Y-130728300D01*
X138617700Y-131728300D02*
X138617700Y-130728300D01*
X129750000Y-132100000D02*
X129750000Y-130480000D01*
X130750000Y-133100000D02*
X130750000Y-130480000D01*
X129750000Y-129218995D02*
X129750000Y-123140000D01*
X130750000Y-123140000D02*
X130750000Y-129220000D01*
X129750000Y-121950000D02*
X130750000Y-121950000D01*
X130750000Y-119300000D02*
X130750000Y-121950000D01*
X130750000Y-130480000D02*
X129750000Y-130480000D01*
X130750000Y-129220000D02*
X129750000Y-129218995D01*
X129750000Y-123140000D02*
X130750000Y-123140000D01*
X129750000Y-121950000D02*
X129750000Y-120300000D01*
X117950000Y-130450000D02*
X116950000Y-130450000D01*
X117950000Y-120300000D02*
X117950000Y-121920000D01*
X116950000Y-133100000D02*
X116950000Y-130450000D01*
X117950000Y-130450000D02*
X117950000Y-132100000D01*
X116950000Y-121920000D02*
X117950000Y-121920000D01*
X116950000Y-129260000D02*
X116950000Y-123180000D01*
X117950000Y-129260000D02*
X116950000Y-129260000D01*
X116950000Y-119300000D02*
X116950000Y-121920000D01*
X117950000Y-123181005D02*
X117950000Y-129260000D01*
X116950000Y-123180000D02*
X117950000Y-123181005D01*
X130750000Y-119300000D02*
X128110000Y-119300000D01*
X119600000Y-119300000D02*
X116950000Y-119300000D01*
X126860000Y-120300000D02*
X120780000Y-120300000D01*
X128110000Y-119300000D02*
X128110000Y-120300000D01*
X119600000Y-120300000D02*
X117950000Y-120300000D01*
X126861005Y-119300000D02*
X120780000Y-119300000D01*
X120780000Y-120300000D02*
X120780000Y-119300000D01*
X129750000Y-120300000D02*
X128110000Y-120300000D01*
X126861005Y-119300000D02*
X126860000Y-120300000D01*
X119600000Y-120300000D02*
X119600000Y-119300000D01*
X128100000Y-132100000D02*
X128100000Y-133100000D01*
X120831005Y-132100000D02*
X126910000Y-132100000D01*
X120830000Y-133100000D02*
X120831005Y-132100000D01*
X126910000Y-133100000D02*
X120830000Y-133100000D01*
X117950000Y-132100000D02*
X119570000Y-132100000D01*
X116950000Y-133100000D02*
X119570000Y-133100000D01*
X130750000Y-133100000D02*
X128100000Y-133100000D01*
X126910000Y-132100000D02*
X126910000Y-133100000D01*
X128100000Y-132100000D02*
X129750000Y-132100000D01*
X119570000Y-133100000D02*
X119570000Y-132100000D01*
X96011450Y-134107050D02*
X97414411Y-133297050D01*
X95645425Y-135473075D02*
X97914411Y-134163075D01*
X98506474Y-132666547D02*
X103771038Y-129627050D01*
X104271038Y-130493075D02*
X99005603Y-133533075D01*
X104801608Y-129032050D02*
X105301608Y-129898075D01*
X107596575Y-128573075D02*
X105301608Y-129898075D01*
X97914411Y-134163075D02*
X97414411Y-133297050D01*
X99005603Y-133533075D02*
X98506474Y-132666547D01*
X103771038Y-129627050D02*
X104271038Y-130493075D01*
X104801608Y-129032050D02*
X106230550Y-128207050D01*
X91540392Y-123062950D02*
X91040392Y-122196925D01*
X100330550Y-117987950D02*
X98927589Y-118797950D01*
X88745425Y-123521925D02*
X91040392Y-122196925D01*
X91540392Y-123062950D02*
X90111450Y-123887950D01*
X98427589Y-117931925D02*
X98927589Y-118797950D01*
X92070962Y-121601925D02*
X97336397Y-118561925D01*
X92570962Y-122467950D02*
X92070962Y-121601925D01*
X100696575Y-116621925D02*
X98427589Y-117931925D01*
X97835526Y-119428453D02*
X92570962Y-122467950D01*
X97336397Y-118561925D02*
X97835526Y-119428453D01*
X107596575Y-128573075D02*
X106276575Y-126286768D01*
X102021575Y-118916892D02*
X100696575Y-116621925D01*
X104785550Y-125704236D02*
X101745550Y-120438802D01*
X106276575Y-126286768D02*
X105410550Y-126786768D01*
X101155550Y-119416892D02*
X100330550Y-117987950D01*
X105652078Y-125205107D02*
X102611575Y-119938802D01*
X101745550Y-120438802D02*
X102611575Y-119938802D01*
X106230550Y-128207050D02*
X105410550Y-126786768D01*
X105652078Y-125205107D02*
X104785550Y-125704236D01*
X101155550Y-119416892D02*
X102021575Y-118916892D01*
X95186450Y-132678108D02*
X94320425Y-133178108D01*
X91551953Y-126382974D02*
X94591450Y-131647538D01*
X90685425Y-126882103D02*
X91551953Y-126382974D01*
X93725425Y-132147538D02*
X90685425Y-126882103D01*
X90111450Y-123887950D02*
X90921450Y-125290911D01*
X88745425Y-123521925D02*
X90055425Y-125790911D01*
X95645425Y-135473075D02*
X94320425Y-133178108D01*
X94591450Y-131647538D02*
X93725425Y-132147538D01*
X95186450Y-132678108D02*
X96011450Y-134107050D01*
X90055425Y-125790911D02*
X90921450Y-125290911D01*
X96374800Y-104185300D02*
X96374800Y-102565300D01*
X97374800Y-105185300D02*
X97374800Y-102565300D01*
X96374800Y-101304295D02*
X96374800Y-95225300D01*
X97374800Y-95225300D02*
X97374800Y-101305300D01*
X96374800Y-94035300D02*
X97374800Y-94035300D01*
X97374800Y-91385300D02*
X97374800Y-94035300D01*
X97374800Y-102565300D02*
X96374800Y-102565300D01*
X97374800Y-101305300D02*
X96374800Y-101304295D01*
X96374800Y-95225300D02*
X97374800Y-95225300D01*
X96374800Y-94035300D02*
X96374800Y-92385300D01*
X84574800Y-102535300D02*
X83574800Y-102535300D01*
X84574800Y-92385300D02*
X84574800Y-94005300D01*
X83574800Y-105185300D02*
X83574800Y-102535300D01*
X84574800Y-102535300D02*
X84574800Y-104185300D01*
X83574800Y-94005300D02*
X84574800Y-94005300D01*
X83574800Y-101345300D02*
X83574800Y-95265300D01*
X84574800Y-101345300D02*
X83574800Y-101345300D01*
X83574800Y-91385300D02*
X83574800Y-94005300D01*
X84574800Y-95266305D02*
X84574800Y-101345300D01*
X83574800Y-95265300D02*
X84574800Y-95266305D01*
X97374800Y-91385300D02*
X94734800Y-91385300D01*
X86224800Y-91385300D02*
X83574800Y-91385300D01*
X93484800Y-92385300D02*
X87404800Y-92385300D01*
X94734800Y-91385300D02*
X94734800Y-92385300D01*
X86224800Y-92385300D02*
X84574800Y-92385300D01*
X93485805Y-91385300D02*
X87404800Y-91385300D01*
X87404800Y-92385300D02*
X87404800Y-91385300D01*
X96374800Y-92385300D02*
X94734800Y-92385300D01*
X93485805Y-91385300D02*
X93484800Y-92385300D01*
X86224800Y-92385300D02*
X86224800Y-91385300D01*
X94724800Y-104185300D02*
X94724800Y-105185300D01*
X87455805Y-104185300D02*
X93534800Y-104185300D01*
X87454800Y-105185300D02*
X87455805Y-104185300D01*
X93534800Y-105185300D02*
X87454800Y-105185300D01*
X84574800Y-104185300D02*
X86194800Y-104185300D01*
X83574800Y-105185300D02*
X86194800Y-105185300D01*
X97374800Y-105185300D02*
X94724800Y-105185300D01*
X93534800Y-104185300D02*
X93534800Y-105185300D01*
X94724800Y-104185300D02*
X96374800Y-104185300D01*
X86194800Y-105185300D02*
X86194800Y-104185300D01*
X215550000Y-116950000D02*
X215550000Y-115330000D01*
X216550000Y-117950000D02*
X216550000Y-115330000D01*
X215550000Y-114068995D02*
X215550000Y-107990000D01*
X216550000Y-107990000D02*
X216550000Y-114070000D01*
X215550000Y-106800000D02*
X216550000Y-106800000D01*
X216550000Y-104150000D02*
X216550000Y-106800000D01*
X216550000Y-115330000D02*
X215550000Y-115330000D01*
X216550000Y-114070000D02*
X215550000Y-114068995D01*
X215550000Y-107990000D02*
X216550000Y-107990000D01*
X215550000Y-106800000D02*
X215550000Y-105150000D01*
X203750000Y-115300000D02*
X202750000Y-115300000D01*
X203750000Y-105150000D02*
X203750000Y-106770000D01*
X202750000Y-117950000D02*
X202750000Y-115300000D01*
X203750000Y-115300000D02*
X203750000Y-116950000D01*
X202750000Y-106770000D02*
X203750000Y-106770000D01*
X202750000Y-114110000D02*
X202750000Y-108030000D01*
X203750000Y-114110000D02*
X202750000Y-114110000D01*
X202750000Y-104150000D02*
X202750000Y-106770000D01*
X203750000Y-108031005D02*
X203750000Y-114110000D01*
X202750000Y-108030000D02*
X203750000Y-108031005D01*
X216550000Y-104150000D02*
X213910000Y-104150000D01*
X205400000Y-104150000D02*
X202750000Y-104150000D01*
X212660000Y-105150000D02*
X206580000Y-105150000D01*
X213910000Y-104150000D02*
X213910000Y-105150000D01*
X205400000Y-105150000D02*
X203750000Y-105150000D01*
X212661005Y-104150000D02*
X206580000Y-104150000D01*
X206580000Y-105150000D02*
X206580000Y-104150000D01*
X215550000Y-105150000D02*
X213910000Y-105150000D01*
X212661005Y-104150000D02*
X212660000Y-105150000D01*
X205400000Y-105150000D02*
X205400000Y-104150000D01*
X213900000Y-116950000D02*
X213900000Y-117950000D01*
X206631005Y-116950000D02*
X212710000Y-116950000D01*
X206630000Y-117950000D02*
X206631005Y-116950000D01*
X212710000Y-117950000D02*
X206630000Y-117950000D01*
X203750000Y-116950000D02*
X205370000Y-116950000D01*
X202750000Y-117950000D02*
X205370000Y-117950000D01*
X216550000Y-117950000D02*
X213900000Y-117950000D01*
X212710000Y-116950000D02*
X212710000Y-117950000D01*
X213900000Y-116950000D02*
X215550000Y-116950000D01*
X205370000Y-117950000D02*
X205370000Y-116950000D01*
X177450000Y-110650000D02*
X177450000Y-109030000D01*
X178450000Y-111650000D02*
X178450000Y-109030000D01*
X177450000Y-107768995D02*
X177450000Y-101690000D01*
X178450000Y-101690000D02*
X178450000Y-107770000D01*
X177450000Y-100500000D02*
X178450000Y-100500000D01*
X178450000Y-97850000D02*
X178450000Y-100500000D01*
X178450000Y-109030000D02*
X177450000Y-109030000D01*
X178450000Y-107770000D02*
X177450000Y-107768995D01*
X177450000Y-101690000D02*
X178450000Y-101690000D01*
X177450000Y-100500000D02*
X177450000Y-98850000D01*
X165650000Y-109000000D02*
X164650000Y-109000000D01*
X165650000Y-98850000D02*
X165650000Y-100470000D01*
X164650000Y-111650000D02*
X164650000Y-109000000D01*
X165650000Y-109000000D02*
X165650000Y-110650000D01*
X164650000Y-100470000D02*
X165650000Y-100470000D01*
X164650000Y-107810000D02*
X164650000Y-101730000D01*
X165650000Y-107810000D02*
X164650000Y-107810000D01*
X164650000Y-97850000D02*
X164650000Y-100470000D01*
X165650000Y-101731005D02*
X165650000Y-107810000D01*
X164650000Y-101730000D02*
X165650000Y-101731005D01*
X178450000Y-97850000D02*
X175810000Y-97850000D01*
X167300000Y-97850000D02*
X164650000Y-97850000D01*
X174560000Y-98850000D02*
X168480000Y-98850000D01*
X175810000Y-97850000D02*
X175810000Y-98850000D01*
X167300000Y-98850000D02*
X165650000Y-98850000D01*
X174561005Y-97850000D02*
X168480000Y-97850000D01*
X168480000Y-98850000D02*
X168480000Y-97850000D01*
X177450000Y-98850000D02*
X175810000Y-98850000D01*
X174561005Y-97850000D02*
X174560000Y-98850000D01*
X167300000Y-98850000D02*
X167300000Y-97850000D01*
X175800000Y-110650000D02*
X175800000Y-111650000D01*
X168531005Y-110650000D02*
X174610000Y-110650000D01*
X168530000Y-111650000D02*
X168531005Y-110650000D01*
X174610000Y-111650000D02*
X168530000Y-111650000D01*
X165650000Y-110650000D02*
X167270000Y-110650000D01*
X164650000Y-111650000D02*
X167270000Y-111650000D01*
X178450000Y-111650000D02*
X175800000Y-111650000D01*
X174610000Y-110650000D02*
X174610000Y-111650000D01*
X175800000Y-110650000D02*
X177450000Y-110650000D01*
X167270000Y-111650000D02*
X167270000Y-110650000D01*
X158400000Y-109260000D02*
X158400000Y-107640000D01*
X159400000Y-110260000D02*
X159400000Y-107640000D01*
X158400000Y-106378995D02*
X158400000Y-100300000D01*
X159400000Y-100300000D02*
X159400000Y-106380000D01*
X158400000Y-99110000D02*
X159400000Y-99110000D01*
X159400000Y-96460000D02*
X159400000Y-99110000D01*
X159400000Y-107640000D02*
X158400000Y-107640000D01*
X159400000Y-106380000D02*
X158400000Y-106378995D01*
X158400000Y-100300000D02*
X159400000Y-100300000D01*
X158400000Y-99110000D02*
X158400000Y-97460000D01*
X146600000Y-107610000D02*
X145600000Y-107610000D01*
X146600000Y-97460000D02*
X146600000Y-99080000D01*
X145600000Y-110260000D02*
X145600000Y-107610000D01*
X146600000Y-107610000D02*
X146600000Y-109260000D01*
X145600000Y-99080000D02*
X146600000Y-99080000D01*
X145600000Y-106420000D02*
X145600000Y-100340000D01*
X146600000Y-106420000D02*
X145600000Y-106420000D01*
X145600000Y-96460000D02*
X145600000Y-99080000D01*
X146600000Y-100341005D02*
X146600000Y-106420000D01*
X145600000Y-100340000D02*
X146600000Y-100341005D01*
X159400000Y-96460000D02*
X156760000Y-96460000D01*
X148250000Y-96460000D02*
X145600000Y-96460000D01*
X155510000Y-97460000D02*
X149430000Y-97460000D01*
X156760000Y-96460000D02*
X156760000Y-97460000D01*
X148250000Y-97460000D02*
X146600000Y-97460000D01*
X155511005Y-96460000D02*
X149430000Y-96460000D01*
X149430000Y-97460000D02*
X149430000Y-96460000D01*
X158400000Y-97460000D02*
X156760000Y-97460000D01*
X155511005Y-96460000D02*
X155510000Y-97460000D01*
X148250000Y-97460000D02*
X148250000Y-96460000D01*
X156750000Y-109260000D02*
X156750000Y-110260000D01*
X149481005Y-109260000D02*
X155560000Y-109260000D01*
X149480000Y-110260000D02*
X149481005Y-109260000D01*
X155560000Y-110260000D02*
X149480000Y-110260000D01*
X146600000Y-109260000D02*
X148220000Y-109260000D01*
X145600000Y-110260000D02*
X148220000Y-110260000D01*
X159400000Y-110260000D02*
X156750000Y-110260000D01*
X155560000Y-109260000D02*
X155560000Y-110260000D01*
X156750000Y-109260000D02*
X158400000Y-109260000D01*
X148220000Y-110260000D02*
X148220000Y-109260000D01*
X139350000Y-110650000D02*
X139350000Y-109030000D01*
X140350000Y-111650000D02*
X140350000Y-109030000D01*
X139350000Y-107768995D02*
X139350000Y-101690000D01*
X140350000Y-101690000D02*
X140350000Y-107770000D01*
X139350000Y-100500000D02*
X140350000Y-100500000D01*
X140350000Y-97850000D02*
X140350000Y-100500000D01*
X140350000Y-109030000D02*
X139350000Y-109030000D01*
X140350000Y-107770000D02*
X139350000Y-107768995D01*
X139350000Y-101690000D02*
X140350000Y-101690000D01*
X139350000Y-100500000D02*
X139350000Y-98850000D01*
X127550000Y-109000000D02*
X126550000Y-109000000D01*
X127550000Y-98850000D02*
X127550000Y-100470000D01*
X126550000Y-111650000D02*
X126550000Y-109000000D01*
X127550000Y-109000000D02*
X127550000Y-110650000D01*
X126550000Y-100470000D02*
X127550000Y-100470000D01*
X126550000Y-107810000D02*
X126550000Y-101730000D01*
X127550000Y-107810000D02*
X126550000Y-107810000D01*
X126550000Y-97850000D02*
X126550000Y-100470000D01*
X127550000Y-101731005D02*
X127550000Y-107810000D01*
X126550000Y-101730000D02*
X127550000Y-101731005D01*
X140350000Y-97850000D02*
X137710000Y-97850000D01*
X129200000Y-97850000D02*
X126550000Y-97850000D01*
X136460000Y-98850000D02*
X130380000Y-98850000D01*
X137710000Y-97850000D02*
X137710000Y-98850000D01*
X129200000Y-98850000D02*
X127550000Y-98850000D01*
X136461005Y-97850000D02*
X130380000Y-97850000D01*
X130380000Y-98850000D02*
X130380000Y-97850000D01*
X139350000Y-98850000D02*
X137710000Y-98850000D01*
X136461005Y-97850000D02*
X136460000Y-98850000D01*
X129200000Y-98850000D02*
X129200000Y-97850000D01*
X137700000Y-110650000D02*
X137700000Y-111650000D01*
X130431005Y-110650000D02*
X136510000Y-110650000D01*
X130430000Y-111650000D02*
X130431005Y-110650000D01*
X136510000Y-111650000D02*
X130430000Y-111650000D01*
X127550000Y-110650000D02*
X129170000Y-110650000D01*
X126550000Y-111650000D02*
X129170000Y-111650000D01*
X140350000Y-111650000D02*
X137700000Y-111650000D01*
X136510000Y-110650000D02*
X136510000Y-111650000D01*
X137700000Y-110650000D02*
X139350000Y-110650000D01*
X129170000Y-111650000D02*
X129170000Y-110650000D01*
X120300000Y-113050000D02*
X120300000Y-111430000D01*
X121300000Y-114050000D02*
X121300000Y-111430000D01*
X120300000Y-110168995D02*
X120300000Y-104090000D01*
X121300000Y-104090000D02*
X121300000Y-110170000D01*
X120300000Y-102900000D02*
X121300000Y-102900000D01*
X121300000Y-100250000D02*
X121300000Y-102900000D01*
X121300000Y-111430000D02*
X120300000Y-111430000D01*
X121300000Y-110170000D02*
X120300000Y-110168995D01*
X120300000Y-104090000D02*
X121300000Y-104090000D01*
X120300000Y-102900000D02*
X120300000Y-101250000D01*
X108500000Y-111400000D02*
X107500000Y-111400000D01*
X108500000Y-101250000D02*
X108500000Y-102870000D01*
X107500000Y-114050000D02*
X107500000Y-111400000D01*
X108500000Y-111400000D02*
X108500000Y-113050000D01*
X107500000Y-102870000D02*
X108500000Y-102870000D01*
X107500000Y-110210000D02*
X107500000Y-104130000D01*
X108500000Y-110210000D02*
X107500000Y-110210000D01*
X107500000Y-100250000D02*
X107500000Y-102870000D01*
X108500000Y-104131005D02*
X108500000Y-110210000D01*
X107500000Y-104130000D02*
X108500000Y-104131005D01*
X121300000Y-100250000D02*
X118660000Y-100250000D01*
X110150000Y-100250000D02*
X107500000Y-100250000D01*
X117410000Y-101250000D02*
X111330000Y-101250000D01*
X118660000Y-100250000D02*
X118660000Y-101250000D01*
X110150000Y-101250000D02*
X108500000Y-101250000D01*
X117411005Y-100250000D02*
X111330000Y-100250000D01*
X111330000Y-101250000D02*
X111330000Y-100250000D01*
X120300000Y-101250000D02*
X118660000Y-101250000D01*
X117411005Y-100250000D02*
X117410000Y-101250000D01*
X110150000Y-101250000D02*
X110150000Y-100250000D01*
X118650000Y-113050000D02*
X118650000Y-114050000D01*
X111381005Y-113050000D02*
X117460000Y-113050000D01*
X111380000Y-114050000D02*
X111381005Y-113050000D01*
X117460000Y-114050000D02*
X111380000Y-114050000D01*
X108500000Y-113050000D02*
X110120000Y-113050000D01*
X107500000Y-114050000D02*
X110120000Y-114050000D01*
X121300000Y-114050000D02*
X118650000Y-114050000D01*
X117460000Y-113050000D02*
X117460000Y-114050000D01*
X118650000Y-113050000D02*
X120300000Y-113050000D01*
X110120000Y-114050000D02*
X110120000Y-113050000D01*
X215550000Y-97900000D02*
X215550000Y-96280000D01*
X216550000Y-98900000D02*
X216550000Y-96280000D01*
X215550000Y-95018995D02*
X215550000Y-88940000D01*
X216550000Y-88940000D02*
X216550000Y-95020000D01*
X215550000Y-87750000D02*
X216550000Y-87750000D01*
X216550000Y-85100000D02*
X216550000Y-87750000D01*
X216550000Y-96280000D02*
X215550000Y-96280000D01*
X216550000Y-95020000D02*
X215550000Y-95018995D01*
X215550000Y-88940000D02*
X216550000Y-88940000D01*
X215550000Y-87750000D02*
X215550000Y-86100000D01*
X203750000Y-96250000D02*
X202750000Y-96250000D01*
X203750000Y-86100000D02*
X203750000Y-87720000D01*
X202750000Y-98900000D02*
X202750000Y-96250000D01*
X203750000Y-96250000D02*
X203750000Y-97900000D01*
X202750000Y-87720000D02*
X203750000Y-87720000D01*
X202750000Y-95060000D02*
X202750000Y-88980000D01*
X203750000Y-95060000D02*
X202750000Y-95060000D01*
X202750000Y-85100000D02*
X202750000Y-87720000D01*
X203750000Y-88981005D02*
X203750000Y-95060000D01*
X202750000Y-88980000D02*
X203750000Y-88981005D01*
X216550000Y-85100000D02*
X213910000Y-85100000D01*
X205400000Y-85100000D02*
X202750000Y-85100000D01*
X212660000Y-86100000D02*
X206580000Y-86100000D01*
X213910000Y-85100000D02*
X213910000Y-86100000D01*
X205400000Y-86100000D02*
X203750000Y-86100000D01*
X212661005Y-85100000D02*
X206580000Y-85100000D01*
X206580000Y-86100000D02*
X206580000Y-85100000D01*
X215550000Y-86100000D02*
X213910000Y-86100000D01*
X212661005Y-85100000D02*
X212660000Y-86100000D01*
X205400000Y-86100000D02*
X205400000Y-85100000D01*
X213900000Y-97900000D02*
X213900000Y-98900000D01*
X206631005Y-97900000D02*
X212710000Y-97900000D01*
X206630000Y-98900000D02*
X206631005Y-97900000D01*
X212710000Y-98900000D02*
X206630000Y-98900000D01*
X203750000Y-97900000D02*
X205370000Y-97900000D01*
X202750000Y-98900000D02*
X205370000Y-98900000D01*
X216550000Y-98900000D02*
X213900000Y-98900000D01*
X212710000Y-97900000D02*
X212710000Y-98900000D01*
X213900000Y-97900000D02*
X215550000Y-97900000D01*
X205370000Y-98900000D02*
X205370000Y-97900000D01*
X196500000Y-96400000D02*
X196500000Y-94780000D01*
X197500000Y-97400000D02*
X197500000Y-94780000D01*
X196500000Y-93518995D02*
X196500000Y-87440000D01*
X197500000Y-87440000D02*
X197500000Y-93520000D01*
X196500000Y-86250000D02*
X197500000Y-86250000D01*
X197500000Y-83600000D02*
X197500000Y-86250000D01*
X197500000Y-94780000D02*
X196500000Y-94780000D01*
X197500000Y-93520000D02*
X196500000Y-93518995D01*
X196500000Y-87440000D02*
X197500000Y-87440000D01*
X196500000Y-86250000D02*
X196500000Y-84600000D01*
X184700000Y-94750000D02*
X183700000Y-94750000D01*
X184700000Y-84600000D02*
X184700000Y-86220000D01*
X183700000Y-97400000D02*
X183700000Y-94750000D01*
X184700000Y-94750000D02*
X184700000Y-96400000D01*
X183700000Y-86220000D02*
X184700000Y-86220000D01*
X183700000Y-93560000D02*
X183700000Y-87480000D01*
X184700000Y-93560000D02*
X183700000Y-93560000D01*
X183700000Y-83600000D02*
X183700000Y-86220000D01*
X184700000Y-87481005D02*
X184700000Y-93560000D01*
X183700000Y-87480000D02*
X184700000Y-87481005D01*
X197500000Y-83600000D02*
X194860000Y-83600000D01*
X186350000Y-83600000D02*
X183700000Y-83600000D01*
X193610000Y-84600000D02*
X187530000Y-84600000D01*
X194860000Y-83600000D02*
X194860000Y-84600000D01*
X186350000Y-84600000D02*
X184700000Y-84600000D01*
X193611005Y-83600000D02*
X187530000Y-83600000D01*
X187530000Y-84600000D02*
X187530000Y-83600000D01*
X196500000Y-84600000D02*
X194860000Y-84600000D01*
X193611005Y-83600000D02*
X193610000Y-84600000D01*
X186350000Y-84600000D02*
X186350000Y-83600000D01*
X194850000Y-96400000D02*
X194850000Y-97400000D01*
X187581005Y-96400000D02*
X193660000Y-96400000D01*
X187580000Y-97400000D02*
X187581005Y-96400000D01*
X193660000Y-97400000D02*
X187580000Y-97400000D01*
X184700000Y-96400000D02*
X186320000Y-96400000D01*
X183700000Y-97400000D02*
X186320000Y-97400000D01*
X197500000Y-97400000D02*
X194850000Y-97400000D01*
X193660000Y-96400000D02*
X193660000Y-97400000D01*
X194850000Y-96400000D02*
X196500000Y-96400000D01*
X186320000Y-97400000D02*
X186320000Y-96400000D01*
X177450000Y-91600000D02*
X177450000Y-89980000D01*
X178450000Y-92600000D02*
X178450000Y-89980000D01*
X177450000Y-88718995D02*
X177450000Y-82640000D01*
X178450000Y-82640000D02*
X178450000Y-88720000D01*
X177450000Y-81450000D02*
X178450000Y-81450000D01*
X178450000Y-78800000D02*
X178450000Y-81450000D01*
X178450000Y-89980000D02*
X177450000Y-89980000D01*
X178450000Y-88720000D02*
X177450000Y-88718995D01*
X177450000Y-82640000D02*
X178450000Y-82640000D01*
X177450000Y-81450000D02*
X177450000Y-79800000D01*
X165650000Y-89950000D02*
X164650000Y-89950000D01*
X165650000Y-79800000D02*
X165650000Y-81420000D01*
X164650000Y-92600000D02*
X164650000Y-89950000D01*
X165650000Y-89950000D02*
X165650000Y-91600000D01*
X164650000Y-81420000D02*
X165650000Y-81420000D01*
X164650000Y-88760000D02*
X164650000Y-82680000D01*
X165650000Y-88760000D02*
X164650000Y-88760000D01*
X164650000Y-78800000D02*
X164650000Y-81420000D01*
X165650000Y-82681005D02*
X165650000Y-88760000D01*
X164650000Y-82680000D02*
X165650000Y-82681005D01*
X178450000Y-78800000D02*
X175810000Y-78800000D01*
X167300000Y-78800000D02*
X164650000Y-78800000D01*
X174560000Y-79800000D02*
X168480000Y-79800000D01*
X175810000Y-78800000D02*
X175810000Y-79800000D01*
X167300000Y-79800000D02*
X165650000Y-79800000D01*
X174561005Y-78800000D02*
X168480000Y-78800000D01*
X168480000Y-79800000D02*
X168480000Y-78800000D01*
X177450000Y-79800000D02*
X175810000Y-79800000D01*
X174561005Y-78800000D02*
X174560000Y-79800000D01*
X167300000Y-79800000D02*
X167300000Y-78800000D01*
X175800000Y-91600000D02*
X175800000Y-92600000D01*
X168531005Y-91600000D02*
X174610000Y-91600000D01*
X168530000Y-92600000D02*
X168531005Y-91600000D01*
X174610000Y-92600000D02*
X168530000Y-92600000D01*
X165650000Y-91600000D02*
X167270000Y-91600000D01*
X164650000Y-92600000D02*
X167270000Y-92600000D01*
X178450000Y-92600000D02*
X175800000Y-92600000D01*
X174610000Y-91600000D02*
X174610000Y-92600000D01*
X175800000Y-91600000D02*
X177450000Y-91600000D01*
X167270000Y-92600000D02*
X167270000Y-91600000D01*
X158400000Y-90210000D02*
X158400000Y-88590000D01*
X159400000Y-91210000D02*
X159400000Y-88590000D01*
X158400000Y-87328995D02*
X158400000Y-81250000D01*
X159400000Y-81250000D02*
X159400000Y-87330000D01*
X158400000Y-80060000D02*
X159400000Y-80060000D01*
X159400000Y-77410000D02*
X159400000Y-80060000D01*
X159400000Y-88590000D02*
X158400000Y-88590000D01*
X159400000Y-87330000D02*
X158400000Y-87328995D01*
X158400000Y-81250000D02*
X159400000Y-81250000D01*
X158400000Y-80060000D02*
X158400000Y-78410000D01*
X146600000Y-88560000D02*
X145600000Y-88560000D01*
X146600000Y-78410000D02*
X146600000Y-80030000D01*
X145600000Y-91210000D02*
X145600000Y-88560000D01*
X146600000Y-88560000D02*
X146600000Y-90210000D01*
X145600000Y-80030000D02*
X146600000Y-80030000D01*
X145600000Y-87370000D02*
X145600000Y-81290000D01*
X146600000Y-87370000D02*
X145600000Y-87370000D01*
X145600000Y-77410000D02*
X145600000Y-80030000D01*
X146600000Y-81291005D02*
X146600000Y-87370000D01*
X145600000Y-81290000D02*
X146600000Y-81291005D01*
X159400000Y-77410000D02*
X156760000Y-77410000D01*
X148250000Y-77410000D02*
X145600000Y-77410000D01*
X155510000Y-78410000D02*
X149430000Y-78410000D01*
X156760000Y-77410000D02*
X156760000Y-78410000D01*
X148250000Y-78410000D02*
X146600000Y-78410000D01*
X155511005Y-77410000D02*
X149430000Y-77410000D01*
X149430000Y-78410000D02*
X149430000Y-77410000D01*
X158400000Y-78410000D02*
X156760000Y-78410000D01*
X155511005Y-77410000D02*
X155510000Y-78410000D01*
X148250000Y-78410000D02*
X148250000Y-77410000D01*
X156750000Y-90210000D02*
X156750000Y-91210000D01*
X149481005Y-90210000D02*
X155560000Y-90210000D01*
X149480000Y-91210000D02*
X149481005Y-90210000D01*
X155560000Y-91210000D02*
X149480000Y-91210000D01*
X146600000Y-90210000D02*
X148220000Y-90210000D01*
X145600000Y-91210000D02*
X148220000Y-91210000D01*
X159400000Y-91210000D02*
X156750000Y-91210000D01*
X155560000Y-90210000D02*
X155560000Y-91210000D01*
X156750000Y-90210000D02*
X158400000Y-90210000D01*
X148220000Y-91210000D02*
X148220000Y-90210000D01*
X139350000Y-91600000D02*
X139350000Y-89980000D01*
X140350000Y-92600000D02*
X140350000Y-89980000D01*
X139350000Y-88718995D02*
X139350000Y-82640000D01*
X140350000Y-82640000D02*
X140350000Y-88720000D01*
X139350000Y-81450000D02*
X140350000Y-81450000D01*
X140350000Y-78800000D02*
X140350000Y-81450000D01*
X140350000Y-89980000D02*
X139350000Y-89980000D01*
X140350000Y-88720000D02*
X139350000Y-88718995D01*
X139350000Y-82640000D02*
X140350000Y-82640000D01*
X139350000Y-81450000D02*
X139350000Y-79800000D01*
X127550000Y-89950000D02*
X126550000Y-89950000D01*
X127550000Y-79800000D02*
X127550000Y-81420000D01*
X126550000Y-92600000D02*
X126550000Y-89950000D01*
X127550000Y-89950000D02*
X127550000Y-91600000D01*
X126550000Y-81420000D02*
X127550000Y-81420000D01*
X126550000Y-88760000D02*
X126550000Y-82680000D01*
X127550000Y-88760000D02*
X126550000Y-88760000D01*
X126550000Y-78800000D02*
X126550000Y-81420000D01*
X127550000Y-82681005D02*
X127550000Y-88760000D01*
X126550000Y-82680000D02*
X127550000Y-82681005D01*
X140350000Y-78800000D02*
X137710000Y-78800000D01*
X129200000Y-78800000D02*
X126550000Y-78800000D01*
X136460000Y-79800000D02*
X130380000Y-79800000D01*
X137710000Y-78800000D02*
X137710000Y-79800000D01*
X129200000Y-79800000D02*
X127550000Y-79800000D01*
X136461005Y-78800000D02*
X130380000Y-78800000D01*
X130380000Y-79800000D02*
X130380000Y-78800000D01*
X139350000Y-79800000D02*
X137710000Y-79800000D01*
X136461005Y-78800000D02*
X136460000Y-79800000D01*
X129200000Y-79800000D02*
X129200000Y-78800000D01*
X137700000Y-91600000D02*
X137700000Y-92600000D01*
X130431005Y-91600000D02*
X136510000Y-91600000D01*
X130430000Y-92600000D02*
X130431005Y-91600000D01*
X136510000Y-92600000D02*
X130430000Y-92600000D01*
X127550000Y-91600000D02*
X129170000Y-91600000D01*
X126550000Y-92600000D02*
X129170000Y-92600000D01*
X140350000Y-92600000D02*
X137700000Y-92600000D01*
X136510000Y-91600000D02*
X136510000Y-92600000D01*
X137700000Y-91600000D02*
X139350000Y-91600000D01*
X129170000Y-92600000D02*
X129170000Y-91600000D01*
X120300000Y-94000000D02*
X120300000Y-92380000D01*
X121300000Y-95000000D02*
X121300000Y-92380000D01*
X120300000Y-91118995D02*
X120300000Y-85040000D01*
X121300000Y-85040000D02*
X121300000Y-91120000D01*
X120300000Y-83850000D02*
X121300000Y-83850000D01*
X121300000Y-81200000D02*
X121300000Y-83850000D01*
X121300000Y-92380000D02*
X120300000Y-92380000D01*
X121300000Y-91120000D02*
X120300000Y-91118995D01*
X120300000Y-85040000D02*
X121300000Y-85040000D01*
X120300000Y-83850000D02*
X120300000Y-82200000D01*
X108500000Y-92350000D02*
X107500000Y-92350000D01*
X108500000Y-82200000D02*
X108500000Y-83820000D01*
X107500000Y-95000000D02*
X107500000Y-92350000D01*
X108500000Y-92350000D02*
X108500000Y-94000000D01*
X107500000Y-83820000D02*
X108500000Y-83820000D01*
X107500000Y-91160000D02*
X107500000Y-85080000D01*
X108500000Y-91160000D02*
X107500000Y-91160000D01*
X107500000Y-81200000D02*
X107500000Y-83820000D01*
X108500000Y-85081005D02*
X108500000Y-91160000D01*
X107500000Y-85080000D02*
X108500000Y-85081005D01*
X121300000Y-81200000D02*
X118660000Y-81200000D01*
X110150000Y-81200000D02*
X107500000Y-81200000D01*
X117410000Y-82200000D02*
X111330000Y-82200000D01*
X118660000Y-81200000D02*
X118660000Y-82200000D01*
X110150000Y-82200000D02*
X108500000Y-82200000D01*
X117411005Y-81200000D02*
X111330000Y-81200000D01*
X111330000Y-82200000D02*
X111330000Y-81200000D01*
X120300000Y-82200000D02*
X118660000Y-82200000D01*
X117411005Y-81200000D02*
X117410000Y-82200000D01*
X110150000Y-82200000D02*
X110150000Y-81200000D01*
X118650000Y-94000000D02*
X118650000Y-95000000D01*
X111381005Y-94000000D02*
X117460000Y-94000000D01*
X111380000Y-95000000D02*
X111381005Y-94000000D01*
X117460000Y-95000000D02*
X111380000Y-95000000D01*
X108500000Y-94000000D02*
X110120000Y-94000000D01*
X107500000Y-95000000D02*
X110120000Y-95000000D01*
X121300000Y-95000000D02*
X118650000Y-95000000D01*
X117460000Y-94000000D02*
X117460000Y-95000000D01*
X118650000Y-94000000D02*
X120300000Y-94000000D01*
X110120000Y-95000000D02*
X110120000Y-94000000D01*
X215550000Y-78850000D02*
X215550000Y-77230000D01*
X216550000Y-79850000D02*
X216550000Y-77230000D01*
X215550000Y-75968995D02*
X215550000Y-69890000D01*
X216550000Y-69890000D02*
X216550000Y-75970000D01*
X215550000Y-68700000D02*
X216550000Y-68700000D01*
X216550000Y-66050000D02*
X216550000Y-68700000D01*
X216550000Y-77230000D02*
X215550000Y-77230000D01*
X216550000Y-75970000D02*
X215550000Y-75968995D01*
X215550000Y-69890000D02*
X216550000Y-69890000D01*
X215550000Y-68700000D02*
X215550000Y-67050000D01*
X203750000Y-77200000D02*
X202750000Y-77200000D01*
X203750000Y-67050000D02*
X203750000Y-68670000D01*
X202750000Y-79850000D02*
X202750000Y-77200000D01*
X203750000Y-77200000D02*
X203750000Y-78850000D01*
X202750000Y-68670000D02*
X203750000Y-68670000D01*
X202750000Y-76010000D02*
X202750000Y-69930000D01*
X203750000Y-76010000D02*
X202750000Y-76010000D01*
X202750000Y-66050000D02*
X202750000Y-68670000D01*
X203750000Y-69931005D02*
X203750000Y-76010000D01*
X202750000Y-69930000D02*
X203750000Y-69931005D01*
X216550000Y-66050000D02*
X213910000Y-66050000D01*
X205400000Y-66050000D02*
X202750000Y-66050000D01*
X212660000Y-67050000D02*
X206580000Y-67050000D01*
X213910000Y-66050000D02*
X213910000Y-67050000D01*
X205400000Y-67050000D02*
X203750000Y-67050000D01*
X212661005Y-66050000D02*
X206580000Y-66050000D01*
X206580000Y-67050000D02*
X206580000Y-66050000D01*
X215550000Y-67050000D02*
X213910000Y-67050000D01*
X212661005Y-66050000D02*
X212660000Y-67050000D01*
X205400000Y-67050000D02*
X205400000Y-66050000D01*
X213900000Y-78850000D02*
X213900000Y-79850000D01*
X206631005Y-78850000D02*
X212710000Y-78850000D01*
X206630000Y-79850000D02*
X206631005Y-78850000D01*
X212710000Y-79850000D02*
X206630000Y-79850000D01*
X203750000Y-78850000D02*
X205370000Y-78850000D01*
X202750000Y-79850000D02*
X205370000Y-79850000D01*
X216550000Y-79850000D02*
X213900000Y-79850000D01*
X212710000Y-78850000D02*
X212710000Y-79850000D01*
X213900000Y-78850000D02*
X215550000Y-78850000D01*
X205370000Y-79850000D02*
X205370000Y-78850000D01*
X196500000Y-77350000D02*
X196500000Y-75730000D01*
X197500000Y-78350000D02*
X197500000Y-75730000D01*
X196500000Y-74468995D02*
X196500000Y-68390000D01*
X197500000Y-68390000D02*
X197500000Y-74470000D01*
X196500000Y-67200000D02*
X197500000Y-67200000D01*
X197500000Y-64550000D02*
X197500000Y-67200000D01*
X197500000Y-75730000D02*
X196500000Y-75730000D01*
X197500000Y-74470000D02*
X196500000Y-74468995D01*
X196500000Y-68390000D02*
X197500000Y-68390000D01*
X196500000Y-67200000D02*
X196500000Y-65550000D01*
X184700000Y-75700000D02*
X183700000Y-75700000D01*
X184700000Y-65550000D02*
X184700000Y-67170000D01*
X183700000Y-78350000D02*
X183700000Y-75700000D01*
X184700000Y-75700000D02*
X184700000Y-77350000D01*
X183700000Y-67170000D02*
X184700000Y-67170000D01*
X183700000Y-74510000D02*
X183700000Y-68430000D01*
X184700000Y-74510000D02*
X183700000Y-74510000D01*
X183700000Y-64550000D02*
X183700000Y-67170000D01*
X184700000Y-68431005D02*
X184700000Y-74510000D01*
X183700000Y-68430000D02*
X184700000Y-68431005D01*
X197500000Y-64550000D02*
X194860000Y-64550000D01*
X186350000Y-64550000D02*
X183700000Y-64550000D01*
X193610000Y-65550000D02*
X187530000Y-65550000D01*
X194860000Y-64550000D02*
X194860000Y-65550000D01*
X186350000Y-65550000D02*
X184700000Y-65550000D01*
X193611005Y-64550000D02*
X187530000Y-64550000D01*
X187530000Y-65550000D02*
X187530000Y-64550000D01*
X196500000Y-65550000D02*
X194860000Y-65550000D01*
X193611005Y-64550000D02*
X193610000Y-65550000D01*
X186350000Y-65550000D02*
X186350000Y-64550000D01*
X194850000Y-77350000D02*
X194850000Y-78350000D01*
X187581005Y-77350000D02*
X193660000Y-77350000D01*
X187580000Y-78350000D02*
X187581005Y-77350000D01*
X193660000Y-78350000D02*
X187580000Y-78350000D01*
X184700000Y-77350000D02*
X186320000Y-77350000D01*
X183700000Y-78350000D02*
X186320000Y-78350000D01*
X197500000Y-78350000D02*
X194850000Y-78350000D01*
X193660000Y-77350000D02*
X193660000Y-78350000D01*
X194850000Y-77350000D02*
X196500000Y-77350000D01*
X186320000Y-78350000D02*
X186320000Y-77350000D01*
X177450000Y-72550000D02*
X177450000Y-70930000D01*
X178450000Y-73550000D02*
X178450000Y-70930000D01*
X177450000Y-69668995D02*
X177450000Y-63590000D01*
X178450000Y-63590000D02*
X178450000Y-69670000D01*
X177450000Y-62400000D02*
X178450000Y-62400000D01*
X178450000Y-59750000D02*
X178450000Y-62400000D01*
X178450000Y-70930000D02*
X177450000Y-70930000D01*
X178450000Y-69670000D02*
X177450000Y-69668995D01*
X177450000Y-63590000D02*
X178450000Y-63590000D01*
X177450000Y-62400000D02*
X177450000Y-60750000D01*
X165650000Y-70900000D02*
X164650000Y-70900000D01*
X165650000Y-60750000D02*
X165650000Y-62370000D01*
X164650000Y-73550000D02*
X164650000Y-70900000D01*
X165650000Y-70900000D02*
X165650000Y-72550000D01*
X164650000Y-62370000D02*
X165650000Y-62370000D01*
X164650000Y-69710000D02*
X164650000Y-63630000D01*
X165650000Y-69710000D02*
X164650000Y-69710000D01*
X164650000Y-59750000D02*
X164650000Y-62370000D01*
X165650000Y-63631005D02*
X165650000Y-69710000D01*
X164650000Y-63630000D02*
X165650000Y-63631005D01*
X178450000Y-59750000D02*
X175810000Y-59750000D01*
X167300000Y-59750000D02*
X164650000Y-59750000D01*
X174560000Y-60750000D02*
X168480000Y-60750000D01*
X175810000Y-59750000D02*
X175810000Y-60750000D01*
X167300000Y-60750000D02*
X165650000Y-60750000D01*
X174561005Y-59750000D02*
X168480000Y-59750000D01*
X168480000Y-60750000D02*
X168480000Y-59750000D01*
X177450000Y-60750000D02*
X175810000Y-60750000D01*
X174561005Y-59750000D02*
X174560000Y-60750000D01*
X167300000Y-60750000D02*
X167300000Y-59750000D01*
X175800000Y-72550000D02*
X175800000Y-73550000D01*
X168531005Y-72550000D02*
X174610000Y-72550000D01*
X168530000Y-73550000D02*
X168531005Y-72550000D01*
X174610000Y-73550000D02*
X168530000Y-73550000D01*
X165650000Y-72550000D02*
X167270000Y-72550000D01*
X164650000Y-73550000D02*
X167270000Y-73550000D01*
X178450000Y-73550000D02*
X175800000Y-73550000D01*
X174610000Y-72550000D02*
X174610000Y-73550000D01*
X175800000Y-72550000D02*
X177450000Y-72550000D01*
X167270000Y-73550000D02*
X167270000Y-72550000D01*
X158400000Y-71160000D02*
X158400000Y-69540000D01*
X159400000Y-72160000D02*
X159400000Y-69540000D01*
X158400000Y-68278995D02*
X158400000Y-62200000D01*
X159400000Y-62200000D02*
X159400000Y-68280000D01*
X158400000Y-61010000D02*
X159400000Y-61010000D01*
X159400000Y-58360000D02*
X159400000Y-61010000D01*
X159400000Y-69540000D02*
X158400000Y-69540000D01*
X159400000Y-68280000D02*
X158400000Y-68278995D01*
X158400000Y-62200000D02*
X159400000Y-62200000D01*
X158400000Y-61010000D02*
X158400000Y-59360000D01*
X146600000Y-69510000D02*
X145600000Y-69510000D01*
X146600000Y-59360000D02*
X146600000Y-60980000D01*
X145600000Y-72160000D02*
X145600000Y-69510000D01*
X146600000Y-69510000D02*
X146600000Y-71160000D01*
X145600000Y-60980000D02*
X146600000Y-60980000D01*
X145600000Y-68320000D02*
X145600000Y-62240000D01*
X146600000Y-68320000D02*
X145600000Y-68320000D01*
X145600000Y-58360000D02*
X145600000Y-60980000D01*
X146600000Y-62241005D02*
X146600000Y-68320000D01*
X145600000Y-62240000D02*
X146600000Y-62241005D01*
X159400000Y-58360000D02*
X156760000Y-58360000D01*
X148250000Y-58360000D02*
X145600000Y-58360000D01*
X155510000Y-59360000D02*
X149430000Y-59360000D01*
X156760000Y-58360000D02*
X156760000Y-59360000D01*
X148250000Y-59360000D02*
X146600000Y-59360000D01*
X155511005Y-58360000D02*
X149430000Y-58360000D01*
X149430000Y-59360000D02*
X149430000Y-58360000D01*
X158400000Y-59360000D02*
X156760000Y-59360000D01*
X155511005Y-58360000D02*
X155510000Y-59360000D01*
X148250000Y-59360000D02*
X148250000Y-58360000D01*
X156750000Y-71160000D02*
X156750000Y-72160000D01*
X149481005Y-71160000D02*
X155560000Y-71160000D01*
X149480000Y-72160000D02*
X149481005Y-71160000D01*
X155560000Y-72160000D02*
X149480000Y-72160000D01*
X146600000Y-71160000D02*
X148220000Y-71160000D01*
X145600000Y-72160000D02*
X148220000Y-72160000D01*
X159400000Y-72160000D02*
X156750000Y-72160000D01*
X155560000Y-71160000D02*
X155560000Y-72160000D01*
X156750000Y-71160000D02*
X158400000Y-71160000D01*
X148220000Y-72160000D02*
X148220000Y-71160000D01*
X139350000Y-72550000D02*
X139350000Y-70930000D01*
X140350000Y-73550000D02*
X140350000Y-70930000D01*
X139350000Y-69668995D02*
X139350000Y-63590000D01*
X140350000Y-63590000D02*
X140350000Y-69670000D01*
X139350000Y-62400000D02*
X140350000Y-62400000D01*
X140350000Y-59750000D02*
X140350000Y-62400000D01*
X140350000Y-70930000D02*
X139350000Y-70930000D01*
X140350000Y-69670000D02*
X139350000Y-69668995D01*
X139350000Y-63590000D02*
X140350000Y-63590000D01*
X139350000Y-62400000D02*
X139350000Y-60750000D01*
X127550000Y-70900000D02*
X126550000Y-70900000D01*
X127550000Y-60750000D02*
X127550000Y-62370000D01*
X126550000Y-73550000D02*
X126550000Y-70900000D01*
X127550000Y-70900000D02*
X127550000Y-72550000D01*
X126550000Y-62370000D02*
X127550000Y-62370000D01*
X126550000Y-69710000D02*
X126550000Y-63630000D01*
X127550000Y-69710000D02*
X126550000Y-69710000D01*
X126550000Y-59750000D02*
X126550000Y-62370000D01*
X127550000Y-63631005D02*
X127550000Y-69710000D01*
X126550000Y-63630000D02*
X127550000Y-63631005D01*
X140350000Y-59750000D02*
X137710000Y-59750000D01*
X129200000Y-59750000D02*
X126550000Y-59750000D01*
X136460000Y-60750000D02*
X130380000Y-60750000D01*
X137710000Y-59750000D02*
X137710000Y-60750000D01*
X129200000Y-60750000D02*
X127550000Y-60750000D01*
X136461005Y-59750000D02*
X130380000Y-59750000D01*
X130380000Y-60750000D02*
X130380000Y-59750000D01*
X139350000Y-60750000D02*
X137710000Y-60750000D01*
X136461005Y-59750000D02*
X136460000Y-60750000D01*
X129200000Y-60750000D02*
X129200000Y-59750000D01*
X137700000Y-72550000D02*
X137700000Y-73550000D01*
X130431005Y-72550000D02*
X136510000Y-72550000D01*
X130430000Y-73550000D02*
X130431005Y-72550000D01*
X136510000Y-73550000D02*
X130430000Y-73550000D01*
X127550000Y-72550000D02*
X129170000Y-72550000D01*
X126550000Y-73550000D02*
X129170000Y-73550000D01*
X140350000Y-73550000D02*
X137700000Y-73550000D01*
X136510000Y-72550000D02*
X136510000Y-73550000D01*
X137700000Y-72550000D02*
X139350000Y-72550000D01*
X129170000Y-73550000D02*
X129170000Y-72550000D01*
X120300000Y-74950000D02*
X120300000Y-73330000D01*
X121300000Y-75950000D02*
X121300000Y-73330000D01*
X120300000Y-72068995D02*
X120300000Y-65990000D01*
X121300000Y-65990000D02*
X121300000Y-72070000D01*
X120300000Y-64800000D02*
X121300000Y-64800000D01*
X121300000Y-62150000D02*
X121300000Y-64800000D01*
X121300000Y-73330000D02*
X120300000Y-73330000D01*
X121300000Y-72070000D02*
X120300000Y-72068995D01*
X120300000Y-65990000D02*
X121300000Y-65990000D01*
X120300000Y-64800000D02*
X120300000Y-63150000D01*
X108500000Y-73300000D02*
X107500000Y-73300000D01*
X108500000Y-63150000D02*
X108500000Y-64770000D01*
X107500000Y-75950000D02*
X107500000Y-73300000D01*
X108500000Y-73300000D02*
X108500000Y-74950000D01*
X107500000Y-64770000D02*
X108500000Y-64770000D01*
X107500000Y-72110000D02*
X107500000Y-66030000D01*
X108500000Y-72110000D02*
X107500000Y-72110000D01*
X107500000Y-62150000D02*
X107500000Y-64770000D01*
X108500000Y-66031005D02*
X108500000Y-72110000D01*
X107500000Y-66030000D02*
X108500000Y-66031005D01*
X121300000Y-62150000D02*
X118660000Y-62150000D01*
X110150000Y-62150000D02*
X107500000Y-62150000D01*
X117410000Y-63150000D02*
X111330000Y-63150000D01*
X118660000Y-62150000D02*
X118660000Y-63150000D01*
X110150000Y-63150000D02*
X108500000Y-63150000D01*
X117411005Y-62150000D02*
X111330000Y-62150000D01*
X111330000Y-63150000D02*
X111330000Y-62150000D01*
X120300000Y-63150000D02*
X118660000Y-63150000D01*
X117411005Y-62150000D02*
X117410000Y-63150000D01*
X110150000Y-63150000D02*
X110150000Y-62150000D01*
X118650000Y-74950000D02*
X118650000Y-75950000D01*
X111381005Y-74950000D02*
X117460000Y-74950000D01*
X111380000Y-75950000D02*
X111381005Y-74950000D01*
X117460000Y-75950000D02*
X111380000Y-75950000D01*
X108500000Y-74950000D02*
X110120000Y-74950000D01*
X107500000Y-75950000D02*
X110120000Y-75950000D01*
X121300000Y-75950000D02*
X118650000Y-75950000D01*
X117460000Y-74950000D02*
X117460000Y-75950000D01*
X118650000Y-74950000D02*
X120300000Y-74950000D01*
X110120000Y-75950000D02*
X110120000Y-74950000D01*
X215550000Y-59800000D02*
X215550000Y-58180000D01*
X216550000Y-60800000D02*
X216550000Y-58180000D01*
X215550000Y-56918995D02*
X215550000Y-50840000D01*
X216550000Y-50840000D02*
X216550000Y-56920000D01*
X215550000Y-49650000D02*
X216550000Y-49650000D01*
X216550000Y-47000000D02*
X216550000Y-49650000D01*
X216550000Y-58180000D02*
X215550000Y-58180000D01*
X216550000Y-56920000D02*
X215550000Y-56918995D01*
X215550000Y-50840000D02*
X216550000Y-50840000D01*
X215550000Y-49650000D02*
X215550000Y-48000000D01*
X203750000Y-58150000D02*
X202750000Y-58150000D01*
X203750000Y-48000000D02*
X203750000Y-49620000D01*
X202750000Y-60800000D02*
X202750000Y-58150000D01*
X203750000Y-58150000D02*
X203750000Y-59800000D01*
X202750000Y-49620000D02*
X203750000Y-49620000D01*
X202750000Y-56960000D02*
X202750000Y-50880000D01*
X203750000Y-56960000D02*
X202750000Y-56960000D01*
X202750000Y-47000000D02*
X202750000Y-49620000D01*
X203750000Y-50881005D02*
X203750000Y-56960000D01*
X202750000Y-50880000D02*
X203750000Y-50881005D01*
X216550000Y-47000000D02*
X213910000Y-47000000D01*
X205400000Y-47000000D02*
X202750000Y-47000000D01*
X212660000Y-48000000D02*
X206580000Y-48000000D01*
X213910000Y-47000000D02*
X213910000Y-48000000D01*
X205400000Y-48000000D02*
X203750000Y-48000000D01*
X212661005Y-47000000D02*
X206580000Y-47000000D01*
X206580000Y-48000000D02*
X206580000Y-47000000D01*
X215550000Y-48000000D02*
X213910000Y-48000000D01*
X212661005Y-47000000D02*
X212660000Y-48000000D01*
X205400000Y-48000000D02*
X205400000Y-47000000D01*
X213900000Y-59800000D02*
X213900000Y-60800000D01*
X206631005Y-59800000D02*
X212710000Y-59800000D01*
X206630000Y-60800000D02*
X206631005Y-59800000D01*
X212710000Y-60800000D02*
X206630000Y-60800000D01*
X203750000Y-59800000D02*
X205370000Y-59800000D01*
X202750000Y-60800000D02*
X205370000Y-60800000D01*
X216550000Y-60800000D02*
X213900000Y-60800000D01*
X212710000Y-59800000D02*
X212710000Y-60800000D01*
X213900000Y-59800000D02*
X215550000Y-59800000D01*
X205370000Y-60800000D02*
X205370000Y-59800000D01*
X196500000Y-58300000D02*
X196500000Y-56680000D01*
X197500000Y-59300000D02*
X197500000Y-56680000D01*
X196500000Y-55418995D02*
X196500000Y-49340000D01*
X197500000Y-49340000D02*
X197500000Y-55420000D01*
X196500000Y-48150000D02*
X197500000Y-48150000D01*
X197500000Y-45500000D02*
X197500000Y-48150000D01*
X197500000Y-56680000D02*
X196500000Y-56680000D01*
X197500000Y-55420000D02*
X196500000Y-55418995D01*
X196500000Y-49340000D02*
X197500000Y-49340000D01*
X196500000Y-48150000D02*
X196500000Y-46500000D01*
X184700000Y-56650000D02*
X183700000Y-56650000D01*
X184700000Y-46500000D02*
X184700000Y-48120000D01*
X183700000Y-59300000D02*
X183700000Y-56650000D01*
X184700000Y-56650000D02*
X184700000Y-58300000D01*
X183700000Y-48120000D02*
X184700000Y-48120000D01*
X183700000Y-55460000D02*
X183700000Y-49380000D01*
X184700000Y-55460000D02*
X183700000Y-55460000D01*
X183700000Y-45500000D02*
X183700000Y-48120000D01*
X184700000Y-49381005D02*
X184700000Y-55460000D01*
X183700000Y-49380000D02*
X184700000Y-49381005D01*
X197500000Y-45500000D02*
X194860000Y-45500000D01*
X186350000Y-45500000D02*
X183700000Y-45500000D01*
X193610000Y-46500000D02*
X187530000Y-46500000D01*
X194860000Y-45500000D02*
X194860000Y-46500000D01*
X186350000Y-46500000D02*
X184700000Y-46500000D01*
X193611005Y-45500000D02*
X187530000Y-45500000D01*
X187530000Y-46500000D02*
X187530000Y-45500000D01*
X196500000Y-46500000D02*
X194860000Y-46500000D01*
X193611005Y-45500000D02*
X193610000Y-46500000D01*
X186350000Y-46500000D02*
X186350000Y-45500000D01*
X194850000Y-58300000D02*
X194850000Y-59300000D01*
X187581005Y-58300000D02*
X193660000Y-58300000D01*
X187580000Y-59300000D02*
X187581005Y-58300000D01*
X193660000Y-59300000D02*
X187580000Y-59300000D01*
X184700000Y-58300000D02*
X186320000Y-58300000D01*
X183700000Y-59300000D02*
X186320000Y-59300000D01*
X197500000Y-59300000D02*
X194850000Y-59300000D01*
X193660000Y-58300000D02*
X193660000Y-59300000D01*
X194850000Y-58300000D02*
X196500000Y-58300000D01*
X186320000Y-59300000D02*
X186320000Y-58300000D01*
X177450000Y-53500000D02*
X177450000Y-51880000D01*
X178450000Y-54500000D02*
X178450000Y-51880000D01*
X177450000Y-50618995D02*
X177450000Y-44540000D01*
X178450000Y-44540000D02*
X178450000Y-50620000D01*
X177450000Y-43350000D02*
X178450000Y-43350000D01*
X178450000Y-40700000D02*
X178450000Y-43350000D01*
X178450000Y-51880000D02*
X177450000Y-51880000D01*
X178450000Y-50620000D02*
X177450000Y-50618995D01*
X177450000Y-44540000D02*
X178450000Y-44540000D01*
X177450000Y-43350000D02*
X177450000Y-41700000D01*
X165650000Y-51850000D02*
X164650000Y-51850000D01*
X165650000Y-41700000D02*
X165650000Y-43320000D01*
X164650000Y-54500000D02*
X164650000Y-51850000D01*
X165650000Y-51850000D02*
X165650000Y-53500000D01*
X164650000Y-43320000D02*
X165650000Y-43320000D01*
X164650000Y-50660000D02*
X164650000Y-44580000D01*
X165650000Y-50660000D02*
X164650000Y-50660000D01*
X164650000Y-40700000D02*
X164650000Y-43320000D01*
X165650000Y-44581005D02*
X165650000Y-50660000D01*
X164650000Y-44580000D02*
X165650000Y-44581005D01*
X178450000Y-40700000D02*
X175810000Y-40700000D01*
X167300000Y-40700000D02*
X164650000Y-40700000D01*
X174560000Y-41700000D02*
X168480000Y-41700000D01*
X175810000Y-40700000D02*
X175810000Y-41700000D01*
X167300000Y-41700000D02*
X165650000Y-41700000D01*
X174561005Y-40700000D02*
X168480000Y-40700000D01*
X168480000Y-41700000D02*
X168480000Y-40700000D01*
X177450000Y-41700000D02*
X175810000Y-41700000D01*
X174561005Y-40700000D02*
X174560000Y-41700000D01*
X167300000Y-41700000D02*
X167300000Y-40700000D01*
X175800000Y-53500000D02*
X175800000Y-54500000D01*
X168531005Y-53500000D02*
X174610000Y-53500000D01*
X168530000Y-54500000D02*
X168531005Y-53500000D01*
X174610000Y-54500000D02*
X168530000Y-54500000D01*
X165650000Y-53500000D02*
X167270000Y-53500000D01*
X164650000Y-54500000D02*
X167270000Y-54500000D01*
X178450000Y-54500000D02*
X175800000Y-54500000D01*
X174610000Y-53500000D02*
X174610000Y-54500000D01*
X175800000Y-53500000D02*
X177450000Y-53500000D01*
X167270000Y-54500000D02*
X167270000Y-53500000D01*
X158400000Y-52110000D02*
X158400000Y-50490000D01*
X159400000Y-53110000D02*
X159400000Y-50490000D01*
X158400000Y-49228995D02*
X158400000Y-43150000D01*
X159400000Y-43150000D02*
X159400000Y-49230000D01*
X158400000Y-41960000D02*
X159400000Y-41960000D01*
X159400000Y-39310000D02*
X159400000Y-41960000D01*
X159400000Y-50490000D02*
X158400000Y-50490000D01*
X159400000Y-49230000D02*
X158400000Y-49228995D01*
X158400000Y-43150000D02*
X159400000Y-43150000D01*
X158400000Y-41960000D02*
X158400000Y-40310000D01*
X146600000Y-50460000D02*
X145600000Y-50460000D01*
X146600000Y-40310000D02*
X146600000Y-41930000D01*
X145600000Y-53110000D02*
X145600000Y-50460000D01*
X146600000Y-50460000D02*
X146600000Y-52110000D01*
X145600000Y-41930000D02*
X146600000Y-41930000D01*
X145600000Y-49270000D02*
X145600000Y-43190000D01*
X146600000Y-49270000D02*
X145600000Y-49270000D01*
X145600000Y-39310000D02*
X145600000Y-41930000D01*
X146600000Y-43191005D02*
X146600000Y-49270000D01*
X145600000Y-43190000D02*
X146600000Y-43191005D01*
X159400000Y-39310000D02*
X156760000Y-39310000D01*
X148250000Y-39310000D02*
X145600000Y-39310000D01*
X155510000Y-40310000D02*
X149430000Y-40310000D01*
X156760000Y-39310000D02*
X156760000Y-40310000D01*
X148250000Y-40310000D02*
X146600000Y-40310000D01*
X155511005Y-39310000D02*
X149430000Y-39310000D01*
X149430000Y-40310000D02*
X149430000Y-39310000D01*
X158400000Y-40310000D02*
X156760000Y-40310000D01*
X155511005Y-39310000D02*
X155510000Y-40310000D01*
X148250000Y-40310000D02*
X148250000Y-39310000D01*
X156750000Y-52110000D02*
X156750000Y-53110000D01*
X149481005Y-52110000D02*
X155560000Y-52110000D01*
X149480000Y-53110000D02*
X149481005Y-52110000D01*
X155560000Y-53110000D02*
X149480000Y-53110000D01*
X146600000Y-52110000D02*
X148220000Y-52110000D01*
X145600000Y-53110000D02*
X148220000Y-53110000D01*
X159400000Y-53110000D02*
X156750000Y-53110000D01*
X155560000Y-52110000D02*
X155560000Y-53110000D01*
X156750000Y-52110000D02*
X158400000Y-52110000D01*
X148220000Y-53110000D02*
X148220000Y-52110000D01*
X139350000Y-53500000D02*
X139350000Y-51880000D01*
X140350000Y-54500000D02*
X140350000Y-51880000D01*
X139350000Y-50618995D02*
X139350000Y-44540000D01*
X140350000Y-44540000D02*
X140350000Y-50620000D01*
X139350000Y-43350000D02*
X140350000Y-43350000D01*
X140350000Y-40700000D02*
X140350000Y-43350000D01*
X140350000Y-51880000D02*
X139350000Y-51880000D01*
X140350000Y-50620000D02*
X139350000Y-50618995D01*
X139350000Y-44540000D02*
X140350000Y-44540000D01*
X139350000Y-43350000D02*
X139350000Y-41700000D01*
X127550000Y-51850000D02*
X126550000Y-51850000D01*
X127550000Y-41700000D02*
X127550000Y-43320000D01*
X126550000Y-54500000D02*
X126550000Y-51850000D01*
X127550000Y-51850000D02*
X127550000Y-53500000D01*
X126550000Y-43320000D02*
X127550000Y-43320000D01*
X126550000Y-50660000D02*
X126550000Y-44580000D01*
X127550000Y-50660000D02*
X126550000Y-50660000D01*
X126550000Y-40700000D02*
X126550000Y-43320000D01*
X127550000Y-44581005D02*
X127550000Y-50660000D01*
X126550000Y-44580000D02*
X127550000Y-44581005D01*
X140350000Y-40700000D02*
X137710000Y-40700000D01*
X129200000Y-40700000D02*
X126550000Y-40700000D01*
X136460000Y-41700000D02*
X130380000Y-41700000D01*
X137710000Y-40700000D02*
X137710000Y-41700000D01*
X129200000Y-41700000D02*
X127550000Y-41700000D01*
X136461005Y-40700000D02*
X130380000Y-40700000D01*
X130380000Y-41700000D02*
X130380000Y-40700000D01*
X139350000Y-41700000D02*
X137710000Y-41700000D01*
X136461005Y-40700000D02*
X136460000Y-41700000D01*
X129200000Y-41700000D02*
X129200000Y-40700000D01*
X137700000Y-53500000D02*
X137700000Y-54500000D01*
X130431005Y-53500000D02*
X136510000Y-53500000D01*
X130430000Y-54500000D02*
X130431005Y-53500000D01*
X136510000Y-54500000D02*
X130430000Y-54500000D01*
X127550000Y-53500000D02*
X129170000Y-53500000D01*
X126550000Y-54500000D02*
X129170000Y-54500000D01*
X140350000Y-54500000D02*
X137700000Y-54500000D01*
X136510000Y-53500000D02*
X136510000Y-54500000D01*
X137700000Y-53500000D02*
X139350000Y-53500000D01*
X129170000Y-54500000D02*
X129170000Y-53500000D01*
M02*
