M48
; DRILL file {KiCad (5.1.8)-1} date 02/14/21 00:12:27
; FORMAT={-:-/ absolute / metric / decimal}
; #@! TF.CreationDate,2021-02-14T00:12:27+02:00
; #@! TF.GenerationSoftware,Kicad,Pcbnew,(5.1.8)-1
; #@! TF.FileFunction,NonPlated,1,2,NPTH
FMAT,2
METRIC
T1C0.800
T2C0.900
T3C1.000
T4C2.700
%
G90
G05
T1
X108.0Y-84.442
X108.0Y-91.758
X110.742Y-81.7
X110.742Y-94.5
X118.058Y-81.7
X118.058Y-94.5
X120.8Y-84.442
X120.8Y-91.758
X184.2Y-86.842
X184.2Y-94.158
X186.942Y-84.1
X186.942Y-96.9
X194.258Y-84.1
X194.258Y-96.9
X197.0Y-86.842
X197.0Y-94.158
X184.2Y-67.792
X184.2Y-75.108
X186.942Y-65.05
X186.942Y-77.85
X194.258Y-65.05
X194.258Y-77.85
X197.0Y-67.792
X197.0Y-75.108
X146.1Y-61.602
X146.1Y-68.918
X148.842Y-58.86
X148.842Y-71.66
X156.158Y-58.86
X156.158Y-71.66
X158.9Y-61.602
X158.9Y-68.918
X108.0Y-65.392
X108.0Y-72.708
X110.742Y-62.65
X110.742Y-75.45
X118.058Y-62.65
X118.058Y-75.45
X120.8Y-65.392
X120.8Y-72.708
X127.05Y-82.042
X127.05Y-89.358
X129.792Y-79.3
X129.792Y-92.1
X137.108Y-79.3
X137.108Y-92.1
X139.85Y-82.042
X139.85Y-89.358
X108.0Y-103.492
X108.0Y-110.808
X110.742Y-100.75
X110.742Y-113.55
X118.058Y-100.75
X118.058Y-113.55
X120.8Y-103.492
X120.8Y-110.808
X203.25Y-69.292
X203.25Y-76.608
X205.992Y-66.55
X205.992Y-79.35
X213.308Y-66.55
X213.308Y-79.35
X216.05Y-69.292
X216.05Y-76.608
X184.2Y-105.892
X184.2Y-113.208
X186.942Y-103.15
X186.942Y-115.95
X194.258Y-103.15
X194.258Y-115.95
X197.0Y-105.892
X197.0Y-113.208
X184.2Y-48.742
X184.2Y-56.058
X186.942Y-46.0
X186.942Y-58.8
X194.258Y-46.0
X194.258Y-58.8
X197.0Y-48.742
X197.0Y-56.058
X127.05Y-62.992
X127.05Y-70.308
X129.792Y-60.25
X129.792Y-73.05
X137.108Y-60.25
X137.108Y-73.05
X139.85Y-62.992
X139.85Y-70.308
X146.1Y-80.652
X146.1Y-87.968
X148.842Y-77.91
X148.842Y-90.71
X156.158Y-77.91
X156.158Y-90.71
X158.9Y-80.652
X158.9Y-87.968
X165.15Y-101.092
X165.15Y-108.408
X167.892Y-98.35
X167.892Y-111.15
X175.208Y-98.35
X175.208Y-111.15
X177.95Y-101.092
X177.95Y-108.408
X127.05Y-101.092
X127.05Y-108.408
X129.792Y-98.35
X129.792Y-111.15
X137.108Y-98.35
X137.108Y-111.15
X139.85Y-101.092
X139.85Y-108.408
X203.25Y-50.242
X203.25Y-57.558
X205.992Y-47.5
X205.992Y-60.3
X213.308Y-47.5
X213.308Y-60.3
X216.05Y-50.242
X216.05Y-57.558
X165.15Y-82.042
X165.15Y-89.358
X167.892Y-79.3
X167.892Y-92.1
X175.208Y-79.3
X175.208Y-92.1
X177.95Y-82.042
X177.95Y-89.358
X84.075Y-94.628
X84.075Y-101.943
X86.817Y-91.885
X86.817Y-104.685
X94.132Y-91.885
X94.132Y-104.685
X96.875Y-94.628
X96.875Y-101.943
X203.25Y-107.392
X203.25Y-114.708
X205.992Y-104.65
X205.992Y-117.45
X213.308Y-104.65
X213.308Y-117.45
X216.05Y-107.392
X216.05Y-114.708
X108.0Y-46.342
X108.0Y-53.658
X110.742Y-43.6
X110.742Y-56.4
X118.058Y-43.6
X118.058Y-56.4
X120.8Y-46.342
X120.8Y-53.658
X127.05Y-43.942
X127.05Y-51.258
X129.792Y-41.2
X129.792Y-54.0
X137.108Y-41.2
X137.108Y-54.0
X139.85Y-43.942
X139.85Y-51.258
X165.15Y-62.992
X165.15Y-70.308
X167.892Y-60.25
X167.892Y-73.05
X175.208Y-60.25
X175.208Y-73.05
X177.95Y-62.992
X177.95Y-70.308
X203.25Y-88.342
X203.25Y-95.658
X205.992Y-85.6
X205.992Y-98.4
X213.308Y-85.6
X213.308Y-98.4
X216.05Y-88.342
X216.05Y-95.658
X90.8Y-126.08
X91.803Y-122.334
X94.457Y-132.415
X98.139Y-118.676
X98.203Y-133.419
X101.885Y-119.68
X104.539Y-129.761
X105.542Y-126.015
X146.1Y-99.702
X146.1Y-107.018
X148.842Y-96.96
X148.842Y-109.76
X156.158Y-96.96
X156.158Y-109.76
X158.9Y-99.702
X158.9Y-107.018
X136.498Y-121.171
X136.498Y-128.486
X139.24Y-118.428
X139.24Y-131.228
X146.555Y-118.428
X146.555Y-131.228
X149.298Y-121.171
X149.298Y-128.486
X165.15Y-43.942
X165.15Y-51.258
X167.892Y-41.2
X167.892Y-54.0
X175.208Y-41.2
X175.208Y-54.0
X177.95Y-43.942
X177.95Y-51.258
X117.45Y-122.542
X117.45Y-129.858
X120.192Y-119.8
X120.192Y-132.6
X127.508Y-119.8
X127.508Y-132.6
X130.25Y-122.542
X130.25Y-129.858
X155.55Y-120.142
X155.55Y-127.458
X158.292Y-117.4
X158.292Y-130.2
X165.608Y-117.4
X165.608Y-130.2
X168.35Y-120.142
X168.35Y-127.458
X146.1Y-42.552
X146.1Y-49.868
X148.842Y-39.81
X148.842Y-52.61
X156.158Y-39.81
X156.158Y-52.61
X158.9Y-42.552
X158.9Y-49.868
T2
X86.167Y-53.394
X86.167Y-54.594
X86.167Y-55.794
X90.297Y-60.194
X90.437Y-48.994
X91.497Y-60.194
X91.637Y-48.994
X92.697Y-60.194
X92.837Y-48.994
X96.967Y-53.394
X96.967Y-54.594
X96.967Y-55.794
T3
X145.921Y-58.681
X145.921Y-71.839
X159.079Y-58.681
X159.079Y-71.839
X107.821Y-62.471
X107.821Y-75.629
X120.979Y-62.471
X120.979Y-75.629
X126.871Y-79.121
X126.871Y-92.279
X140.029Y-79.121
X140.029Y-92.279
X107.821Y-100.571
X107.821Y-113.729
X120.979Y-100.571
X120.979Y-113.729
X203.071Y-66.371
X203.071Y-79.529
X216.229Y-66.371
X216.229Y-79.529
X184.021Y-102.971
X184.021Y-116.129
X197.179Y-102.971
X197.179Y-116.129
X184.021Y-45.821
X184.021Y-58.979
X197.179Y-45.821
X197.179Y-58.979
X126.871Y-60.071
X126.871Y-73.229
X140.029Y-60.071
X140.029Y-73.229
X145.921Y-77.731
X145.921Y-90.889
X159.079Y-77.731
X159.079Y-90.889
X164.971Y-98.171
X164.971Y-111.329
X178.129Y-98.171
X178.129Y-111.329
X126.871Y-98.171
X126.871Y-111.329
X140.029Y-98.171
X140.029Y-111.329
X203.071Y-47.321
X203.071Y-60.479
X216.229Y-47.321
X216.229Y-60.479
X164.971Y-79.121
X164.971Y-92.279
X178.129Y-79.121
X178.129Y-92.279
X83.896Y-91.707
X83.896Y-104.864
X97.053Y-91.707
X97.053Y-104.864
X203.071Y-104.471
X203.071Y-117.629
X216.229Y-104.471
X216.229Y-117.629
X107.821Y-43.421
X107.821Y-56.579
X120.979Y-43.421
X120.979Y-56.579
X126.871Y-41.021
X126.871Y-54.179
X140.029Y-41.021
X140.029Y-54.179
X164.971Y-60.071
X164.971Y-73.229
X178.129Y-60.071
X178.129Y-73.229
X203.071Y-85.421
X203.071Y-98.579
X216.229Y-85.421
X216.229Y-98.579
X89.184Y-123.64
X95.763Y-135.034
X100.579Y-117.061
X107.158Y-128.455
X145.921Y-96.781
X145.921Y-109.939
X159.079Y-96.781
X159.079Y-109.939
X136.319Y-118.25
X136.319Y-131.407
X149.476Y-118.25
X149.476Y-131.407
X164.971Y-41.021
X164.971Y-54.179
X178.129Y-41.021
X178.129Y-54.179
X117.271Y-119.621
X117.271Y-132.779
X130.429Y-119.621
X130.429Y-132.779
X155.371Y-117.221
X155.371Y-130.379
X168.529Y-117.221
X168.529Y-130.379
X145.921Y-39.631
X145.921Y-52.789
X159.079Y-39.631
X159.079Y-52.789
X107.821Y-81.521
X107.821Y-94.679
X120.979Y-81.521
X120.979Y-94.679
X184.021Y-83.921
X184.021Y-97.079
X197.179Y-83.921
X197.179Y-97.079
X184.021Y-64.871
X184.021Y-78.029
X197.179Y-64.871
X197.179Y-78.029
T4
X124.396Y-95.567
X199.7Y-61.8
X199.7Y-100.0
X98.895Y-114.109
X124.325Y-57.409
T0
M30
