  0
SECTION
  2
HEADER
  9
$ANGBASE
  50
0.0
  9
$ANGDIR
  70
1
  9
$MEASUREMENT
  70
1
  0
ENDSEC
  0
SECTION
  2
TABLES
  0
TABLE
  2
LTYPE
  70
4
  0
LTYPE
  5
40F
  2
CONTINUOUS
  70
0
  3
Solid line
  72
65
  73
0
  40
0.0
  0
LTYPE
  5
410
  2
DASHDOT
 70
0
  3
Dash Dot ____ _ ____ _
 72
65
 73
4
 40
2.0
 49
1.25
 49
-0.25
 49
0.25
 49
-0.25
  0
LTYPE
  5
411
  2
DASHED
 70
0
  3
Dashed __ __ __ __ __
 72
65
 73
2
 40
0.75
 49
0.5
 49
-0.25
  0
LTYPE
  5
43B
  2
DOTTED
 70
0
  3
Dotted .  .  .  .
 72
65
 73
2
 40
0.2
 49
0.0
 49
-0.2
  0
ENDTAB
  0
TABLE
  2
STYLE
  70
4
  0
STYLE
  2
KICAD
  70
0
  40
0
  41
1
  42
1
  50
0
  71
0
  3
isocp.shx
  0
STYLE
  2
KICADB
  70
0
  40
0
  41
1
  42
1
  50
0
  71
0
  3
isocp.shx
  0
STYLE
  2
KICADI
  70
0
  40
0
  41
1
  42
1
  50
15
  71
0
  3
isocp.shx
  0
STYLE
  2
KICADBI
  70
0
  40
0
  41
1
  42
1
  50
15
  71
0
  3
isocp.shx
  0
ENDTAB
  0
TABLE
  2
LAYER
  70
1
  0
LAYER
  2
BLACK
  70
0
  62
7
  6
CONTINUOUS
  0
ENDTAB
  0
ENDSEC
  0
SECTION
  2
ENTITIES
0
LINE
8
BLACK
6
CONTINUOUS
10
80.7085
20
-111.823
11
80.772
21
-112.649
0
LINE
8
BLACK
6
CONTINUOUS
10
80.772
20
-112.649
11
80.899
21
-114.109
0
LINE
8
BLACK
6
CONTINUOUS
10
97.5948
20
-143.272
11
110.32
21
-135.905
0
LINE
8
BLACK
6
CONTINUOUS
10
218.512
20
-42.9664
11
217.796
21
-42.6214
0
LINE
8
BLACK
6
CONTINUOUS
10
219.502
20
-44.1452
11
219.705
21
-44.8564
0
LINE
8
BLACK
6
CONTINUOUS
10
219.133
20
-43.5102
11
219.502
21
-44.1452
0
LINE
8
BLACK
6
CONTINUOUS
10
175.719
20
-121.194
11
218.181
21
-121.194
0
LINE
8
BLACK
6
CONTINUOUS
10
175.014
20
-121.265
11
175.719
21
-121.194
0
LINE
8
BLACK
6
CONTINUOUS
10
174.356
20
-121.468
11
175.014
21
-121.265
0
LINE
8
BLACK
6
CONTINUOUS
10
173.762
20
-121.791
11
174.356
21
-121.468
0
LINE
8
BLACK
6
CONTINUOUS
10
173.244
20
-122.218
11
173.762
21
-121.791
0
LINE
8
BLACK
6
CONTINUOUS
10
172.817
20
-122.736
11
173.244
21
-122.218
0
LINE
8
BLACK
6
CONTINUOUS
10
172.494
20
-123.331
11
172.817
21
-122.736
0
LINE
8
BLACK
6
CONTINUOUS
10
172.29
20
-123.988
11
172.494
21
-123.331
0
LINE
8
BLACK
6
CONTINUOUS
10
172.194
20
-124.696
11
172.29
21
-123.988
0
LINE
8
BLACK
6
CONTINUOUS
10
217.796
20
-42.6214
11
171.704
21
-35.687
0
LINE
8
BLACK
6
CONTINUOUS
10
171.532
20
-135.649
11
171.277
21
-135.787
0
LINE
8
BLACK
6
CONTINUOUS
10
171.754
20
-135.466
11
171.532
21
-135.649
0
LINE
8
BLACK
6
CONTINUOUS
10
171.937
20
-135.244
11
171.754
21
-135.466
0
LINE
8
BLACK
6
CONTINUOUS
10
172.075
20
-134.989
11
171.937
21
-135.244
0
LINE
8
BLACK
6
CONTINUOUS
10
172.163
20
-134.708
11
172.075
21
-134.989
0
LINE
8
BLACK
6
CONTINUOUS
10
172.193
20
-134.428
11
172.163
21
-134.708
0
LINE
8
BLACK
6
CONTINUOUS
10
219.705
20
-44.8564
11
219.705
21
-119.685
0
LINE
8
BLACK
6
CONTINUOUS
10
81.1637
20
-35.8697
11
81.3421
21
-35.773
0
LINE
8
BLACK
6
CONTINUOUS
10
81.0083
20
-35.9979
11
81.1637
21
-35.8697
0
LINE
8
BLACK
6
CONTINUOUS
10
80.8802
20
-36.1532
11
81.0083
21
-35.9979
0
LINE
8
BLACK
6
CONTINUOUS
10
80.7834
20
-36.3316
11
80.8802
21
-36.1532
0
LINE
8
BLACK
6
CONTINUOUS
10
80.7223
20
-36.5288
11
80.7834
21
-36.3316
0
LINE
8
BLACK
6
CONTINUOUS
10
80.7003
20
-36.7444
11
80.7223
21
-36.5288
0
LINE
8
BLACK
6
CONTINUOUS
10
81.5392
20
-35.7118
11
81.7544
21
-35.6903
0
LINE
8
BLACK
6
CONTINUOUS
10
81.3421
20
-35.773
11
81.5392
21
-35.7118
0
LINE
8
BLACK
6
CONTINUOUS
10
171.704
20
-35.687
11
81.7544
21
-35.6903
0
LINE
8
BLACK
6
CONTINUOUS
10
80.645
20
-110.617
11
80.7003
21
-36.7444
0
LINE
8
BLACK
6
CONTINUOUS
10
81.4197
20
-116.395
11
81.9785
21
-117.665
0
LINE
8
BLACK
6
CONTINUOUS
10
81.153
20
-115.379
11
81.4197
21
-116.395
0
LINE
8
BLACK
6
CONTINUOUS
10
80.645
20
-110.617
11
80.7085
21
-111.823
0
LINE
8
BLACK
6
CONTINUOUS
10
97.4269
20
-143.357
11
97.5948
21
-143.272
0
LINE
8
BLACK
6
CONTINUOUS
10
97.2682
20
-143.404
11
97.4269
21
-143.357
0
LINE
8
BLACK
6
CONTINUOUS
10
97.1193
20
-143.414
11
97.2682
21
-143.404
0
LINE
8
BLACK
6
CONTINUOUS
10
96.9805
20
-143.386
11
97.1193
21
-143.414
0
LINE
8
BLACK
6
CONTINUOUS
10
96.8523
20
-143.323
11
96.9805
21
-143.386
0
LINE
8
BLACK
6
CONTINUOUS
10
96.7353
20
-143.223
11
96.8523
21
-143.323
0
LINE
8
BLACK
6
CONTINUOUS
10
96.6298
20
-143.088
11
96.7353
21
-143.223
0
LINE
8
BLACK
6
CONTINUOUS
10
81.9785
20
-117.665
11
96.6298
21
-143.088
0
LINE
8
BLACK
6
CONTINUOUS
10
80.899
20
-114.109
11
81.153
21
-115.379
0
LINE
8
BLACK
6
CONTINUOUS
10
110.32
20
-135.905
11
170.693
21
-135.905
0
LINE
8
BLACK
6
CONTINUOUS
10
172.194
20
-124.696
11
172.193
21
-134.428
0
LINE
8
BLACK
6
CONTINUOUS
10
170.996
20
-135.875
11
170.693
21
-135.905
0
LINE
8
BLACK
6
CONTINUOUS
10
171.277
20
-135.787
11
170.996
21
-135.875
0
LINE
8
BLACK
6
CONTINUOUS
10
219.133
20
-43.5102
11
218.512
21
-42.9664
0
LINE
8
BLACK
6
CONTINUOUS
10
218.5
20
-121.166
11
218.181
21
-121.194
0
LINE
8
BLACK
6
CONTINUOUS
10
218.782
20
-121.078
11
218.5
21
-121.166
0
LINE
8
BLACK
6
CONTINUOUS
10
219.037
20
-120.94
11
218.782
21
-121.078
0
LINE
8
BLACK
6
CONTINUOUS
10
219.259
20
-120.757
11
219.037
21
-120.94
0
LINE
8
BLACK
6
CONTINUOUS
10
219.442
20
-120.535
11
219.259
21
-120.757
0
LINE
8
BLACK
6
CONTINUOUS
10
219.58
20
-120.28
11
219.442
21
-120.535
0
LINE
8
BLACK
6
CONTINUOUS
10
219.667
20
-119.999
11
219.58
21
-120.28
0
LINE
8
BLACK
6
CONTINUOUS
10
219.705
20
-119.685
11
219.667
21
-119.999
0
LINE
8
BLACK
6
CONTINUOUS
10
83.4093
20
-148.171
11
83.4093
21
-145.171
0
LINE
8
BLACK
6
CONTINUOUS
10
83.4093
20
-145.171
11
84.1236
21
-145.171
0
LINE
8
BLACK
6
CONTINUOUS
10
84.1236
20
-145.171
11
84.5521
21
-145.314
0
LINE
8
BLACK
6
CONTINUOUS
10
84.5521
20
-145.314
11
84.8379
21
-145.6
0
LINE
8
BLACK
6
CONTINUOUS
10
84.8379
20
-145.6
11
84.9807
21
-145.885
0
LINE
8
BLACK
6
CONTINUOUS
10
84.9807
20
-145.885
11
85.1236
21
-146.457
0
LINE
8
BLACK
6
CONTINUOUS
10
85.1236
20
-146.457
11
85.1236
21
-146.885
0
LINE
8
BLACK
6
CONTINUOUS
10
85.1236
20
-146.885
11
84.9807
21
-147.457
0
LINE
8
BLACK
6
CONTINUOUS
10
84.9807
20
-147.457
11
84.8379
21
-147.743
0
LINE
8
BLACK
6
CONTINUOUS
10
84.8379
20
-147.743
11
84.5521
21
-148.028
0
LINE
8
BLACK
6
CONTINUOUS
10
84.5521
20
-148.028
11
84.1236
21
-148.171
0
LINE
8
BLACK
6
CONTINUOUS
10
84.1236
20
-148.171
11
83.4093
21
-148.171
0
LINE
8
BLACK
6
CONTINUOUS
10
86.4093
20
-148.171
11
86.4093
21
-146.171
0
LINE
8
BLACK
6
CONTINUOUS
10
86.4093
20
-146.743
11
86.5521
21
-146.457
0
LINE
8
BLACK
6
CONTINUOUS
10
86.5521
20
-146.457
11
86.695
21
-146.314
0
LINE
8
BLACK
6
CONTINUOUS
10
86.695
20
-146.314
11
86.9807
21
-146.171
0
LINE
8
BLACK
6
CONTINUOUS
10
86.9807
20
-146.171
11
87.2664
21
-146.171
0
LINE
8
BLACK
6
CONTINUOUS
10
88.2664
20
-148.171
11
88.2664
21
-146.171
0
LINE
8
BLACK
6
CONTINUOUS
10
88.2664
20
-145.171
11
88.1236
21
-145.314
0
LINE
8
BLACK
6
CONTINUOUS
10
88.1236
20
-145.314
11
88.2664
21
-145.457
0
LINE
8
BLACK
6
CONTINUOUS
10
88.2664
20
-145.457
11
88.4093
21
-145.314
0
LINE
8
BLACK
6
CONTINUOUS
10
88.4093
20
-145.314
11
88.2664
21
-145.171
0
LINE
8
BLACK
6
CONTINUOUS
10
88.2664
20
-145.171
11
88.2664
21
-145.457
0
LINE
8
BLACK
6
CONTINUOUS
10
90.1236
20
-148.171
11
89.8379
21
-148.028
0
LINE
8
BLACK
6
CONTINUOUS
10
89.8379
20
-148.028
11
89.695
21
-147.743
0
LINE
8
BLACK
6
CONTINUOUS
10
89.695
20
-147.743
11
89.695
21
-145.171
0
LINE
8
BLACK
6
CONTINUOUS
10
91.695
20
-148.171
11
91.4093
21
-148.028
0
LINE
8
BLACK
6
CONTINUOUS
10
91.4093
20
-148.028
11
91.2664
21
-147.743
0
LINE
8
BLACK
6
CONTINUOUS
10
91.2664
20
-147.743
11
91.2664
21
-145.171
0
LINE
8
BLACK
6
CONTINUOUS
10
95.1236
20
-148.171
11
95.1236
21
-145.171
0
LINE
8
BLACK
6
CONTINUOUS
10
95.1236
20
-145.171
11
96.1236
21
-147.314
0
LINE
8
BLACK
6
CONTINUOUS
10
96.1236
20
-147.314
11
97.1236
21
-145.171
0
LINE
8
BLACK
6
CONTINUOUS
10
97.1236
20
-145.171
11
97.1236
21
-148.171
0
LINE
8
BLACK
6
CONTINUOUS
10
99.8379
20
-148.171
11
99.8379
21
-146.6
0
LINE
8
BLACK
6
CONTINUOUS
10
99.8379
20
-146.6
11
99.695
21
-146.314
0
LINE
8
BLACK
6
CONTINUOUS
10
99.695
20
-146.314
11
99.4093
21
-146.171
0
LINE
8
BLACK
6
CONTINUOUS
10
99.4093
20
-146.171
11
98.8379
21
-146.171
0
LINE
8
BLACK
6
CONTINUOUS
10
98.8379
20
-146.171
11
98.5521
21
-146.314
0
LINE
8
BLACK
6
CONTINUOUS
10
99.8379
20
-148.028
11
99.5521
21
-148.171
0
LINE
8
BLACK
6
CONTINUOUS
10
99.5521
20
-148.171
11
98.8379
21
-148.171
0
LINE
8
BLACK
6
CONTINUOUS
10
98.8379
20
-148.171
11
98.5521
21
-148.028
0
LINE
8
BLACK
6
CONTINUOUS
10
98.5521
20
-148.028
11
98.4093
21
-147.743
0
LINE
8
BLACK
6
CONTINUOUS
10
98.4093
20
-147.743
11
98.4093
21
-147.457
0
LINE
8
BLACK
6
CONTINUOUS
10
98.4093
20
-147.457
11
98.5521
21
-147.171
0
LINE
8
BLACK
6
CONTINUOUS
10
98.5521
20
-147.171
11
98.8379
21
-147.028
0
LINE
8
BLACK
6
CONTINUOUS
10
98.8379
20
-147.028
11
99.5521
21
-147.028
0
LINE
8
BLACK
6
CONTINUOUS
10
99.5521
20
-147.028
11
99.8379
21
-146.885
0
LINE
8
BLACK
6
CONTINUOUS
10
101.266
20
-146.171
11
101.266
21
-149.171
0
LINE
8
BLACK
6
CONTINUOUS
10
101.266
20
-146.314
11
101.552
21
-146.171
0
LINE
8
BLACK
6
CONTINUOUS
10
101.552
20
-146.171
11
102.124
21
-146.171
0
LINE
8
BLACK
6
CONTINUOUS
10
102.124
20
-146.171
11
102.409
21
-146.314
0
LINE
8
BLACK
6
CONTINUOUS
10
102.409
20
-146.314
11
102.552
21
-146.457
0
LINE
8
BLACK
6
CONTINUOUS
10
102.552
20
-146.457
11
102.695
21
-146.743
0
LINE
8
BLACK
6
CONTINUOUS
10
102.695
20
-146.743
11
102.695
21
-147.6
0
LINE
8
BLACK
6
CONTINUOUS
10
102.695
20
-147.6
11
102.552
21
-147.885
0
LINE
8
BLACK
6
CONTINUOUS
10
102.552
20
-147.885
11
102.409
21
-148.028
0
LINE
8
BLACK
6
CONTINUOUS
10
102.409
20
-148.028
11
102.124
21
-148.171
0
LINE
8
BLACK
6
CONTINUOUS
10
102.124
20
-148.171
11
101.552
21
-148.171
0
LINE
8
BLACK
6
CONTINUOUS
10
101.552
20
-148.171
11
101.266
21
-148.028
0
LINE
8
BLACK
6
CONTINUOUS
10
103.981
20
-147.885
11
104.124
21
-148.028
0
LINE
8
BLACK
6
CONTINUOUS
10
104.124
20
-148.028
11
103.981
21
-148.171
0
LINE
8
BLACK
6
CONTINUOUS
10
103.981
20
-148.171
11
103.838
21
-148.028
0
LINE
8
BLACK
6
CONTINUOUS
10
103.838
20
-148.028
11
103.981
21
-147.885
0
LINE
8
BLACK
6
CONTINUOUS
10
103.981
20
-147.885
11
103.981
21
-148.171
0
LINE
8
BLACK
6
CONTINUOUS
10
103.981
20
-146.314
11
104.124
21
-146.457
0
LINE
8
BLACK
6
CONTINUOUS
10
104.124
20
-146.457
11
103.981
21
-146.6
0
LINE
8
BLACK
6
CONTINUOUS
10
103.981
20
-146.6
11
103.838
21
-146.457
0
LINE
8
BLACK
6
CONTINUOUS
10
103.838
20
-146.457
11
103.981
21
-146.314
0
LINE
8
BLACK
6
CONTINUOUS
10
103.981
20
-146.314
11
103.981
21
-146.6
  0
ENDSEC
  0
EOF
