  0
SECTION
  2
HEADER
  9
$ANGBASE
  50
0.0
  9
$ANGDIR
  70
1
  9
$MEASUREMENT
  70
1
  0
ENDSEC
  0
SECTION
  2
TABLES
  0
TABLE
  2
LTYPE
  70
4
  0
LTYPE
  5
40F
  2
CONTINUOUS
  70
0
  3
Solid line
  72
65
  73
0
  40
0.0
  0
LTYPE
  5
410
  2
DASHDOT
 70
0
  3
Dash Dot ____ _ ____ _
 72
65
 73
4
 40
2.0
 49
1.25
 49
-0.25
 49
0.25
 49
-0.25
  0
LTYPE
  5
411
  2
DASHED
 70
0
  3
Dashed __ __ __ __ __
 72
65
 73
2
 40
0.75
 49
0.5
 49
-0.25
  0
LTYPE
  5
43B
  2
DOTTED
 70
0
  3
Dotted .  .  .  .
 72
65
 73
2
 40
0.2
 49
0.0
 49
-0.2
  0
ENDTAB
  0
TABLE
  2
STYLE
  70
4
  0
STYLE
  2
KICAD
  70
0
  40
0
  41
1
  42
1
  50
0
  71
0
  3
isocp.shx
  0
STYLE
  2
KICADB
  70
0
  40
0
  41
1
  42
1
  50
0
  71
0
  3
isocp.shx
  0
STYLE
  2
KICADI
  70
0
  40
0
  41
1
  42
1
  50
15
  71
0
  3
isocp.shx
  0
STYLE
  2
KICADBI
  70
0
  40
0
  41
1
  42
1
  50
15
  71
0
  3
isocp.shx
  0
ENDTAB
  0
TABLE
  2
LAYER
  70
1
  0
LAYER
  2
BLACK
  70
0
  62
7
  6
CONTINUOUS
  0
ENDTAB
  0
ENDSEC
  0
SECTION
  2
ENTITIES
0
LINE
8
BLACK
6
CONTINUOUS
10
80.7085
20
-111.823
11
80.772
21
-112.649
0
LINE
8
BLACK
6
CONTINUOUS
10
80.772
20
-112.649
11
80.899
21
-114.109
0
LINE
8
BLACK
6
CONTINUOUS
10
97.5948
20
-143.272
11
110.32
21
-135.905
0
LINE
8
BLACK
6
CONTINUOUS
10
218.512
20
-42.9664
11
217.796
21
-42.6214
0
LINE
8
BLACK
6
CONTINUOUS
10
219.502
20
-44.1452
11
219.705
21
-44.8564
0
LINE
8
BLACK
6
CONTINUOUS
10
219.133
20
-43.5102
11
219.502
21
-44.1452
0
LINE
8
BLACK
6
CONTINUOUS
10
175.719
20
-121.194
11
218.181
21
-121.194
0
LINE
8
BLACK
6
CONTINUOUS
10
175.014
20
-121.265
11
175.719
21
-121.194
0
LINE
8
BLACK
6
CONTINUOUS
10
174.356
20
-121.468
11
175.014
21
-121.265
0
LINE
8
BLACK
6
CONTINUOUS
10
173.762
20
-121.791
11
174.356
21
-121.468
0
LINE
8
BLACK
6
CONTINUOUS
10
173.244
20
-122.218
11
173.762
21
-121.791
0
LINE
8
BLACK
6
CONTINUOUS
10
172.817
20
-122.736
11
173.244
21
-122.218
0
LINE
8
BLACK
6
CONTINUOUS
10
172.494
20
-123.331
11
172.817
21
-122.736
0
LINE
8
BLACK
6
CONTINUOUS
10
172.29
20
-123.988
11
172.494
21
-123.331
0
LINE
8
BLACK
6
CONTINUOUS
10
172.194
20
-124.696
11
172.29
21
-123.988
0
LINE
8
BLACK
6
CONTINUOUS
10
217.796
20
-42.6214
11
171.704
21
-35.687
0
LINE
8
BLACK
6
CONTINUOUS
10
171.532
20
-135.649
11
171.277
21
-135.787
0
LINE
8
BLACK
6
CONTINUOUS
10
171.754
20
-135.466
11
171.532
21
-135.649
0
LINE
8
BLACK
6
CONTINUOUS
10
171.937
20
-135.244
11
171.754
21
-135.466
0
LINE
8
BLACK
6
CONTINUOUS
10
172.075
20
-134.989
11
171.937
21
-135.244
0
LINE
8
BLACK
6
CONTINUOUS
10
172.163
20
-134.708
11
172.075
21
-134.989
0
LINE
8
BLACK
6
CONTINUOUS
10
172.193
20
-134.428
11
172.163
21
-134.708
0
LINE
8
BLACK
6
CONTINUOUS
10
219.705
20
-44.8564
11
219.705
21
-119.685
0
LINE
8
BLACK
6
CONTINUOUS
10
81.1637
20
-35.8697
11
81.3421
21
-35.773
0
LINE
8
BLACK
6
CONTINUOUS
10
81.0083
20
-35.9979
11
81.1637
21
-35.8697
0
LINE
8
BLACK
6
CONTINUOUS
10
80.8802
20
-36.1532
11
81.0083
21
-35.9979
0
LINE
8
BLACK
6
CONTINUOUS
10
80.7834
20
-36.3316
11
80.8802
21
-36.1532
0
LINE
8
BLACK
6
CONTINUOUS
10
80.7223
20
-36.5288
11
80.7834
21
-36.3316
0
LINE
8
BLACK
6
CONTINUOUS
10
80.7003
20
-36.7444
11
80.7223
21
-36.5288
0
LINE
8
BLACK
6
CONTINUOUS
10
81.5392
20
-35.7118
11
81.7544
21
-35.6903
0
LINE
8
BLACK
6
CONTINUOUS
10
81.3421
20
-35.773
11
81.5392
21
-35.7118
0
LINE
8
BLACK
6
CONTINUOUS
10
171.704
20
-35.687
11
81.7544
21
-35.6903
0
LINE
8
BLACK
6
CONTINUOUS
10
80.645
20
-110.617
11
80.7003
21
-36.7444
0
LINE
8
BLACK
6
CONTINUOUS
10
81.4197
20
-116.395
11
81.9785
21
-117.665
0
LINE
8
BLACK
6
CONTINUOUS
10
81.153
20
-115.379
11
81.4197
21
-116.395
0
LINE
8
BLACK
6
CONTINUOUS
10
80.645
20
-110.617
11
80.7085
21
-111.823
0
LINE
8
BLACK
6
CONTINUOUS
10
97.4269
20
-143.357
11
97.5948
21
-143.272
0
LINE
8
BLACK
6
CONTINUOUS
10
97.2682
20
-143.404
11
97.4269
21
-143.357
0
LINE
8
BLACK
6
CONTINUOUS
10
97.1193
20
-143.414
11
97.2682
21
-143.404
0
LINE
8
BLACK
6
CONTINUOUS
10
96.9805
20
-143.386
11
97.1193
21
-143.414
0
LINE
8
BLACK
6
CONTINUOUS
10
96.8523
20
-143.323
11
96.9805
21
-143.386
0
LINE
8
BLACK
6
CONTINUOUS
10
96.7353
20
-143.223
11
96.8523
21
-143.323
0
LINE
8
BLACK
6
CONTINUOUS
10
96.6298
20
-143.088
11
96.7353
21
-143.223
0
LINE
8
BLACK
6
CONTINUOUS
10
81.9785
20
-117.665
11
96.6298
21
-143.088
0
LINE
8
BLACK
6
CONTINUOUS
10
80.899
20
-114.109
11
81.153
21
-115.379
0
LINE
8
BLACK
6
CONTINUOUS
10
110.32
20
-135.905
11
170.693
21
-135.905
0
LINE
8
BLACK
6
CONTINUOUS
10
172.194
20
-124.696
11
172.193
21
-134.428
0
LINE
8
BLACK
6
CONTINUOUS
10
170.996
20
-135.875
11
170.693
21
-135.905
0
LINE
8
BLACK
6
CONTINUOUS
10
171.277
20
-135.787
11
170.996
21
-135.875
0
LINE
8
BLACK
6
CONTINUOUS
10
219.133
20
-43.5102
11
218.512
21
-42.9664
0
LINE
8
BLACK
6
CONTINUOUS
10
218.5
20
-121.166
11
218.181
21
-121.194
0
LINE
8
BLACK
6
CONTINUOUS
10
218.782
20
-121.078
11
218.5
21
-121.166
0
LINE
8
BLACK
6
CONTINUOUS
10
219.037
20
-120.94
11
218.782
21
-121.078
0
LINE
8
BLACK
6
CONTINUOUS
10
219.259
20
-120.757
11
219.037
21
-120.94
0
LINE
8
BLACK
6
CONTINUOUS
10
219.442
20
-120.535
11
219.259
21
-120.757
0
LINE
8
BLACK
6
CONTINUOUS
10
219.58
20
-120.28
11
219.442
21
-120.535
0
LINE
8
BLACK
6
CONTINUOUS
10
219.667
20
-119.999
11
219.58
21
-120.28
0
LINE
8
BLACK
6
CONTINUOUS
10
219.705
20
-119.685
11
219.667
21
-119.999
0
LINE
8
BLACK
6
CONTINUOUS
10
107.6
20
-84.0424
11
108.4
21
-84.8424
0
LINE
8
BLACK
6
CONTINUOUS
10
108.4
20
-84.0424
11
107.6
21
-84.8424
0
LINE
8
BLACK
6
CONTINUOUS
10
107.6
20
-91.3576
11
108.4
21
-92.1576
0
LINE
8
BLACK
6
CONTINUOUS
10
108.4
20
-91.3576
11
107.6
21
-92.1576
0
LINE
8
BLACK
6
CONTINUOUS
10
110.342
20
-81.3
11
111.142
21
-82.1
0
LINE
8
BLACK
6
CONTINUOUS
10
111.142
20
-81.3
11
110.342
21
-82.1
0
LINE
8
BLACK
6
CONTINUOUS
10
110.342
20
-94.1
11
111.142
21
-94.9
0
LINE
8
BLACK
6
CONTINUOUS
10
111.142
20
-94.1
11
110.342
21
-94.9
0
LINE
8
BLACK
6
CONTINUOUS
10
117.658
20
-81.3
11
118.458
21
-82.1
0
LINE
8
BLACK
6
CONTINUOUS
10
118.458
20
-81.3
11
117.658
21
-82.1
0
LINE
8
BLACK
6
CONTINUOUS
10
117.658
20
-94.1
11
118.458
21
-94.9
0
LINE
8
BLACK
6
CONTINUOUS
10
118.458
20
-94.1
11
117.658
21
-94.9
0
LINE
8
BLACK
6
CONTINUOUS
10
120.4
20
-84.0424
11
121.2
21
-84.8424
0
LINE
8
BLACK
6
CONTINUOUS
10
121.2
20
-84.0424
11
120.4
21
-84.8424
0
LINE
8
BLACK
6
CONTINUOUS
10
120.4
20
-91.3576
11
121.2
21
-92.1576
0
LINE
8
BLACK
6
CONTINUOUS
10
121.2
20
-91.3576
11
120.4
21
-92.1576
0
LINE
8
BLACK
6
CONTINUOUS
10
183.8
20
-86.4424
11
184.6
21
-87.2424
0
LINE
8
BLACK
6
CONTINUOUS
10
184.6
20
-86.4424
11
183.8
21
-87.2424
0
LINE
8
BLACK
6
CONTINUOUS
10
183.8
20
-93.7576
11
184.6
21
-94.5576
0
LINE
8
BLACK
6
CONTINUOUS
10
184.6
20
-93.7576
11
183.8
21
-94.5576
0
LINE
8
BLACK
6
CONTINUOUS
10
186.542
20
-83.7
11
187.342
21
-84.5
0
LINE
8
BLACK
6
CONTINUOUS
10
187.342
20
-83.7
11
186.542
21
-84.5
0
LINE
8
BLACK
6
CONTINUOUS
10
186.542
20
-96.5
11
187.342
21
-97.3
0
LINE
8
BLACK
6
CONTINUOUS
10
187.342
20
-96.5
11
186.542
21
-97.3
0
LINE
8
BLACK
6
CONTINUOUS
10
193.858
20
-83.7
11
194.658
21
-84.5
0
LINE
8
BLACK
6
CONTINUOUS
10
194.658
20
-83.7
11
193.858
21
-84.5
0
LINE
8
BLACK
6
CONTINUOUS
10
193.858
20
-96.5
11
194.658
21
-97.3
0
LINE
8
BLACK
6
CONTINUOUS
10
194.658
20
-96.5
11
193.858
21
-97.3
0
LINE
8
BLACK
6
CONTINUOUS
10
196.6
20
-86.4424
11
197.4
21
-87.2424
0
LINE
8
BLACK
6
CONTINUOUS
10
197.4
20
-86.4424
11
196.6
21
-87.2424
0
LINE
8
BLACK
6
CONTINUOUS
10
196.6
20
-93.7576
11
197.4
21
-94.5576
0
LINE
8
BLACK
6
CONTINUOUS
10
197.4
20
-93.7576
11
196.6
21
-94.5576
0
LINE
8
BLACK
6
CONTINUOUS
10
183.8
20
-67.3924
11
184.6
21
-68.1924
0
LINE
8
BLACK
6
CONTINUOUS
10
184.6
20
-67.3924
11
183.8
21
-68.1924
0
LINE
8
BLACK
6
CONTINUOUS
10
183.8
20
-74.7076
11
184.6
21
-75.5076
0
LINE
8
BLACK
6
CONTINUOUS
10
184.6
20
-74.7076
11
183.8
21
-75.5076
0
LINE
8
BLACK
6
CONTINUOUS
10
186.542
20
-64.65
11
187.342
21
-65.45
0
LINE
8
BLACK
6
CONTINUOUS
10
187.342
20
-64.65
11
186.542
21
-65.45
0
LINE
8
BLACK
6
CONTINUOUS
10
186.542
20
-77.45
11
187.342
21
-78.25
0
LINE
8
BLACK
6
CONTINUOUS
10
187.342
20
-77.45
11
186.542
21
-78.25
0
LINE
8
BLACK
6
CONTINUOUS
10
193.858
20
-64.65
11
194.658
21
-65.45
0
LINE
8
BLACK
6
CONTINUOUS
10
194.658
20
-64.65
11
193.858
21
-65.45
0
LINE
8
BLACK
6
CONTINUOUS
10
193.858
20
-77.45
11
194.658
21
-78.25
0
LINE
8
BLACK
6
CONTINUOUS
10
194.658
20
-77.45
11
193.858
21
-78.25
0
LINE
8
BLACK
6
CONTINUOUS
10
196.6
20
-67.3924
11
197.4
21
-68.1924
0
LINE
8
BLACK
6
CONTINUOUS
10
197.4
20
-67.3924
11
196.6
21
-68.1924
0
LINE
8
BLACK
6
CONTINUOUS
10
196.6
20
-74.7076
11
197.4
21
-75.5076
0
LINE
8
BLACK
6
CONTINUOUS
10
197.4
20
-74.7076
11
196.6
21
-75.5076
0
LINE
8
BLACK
6
CONTINUOUS
10
145.7
20
-61.2024
11
146.5
21
-62.0024
0
LINE
8
BLACK
6
CONTINUOUS
10
146.5
20
-61.2024
11
145.7
21
-62.0024
0
LINE
8
BLACK
6
CONTINUOUS
10
145.7
20
-68.5176
11
146.5
21
-69.3176
0
LINE
8
BLACK
6
CONTINUOUS
10
146.5
20
-68.5176
11
145.7
21
-69.3176
0
LINE
8
BLACK
6
CONTINUOUS
10
148.442
20
-58.46
11
149.242
21
-59.26
0
LINE
8
BLACK
6
CONTINUOUS
10
149.242
20
-58.46
11
148.442
21
-59.26
0
LINE
8
BLACK
6
CONTINUOUS
10
148.442
20
-71.26
11
149.242
21
-72.06
0
LINE
8
BLACK
6
CONTINUOUS
10
149.242
20
-71.26
11
148.442
21
-72.06
0
LINE
8
BLACK
6
CONTINUOUS
10
155.758
20
-58.46
11
156.558
21
-59.26
0
LINE
8
BLACK
6
CONTINUOUS
10
156.558
20
-58.46
11
155.758
21
-59.26
0
LINE
8
BLACK
6
CONTINUOUS
10
155.758
20
-71.26
11
156.558
21
-72.06
0
LINE
8
BLACK
6
CONTINUOUS
10
156.558
20
-71.26
11
155.758
21
-72.06
0
LINE
8
BLACK
6
CONTINUOUS
10
158.5
20
-61.2024
11
159.3
21
-62.0024
0
LINE
8
BLACK
6
CONTINUOUS
10
159.3
20
-61.2024
11
158.5
21
-62.0024
0
LINE
8
BLACK
6
CONTINUOUS
10
158.5
20
-68.5176
11
159.3
21
-69.3176
0
LINE
8
BLACK
6
CONTINUOUS
10
159.3
20
-68.5176
11
158.5
21
-69.3176
0
LINE
8
BLACK
6
CONTINUOUS
10
107.6
20
-64.9924
11
108.4
21
-65.7924
0
LINE
8
BLACK
6
CONTINUOUS
10
108.4
20
-64.9924
11
107.6
21
-65.7924
0
LINE
8
BLACK
6
CONTINUOUS
10
107.6
20
-72.3076
11
108.4
21
-73.1076
0
LINE
8
BLACK
6
CONTINUOUS
10
108.4
20
-72.3076
11
107.6
21
-73.1076
0
LINE
8
BLACK
6
CONTINUOUS
10
110.342
20
-62.25
11
111.142
21
-63.05
0
LINE
8
BLACK
6
CONTINUOUS
10
111.142
20
-62.25
11
110.342
21
-63.05
0
LINE
8
BLACK
6
CONTINUOUS
10
110.342
20
-75.05
11
111.142
21
-75.85
0
LINE
8
BLACK
6
CONTINUOUS
10
111.142
20
-75.05
11
110.342
21
-75.85
0
LINE
8
BLACK
6
CONTINUOUS
10
117.658
20
-62.25
11
118.458
21
-63.05
0
LINE
8
BLACK
6
CONTINUOUS
10
118.458
20
-62.25
11
117.658
21
-63.05
0
LINE
8
BLACK
6
CONTINUOUS
10
117.658
20
-75.05
11
118.458
21
-75.85
0
LINE
8
BLACK
6
CONTINUOUS
10
118.458
20
-75.05
11
117.658
21
-75.85
0
LINE
8
BLACK
6
CONTINUOUS
10
120.4
20
-64.9924
11
121.2
21
-65.7924
0
LINE
8
BLACK
6
CONTINUOUS
10
121.2
20
-64.9924
11
120.4
21
-65.7924
0
LINE
8
BLACK
6
CONTINUOUS
10
120.4
20
-72.3076
11
121.2
21
-73.1076
0
LINE
8
BLACK
6
CONTINUOUS
10
121.2
20
-72.3076
11
120.4
21
-73.1076
0
LINE
8
BLACK
6
CONTINUOUS
10
126.65
20
-81.6424
11
127.45
21
-82.4424
0
LINE
8
BLACK
6
CONTINUOUS
10
127.45
20
-81.6424
11
126.65
21
-82.4424
0
LINE
8
BLACK
6
CONTINUOUS
10
126.65
20
-88.9576
11
127.45
21
-89.7576
0
LINE
8
BLACK
6
CONTINUOUS
10
127.45
20
-88.9576
11
126.65
21
-89.7576
0
LINE
8
BLACK
6
CONTINUOUS
10
129.392
20
-78.9
11
130.192
21
-79.7
0
LINE
8
BLACK
6
CONTINUOUS
10
130.192
20
-78.9
11
129.392
21
-79.7
0
LINE
8
BLACK
6
CONTINUOUS
10
129.392
20
-91.7
11
130.192
21
-92.5
0
LINE
8
BLACK
6
CONTINUOUS
10
130.192
20
-91.7
11
129.392
21
-92.5
0
LINE
8
BLACK
6
CONTINUOUS
10
136.708
20
-78.9
11
137.508
21
-79.7
0
LINE
8
BLACK
6
CONTINUOUS
10
137.508
20
-78.9
11
136.708
21
-79.7
0
LINE
8
BLACK
6
CONTINUOUS
10
136.708
20
-91.7
11
137.508
21
-92.5
0
LINE
8
BLACK
6
CONTINUOUS
10
137.508
20
-91.7
11
136.708
21
-92.5
0
LINE
8
BLACK
6
CONTINUOUS
10
139.45
20
-81.6424
11
140.25
21
-82.4424
0
LINE
8
BLACK
6
CONTINUOUS
10
140.25
20
-81.6424
11
139.45
21
-82.4424
0
LINE
8
BLACK
6
CONTINUOUS
10
139.45
20
-88.9576
11
140.25
21
-89.7576
0
LINE
8
BLACK
6
CONTINUOUS
10
140.25
20
-88.9576
11
139.45
21
-89.7576
0
LINE
8
BLACK
6
CONTINUOUS
10
107.6
20
-103.092
11
108.4
21
-103.892
0
LINE
8
BLACK
6
CONTINUOUS
10
108.4
20
-103.092
11
107.6
21
-103.892
0
LINE
8
BLACK
6
CONTINUOUS
10
107.6
20
-110.408
11
108.4
21
-111.208
0
LINE
8
BLACK
6
CONTINUOUS
10
108.4
20
-110.408
11
107.6
21
-111.208
0
LINE
8
BLACK
6
CONTINUOUS
10
110.342
20
-100.35
11
111.142
21
-101.15
0
LINE
8
BLACK
6
CONTINUOUS
10
111.142
20
-100.35
11
110.342
21
-101.15
0
LINE
8
BLACK
6
CONTINUOUS
10
110.342
20
-113.15
11
111.142
21
-113.95
0
LINE
8
BLACK
6
CONTINUOUS
10
111.142
20
-113.15
11
110.342
21
-113.95
0
LINE
8
BLACK
6
CONTINUOUS
10
117.658
20
-100.35
11
118.458
21
-101.15
0
LINE
8
BLACK
6
CONTINUOUS
10
118.458
20
-100.35
11
117.658
21
-101.15
0
LINE
8
BLACK
6
CONTINUOUS
10
117.658
20
-113.15
11
118.458
21
-113.95
0
LINE
8
BLACK
6
CONTINUOUS
10
118.458
20
-113.15
11
117.658
21
-113.95
0
LINE
8
BLACK
6
CONTINUOUS
10
120.4
20
-103.092
11
121.2
21
-103.892
0
LINE
8
BLACK
6
CONTINUOUS
10
121.2
20
-103.092
11
120.4
21
-103.892
0
LINE
8
BLACK
6
CONTINUOUS
10
120.4
20
-110.408
11
121.2
21
-111.208
0
LINE
8
BLACK
6
CONTINUOUS
10
121.2
20
-110.408
11
120.4
21
-111.208
0
LINE
8
BLACK
6
CONTINUOUS
10
202.85
20
-68.8924
11
203.65
21
-69.6924
0
LINE
8
BLACK
6
CONTINUOUS
10
203.65
20
-68.8924
11
202.85
21
-69.6924
0
LINE
8
BLACK
6
CONTINUOUS
10
202.85
20
-76.2076
11
203.65
21
-77.0076
0
LINE
8
BLACK
6
CONTINUOUS
10
203.65
20
-76.2076
11
202.85
21
-77.0076
0
LINE
8
BLACK
6
CONTINUOUS
10
205.592
20
-66.15
11
206.392
21
-66.95
0
LINE
8
BLACK
6
CONTINUOUS
10
206.392
20
-66.15
11
205.592
21
-66.95
0
LINE
8
BLACK
6
CONTINUOUS
10
205.592
20
-78.95
11
206.392
21
-79.75
0
LINE
8
BLACK
6
CONTINUOUS
10
206.392
20
-78.95
11
205.592
21
-79.75
0
LINE
8
BLACK
6
CONTINUOUS
10
212.908
20
-66.15
11
213.708
21
-66.95
0
LINE
8
BLACK
6
CONTINUOUS
10
213.708
20
-66.15
11
212.908
21
-66.95
0
LINE
8
BLACK
6
CONTINUOUS
10
212.908
20
-78.95
11
213.708
21
-79.75
0
LINE
8
BLACK
6
CONTINUOUS
10
213.708
20
-78.95
11
212.908
21
-79.75
0
LINE
8
BLACK
6
CONTINUOUS
10
215.65
20
-68.8924
11
216.45
21
-69.6924
0
LINE
8
BLACK
6
CONTINUOUS
10
216.45
20
-68.8924
11
215.65
21
-69.6924
0
LINE
8
BLACK
6
CONTINUOUS
10
215.65
20
-76.2076
11
216.45
21
-77.0076
0
LINE
8
BLACK
6
CONTINUOUS
10
216.45
20
-76.2076
11
215.65
21
-77.0076
0
LINE
8
BLACK
6
CONTINUOUS
10
183.8
20
-105.492
11
184.6
21
-106.292
0
LINE
8
BLACK
6
CONTINUOUS
10
184.6
20
-105.492
11
183.8
21
-106.292
0
LINE
8
BLACK
6
CONTINUOUS
10
183.8
20
-112.808
11
184.6
21
-113.608
0
LINE
8
BLACK
6
CONTINUOUS
10
184.6
20
-112.808
11
183.8
21
-113.608
0
LINE
8
BLACK
6
CONTINUOUS
10
186.542
20
-102.75
11
187.342
21
-103.55
0
LINE
8
BLACK
6
CONTINUOUS
10
187.342
20
-102.75
11
186.542
21
-103.55
0
LINE
8
BLACK
6
CONTINUOUS
10
186.542
20
-115.55
11
187.342
21
-116.35
0
LINE
8
BLACK
6
CONTINUOUS
10
187.342
20
-115.55
11
186.542
21
-116.35
0
LINE
8
BLACK
6
CONTINUOUS
10
193.858
20
-102.75
11
194.658
21
-103.55
0
LINE
8
BLACK
6
CONTINUOUS
10
194.658
20
-102.75
11
193.858
21
-103.55
0
LINE
8
BLACK
6
CONTINUOUS
10
193.858
20
-115.55
11
194.658
21
-116.35
0
LINE
8
BLACK
6
CONTINUOUS
10
194.658
20
-115.55
11
193.858
21
-116.35
0
LINE
8
BLACK
6
CONTINUOUS
10
196.6
20
-105.492
11
197.4
21
-106.292
0
LINE
8
BLACK
6
CONTINUOUS
10
197.4
20
-105.492
11
196.6
21
-106.292
0
LINE
8
BLACK
6
CONTINUOUS
10
196.6
20
-112.808
11
197.4
21
-113.608
0
LINE
8
BLACK
6
CONTINUOUS
10
197.4
20
-112.808
11
196.6
21
-113.608
0
LINE
8
BLACK
6
CONTINUOUS
10
183.8
20
-48.3424
11
184.6
21
-49.1424
0
LINE
8
BLACK
6
CONTINUOUS
10
184.6
20
-48.3424
11
183.8
21
-49.1424
0
LINE
8
BLACK
6
CONTINUOUS
10
183.8
20
-55.6576
11
184.6
21
-56.4576
0
LINE
8
BLACK
6
CONTINUOUS
10
184.6
20
-55.6576
11
183.8
21
-56.4576
0
LINE
8
BLACK
6
CONTINUOUS
10
186.542
20
-45.6
11
187.342
21
-46.4
0
LINE
8
BLACK
6
CONTINUOUS
10
187.342
20
-45.6
11
186.542
21
-46.4
0
LINE
8
BLACK
6
CONTINUOUS
10
186.542
20
-58.4
11
187.342
21
-59.2
0
LINE
8
BLACK
6
CONTINUOUS
10
187.342
20
-58.4
11
186.542
21
-59.2
0
LINE
8
BLACK
6
CONTINUOUS
10
193.858
20
-45.6
11
194.658
21
-46.4
0
LINE
8
BLACK
6
CONTINUOUS
10
194.658
20
-45.6
11
193.858
21
-46.4
0
LINE
8
BLACK
6
CONTINUOUS
10
193.858
20
-58.4
11
194.658
21
-59.2
0
LINE
8
BLACK
6
CONTINUOUS
10
194.658
20
-58.4
11
193.858
21
-59.2
0
LINE
8
BLACK
6
CONTINUOUS
10
196.6
20
-48.3424
11
197.4
21
-49.1424
0
LINE
8
BLACK
6
CONTINUOUS
10
197.4
20
-48.3424
11
196.6
21
-49.1424
0
LINE
8
BLACK
6
CONTINUOUS
10
196.6
20
-55.6576
11
197.4
21
-56.4576
0
LINE
8
BLACK
6
CONTINUOUS
10
197.4
20
-55.6576
11
196.6
21
-56.4576
0
LINE
8
BLACK
6
CONTINUOUS
10
126.65
20
-62.5924
11
127.45
21
-63.3924
0
LINE
8
BLACK
6
CONTINUOUS
10
127.45
20
-62.5924
11
126.65
21
-63.3924
0
LINE
8
BLACK
6
CONTINUOUS
10
126.65
20
-69.9076
11
127.45
21
-70.7076
0
LINE
8
BLACK
6
CONTINUOUS
10
127.45
20
-69.9076
11
126.65
21
-70.7076
0
LINE
8
BLACK
6
CONTINUOUS
10
129.392
20
-59.85
11
130.192
21
-60.65
0
LINE
8
BLACK
6
CONTINUOUS
10
130.192
20
-59.85
11
129.392
21
-60.65
0
LINE
8
BLACK
6
CONTINUOUS
10
129.392
20
-72.65
11
130.192
21
-73.45
0
LINE
8
BLACK
6
CONTINUOUS
10
130.192
20
-72.65
11
129.392
21
-73.45
0
LINE
8
BLACK
6
CONTINUOUS
10
136.708
20
-59.85
11
137.508
21
-60.65
0
LINE
8
BLACK
6
CONTINUOUS
10
137.508
20
-59.85
11
136.708
21
-60.65
0
LINE
8
BLACK
6
CONTINUOUS
10
136.708
20
-72.65
11
137.508
21
-73.45
0
LINE
8
BLACK
6
CONTINUOUS
10
137.508
20
-72.65
11
136.708
21
-73.45
0
LINE
8
BLACK
6
CONTINUOUS
10
139.45
20
-62.5924
11
140.25
21
-63.3924
0
LINE
8
BLACK
6
CONTINUOUS
10
140.25
20
-62.5924
11
139.45
21
-63.3924
0
LINE
8
BLACK
6
CONTINUOUS
10
139.45
20
-69.9076
11
140.25
21
-70.7076
0
LINE
8
BLACK
6
CONTINUOUS
10
140.25
20
-69.9076
11
139.45
21
-70.7076
0
LINE
8
BLACK
6
CONTINUOUS
10
145.7
20
-80.2524
11
146.5
21
-81.0524
0
LINE
8
BLACK
6
CONTINUOUS
10
146.5
20
-80.2524
11
145.7
21
-81.0524
0
LINE
8
BLACK
6
CONTINUOUS
10
145.7
20
-87.5676
11
146.5
21
-88.3676
0
LINE
8
BLACK
6
CONTINUOUS
10
146.5
20
-87.5676
11
145.7
21
-88.3676
0
LINE
8
BLACK
6
CONTINUOUS
10
148.442
20
-77.51
11
149.242
21
-78.31
0
LINE
8
BLACK
6
CONTINUOUS
10
149.242
20
-77.51
11
148.442
21
-78.31
0
LINE
8
BLACK
6
CONTINUOUS
10
148.442
20
-90.31
11
149.242
21
-91.11
0
LINE
8
BLACK
6
CONTINUOUS
10
149.242
20
-90.31
11
148.442
21
-91.11
0
LINE
8
BLACK
6
CONTINUOUS
10
155.758
20
-77.51
11
156.558
21
-78.31
0
LINE
8
BLACK
6
CONTINUOUS
10
156.558
20
-77.51
11
155.758
21
-78.31
0
LINE
8
BLACK
6
CONTINUOUS
10
155.758
20
-90.31
11
156.558
21
-91.11
0
LINE
8
BLACK
6
CONTINUOUS
10
156.558
20
-90.31
11
155.758
21
-91.11
0
LINE
8
BLACK
6
CONTINUOUS
10
158.5
20
-80.2524
11
159.3
21
-81.0524
0
LINE
8
BLACK
6
CONTINUOUS
10
159.3
20
-80.2524
11
158.5
21
-81.0524
0
LINE
8
BLACK
6
CONTINUOUS
10
158.5
20
-87.5676
11
159.3
21
-88.3676
0
LINE
8
BLACK
6
CONTINUOUS
10
159.3
20
-87.5676
11
158.5
21
-88.3676
0
LINE
8
BLACK
6
CONTINUOUS
10
164.75
20
-100.692
11
165.55
21
-101.492
0
LINE
8
BLACK
6
CONTINUOUS
10
165.55
20
-100.692
11
164.75
21
-101.492
0
LINE
8
BLACK
6
CONTINUOUS
10
164.75
20
-108.008
11
165.55
21
-108.808
0
LINE
8
BLACK
6
CONTINUOUS
10
165.55
20
-108.008
11
164.75
21
-108.808
0
LINE
8
BLACK
6
CONTINUOUS
10
167.492
20
-97.95
11
168.292
21
-98.75
0
LINE
8
BLACK
6
CONTINUOUS
10
168.292
20
-97.95
11
167.492
21
-98.75
0
LINE
8
BLACK
6
CONTINUOUS
10
167.492
20
-110.75
11
168.292
21
-111.55
0
LINE
8
BLACK
6
CONTINUOUS
10
168.292
20
-110.75
11
167.492
21
-111.55
0
LINE
8
BLACK
6
CONTINUOUS
10
174.808
20
-97.95
11
175.608
21
-98.75
0
LINE
8
BLACK
6
CONTINUOUS
10
175.608
20
-97.95
11
174.808
21
-98.75
0
LINE
8
BLACK
6
CONTINUOUS
10
174.808
20
-110.75
11
175.608
21
-111.55
0
LINE
8
BLACK
6
CONTINUOUS
10
175.608
20
-110.75
11
174.808
21
-111.55
0
LINE
8
BLACK
6
CONTINUOUS
10
177.55
20
-100.692
11
178.35
21
-101.492
0
LINE
8
BLACK
6
CONTINUOUS
10
178.35
20
-100.692
11
177.55
21
-101.492
0
LINE
8
BLACK
6
CONTINUOUS
10
177.55
20
-108.008
11
178.35
21
-108.808
0
LINE
8
BLACK
6
CONTINUOUS
10
178.35
20
-108.008
11
177.55
21
-108.808
0
LINE
8
BLACK
6
CONTINUOUS
10
126.65
20
-100.692
11
127.45
21
-101.492
0
LINE
8
BLACK
6
CONTINUOUS
10
127.45
20
-100.692
11
126.65
21
-101.492
0
LINE
8
BLACK
6
CONTINUOUS
10
126.65
20
-108.008
11
127.45
21
-108.808
0
LINE
8
BLACK
6
CONTINUOUS
10
127.45
20
-108.008
11
126.65
21
-108.808
0
LINE
8
BLACK
6
CONTINUOUS
10
129.392
20
-97.95
11
130.192
21
-98.75
0
LINE
8
BLACK
6
CONTINUOUS
10
130.192
20
-97.95
11
129.392
21
-98.75
0
LINE
8
BLACK
6
CONTINUOUS
10
129.392
20
-110.75
11
130.192
21
-111.55
0
LINE
8
BLACK
6
CONTINUOUS
10
130.192
20
-110.75
11
129.392
21
-111.55
0
LINE
8
BLACK
6
CONTINUOUS
10
136.708
20
-97.95
11
137.508
21
-98.75
0
LINE
8
BLACK
6
CONTINUOUS
10
137.508
20
-97.95
11
136.708
21
-98.75
0
LINE
8
BLACK
6
CONTINUOUS
10
136.708
20
-110.75
11
137.508
21
-111.55
0
LINE
8
BLACK
6
CONTINUOUS
10
137.508
20
-110.75
11
136.708
21
-111.55
0
LINE
8
BLACK
6
CONTINUOUS
10
139.45
20
-100.692
11
140.25
21
-101.492
0
LINE
8
BLACK
6
CONTINUOUS
10
140.25
20
-100.692
11
139.45
21
-101.492
0
LINE
8
BLACK
6
CONTINUOUS
10
139.45
20
-108.008
11
140.25
21
-108.808
0
LINE
8
BLACK
6
CONTINUOUS
10
140.25
20
-108.008
11
139.45
21
-108.808
0
LINE
8
BLACK
6
CONTINUOUS
10
202.85
20
-49.8424
11
203.65
21
-50.6424
0
LINE
8
BLACK
6
CONTINUOUS
10
203.65
20
-49.8424
11
202.85
21
-50.6424
0
LINE
8
BLACK
6
CONTINUOUS
10
202.85
20
-57.1576
11
203.65
21
-57.9576
0
LINE
8
BLACK
6
CONTINUOUS
10
203.65
20
-57.1576
11
202.85
21
-57.9576
0
LINE
8
BLACK
6
CONTINUOUS
10
205.592
20
-47.1
11
206.392
21
-47.9
0
LINE
8
BLACK
6
CONTINUOUS
10
206.392
20
-47.1
11
205.592
21
-47.9
0
LINE
8
BLACK
6
CONTINUOUS
10
205.592
20
-59.9
11
206.392
21
-60.7
0
LINE
8
BLACK
6
CONTINUOUS
10
206.392
20
-59.9
11
205.592
21
-60.7
0
LINE
8
BLACK
6
CONTINUOUS
10
212.908
20
-47.1
11
213.708
21
-47.9
0
LINE
8
BLACK
6
CONTINUOUS
10
213.708
20
-47.1
11
212.908
21
-47.9
0
LINE
8
BLACK
6
CONTINUOUS
10
212.908
20
-59.9
11
213.708
21
-60.7
0
LINE
8
BLACK
6
CONTINUOUS
10
213.708
20
-59.9
11
212.908
21
-60.7
0
LINE
8
BLACK
6
CONTINUOUS
10
215.65
20
-49.8424
11
216.45
21
-50.6424
0
LINE
8
BLACK
6
CONTINUOUS
10
216.45
20
-49.8424
11
215.65
21
-50.6424
0
LINE
8
BLACK
6
CONTINUOUS
10
215.65
20
-57.1576
11
216.45
21
-57.9576
0
LINE
8
BLACK
6
CONTINUOUS
10
216.45
20
-57.1576
11
215.65
21
-57.9576
0
LINE
8
BLACK
6
CONTINUOUS
10
164.75
20
-81.6424
11
165.55
21
-82.4424
0
LINE
8
BLACK
6
CONTINUOUS
10
165.55
20
-81.6424
11
164.75
21
-82.4424
0
LINE
8
BLACK
6
CONTINUOUS
10
164.75
20
-88.9576
11
165.55
21
-89.7576
0
LINE
8
BLACK
6
CONTINUOUS
10
165.55
20
-88.9576
11
164.75
21
-89.7576
0
LINE
8
BLACK
6
CONTINUOUS
10
167.492
20
-78.9
11
168.292
21
-79.7
0
LINE
8
BLACK
6
CONTINUOUS
10
168.292
20
-78.9
11
167.492
21
-79.7
0
LINE
8
BLACK
6
CONTINUOUS
10
167.492
20
-91.7
11
168.292
21
-92.5
0
LINE
8
BLACK
6
CONTINUOUS
10
168.292
20
-91.7
11
167.492
21
-92.5
0
LINE
8
BLACK
6
CONTINUOUS
10
174.808
20
-78.9
11
175.608
21
-79.7
0
LINE
8
BLACK
6
CONTINUOUS
10
175.608
20
-78.9
11
174.808
21
-79.7
0
LINE
8
BLACK
6
CONTINUOUS
10
174.808
20
-91.7
11
175.608
21
-92.5
0
LINE
8
BLACK
6
CONTINUOUS
10
175.608
20
-91.7
11
174.808
21
-92.5
0
LINE
8
BLACK
6
CONTINUOUS
10
177.55
20
-81.6424
11
178.35
21
-82.4424
0
LINE
8
BLACK
6
CONTINUOUS
10
178.35
20
-81.6424
11
177.55
21
-82.4424
0
LINE
8
BLACK
6
CONTINUOUS
10
177.55
20
-88.9576
11
178.35
21
-89.7576
0
LINE
8
BLACK
6
CONTINUOUS
10
178.35
20
-88.9576
11
177.55
21
-89.7576
0
LINE
8
BLACK
6
CONTINUOUS
10
83.6748
20
-94.2277
11
84.4748
21
-95.0277
0
LINE
8
BLACK
6
CONTINUOUS
10
84.4748
20
-94.2277
11
83.6748
21
-95.0277
0
LINE
8
BLACK
6
CONTINUOUS
10
83.6748
20
-101.543
11
84.4748
21
-102.343
0
LINE
8
BLACK
6
CONTINUOUS
10
84.4748
20
-101.543
11
83.6748
21
-102.343
0
LINE
8
BLACK
6
CONTINUOUS
10
86.4172
20
-91.4853
11
87.2172
21
-92.2853
0
LINE
8
BLACK
6
CONTINUOUS
10
87.2172
20
-91.4853
11
86.4172
21
-92.2853
0
LINE
8
BLACK
6
CONTINUOUS
10
86.4172
20
-104.285
11
87.2172
21
-105.085
0
LINE
8
BLACK
6
CONTINUOUS
10
87.2172
20
-104.285
11
86.4172
21
-105.085
0
LINE
8
BLACK
6
CONTINUOUS
10
93.7324
20
-91.4853
11
94.5324
21
-92.2853
0
LINE
8
BLACK
6
CONTINUOUS
10
94.5324
20
-91.4853
11
93.7324
21
-92.2853
0
LINE
8
BLACK
6
CONTINUOUS
10
93.7324
20
-104.285
11
94.5324
21
-105.085
0
LINE
8
BLACK
6
CONTINUOUS
10
94.5324
20
-104.285
11
93.7324
21
-105.085
0
LINE
8
BLACK
6
CONTINUOUS
10
96.4748
20
-94.2277
11
97.2748
21
-95.0277
0
LINE
8
BLACK
6
CONTINUOUS
10
97.2748
20
-94.2277
11
96.4748
21
-95.0277
0
LINE
8
BLACK
6
CONTINUOUS
10
96.4748
20
-101.543
11
97.2748
21
-102.343
0
LINE
8
BLACK
6
CONTINUOUS
10
97.2748
20
-101.543
11
96.4748
21
-102.343
0
LINE
8
BLACK
6
CONTINUOUS
10
202.85
20
-106.992
11
203.65
21
-107.792
0
LINE
8
BLACK
6
CONTINUOUS
10
203.65
20
-106.992
11
202.85
21
-107.792
0
LINE
8
BLACK
6
CONTINUOUS
10
202.85
20
-114.308
11
203.65
21
-115.108
0
LINE
8
BLACK
6
CONTINUOUS
10
203.65
20
-114.308
11
202.85
21
-115.108
0
LINE
8
BLACK
6
CONTINUOUS
10
205.592
20
-104.25
11
206.392
21
-105.05
0
LINE
8
BLACK
6
CONTINUOUS
10
206.392
20
-104.25
11
205.592
21
-105.05
0
LINE
8
BLACK
6
CONTINUOUS
10
205.592
20
-117.05
11
206.392
21
-117.85
0
LINE
8
BLACK
6
CONTINUOUS
10
206.392
20
-117.05
11
205.592
21
-117.85
0
LINE
8
BLACK
6
CONTINUOUS
10
212.908
20
-104.25
11
213.708
21
-105.05
0
LINE
8
BLACK
6
CONTINUOUS
10
213.708
20
-104.25
11
212.908
21
-105.05
0
LINE
8
BLACK
6
CONTINUOUS
10
212.908
20
-117.05
11
213.708
21
-117.85
0
LINE
8
BLACK
6
CONTINUOUS
10
213.708
20
-117.05
11
212.908
21
-117.85
0
LINE
8
BLACK
6
CONTINUOUS
10
215.65
20
-106.992
11
216.45
21
-107.792
0
LINE
8
BLACK
6
CONTINUOUS
10
216.45
20
-106.992
11
215.65
21
-107.792
0
LINE
8
BLACK
6
CONTINUOUS
10
215.65
20
-114.308
11
216.45
21
-115.108
0
LINE
8
BLACK
6
CONTINUOUS
10
216.45
20
-114.308
11
215.65
21
-115.108
0
LINE
8
BLACK
6
CONTINUOUS
10
107.6
20
-45.9424
11
108.4
21
-46.7424
0
LINE
8
BLACK
6
CONTINUOUS
10
108.4
20
-45.9424
11
107.6
21
-46.7424
0
LINE
8
BLACK
6
CONTINUOUS
10
107.6
20
-53.2576
11
108.4
21
-54.0576
0
LINE
8
BLACK
6
CONTINUOUS
10
108.4
20
-53.2576
11
107.6
21
-54.0576
0
LINE
8
BLACK
6
CONTINUOUS
10
110.342
20
-43.2
11
111.142
21
-44
0
LINE
8
BLACK
6
CONTINUOUS
10
111.142
20
-43.2
11
110.342
21
-44
0
LINE
8
BLACK
6
CONTINUOUS
10
110.342
20
-56
11
111.142
21
-56.8
0
LINE
8
BLACK
6
CONTINUOUS
10
111.142
20
-56
11
110.342
21
-56.8
0
LINE
8
BLACK
6
CONTINUOUS
10
117.658
20
-43.2
11
118.458
21
-44
0
LINE
8
BLACK
6
CONTINUOUS
10
118.458
20
-43.2
11
117.658
21
-44
0
LINE
8
BLACK
6
CONTINUOUS
10
117.658
20
-56
11
118.458
21
-56.8
0
LINE
8
BLACK
6
CONTINUOUS
10
118.458
20
-56
11
117.658
21
-56.8
0
LINE
8
BLACK
6
CONTINUOUS
10
120.4
20
-45.9424
11
121.2
21
-46.7424
0
LINE
8
BLACK
6
CONTINUOUS
10
121.2
20
-45.9424
11
120.4
21
-46.7424
0
LINE
8
BLACK
6
CONTINUOUS
10
120.4
20
-53.2576
11
121.2
21
-54.0576
0
LINE
8
BLACK
6
CONTINUOUS
10
121.2
20
-53.2576
11
120.4
21
-54.0576
0
LINE
8
BLACK
6
CONTINUOUS
10
126.65
20
-43.5424
11
127.45
21
-44.3424
0
LINE
8
BLACK
6
CONTINUOUS
10
127.45
20
-43.5424
11
126.65
21
-44.3424
0
LINE
8
BLACK
6
CONTINUOUS
10
126.65
20
-50.8576
11
127.45
21
-51.6576
0
LINE
8
BLACK
6
CONTINUOUS
10
127.45
20
-50.8576
11
126.65
21
-51.6576
0
LINE
8
BLACK
6
CONTINUOUS
10
129.392
20
-40.8
11
130.192
21
-41.6
0
LINE
8
BLACK
6
CONTINUOUS
10
130.192
20
-40.8
11
129.392
21
-41.6
0
LINE
8
BLACK
6
CONTINUOUS
10
129.392
20
-53.6
11
130.192
21
-54.4
0
LINE
8
BLACK
6
CONTINUOUS
10
130.192
20
-53.6
11
129.392
21
-54.4
0
LINE
8
BLACK
6
CONTINUOUS
10
136.708
20
-40.8
11
137.508
21
-41.6
0
LINE
8
BLACK
6
CONTINUOUS
10
137.508
20
-40.8
11
136.708
21
-41.6
0
LINE
8
BLACK
6
CONTINUOUS
10
136.708
20
-53.6
11
137.508
21
-54.4
0
LINE
8
BLACK
6
CONTINUOUS
10
137.508
20
-53.6
11
136.708
21
-54.4
0
LINE
8
BLACK
6
CONTINUOUS
10
139.45
20
-43.5424
11
140.25
21
-44.3424
0
LINE
8
BLACK
6
CONTINUOUS
10
140.25
20
-43.5424
11
139.45
21
-44.3424
0
LINE
8
BLACK
6
CONTINUOUS
10
139.45
20
-50.8576
11
140.25
21
-51.6576
0
LINE
8
BLACK
6
CONTINUOUS
10
140.25
20
-50.8576
11
139.45
21
-51.6576
0
LINE
8
BLACK
6
CONTINUOUS
10
164.75
20
-62.5924
11
165.55
21
-63.3924
0
LINE
8
BLACK
6
CONTINUOUS
10
165.55
20
-62.5924
11
164.75
21
-63.3924
0
LINE
8
BLACK
6
CONTINUOUS
10
164.75
20
-69.9076
11
165.55
21
-70.7076
0
LINE
8
BLACK
6
CONTINUOUS
10
165.55
20
-69.9076
11
164.75
21
-70.7076
0
LINE
8
BLACK
6
CONTINUOUS
10
167.492
20
-59.85
11
168.292
21
-60.65
0
LINE
8
BLACK
6
CONTINUOUS
10
168.292
20
-59.85
11
167.492
21
-60.65
0
LINE
8
BLACK
6
CONTINUOUS
10
167.492
20
-72.65
11
168.292
21
-73.45
0
LINE
8
BLACK
6
CONTINUOUS
10
168.292
20
-72.65
11
167.492
21
-73.45
0
LINE
8
BLACK
6
CONTINUOUS
10
174.808
20
-59.85
11
175.608
21
-60.65
0
LINE
8
BLACK
6
CONTINUOUS
10
175.608
20
-59.85
11
174.808
21
-60.65
0
LINE
8
BLACK
6
CONTINUOUS
10
174.808
20
-72.65
11
175.608
21
-73.45
0
LINE
8
BLACK
6
CONTINUOUS
10
175.608
20
-72.65
11
174.808
21
-73.45
0
LINE
8
BLACK
6
CONTINUOUS
10
177.55
20
-62.5924
11
178.35
21
-63.3924
0
LINE
8
BLACK
6
CONTINUOUS
10
178.35
20
-62.5924
11
177.55
21
-63.3924
0
LINE
8
BLACK
6
CONTINUOUS
10
177.55
20
-69.9076
11
178.35
21
-70.7076
0
LINE
8
BLACK
6
CONTINUOUS
10
178.35
20
-69.9076
11
177.55
21
-70.7076
0
LINE
8
BLACK
6
CONTINUOUS
10
202.85
20
-87.9424
11
203.65
21
-88.7424
0
LINE
8
BLACK
6
CONTINUOUS
10
203.65
20
-87.9424
11
202.85
21
-88.7424
0
LINE
8
BLACK
6
CONTINUOUS
10
202.85
20
-95.2576
11
203.65
21
-96.0576
0
LINE
8
BLACK
6
CONTINUOUS
10
203.65
20
-95.2576
11
202.85
21
-96.0576
0
LINE
8
BLACK
6
CONTINUOUS
10
205.592
20
-85.2
11
206.392
21
-86
0
LINE
8
BLACK
6
CONTINUOUS
10
206.392
20
-85.2
11
205.592
21
-86
0
LINE
8
BLACK
6
CONTINUOUS
10
205.592
20
-98
11
206.392
21
-98.8
0
LINE
8
BLACK
6
CONTINUOUS
10
206.392
20
-98
11
205.592
21
-98.8
0
LINE
8
BLACK
6
CONTINUOUS
10
212.908
20
-85.2
11
213.708
21
-86
0
LINE
8
BLACK
6
CONTINUOUS
10
213.708
20
-85.2
11
212.908
21
-86
0
LINE
8
BLACK
6
CONTINUOUS
10
212.908
20
-98
11
213.708
21
-98.8
0
LINE
8
BLACK
6
CONTINUOUS
10
213.708
20
-98
11
212.908
21
-98.8
0
LINE
8
BLACK
6
CONTINUOUS
10
215.65
20
-87.9424
11
216.45
21
-88.7424
0
LINE
8
BLACK
6
CONTINUOUS
10
216.45
20
-87.9424
11
215.65
21
-88.7424
0
LINE
8
BLACK
6
CONTINUOUS
10
215.65
20
-95.2576
11
216.45
21
-96.0576
0
LINE
8
BLACK
6
CONTINUOUS
10
216.45
20
-95.2576
11
215.65
21
-96.0576
0
LINE
8
BLACK
6
CONTINUOUS
10
90.3996
20
-125.68
11
91.1996
21
-126.48
0
LINE
8
BLACK
6
CONTINUOUS
10
91.1996
20
-125.68
11
90.3996
21
-126.48
0
LINE
8
BLACK
6
CONTINUOUS
10
91.4034
20
-121.934
11
92.2034
21
-122.734
0
LINE
8
BLACK
6
CONTINUOUS
10
92.2034
20
-121.934
11
91.4034
21
-122.734
0
LINE
8
BLACK
6
CONTINUOUS
10
94.0572
20
-132.015
11
94.8572
21
-132.815
0
LINE
8
BLACK
6
CONTINUOUS
10
94.8572
20
-132.015
11
94.0572
21
-132.815
0
LINE
8
BLACK
6
CONTINUOUS
10
97.7386
20
-118.276
11
98.5386
21
-119.076
0
LINE
8
BLACK
6
CONTINUOUS
10
98.5386
20
-118.276
11
97.7386
21
-119.076
0
LINE
8
BLACK
6
CONTINUOUS
10
97.8034
20
-133.019
11
98.6034
21
-133.819
0
LINE
8
BLACK
6
CONTINUOUS
10
98.6034
20
-133.019
11
97.8034
21
-133.819
0
LINE
8
BLACK
6
CONTINUOUS
10
101.485
20
-119.28
11
102.285
21
-120.08
0
LINE
8
BLACK
6
CONTINUOUS
10
102.285
20
-119.28
11
101.485
21
-120.08
0
LINE
8
BLACK
6
CONTINUOUS
10
104.139
20
-129.361
11
104.939
21
-130.161
0
LINE
8
BLACK
6
CONTINUOUS
10
104.939
20
-129.361
11
104.139
21
-130.161
0
LINE
8
BLACK
6
CONTINUOUS
10
105.142
20
-125.615
11
105.942
21
-126.415
0
LINE
8
BLACK
6
CONTINUOUS
10
105.942
20
-125.615
11
105.142
21
-126.415
0
LINE
8
BLACK
6
CONTINUOUS
10
145.7
20
-99.3024
11
146.5
21
-100.102
0
LINE
8
BLACK
6
CONTINUOUS
10
146.5
20
-99.3024
11
145.7
21
-100.102
0
LINE
8
BLACK
6
CONTINUOUS
10
145.7
20
-106.618
11
146.5
21
-107.418
0
LINE
8
BLACK
6
CONTINUOUS
10
146.5
20
-106.618
11
145.7
21
-107.418
0
LINE
8
BLACK
6
CONTINUOUS
10
148.442
20
-96.56
11
149.242
21
-97.36
0
LINE
8
BLACK
6
CONTINUOUS
10
149.242
20
-96.56
11
148.442
21
-97.36
0
LINE
8
BLACK
6
CONTINUOUS
10
148.442
20
-109.36
11
149.242
21
-110.16
0
LINE
8
BLACK
6
CONTINUOUS
10
149.242
20
-109.36
11
148.442
21
-110.16
0
LINE
8
BLACK
6
CONTINUOUS
10
155.758
20
-96.56
11
156.558
21
-97.36
0
LINE
8
BLACK
6
CONTINUOUS
10
156.558
20
-96.56
11
155.758
21
-97.36
0
LINE
8
BLACK
6
CONTINUOUS
10
155.758
20
-109.36
11
156.558
21
-110.16
0
LINE
8
BLACK
6
CONTINUOUS
10
156.558
20
-109.36
11
155.758
21
-110.16
0
LINE
8
BLACK
6
CONTINUOUS
10
158.5
20
-99.3024
11
159.3
21
-100.102
0
LINE
8
BLACK
6
CONTINUOUS
10
159.3
20
-99.3024
11
158.5
21
-100.102
0
LINE
8
BLACK
6
CONTINUOUS
10
158.5
20
-106.618
11
159.3
21
-107.418
0
LINE
8
BLACK
6
CONTINUOUS
10
159.3
20
-106.618
11
158.5
21
-107.418
0
LINE
8
BLACK
6
CONTINUOUS
10
136.098
20
-120.771
11
136.898
21
-121.571
0
LINE
8
BLACK
6
CONTINUOUS
10
136.898
20
-120.771
11
136.098
21
-121.571
0
LINE
8
BLACK
6
CONTINUOUS
10
136.098
20
-128.086
11
136.898
21
-128.886
0
LINE
8
BLACK
6
CONTINUOUS
10
136.898
20
-128.086
11
136.098
21
-128.886
0
LINE
8
BLACK
6
CONTINUOUS
10
138.84
20
-118.028
11
139.64
21
-118.828
0
LINE
8
BLACK
6
CONTINUOUS
10
139.64
20
-118.028
11
138.84
21
-118.828
0
LINE
8
BLACK
6
CONTINUOUS
10
138.84
20
-130.828
11
139.64
21
-131.628
0
LINE
8
BLACK
6
CONTINUOUS
10
139.64
20
-130.828
11
138.84
21
-131.628
0
LINE
8
BLACK
6
CONTINUOUS
10
146.155
20
-118.028
11
146.955
21
-118.828
0
LINE
8
BLACK
6
CONTINUOUS
10
146.955
20
-118.028
11
146.155
21
-118.828
0
LINE
8
BLACK
6
CONTINUOUS
10
146.155
20
-130.828
11
146.955
21
-131.628
0
LINE
8
BLACK
6
CONTINUOUS
10
146.955
20
-130.828
11
146.155
21
-131.628
0
LINE
8
BLACK
6
CONTINUOUS
10
148.898
20
-120.771
11
149.698
21
-121.571
0
LINE
8
BLACK
6
CONTINUOUS
10
149.698
20
-120.771
11
148.898
21
-121.571
0
LINE
8
BLACK
6
CONTINUOUS
10
148.898
20
-128.086
11
149.698
21
-128.886
0
LINE
8
BLACK
6
CONTINUOUS
10
149.698
20
-128.086
11
148.898
21
-128.886
0
LINE
8
BLACK
6
CONTINUOUS
10
164.75
20
-43.5424
11
165.55
21
-44.3424
0
LINE
8
BLACK
6
CONTINUOUS
10
165.55
20
-43.5424
11
164.75
21
-44.3424
0
LINE
8
BLACK
6
CONTINUOUS
10
164.75
20
-50.8576
11
165.55
21
-51.6576
0
LINE
8
BLACK
6
CONTINUOUS
10
165.55
20
-50.8576
11
164.75
21
-51.6576
0
LINE
8
BLACK
6
CONTINUOUS
10
167.492
20
-40.8
11
168.292
21
-41.6
0
LINE
8
BLACK
6
CONTINUOUS
10
168.292
20
-40.8
11
167.492
21
-41.6
0
LINE
8
BLACK
6
CONTINUOUS
10
167.492
20
-53.6
11
168.292
21
-54.4
0
LINE
8
BLACK
6
CONTINUOUS
10
168.292
20
-53.6
11
167.492
21
-54.4
0
LINE
8
BLACK
6
CONTINUOUS
10
174.808
20
-40.8
11
175.608
21
-41.6
0
LINE
8
BLACK
6
CONTINUOUS
10
175.608
20
-40.8
11
174.808
21
-41.6
0
LINE
8
BLACK
6
CONTINUOUS
10
174.808
20
-53.6
11
175.608
21
-54.4
0
LINE
8
BLACK
6
CONTINUOUS
10
175.608
20
-53.6
11
174.808
21
-54.4
0
LINE
8
BLACK
6
CONTINUOUS
10
177.55
20
-43.5424
11
178.35
21
-44.3424
0
LINE
8
BLACK
6
CONTINUOUS
10
178.35
20
-43.5424
11
177.55
21
-44.3424
0
LINE
8
BLACK
6
CONTINUOUS
10
177.55
20
-50.8576
11
178.35
21
-51.6576
0
LINE
8
BLACK
6
CONTINUOUS
10
178.35
20
-50.8576
11
177.55
21
-51.6576
0
LINE
8
BLACK
6
CONTINUOUS
10
117.05
20
-122.142
11
117.85
21
-122.942
0
LINE
8
BLACK
6
CONTINUOUS
10
117.85
20
-122.142
11
117.05
21
-122.942
0
LINE
8
BLACK
6
CONTINUOUS
10
117.05
20
-129.458
11
117.85
21
-130.258
0
LINE
8
BLACK
6
CONTINUOUS
10
117.85
20
-129.458
11
117.05
21
-130.258
0
LINE
8
BLACK
6
CONTINUOUS
10
119.792
20
-119.4
11
120.592
21
-120.2
0
LINE
8
BLACK
6
CONTINUOUS
10
120.592
20
-119.4
11
119.792
21
-120.2
0
LINE
8
BLACK
6
CONTINUOUS
10
119.792
20
-132.2
11
120.592
21
-133
0
LINE
8
BLACK
6
CONTINUOUS
10
120.592
20
-132.2
11
119.792
21
-133
0
LINE
8
BLACK
6
CONTINUOUS
10
127.108
20
-119.4
11
127.908
21
-120.2
0
LINE
8
BLACK
6
CONTINUOUS
10
127.908
20
-119.4
11
127.108
21
-120.2
0
LINE
8
BLACK
6
CONTINUOUS
10
127.108
20
-132.2
11
127.908
21
-133
0
LINE
8
BLACK
6
CONTINUOUS
10
127.908
20
-132.2
11
127.108
21
-133
0
LINE
8
BLACK
6
CONTINUOUS
10
129.85
20
-122.142
11
130.65
21
-122.942
0
LINE
8
BLACK
6
CONTINUOUS
10
130.65
20
-122.142
11
129.85
21
-122.942
0
LINE
8
BLACK
6
CONTINUOUS
10
129.85
20
-129.458
11
130.65
21
-130.258
0
LINE
8
BLACK
6
CONTINUOUS
10
130.65
20
-129.458
11
129.85
21
-130.258
0
LINE
8
BLACK
6
CONTINUOUS
10
155.15
20
-119.742
11
155.95
21
-120.542
0
LINE
8
BLACK
6
CONTINUOUS
10
155.95
20
-119.742
11
155.15
21
-120.542
0
LINE
8
BLACK
6
CONTINUOUS
10
155.15
20
-127.058
11
155.95
21
-127.858
0
LINE
8
BLACK
6
CONTINUOUS
10
155.95
20
-127.058
11
155.15
21
-127.858
0
LINE
8
BLACK
6
CONTINUOUS
10
157.892
20
-117
11
158.692
21
-117.8
0
LINE
8
BLACK
6
CONTINUOUS
10
158.692
20
-117
11
157.892
21
-117.8
0
LINE
8
BLACK
6
CONTINUOUS
10
157.892
20
-129.8
11
158.692
21
-130.6
0
LINE
8
BLACK
6
CONTINUOUS
10
158.692
20
-129.8
11
157.892
21
-130.6
0
LINE
8
BLACK
6
CONTINUOUS
10
165.208
20
-117
11
166.008
21
-117.8
0
LINE
8
BLACK
6
CONTINUOUS
10
166.008
20
-117
11
165.208
21
-117.8
0
LINE
8
BLACK
6
CONTINUOUS
10
165.208
20
-129.8
11
166.008
21
-130.6
0
LINE
8
BLACK
6
CONTINUOUS
10
166.008
20
-129.8
11
165.208
21
-130.6
0
LINE
8
BLACK
6
CONTINUOUS
10
167.95
20
-119.742
11
168.75
21
-120.542
0
LINE
8
BLACK
6
CONTINUOUS
10
168.75
20
-119.742
11
167.95
21
-120.542
0
LINE
8
BLACK
6
CONTINUOUS
10
167.95
20
-127.058
11
168.75
21
-127.858
0
LINE
8
BLACK
6
CONTINUOUS
10
168.75
20
-127.058
11
167.95
21
-127.858
0
LINE
8
BLACK
6
CONTINUOUS
10
145.7
20
-42.1524
11
146.5
21
-42.9524
0
LINE
8
BLACK
6
CONTINUOUS
10
146.5
20
-42.1524
11
145.7
21
-42.9524
0
LINE
8
BLACK
6
CONTINUOUS
10
145.7
20
-49.4676
11
146.5
21
-50.2676
0
LINE
8
BLACK
6
CONTINUOUS
10
146.5
20
-49.4676
11
145.7
21
-50.2676
0
LINE
8
BLACK
6
CONTINUOUS
10
148.442
20
-39.41
11
149.242
21
-40.21
0
LINE
8
BLACK
6
CONTINUOUS
10
149.242
20
-39.41
11
148.442
21
-40.21
0
LINE
8
BLACK
6
CONTINUOUS
10
148.442
20
-52.21
11
149.242
21
-53.01
0
LINE
8
BLACK
6
CONTINUOUS
10
149.242
20
-52.21
11
148.442
21
-53.01
0
LINE
8
BLACK
6
CONTINUOUS
10
155.758
20
-39.41
11
156.558
21
-40.21
0
LINE
8
BLACK
6
CONTINUOUS
10
156.558
20
-39.41
11
155.758
21
-40.21
0
LINE
8
BLACK
6
CONTINUOUS
10
155.758
20
-52.21
11
156.558
21
-53.01
0
LINE
8
BLACK
6
CONTINUOUS
10
156.558
20
-52.21
11
155.758
21
-53.01
0
LINE
8
BLACK
6
CONTINUOUS
10
158.5
20
-42.1524
11
159.3
21
-42.9524
0
LINE
8
BLACK
6
CONTINUOUS
10
159.3
20
-42.1524
11
158.5
21
-42.9524
0
LINE
8
BLACK
6
CONTINUOUS
10
158.5
20
-49.4676
11
159.3
21
-50.2676
0
LINE
8
BLACK
6
CONTINUOUS
10
159.3
20
-49.4676
11
158.5
21
-50.2676
0
CIRCLE
8
BLACK
10
86.167
20
-53.394
40
0.45
0
CIRCLE
8
BLACK
10
86.167
20
-54.594
40
0.45
0
CIRCLE
8
BLACK
10
86.167
20
-55.794
40
0.45
0
CIRCLE
8
BLACK
10
90.297
20
-60.194
40
0.45
0
CIRCLE
8
BLACK
10
90.437
20
-48.994
40
0.45
0
CIRCLE
8
BLACK
10
91.497
20
-60.194
40
0.45
0
CIRCLE
8
BLACK
10
91.637
20
-48.994
40
0.45
0
CIRCLE
8
BLACK
10
92.697
20
-60.194
40
0.45
0
CIRCLE
8
BLACK
10
92.837
20
-48.994
40
0.45
0
CIRCLE
8
BLACK
10
96.967
20
-53.394
40
0.45
0
CIRCLE
8
BLACK
10
96.967
20
-54.594
40
0.45
0
CIRCLE
8
BLACK
10
96.967
20
-55.794
40
0.45
0
LINE
8
BLACK
6
CONTINUOUS
10
145.921
20
-58.1814
11
145.921
21
-59.1814
0
LINE
8
BLACK
6
CONTINUOUS
10
145.421
20
-58.6814
11
146.421
21
-58.6814
0
LINE
8
BLACK
6
CONTINUOUS
10
145.921
20
-71.3386
11
145.921
21
-72.3386
0
LINE
8
BLACK
6
CONTINUOUS
10
145.421
20
-71.8386
11
146.421
21
-71.8386
0
LINE
8
BLACK
6
CONTINUOUS
10
159.079
20
-58.1814
11
159.079
21
-59.1814
0
LINE
8
BLACK
6
CONTINUOUS
10
158.579
20
-58.6814
11
159.579
21
-58.6814
0
LINE
8
BLACK
6
CONTINUOUS
10
159.079
20
-71.3386
11
159.079
21
-72.3386
0
LINE
8
BLACK
6
CONTINUOUS
10
158.579
20
-71.8386
11
159.579
21
-71.8386
0
LINE
8
BLACK
6
CONTINUOUS
10
107.821
20
-61.9714
11
107.821
21
-62.9714
0
LINE
8
BLACK
6
CONTINUOUS
10
107.321
20
-62.4714
11
108.321
21
-62.4714
0
LINE
8
BLACK
6
CONTINUOUS
10
107.821
20
-75.1286
11
107.821
21
-76.1286
0
LINE
8
BLACK
6
CONTINUOUS
10
107.321
20
-75.6286
11
108.321
21
-75.6286
0
LINE
8
BLACK
6
CONTINUOUS
10
120.979
20
-61.9714
11
120.979
21
-62.9714
0
LINE
8
BLACK
6
CONTINUOUS
10
120.479
20
-62.4714
11
121.479
21
-62.4714
0
LINE
8
BLACK
6
CONTINUOUS
10
120.979
20
-75.1286
11
120.979
21
-76.1286
0
LINE
8
BLACK
6
CONTINUOUS
10
120.479
20
-75.6286
11
121.479
21
-75.6286
0
LINE
8
BLACK
6
CONTINUOUS
10
126.871
20
-78.6214
11
126.871
21
-79.6214
0
LINE
8
BLACK
6
CONTINUOUS
10
126.371
20
-79.1214
11
127.371
21
-79.1214
0
LINE
8
BLACK
6
CONTINUOUS
10
126.871
20
-91.7786
11
126.871
21
-92.7786
0
LINE
8
BLACK
6
CONTINUOUS
10
126.371
20
-92.2786
11
127.371
21
-92.2786
0
LINE
8
BLACK
6
CONTINUOUS
10
140.029
20
-78.6214
11
140.029
21
-79.6214
0
LINE
8
BLACK
6
CONTINUOUS
10
139.529
20
-79.1214
11
140.529
21
-79.1214
0
LINE
8
BLACK
6
CONTINUOUS
10
140.029
20
-91.7786
11
140.029
21
-92.7786
0
LINE
8
BLACK
6
CONTINUOUS
10
139.529
20
-92.2786
11
140.529
21
-92.2786
0
LINE
8
BLACK
6
CONTINUOUS
10
107.821
20
-100.071
11
107.821
21
-101.071
0
LINE
8
BLACK
6
CONTINUOUS
10
107.321
20
-100.571
11
108.321
21
-100.571
0
LINE
8
BLACK
6
CONTINUOUS
10
107.821
20
-113.229
11
107.821
21
-114.229
0
LINE
8
BLACK
6
CONTINUOUS
10
107.321
20
-113.729
11
108.321
21
-113.729
0
LINE
8
BLACK
6
CONTINUOUS
10
120.979
20
-100.071
11
120.979
21
-101.071
0
LINE
8
BLACK
6
CONTINUOUS
10
120.479
20
-100.571
11
121.479
21
-100.571
0
LINE
8
BLACK
6
CONTINUOUS
10
120.979
20
-113.229
11
120.979
21
-114.229
0
LINE
8
BLACK
6
CONTINUOUS
10
120.479
20
-113.729
11
121.479
21
-113.729
0
LINE
8
BLACK
6
CONTINUOUS
10
203.071
20
-65.8714
11
203.071
21
-66.8714
0
LINE
8
BLACK
6
CONTINUOUS
10
202.571
20
-66.3714
11
203.571
21
-66.3714
0
LINE
8
BLACK
6
CONTINUOUS
10
203.071
20
-79.0286
11
203.071
21
-80.0286
0
LINE
8
BLACK
6
CONTINUOUS
10
202.571
20
-79.5286
11
203.571
21
-79.5286
0
LINE
8
BLACK
6
CONTINUOUS
10
216.229
20
-65.8714
11
216.229
21
-66.8714
0
LINE
8
BLACK
6
CONTINUOUS
10
215.729
20
-66.3714
11
216.729
21
-66.3714
0
LINE
8
BLACK
6
CONTINUOUS
10
216.229
20
-79.0286
11
216.229
21
-80.0286
0
LINE
8
BLACK
6
CONTINUOUS
10
215.729
20
-79.5286
11
216.729
21
-79.5286
0
LINE
8
BLACK
6
CONTINUOUS
10
184.021
20
-102.471
11
184.021
21
-103.471
0
LINE
8
BLACK
6
CONTINUOUS
10
183.521
20
-102.971
11
184.521
21
-102.971
0
LINE
8
BLACK
6
CONTINUOUS
10
184.021
20
-115.629
11
184.021
21
-116.629
0
LINE
8
BLACK
6
CONTINUOUS
10
183.521
20
-116.129
11
184.521
21
-116.129
0
LINE
8
BLACK
6
CONTINUOUS
10
197.179
20
-102.471
11
197.179
21
-103.471
0
LINE
8
BLACK
6
CONTINUOUS
10
196.679
20
-102.971
11
197.679
21
-102.971
0
LINE
8
BLACK
6
CONTINUOUS
10
197.179
20
-115.629
11
197.179
21
-116.629
0
LINE
8
BLACK
6
CONTINUOUS
10
196.679
20
-116.129
11
197.679
21
-116.129
0
LINE
8
BLACK
6
CONTINUOUS
10
184.021
20
-45.3214
11
184.021
21
-46.3214
0
LINE
8
BLACK
6
CONTINUOUS
10
183.521
20
-45.8214
11
184.521
21
-45.8214
0
LINE
8
BLACK
6
CONTINUOUS
10
184.021
20
-58.4786
11
184.021
21
-59.4786
0
LINE
8
BLACK
6
CONTINUOUS
10
183.521
20
-58.9786
11
184.521
21
-58.9786
0
LINE
8
BLACK
6
CONTINUOUS
10
197.179
20
-45.3214
11
197.179
21
-46.3214
0
LINE
8
BLACK
6
CONTINUOUS
10
196.679
20
-45.8214
11
197.679
21
-45.8214
0
LINE
8
BLACK
6
CONTINUOUS
10
197.179
20
-58.4786
11
197.179
21
-59.4786
0
LINE
8
BLACK
6
CONTINUOUS
10
196.679
20
-58.9786
11
197.679
21
-58.9786
0
LINE
8
BLACK
6
CONTINUOUS
10
126.871
20
-59.5714
11
126.871
21
-60.5714
0
LINE
8
BLACK
6
CONTINUOUS
10
126.371
20
-60.0714
11
127.371
21
-60.0714
0
LINE
8
BLACK
6
CONTINUOUS
10
126.871
20
-72.7286
11
126.871
21
-73.7286
0
LINE
8
BLACK
6
CONTINUOUS
10
126.371
20
-73.2286
11
127.371
21
-73.2286
0
LINE
8
BLACK
6
CONTINUOUS
10
140.029
20
-59.5714
11
140.029
21
-60.5714
0
LINE
8
BLACK
6
CONTINUOUS
10
139.529
20
-60.0714
11
140.529
21
-60.0714
0
LINE
8
BLACK
6
CONTINUOUS
10
140.029
20
-72.7286
11
140.029
21
-73.7286
0
LINE
8
BLACK
6
CONTINUOUS
10
139.529
20
-73.2286
11
140.529
21
-73.2286
0
LINE
8
BLACK
6
CONTINUOUS
10
145.921
20
-77.2314
11
145.921
21
-78.2314
0
LINE
8
BLACK
6
CONTINUOUS
10
145.421
20
-77.7314
11
146.421
21
-77.7314
0
LINE
8
BLACK
6
CONTINUOUS
10
145.921
20
-90.3886
11
145.921
21
-91.3886
0
LINE
8
BLACK
6
CONTINUOUS
10
145.421
20
-90.8886
11
146.421
21
-90.8886
0
LINE
8
BLACK
6
CONTINUOUS
10
159.079
20
-77.2314
11
159.079
21
-78.2314
0
LINE
8
BLACK
6
CONTINUOUS
10
158.579
20
-77.7314
11
159.579
21
-77.7314
0
LINE
8
BLACK
6
CONTINUOUS
10
159.079
20
-90.3886
11
159.079
21
-91.3886
0
LINE
8
BLACK
6
CONTINUOUS
10
158.579
20
-90.8886
11
159.579
21
-90.8886
0
LINE
8
BLACK
6
CONTINUOUS
10
164.971
20
-97.6714
11
164.971
21
-98.6714
0
LINE
8
BLACK
6
CONTINUOUS
10
164.471
20
-98.1714
11
165.471
21
-98.1714
0
LINE
8
BLACK
6
CONTINUOUS
10
164.971
20
-110.829
11
164.971
21
-111.829
0
LINE
8
BLACK
6
CONTINUOUS
10
164.471
20
-111.329
11
165.471
21
-111.329
0
LINE
8
BLACK
6
CONTINUOUS
10
178.129
20
-97.6714
11
178.129
21
-98.6714
0
LINE
8
BLACK
6
CONTINUOUS
10
177.629
20
-98.1714
11
178.629
21
-98.1714
0
LINE
8
BLACK
6
CONTINUOUS
10
178.129
20
-110.829
11
178.129
21
-111.829
0
LINE
8
BLACK
6
CONTINUOUS
10
177.629
20
-111.329
11
178.629
21
-111.329
0
LINE
8
BLACK
6
CONTINUOUS
10
126.871
20
-97.6714
11
126.871
21
-98.6714
0
LINE
8
BLACK
6
CONTINUOUS
10
126.371
20
-98.1714
11
127.371
21
-98.1714
0
LINE
8
BLACK
6
CONTINUOUS
10
126.871
20
-110.829
11
126.871
21
-111.829
0
LINE
8
BLACK
6
CONTINUOUS
10
126.371
20
-111.329
11
127.371
21
-111.329
0
LINE
8
BLACK
6
CONTINUOUS
10
140.029
20
-97.6714
11
140.029
21
-98.6714
0
LINE
8
BLACK
6
CONTINUOUS
10
139.529
20
-98.1714
11
140.529
21
-98.1714
0
LINE
8
BLACK
6
CONTINUOUS
10
140.029
20
-110.829
11
140.029
21
-111.829
0
LINE
8
BLACK
6
CONTINUOUS
10
139.529
20
-111.329
11
140.529
21
-111.329
0
LINE
8
BLACK
6
CONTINUOUS
10
203.071
20
-46.8214
11
203.071
21
-47.8214
0
LINE
8
BLACK
6
CONTINUOUS
10
202.571
20
-47.3214
11
203.571
21
-47.3214
0
LINE
8
BLACK
6
CONTINUOUS
10
203.071
20
-59.9786
11
203.071
21
-60.9786
0
LINE
8
BLACK
6
CONTINUOUS
10
202.571
20
-60.4786
11
203.571
21
-60.4786
0
LINE
8
BLACK
6
CONTINUOUS
10
216.229
20
-46.8214
11
216.229
21
-47.8214
0
LINE
8
BLACK
6
CONTINUOUS
10
215.729
20
-47.3214
11
216.729
21
-47.3214
0
LINE
8
BLACK
6
CONTINUOUS
10
216.229
20
-59.9786
11
216.229
21
-60.9786
0
LINE
8
BLACK
6
CONTINUOUS
10
215.729
20
-60.4786
11
216.729
21
-60.4786
0
LINE
8
BLACK
6
CONTINUOUS
10
164.971
20
-78.6214
11
164.971
21
-79.6214
0
LINE
8
BLACK
6
CONTINUOUS
10
164.471
20
-79.1214
11
165.471
21
-79.1214
0
LINE
8
BLACK
6
CONTINUOUS
10
164.971
20
-91.7786
11
164.971
21
-92.7786
0
LINE
8
BLACK
6
CONTINUOUS
10
164.471
20
-92.2786
11
165.471
21
-92.2786
0
LINE
8
BLACK
6
CONTINUOUS
10
178.129
20
-78.6214
11
178.129
21
-79.6214
0
LINE
8
BLACK
6
CONTINUOUS
10
177.629
20
-79.1214
11
178.629
21
-79.1214
0
LINE
8
BLACK
6
CONTINUOUS
10
178.129
20
-91.7786
11
178.129
21
-92.7786
0
LINE
8
BLACK
6
CONTINUOUS
10
177.629
20
-92.2786
11
178.629
21
-92.2786
0
LINE
8
BLACK
6
CONTINUOUS
10
83.8962
20
-91.2067
11
83.8962
21
-92.2067
0
LINE
8
BLACK
6
CONTINUOUS
10
83.3962
20
-91.7067
11
84.3962
21
-91.7067
0
LINE
8
BLACK
6
CONTINUOUS
10
83.8962
20
-104.364
11
83.8962
21
-105.364
0
LINE
8
BLACK
6
CONTINUOUS
10
83.3962
20
-104.864
11
84.3962
21
-104.864
0
LINE
8
BLACK
6
CONTINUOUS
10
97.0534
20
-91.2067
11
97.0534
21
-92.2067
0
LINE
8
BLACK
6
CONTINUOUS
10
96.5534
20
-91.7067
11
97.5534
21
-91.7067
0
LINE
8
BLACK
6
CONTINUOUS
10
97.0534
20
-104.364
11
97.0534
21
-105.364
0
LINE
8
BLACK
6
CONTINUOUS
10
96.5534
20
-104.864
11
97.5534
21
-104.864
0
LINE
8
BLACK
6
CONTINUOUS
10
203.071
20
-103.971
11
203.071
21
-104.971
0
LINE
8
BLACK
6
CONTINUOUS
10
202.571
20
-104.471
11
203.571
21
-104.471
0
LINE
8
BLACK
6
CONTINUOUS
10
203.071
20
-117.129
11
203.071
21
-118.129
0
LINE
8
BLACK
6
CONTINUOUS
10
202.571
20
-117.629
11
203.571
21
-117.629
0
LINE
8
BLACK
6
CONTINUOUS
10
216.229
20
-103.971
11
216.229
21
-104.971
0
LINE
8
BLACK
6
CONTINUOUS
10
215.729
20
-104.471
11
216.729
21
-104.471
0
LINE
8
BLACK
6
CONTINUOUS
10
216.229
20
-117.129
11
216.229
21
-118.129
0
LINE
8
BLACK
6
CONTINUOUS
10
215.729
20
-117.629
11
216.729
21
-117.629
0
LINE
8
BLACK
6
CONTINUOUS
10
107.821
20
-42.9214
11
107.821
21
-43.9214
0
LINE
8
BLACK
6
CONTINUOUS
10
107.321
20
-43.4214
11
108.321
21
-43.4214
0
LINE
8
BLACK
6
CONTINUOUS
10
107.821
20
-56.0786
11
107.821
21
-57.0786
0
LINE
8
BLACK
6
CONTINUOUS
10
107.321
20
-56.5786
11
108.321
21
-56.5786
0
LINE
8
BLACK
6
CONTINUOUS
10
120.979
20
-42.9214
11
120.979
21
-43.9214
0
LINE
8
BLACK
6
CONTINUOUS
10
120.479
20
-43.4214
11
121.479
21
-43.4214
0
LINE
8
BLACK
6
CONTINUOUS
10
120.979
20
-56.0786
11
120.979
21
-57.0786
0
LINE
8
BLACK
6
CONTINUOUS
10
120.479
20
-56.5786
11
121.479
21
-56.5786
0
LINE
8
BLACK
6
CONTINUOUS
10
126.871
20
-40.5214
11
126.871
21
-41.5214
0
LINE
8
BLACK
6
CONTINUOUS
10
126.371
20
-41.0214
11
127.371
21
-41.0214
0
LINE
8
BLACK
6
CONTINUOUS
10
126.871
20
-53.6786
11
126.871
21
-54.6786
0
LINE
8
BLACK
6
CONTINUOUS
10
126.371
20
-54.1786
11
127.371
21
-54.1786
0
LINE
8
BLACK
6
CONTINUOUS
10
140.029
20
-40.5214
11
140.029
21
-41.5214
0
LINE
8
BLACK
6
CONTINUOUS
10
139.529
20
-41.0214
11
140.529
21
-41.0214
0
LINE
8
BLACK
6
CONTINUOUS
10
140.029
20
-53.6786
11
140.029
21
-54.6786
0
LINE
8
BLACK
6
CONTINUOUS
10
139.529
20
-54.1786
11
140.529
21
-54.1786
0
LINE
8
BLACK
6
CONTINUOUS
10
164.971
20
-59.5714
11
164.971
21
-60.5714
0
LINE
8
BLACK
6
CONTINUOUS
10
164.471
20
-60.0714
11
165.471
21
-60.0714
0
LINE
8
BLACK
6
CONTINUOUS
10
164.971
20
-72.7286
11
164.971
21
-73.7286
0
LINE
8
BLACK
6
CONTINUOUS
10
164.471
20
-73.2286
11
165.471
21
-73.2286
0
LINE
8
BLACK
6
CONTINUOUS
10
178.129
20
-59.5714
11
178.129
21
-60.5714
0
LINE
8
BLACK
6
CONTINUOUS
10
177.629
20
-60.0714
11
178.629
21
-60.0714
0
LINE
8
BLACK
6
CONTINUOUS
10
178.129
20
-72.7286
11
178.129
21
-73.7286
0
LINE
8
BLACK
6
CONTINUOUS
10
177.629
20
-73.2286
11
178.629
21
-73.2286
0
LINE
8
BLACK
6
CONTINUOUS
10
203.071
20
-84.9214
11
203.071
21
-85.9214
0
LINE
8
BLACK
6
CONTINUOUS
10
202.571
20
-85.4214
11
203.571
21
-85.4214
0
LINE
8
BLACK
6
CONTINUOUS
10
203.071
20
-98.0786
11
203.071
21
-99.0786
0
LINE
8
BLACK
6
CONTINUOUS
10
202.571
20
-98.5786
11
203.571
21
-98.5786
0
LINE
8
BLACK
6
CONTINUOUS
10
216.229
20
-84.9214
11
216.229
21
-85.9214
0
LINE
8
BLACK
6
CONTINUOUS
10
215.729
20
-85.4214
11
216.729
21
-85.4214
0
LINE
8
BLACK
6
CONTINUOUS
10
216.229
20
-98.0786
11
216.229
21
-99.0786
0
LINE
8
BLACK
6
CONTINUOUS
10
215.729
20
-98.5786
11
216.729
21
-98.5786
0
LINE
8
BLACK
6
CONTINUOUS
10
89.1845
20
-123.14
11
89.1845
21
-124.14
0
LINE
8
BLACK
6
CONTINUOUS
10
88.6845
20
-123.64
11
89.6845
21
-123.64
0
LINE
8
BLACK
6
CONTINUOUS
10
95.7631
20
-134.534
11
95.7631
21
-135.534
0
LINE
8
BLACK
6
CONTINUOUS
10
95.2631
20
-135.034
11
96.2631
21
-135.034
0
LINE
8
BLACK
6
CONTINUOUS
10
100.579
20
-116.561
11
100.579
21
-117.561
0
LINE
8
BLACK
6
CONTINUOUS
10
100.079
20
-117.061
11
101.079
21
-117.061
0
LINE
8
BLACK
6
CONTINUOUS
10
107.158
20
-127.955
11
107.158
21
-128.955
0
LINE
8
BLACK
6
CONTINUOUS
10
106.658
20
-128.455
11
107.658
21
-128.455
0
LINE
8
BLACK
6
CONTINUOUS
10
145.921
20
-96.2814
11
145.921
21
-97.2814
0
LINE
8
BLACK
6
CONTINUOUS
10
145.421
20
-96.7814
11
146.421
21
-96.7814
0
LINE
8
BLACK
6
CONTINUOUS
10
145.921
20
-109.439
11
145.921
21
-110.439
0
LINE
8
BLACK
6
CONTINUOUS
10
145.421
20
-109.939
11
146.421
21
-109.939
0
LINE
8
BLACK
6
CONTINUOUS
10
159.079
20
-96.2814
11
159.079
21
-97.2814
0
LINE
8
BLACK
6
CONTINUOUS
10
158.579
20
-96.7814
11
159.579
21
-96.7814
0
LINE
8
BLACK
6
CONTINUOUS
10
159.079
20
-109.439
11
159.079
21
-110.439
0
LINE
8
BLACK
6
CONTINUOUS
10
158.579
20
-109.939
11
159.579
21
-109.939
0
LINE
8
BLACK
6
CONTINUOUS
10
136.319
20
-117.75
11
136.319
21
-118.75
0
LINE
8
BLACK
6
CONTINUOUS
10
135.819
20
-118.25
11
136.819
21
-118.25
0
LINE
8
BLACK
6
CONTINUOUS
10
136.319
20
-130.907
11
136.319
21
-131.907
0
LINE
8
BLACK
6
CONTINUOUS
10
135.819
20
-131.407
11
136.819
21
-131.407
0
LINE
8
BLACK
6
CONTINUOUS
10
149.476
20
-117.75
11
149.476
21
-118.75
0
LINE
8
BLACK
6
CONTINUOUS
10
148.976
20
-118.25
11
149.976
21
-118.25
0
LINE
8
BLACK
6
CONTINUOUS
10
149.476
20
-130.907
11
149.476
21
-131.907
0
LINE
8
BLACK
6
CONTINUOUS
10
148.976
20
-131.407
11
149.976
21
-131.407
0
LINE
8
BLACK
6
CONTINUOUS
10
164.971
20
-40.5214
11
164.971
21
-41.5214
0
LINE
8
BLACK
6
CONTINUOUS
10
164.471
20
-41.0214
11
165.471
21
-41.0214
0
LINE
8
BLACK
6
CONTINUOUS
10
164.971
20
-53.6786
11
164.971
21
-54.6786
0
LINE
8
BLACK
6
CONTINUOUS
10
164.471
20
-54.1786
11
165.471
21
-54.1786
0
LINE
8
BLACK
6
CONTINUOUS
10
178.129
20
-40.5214
11
178.129
21
-41.5214
0
LINE
8
BLACK
6
CONTINUOUS
10
177.629
20
-41.0214
11
178.629
21
-41.0214
0
LINE
8
BLACK
6
CONTINUOUS
10
178.129
20
-53.6786
11
178.129
21
-54.6786
0
LINE
8
BLACK
6
CONTINUOUS
10
177.629
20
-54.1786
11
178.629
21
-54.1786
0
LINE
8
BLACK
6
CONTINUOUS
10
117.271
20
-119.121
11
117.271
21
-120.121
0
LINE
8
BLACK
6
CONTINUOUS
10
116.771
20
-119.621
11
117.771
21
-119.621
0
LINE
8
BLACK
6
CONTINUOUS
10
117.271
20
-132.279
11
117.271
21
-133.279
0
LINE
8
BLACK
6
CONTINUOUS
10
116.771
20
-132.779
11
117.771
21
-132.779
0
LINE
8
BLACK
6
CONTINUOUS
10
130.429
20
-119.121
11
130.429
21
-120.121
0
LINE
8
BLACK
6
CONTINUOUS
10
129.929
20
-119.621
11
130.929
21
-119.621
0
LINE
8
BLACK
6
CONTINUOUS
10
130.429
20
-132.279
11
130.429
21
-133.279
0
LINE
8
BLACK
6
CONTINUOUS
10
129.929
20
-132.779
11
130.929
21
-132.779
0
LINE
8
BLACK
6
CONTINUOUS
10
155.371
20
-116.721
11
155.371
21
-117.721
0
LINE
8
BLACK
6
CONTINUOUS
10
154.871
20
-117.221
11
155.871
21
-117.221
0
LINE
8
BLACK
6
CONTINUOUS
10
155.371
20
-129.879
11
155.371
21
-130.879
0
LINE
8
BLACK
6
CONTINUOUS
10
154.871
20
-130.379
11
155.871
21
-130.379
0
LINE
8
BLACK
6
CONTINUOUS
10
168.529
20
-116.721
11
168.529
21
-117.721
0
LINE
8
BLACK
6
CONTINUOUS
10
168.029
20
-117.221
11
169.029
21
-117.221
0
LINE
8
BLACK
6
CONTINUOUS
10
168.529
20
-129.879
11
168.529
21
-130.879
0
LINE
8
BLACK
6
CONTINUOUS
10
168.029
20
-130.379
11
169.029
21
-130.379
0
LINE
8
BLACK
6
CONTINUOUS
10
145.921
20
-39.1314
11
145.921
21
-40.1314
0
LINE
8
BLACK
6
CONTINUOUS
10
145.421
20
-39.6314
11
146.421
21
-39.6314
0
LINE
8
BLACK
6
CONTINUOUS
10
145.921
20
-52.2886
11
145.921
21
-53.2886
0
LINE
8
BLACK
6
CONTINUOUS
10
145.421
20
-52.7886
11
146.421
21
-52.7886
0
LINE
8
BLACK
6
CONTINUOUS
10
159.079
20
-39.1314
11
159.079
21
-40.1314
0
LINE
8
BLACK
6
CONTINUOUS
10
158.579
20
-39.6314
11
159.579
21
-39.6314
0
LINE
8
BLACK
6
CONTINUOUS
10
159.079
20
-52.2886
11
159.079
21
-53.2886
0
LINE
8
BLACK
6
CONTINUOUS
10
158.579
20
-52.7886
11
159.579
21
-52.7886
0
LINE
8
BLACK
6
CONTINUOUS
10
107.821
20
-81.0214
11
107.821
21
-82.0214
0
LINE
8
BLACK
6
CONTINUOUS
10
107.321
20
-81.5214
11
108.321
21
-81.5214
0
LINE
8
BLACK
6
CONTINUOUS
10
107.821
20
-94.1786
11
107.821
21
-95.1786
0
LINE
8
BLACK
6
CONTINUOUS
10
107.321
20
-94.6786
11
108.321
21
-94.6786
0
LINE
8
BLACK
6
CONTINUOUS
10
120.979
20
-81.0214
11
120.979
21
-82.0214
0
LINE
8
BLACK
6
CONTINUOUS
10
120.479
20
-81.5214
11
121.479
21
-81.5214
0
LINE
8
BLACK
6
CONTINUOUS
10
120.979
20
-94.1786
11
120.979
21
-95.1786
0
LINE
8
BLACK
6
CONTINUOUS
10
120.479
20
-94.6786
11
121.479
21
-94.6786
0
LINE
8
BLACK
6
CONTINUOUS
10
184.021
20
-83.4214
11
184.021
21
-84.4214
0
LINE
8
BLACK
6
CONTINUOUS
10
183.521
20
-83.9214
11
184.521
21
-83.9214
0
LINE
8
BLACK
6
CONTINUOUS
10
184.021
20
-96.5786
11
184.021
21
-97.5786
0
LINE
8
BLACK
6
CONTINUOUS
10
183.521
20
-97.0786
11
184.521
21
-97.0786
0
LINE
8
BLACK
6
CONTINUOUS
10
197.179
20
-83.4214
11
197.179
21
-84.4214
0
LINE
8
BLACK
6
CONTINUOUS
10
196.679
20
-83.9214
11
197.679
21
-83.9214
0
LINE
8
BLACK
6
CONTINUOUS
10
197.179
20
-96.5786
11
197.179
21
-97.5786
0
LINE
8
BLACK
6
CONTINUOUS
10
196.679
20
-97.0786
11
197.679
21
-97.0786
0
LINE
8
BLACK
6
CONTINUOUS
10
184.021
20
-64.3714
11
184.021
21
-65.3714
0
LINE
8
BLACK
6
CONTINUOUS
10
183.521
20
-64.8714
11
184.521
21
-64.8714
0
LINE
8
BLACK
6
CONTINUOUS
10
184.021
20
-77.5286
11
184.021
21
-78.5286
0
LINE
8
BLACK
6
CONTINUOUS
10
183.521
20
-78.0286
11
184.521
21
-78.0286
0
LINE
8
BLACK
6
CONTINUOUS
10
197.179
20
-64.3714
11
197.179
21
-65.3714
0
LINE
8
BLACK
6
CONTINUOUS
10
196.679
20
-64.8714
11
197.679
21
-64.8714
0
LINE
8
BLACK
6
CONTINUOUS
10
197.179
20
-77.5286
11
197.179
21
-78.5286
0
LINE
8
BLACK
6
CONTINUOUS
10
196.679
20
-78.0286
11
197.679
21
-78.0286
0
LINE
8
BLACK
6
CONTINUOUS
10
125.351
20
-96.5221
11
125.351
21
-94.6129
0
LINE
8
BLACK
6
CONTINUOUS
10
125.351
20
-94.6129
11
123.442
21
-94.6129
0
LINE
8
BLACK
6
CONTINUOUS
10
123.442
20
-94.6129
11
123.442
21
-96.5221
0
LINE
8
BLACK
6
CONTINUOUS
10
123.442
20
-96.5221
11
125.351
21
-96.5221
0
LINE
8
BLACK
6
CONTINUOUS
10
200.655
20
-62.7546
11
200.655
21
-60.8454
0
LINE
8
BLACK
6
CONTINUOUS
10
200.655
20
-60.8454
11
198.745
21
-60.8454
0
LINE
8
BLACK
6
CONTINUOUS
10
198.745
20
-60.8454
11
198.745
21
-62.7546
0
LINE
8
BLACK
6
CONTINUOUS
10
198.745
20
-62.7546
11
200.655
21
-62.7546
0
LINE
8
BLACK
6
CONTINUOUS
10
200.655
20
-100.955
11
200.655
21
-99.0454
0
LINE
8
BLACK
6
CONTINUOUS
10
200.655
20
-99.0454
11
198.745
21
-99.0454
0
LINE
8
BLACK
6
CONTINUOUS
10
198.745
20
-99.0454
11
198.745
21
-100.955
0
LINE
8
BLACK
6
CONTINUOUS
10
198.745
20
-100.955
11
200.655
21
-100.955
0
LINE
8
BLACK
6
CONTINUOUS
10
99.8495
20
-115.064
11
99.8495
21
-113.155
0
LINE
8
BLACK
6
CONTINUOUS
10
99.8495
20
-113.155
11
97.9403
21
-113.155
0
LINE
8
BLACK
6
CONTINUOUS
10
97.9403
20
-113.155
11
97.9403
21
-115.064
0
LINE
8
BLACK
6
CONTINUOUS
10
97.9403
20
-115.064
11
99.8495
21
-115.064
0
LINE
8
BLACK
6
CONTINUOUS
10
125.28
20
-58.3637
11
125.28
21
-56.4545
0
LINE
8
BLACK
6
CONTINUOUS
10
125.28
20
-56.4545
11
123.371
21
-56.4545
0
LINE
8
BLACK
6
CONTINUOUS
10
123.371
20
-56.4545
11
123.371
21
-58.3637
0
LINE
8
BLACK
6
CONTINUOUS
10
123.371
20
-58.3637
11
125.28
21
-58.3637
0
LINE
8
BLACK
6
CONTINUOUS
10
83.4093
20
-148.171
11
83.4093
21
-145.171
0
LINE
8
BLACK
6
CONTINUOUS
10
83.4093
20
-145.171
11
84.1236
21
-145.171
0
LINE
8
BLACK
6
CONTINUOUS
10
84.1236
20
-145.171
11
84.5521
21
-145.314
0
LINE
8
BLACK
6
CONTINUOUS
10
84.5521
20
-145.314
11
84.8379
21
-145.6
0
LINE
8
BLACK
6
CONTINUOUS
10
84.8379
20
-145.6
11
84.9807
21
-145.885
0
LINE
8
BLACK
6
CONTINUOUS
10
84.9807
20
-145.885
11
85.1236
21
-146.457
0
LINE
8
BLACK
6
CONTINUOUS
10
85.1236
20
-146.457
11
85.1236
21
-146.885
0
LINE
8
BLACK
6
CONTINUOUS
10
85.1236
20
-146.885
11
84.9807
21
-147.457
0
LINE
8
BLACK
6
CONTINUOUS
10
84.9807
20
-147.457
11
84.8379
21
-147.743
0
LINE
8
BLACK
6
CONTINUOUS
10
84.8379
20
-147.743
11
84.5521
21
-148.028
0
LINE
8
BLACK
6
CONTINUOUS
10
84.5521
20
-148.028
11
84.1236
21
-148.171
0
LINE
8
BLACK
6
CONTINUOUS
10
84.1236
20
-148.171
11
83.4093
21
-148.171
0
LINE
8
BLACK
6
CONTINUOUS
10
86.4093
20
-148.171
11
86.4093
21
-146.171
0
LINE
8
BLACK
6
CONTINUOUS
10
86.4093
20
-146.743
11
86.5521
21
-146.457
0
LINE
8
BLACK
6
CONTINUOUS
10
86.5521
20
-146.457
11
86.695
21
-146.314
0
LINE
8
BLACK
6
CONTINUOUS
10
86.695
20
-146.314
11
86.9807
21
-146.171
0
LINE
8
BLACK
6
CONTINUOUS
10
86.9807
20
-146.171
11
87.2664
21
-146.171
0
LINE
8
BLACK
6
CONTINUOUS
10
88.2664
20
-148.171
11
88.2664
21
-146.171
0
LINE
8
BLACK
6
CONTINUOUS
10
88.2664
20
-145.171
11
88.1236
21
-145.314
0
LINE
8
BLACK
6
CONTINUOUS
10
88.1236
20
-145.314
11
88.2664
21
-145.457
0
LINE
8
BLACK
6
CONTINUOUS
10
88.2664
20
-145.457
11
88.4093
21
-145.314
0
LINE
8
BLACK
6
CONTINUOUS
10
88.4093
20
-145.314
11
88.2664
21
-145.171
0
LINE
8
BLACK
6
CONTINUOUS
10
88.2664
20
-145.171
11
88.2664
21
-145.457
0
LINE
8
BLACK
6
CONTINUOUS
10
90.1236
20
-148.171
11
89.8379
21
-148.028
0
LINE
8
BLACK
6
CONTINUOUS
10
89.8379
20
-148.028
11
89.695
21
-147.743
0
LINE
8
BLACK
6
CONTINUOUS
10
89.695
20
-147.743
11
89.695
21
-145.171
0
LINE
8
BLACK
6
CONTINUOUS
10
91.695
20
-148.171
11
91.4093
21
-148.028
0
LINE
8
BLACK
6
CONTINUOUS
10
91.4093
20
-148.028
11
91.2664
21
-147.743
0
LINE
8
BLACK
6
CONTINUOUS
10
91.2664
20
-147.743
11
91.2664
21
-145.171
0
LINE
8
BLACK
6
CONTINUOUS
10
95.1236
20
-148.171
11
95.1236
21
-145.171
0
LINE
8
BLACK
6
CONTINUOUS
10
95.1236
20
-145.171
11
96.1236
21
-147.314
0
LINE
8
BLACK
6
CONTINUOUS
10
96.1236
20
-147.314
11
97.1236
21
-145.171
0
LINE
8
BLACK
6
CONTINUOUS
10
97.1236
20
-145.171
11
97.1236
21
-148.171
0
LINE
8
BLACK
6
CONTINUOUS
10
99.8379
20
-148.171
11
99.8379
21
-146.6
0
LINE
8
BLACK
6
CONTINUOUS
10
99.8379
20
-146.6
11
99.695
21
-146.314
0
LINE
8
BLACK
6
CONTINUOUS
10
99.695
20
-146.314
11
99.4093
21
-146.171
0
LINE
8
BLACK
6
CONTINUOUS
10
99.4093
20
-146.171
11
98.8379
21
-146.171
0
LINE
8
BLACK
6
CONTINUOUS
10
98.8379
20
-146.171
11
98.5521
21
-146.314
0
LINE
8
BLACK
6
CONTINUOUS
10
99.8379
20
-148.028
11
99.5521
21
-148.171
0
LINE
8
BLACK
6
CONTINUOUS
10
99.5521
20
-148.171
11
98.8379
21
-148.171
0
LINE
8
BLACK
6
CONTINUOUS
10
98.8379
20
-148.171
11
98.5521
21
-148.028
0
LINE
8
BLACK
6
CONTINUOUS
10
98.5521
20
-148.028
11
98.4093
21
-147.743
0
LINE
8
BLACK
6
CONTINUOUS
10
98.4093
20
-147.743
11
98.4093
21
-147.457
0
LINE
8
BLACK
6
CONTINUOUS
10
98.4093
20
-147.457
11
98.5521
21
-147.171
0
LINE
8
BLACK
6
CONTINUOUS
10
98.5521
20
-147.171
11
98.8379
21
-147.028
0
LINE
8
BLACK
6
CONTINUOUS
10
98.8379
20
-147.028
11
99.5521
21
-147.028
0
LINE
8
BLACK
6
CONTINUOUS
10
99.5521
20
-147.028
11
99.8379
21
-146.885
0
LINE
8
BLACK
6
CONTINUOUS
10
101.266
20
-146.171
11
101.266
21
-149.171
0
LINE
8
BLACK
6
CONTINUOUS
10
101.266
20
-146.314
11
101.552
21
-146.171
0
LINE
8
BLACK
6
CONTINUOUS
10
101.552
20
-146.171
11
102.124
21
-146.171
0
LINE
8
BLACK
6
CONTINUOUS
10
102.124
20
-146.171
11
102.409
21
-146.314
0
LINE
8
BLACK
6
CONTINUOUS
10
102.409
20
-146.314
11
102.552
21
-146.457
0
LINE
8
BLACK
6
CONTINUOUS
10
102.552
20
-146.457
11
102.695
21
-146.743
0
LINE
8
BLACK
6
CONTINUOUS
10
102.695
20
-146.743
11
102.695
21
-147.6
0
LINE
8
BLACK
6
CONTINUOUS
10
102.695
20
-147.6
11
102.552
21
-147.885
0
LINE
8
BLACK
6
CONTINUOUS
10
102.552
20
-147.885
11
102.409
21
-148.028
0
LINE
8
BLACK
6
CONTINUOUS
10
102.409
20
-148.028
11
102.124
21
-148.171
0
LINE
8
BLACK
6
CONTINUOUS
10
102.124
20
-148.171
11
101.552
21
-148.171
0
LINE
8
BLACK
6
CONTINUOUS
10
101.552
20
-148.171
11
101.266
21
-148.028
0
LINE
8
BLACK
6
CONTINUOUS
10
103.981
20
-147.885
11
104.124
21
-148.028
0
LINE
8
BLACK
6
CONTINUOUS
10
104.124
20
-148.028
11
103.981
21
-148.171
0
LINE
8
BLACK
6
CONTINUOUS
10
103.981
20
-148.171
11
103.838
21
-148.028
0
LINE
8
BLACK
6
CONTINUOUS
10
103.838
20
-148.028
11
103.981
21
-147.885
0
LINE
8
BLACK
6
CONTINUOUS
10
103.981
20
-147.885
11
103.981
21
-148.171
0
LINE
8
BLACK
6
CONTINUOUS
10
103.981
20
-146.314
11
104.124
21
-146.457
0
LINE
8
BLACK
6
CONTINUOUS
10
104.124
20
-146.457
11
103.981
21
-146.6
0
LINE
8
BLACK
6
CONTINUOUS
10
103.981
20
-146.6
11
103.838
21
-146.457
0
LINE
8
BLACK
6
CONTINUOUS
10
103.838
20
-146.457
11
103.981
21
-146.314
0
LINE
8
BLACK
6
CONTINUOUS
10
103.981
20
-146.314
11
103.981
21
-146.6
0
LINE
8
BLACK
6
CONTINUOUS
10
79.745
20
-152.714
11
80.545
21
-153.514
0
LINE
8
BLACK
6
CONTINUOUS
10
80.545
20
-152.714
11
79.745
21
-153.514
0
LINE
8
BLACK
6
CONTINUOUS
10
83.9807
20
-151.471
11
84.2664
21
-151.471
0
LINE
8
BLACK
6
CONTINUOUS
10
84.2664
20
-151.471
11
84.5521
21
-151.614
0
LINE
8
BLACK
6
CONTINUOUS
10
84.5521
20
-151.614
11
84.695
21
-151.757
0
LINE
8
BLACK
6
CONTINUOUS
10
84.695
20
-151.757
11
84.8379
21
-152.043
0
LINE
8
BLACK
6
CONTINUOUS
10
84.8379
20
-152.043
11
84.9807
21
-152.614
0
LINE
8
BLACK
6
CONTINUOUS
10
84.9807
20
-152.614
11
84.9807
21
-153.328
0
LINE
8
BLACK
6
CONTINUOUS
10
84.9807
20
-153.328
11
84.8379
21
-153.9
0
LINE
8
BLACK
6
CONTINUOUS
10
84.8379
20
-153.9
11
84.695
21
-154.185
0
LINE
8
BLACK
6
CONTINUOUS
10
84.695
20
-154.185
11
84.5521
21
-154.328
0
LINE
8
BLACK
6
CONTINUOUS
10
84.5521
20
-154.328
11
84.2664
21
-154.471
0
LINE
8
BLACK
6
CONTINUOUS
10
84.2664
20
-154.471
11
83.9807
21
-154.471
0
LINE
8
BLACK
6
CONTINUOUS
10
83.9807
20
-154.471
11
83.695
21
-154.328
0
LINE
8
BLACK
6
CONTINUOUS
10
83.695
20
-154.328
11
83.5521
21
-154.185
0
LINE
8
BLACK
6
CONTINUOUS
10
83.5521
20
-154.185
11
83.4093
21
-153.9
0
LINE
8
BLACK
6
CONTINUOUS
10
83.4093
20
-153.9
11
83.2664
21
-153.328
0
LINE
8
BLACK
6
CONTINUOUS
10
83.2664
20
-153.328
11
83.2664
21
-152.614
0
LINE
8
BLACK
6
CONTINUOUS
10
83.2664
20
-152.614
11
83.4093
21
-152.043
0
LINE
8
BLACK
6
CONTINUOUS
10
83.4093
20
-152.043
11
83.5521
21
-151.757
0
LINE
8
BLACK
6
CONTINUOUS
10
83.5521
20
-151.757
11
83.695
21
-151.614
0
LINE
8
BLACK
6
CONTINUOUS
10
83.695
20
-151.614
11
83.9807
21
-151.471
0
LINE
8
BLACK
6
CONTINUOUS
10
86.2664
20
-154.185
11
86.4093
21
-154.328
0
LINE
8
BLACK
6
CONTINUOUS
10
86.4093
20
-154.328
11
86.2664
21
-154.471
0
LINE
8
BLACK
6
CONTINUOUS
10
86.2664
20
-154.471
11
86.1236
21
-154.328
0
LINE
8
BLACK
6
CONTINUOUS
10
86.1236
20
-154.328
11
86.2664
21
-154.185
0
LINE
8
BLACK
6
CONTINUOUS
10
86.2664
20
-154.185
11
86.2664
21
-154.471
0
LINE
8
BLACK
6
CONTINUOUS
10
88.1236
20
-152.757
11
87.8379
21
-152.614
0
LINE
8
BLACK
6
CONTINUOUS
10
87.8379
20
-152.614
11
87.695
21
-152.471
0
LINE
8
BLACK
6
CONTINUOUS
10
87.695
20
-152.471
11
87.5521
21
-152.185
0
LINE
8
BLACK
6
CONTINUOUS
10
87.5521
20
-152.185
11
87.5521
21
-152.043
0
LINE
8
BLACK
6
CONTINUOUS
10
87.5521
20
-152.043
11
87.695
21
-151.757
0
LINE
8
BLACK
6
CONTINUOUS
10
87.695
20
-151.757
11
87.8379
21
-151.614
0
LINE
8
BLACK
6
CONTINUOUS
10
87.8379
20
-151.614
11
88.1236
21
-151.471
0
LINE
8
BLACK
6
CONTINUOUS
10
88.1236
20
-151.471
11
88.695
21
-151.471
0
LINE
8
BLACK
6
CONTINUOUS
10
88.695
20
-151.471
11
88.9807
21
-151.614
0
LINE
8
BLACK
6
CONTINUOUS
10
88.9807
20
-151.614
11
89.1236
21
-151.757
0
LINE
8
BLACK
6
CONTINUOUS
10
89.1236
20
-151.757
11
89.2664
21
-152.043
0
LINE
8
BLACK
6
CONTINUOUS
10
89.2664
20
-152.043
11
89.2664
21
-152.185
0
LINE
8
BLACK
6
CONTINUOUS
10
89.2664
20
-152.185
11
89.1236
21
-152.471
0
LINE
8
BLACK
6
CONTINUOUS
10
89.1236
20
-152.471
11
88.9807
21
-152.614
0
LINE
8
BLACK
6
CONTINUOUS
10
88.9807
20
-152.614
11
88.695
21
-152.757
0
LINE
8
BLACK
6
CONTINUOUS
10
88.695
20
-152.757
11
88.1236
21
-152.757
0
LINE
8
BLACK
6
CONTINUOUS
10
88.1236
20
-152.757
11
87.8379
21
-152.9
0
LINE
8
BLACK
6
CONTINUOUS
10
87.8379
20
-152.9
11
87.695
21
-153.043
0
LINE
8
BLACK
6
CONTINUOUS
10
87.695
20
-153.043
11
87.5521
21
-153.328
0
LINE
8
BLACK
6
CONTINUOUS
10
87.5521
20
-153.328
11
87.5521
21
-153.9
0
LINE
8
BLACK
6
CONTINUOUS
10
87.5521
20
-153.9
11
87.695
21
-154.185
0
LINE
8
BLACK
6
CONTINUOUS
10
87.695
20
-154.185
11
87.8379
21
-154.328
0
LINE
8
BLACK
6
CONTINUOUS
10
87.8379
20
-154.328
11
88.1236
21
-154.471
0
LINE
8
BLACK
6
CONTINUOUS
10
88.1236
20
-154.471
11
88.695
21
-154.471
0
LINE
8
BLACK
6
CONTINUOUS
10
88.695
20
-154.471
11
88.9807
21
-154.328
0
LINE
8
BLACK
6
CONTINUOUS
10
88.9807
20
-154.328
11
89.1236
21
-154.185
0
LINE
8
BLACK
6
CONTINUOUS
10
89.1236
20
-154.185
11
89.2664
21
-153.9
0
LINE
8
BLACK
6
CONTINUOUS
10
89.2664
20
-153.9
11
89.2664
21
-153.328
0
LINE
8
BLACK
6
CONTINUOUS
10
89.2664
20
-153.328
11
89.1236
21
-153.043
0
LINE
8
BLACK
6
CONTINUOUS
10
89.1236
20
-153.043
11
88.9807
21
-152.9
0
LINE
8
BLACK
6
CONTINUOUS
10
88.9807
20
-152.9
11
88.695
21
-152.757
0
LINE
8
BLACK
6
CONTINUOUS
10
91.1236
20
-151.471
11
91.4093
21
-151.471
0
LINE
8
BLACK
6
CONTINUOUS
10
91.4093
20
-151.471
11
91.695
21
-151.614
0
LINE
8
BLACK
6
CONTINUOUS
10
91.695
20
-151.614
11
91.8379
21
-151.757
0
LINE
8
BLACK
6
CONTINUOUS
10
91.8379
20
-151.757
11
91.9807
21
-152.043
0
LINE
8
BLACK
6
CONTINUOUS
10
91.9807
20
-152.043
11
92.1236
21
-152.614
0
LINE
8
BLACK
6
CONTINUOUS
10
92.1236
20
-152.614
11
92.1236
21
-153.328
0
LINE
8
BLACK
6
CONTINUOUS
10
92.1236
20
-153.328
11
91.9807
21
-153.9
0
LINE
8
BLACK
6
CONTINUOUS
10
91.9807
20
-153.9
11
91.8379
21
-154.185
0
LINE
8
BLACK
6
CONTINUOUS
10
91.8379
20
-154.185
11
91.695
21
-154.328
0
LINE
8
BLACK
6
CONTINUOUS
10
91.695
20
-154.328
11
91.4093
21
-154.471
0
LINE
8
BLACK
6
CONTINUOUS
10
91.4093
20
-154.471
11
91.1236
21
-154.471
0
LINE
8
BLACK
6
CONTINUOUS
10
91.1236
20
-154.471
11
90.8379
21
-154.328
0
LINE
8
BLACK
6
CONTINUOUS
10
90.8379
20
-154.328
11
90.695
21
-154.185
0
LINE
8
BLACK
6
CONTINUOUS
10
90.695
20
-154.185
11
90.5521
21
-153.9
0
LINE
8
BLACK
6
CONTINUOUS
10
90.5521
20
-153.9
11
90.4093
21
-153.328
0
LINE
8
BLACK
6
CONTINUOUS
10
90.4093
20
-153.328
11
90.4093
21
-152.614
0
LINE
8
BLACK
6
CONTINUOUS
10
90.4093
20
-152.614
11
90.5521
21
-152.043
0
LINE
8
BLACK
6
CONTINUOUS
10
90.5521
20
-152.043
11
90.695
21
-151.757
0
LINE
8
BLACK
6
CONTINUOUS
10
90.695
20
-151.757
11
90.8379
21
-151.614
0
LINE
8
BLACK
6
CONTINUOUS
10
90.8379
20
-151.614
11
91.1236
21
-151.471
0
LINE
8
BLACK
6
CONTINUOUS
10
93.4093
20
-154.471
11
93.4093
21
-152.471
0
LINE
8
BLACK
6
CONTINUOUS
10
93.4093
20
-152.757
11
93.5521
21
-152.614
0
LINE
8
BLACK
6
CONTINUOUS
10
93.5521
20
-152.614
11
93.8379
21
-152.471
0
LINE
8
BLACK
6
CONTINUOUS
10
93.8379
20
-152.471
11
94.2664
21
-152.471
0
LINE
8
BLACK
6
CONTINUOUS
10
94.2664
20
-152.471
11
94.5521
21
-152.614
0
LINE
8
BLACK
6
CONTINUOUS
10
94.5521
20
-152.614
11
94.695
21
-152.9
0
LINE
8
BLACK
6
CONTINUOUS
10
94.695
20
-152.9
11
94.695
21
-154.471
0
LINE
8
BLACK
6
CONTINUOUS
10
94.695
20
-152.9
11
94.8379
21
-152.614
0
LINE
8
BLACK
6
CONTINUOUS
10
94.8379
20
-152.614
11
95.1236
21
-152.471
0
LINE
8
BLACK
6
CONTINUOUS
10
95.1236
20
-152.471
11
95.5521
21
-152.471
0
LINE
8
BLACK
6
CONTINUOUS
10
95.5521
20
-152.471
11
95.8379
21
-152.614
0
LINE
8
BLACK
6
CONTINUOUS
10
95.8379
20
-152.614
11
95.9807
21
-152.9
0
LINE
8
BLACK
6
CONTINUOUS
10
95.9807
20
-152.9
11
95.9807
21
-154.471
0
LINE
8
BLACK
6
CONTINUOUS
10
97.4093
20
-154.471
11
97.4093
21
-152.471
0
LINE
8
BLACK
6
CONTINUOUS
10
97.4093
20
-152.757
11
97.5521
21
-152.614
0
LINE
8
BLACK
6
CONTINUOUS
10
97.5521
20
-152.614
11
97.8379
21
-152.471
0
LINE
8
BLACK
6
CONTINUOUS
10
97.8379
20
-152.471
11
98.2664
21
-152.471
0
LINE
8
BLACK
6
CONTINUOUS
10
98.2664
20
-152.471
11
98.5521
21
-152.614
0
LINE
8
BLACK
6
CONTINUOUS
10
98.5521
20
-152.614
11
98.695
21
-152.9
0
LINE
8
BLACK
6
CONTINUOUS
10
98.695
20
-152.9
11
98.695
21
-154.471
0
LINE
8
BLACK
6
CONTINUOUS
10
98.695
20
-152.9
11
98.8379
21
-152.614
0
LINE
8
BLACK
6
CONTINUOUS
10
98.8379
20
-152.614
11
99.1236
21
-152.471
0
LINE
8
BLACK
6
CONTINUOUS
10
99.1236
20
-152.471
11
99.5521
21
-152.471
0
LINE
8
BLACK
6
CONTINUOUS
10
99.5521
20
-152.471
11
99.8379
21
-152.614
0
LINE
8
BLACK
6
CONTINUOUS
10
99.8379
20
-152.614
11
99.9807
21
-152.9
0
LINE
8
BLACK
6
CONTINUOUS
10
99.9807
20
-152.9
11
99.9807
21
-154.471
0
LINE
8
BLACK
6
CONTINUOUS
10
105.838
20
-151.328
11
103.266
21
-155.185
0
LINE
8
BLACK
6
CONTINUOUS
10
109.695
20
-151.471
11
109.981
21
-151.471
0
LINE
8
BLACK
6
CONTINUOUS
10
109.981
20
-151.471
11
110.266
21
-151.614
0
LINE
8
BLACK
6
CONTINUOUS
10
110.266
20
-151.614
11
110.409
21
-151.757
0
LINE
8
BLACK
6
CONTINUOUS
10
110.409
20
-151.757
11
110.552
21
-152.043
0
LINE
8
BLACK
6
CONTINUOUS
10
110.552
20
-152.043
11
110.695
21
-152.614
0
LINE
8
BLACK
6
CONTINUOUS
10
110.695
20
-152.614
11
110.695
21
-153.328
0
LINE
8
BLACK
6
CONTINUOUS
10
110.695
20
-153.328
11
110.552
21
-153.9
0
LINE
8
BLACK
6
CONTINUOUS
10
110.552
20
-153.9
11
110.409
21
-154.185
0
LINE
8
BLACK
6
CONTINUOUS
10
110.409
20
-154.185
11
110.266
21
-154.328
0
LINE
8
BLACK
6
CONTINUOUS
10
110.266
20
-154.328
11
109.981
21
-154.471
0
LINE
8
BLACK
6
CONTINUOUS
10
109.981
20
-154.471
11
109.695
21
-154.471
0
LINE
8
BLACK
6
CONTINUOUS
10
109.695
20
-154.471
11
109.409
21
-154.328
0
LINE
8
BLACK
6
CONTINUOUS
10
109.409
20
-154.328
11
109.266
21
-154.185
0
LINE
8
BLACK
6
CONTINUOUS
10
109.266
20
-154.185
11
109.124
21
-153.9
0
LINE
8
BLACK
6
CONTINUOUS
10
109.124
20
-153.9
11
108.981
21
-153.328
0
LINE
8
BLACK
6
CONTINUOUS
10
108.981
20
-153.328
11
108.981
21
-152.614
0
LINE
8
BLACK
6
CONTINUOUS
10
108.981
20
-152.614
11
109.124
21
-152.043
0
LINE
8
BLACK
6
CONTINUOUS
10
109.124
20
-152.043
11
109.266
21
-151.757
0
LINE
8
BLACK
6
CONTINUOUS
10
109.266
20
-151.757
11
109.409
21
-151.614
0
LINE
8
BLACK
6
CONTINUOUS
10
109.409
20
-151.614
11
109.695
21
-151.471
0
LINE
8
BLACK
6
CONTINUOUS
10
111.981
20
-154.185
11
112.124
21
-154.328
0
LINE
8
BLACK
6
CONTINUOUS
10
112.124
20
-154.328
11
111.981
21
-154.471
0
LINE
8
BLACK
6
CONTINUOUS
10
111.981
20
-154.471
11
111.838
21
-154.328
0
LINE
8
BLACK
6
CONTINUOUS
10
111.838
20
-154.328
11
111.981
21
-154.185
0
LINE
8
BLACK
6
CONTINUOUS
10
111.981
20
-154.185
11
111.981
21
-154.471
0
LINE
8
BLACK
6
CONTINUOUS
10
113.981
20
-151.471
11
114.266
21
-151.471
0
LINE
8
BLACK
6
CONTINUOUS
10
114.266
20
-151.471
11
114.552
21
-151.614
0
LINE
8
BLACK
6
CONTINUOUS
10
114.552
20
-151.614
11
114.695
21
-151.757
0
LINE
8
BLACK
6
CONTINUOUS
10
114.695
20
-151.757
11
114.838
21
-152.043
0
LINE
8
BLACK
6
CONTINUOUS
10
114.838
20
-152.043
11
114.981
21
-152.614
0
LINE
8
BLACK
6
CONTINUOUS
10
114.981
20
-152.614
11
114.981
21
-153.328
0
LINE
8
BLACK
6
CONTINUOUS
10
114.981
20
-153.328
11
114.838
21
-153.9
0
LINE
8
BLACK
6
CONTINUOUS
10
114.838
20
-153.9
11
114.695
21
-154.185
0
LINE
8
BLACK
6
CONTINUOUS
10
114.695
20
-154.185
11
114.552
21
-154.328
0
LINE
8
BLACK
6
CONTINUOUS
10
114.552
20
-154.328
11
114.266
21
-154.471
0
LINE
8
BLACK
6
CONTINUOUS
10
114.266
20
-154.471
11
113.981
21
-154.471
0
LINE
8
BLACK
6
CONTINUOUS
10
113.981
20
-154.471
11
113.695
21
-154.328
0
LINE
8
BLACK
6
CONTINUOUS
10
113.695
20
-154.328
11
113.552
21
-154.185
0
LINE
8
BLACK
6
CONTINUOUS
10
113.552
20
-154.185
11
113.409
21
-153.9
0
LINE
8
BLACK
6
CONTINUOUS
10
113.409
20
-153.9
11
113.266
21
-153.328
0
LINE
8
BLACK
6
CONTINUOUS
10
113.266
20
-153.328
11
113.266
21
-152.614
0
LINE
8
BLACK
6
CONTINUOUS
10
113.266
20
-152.614
11
113.409
21
-152.043
0
LINE
8
BLACK
6
CONTINUOUS
10
113.409
20
-152.043
11
113.552
21
-151.757
0
LINE
8
BLACK
6
CONTINUOUS
10
113.552
20
-151.757
11
113.695
21
-151.614
0
LINE
8
BLACK
6
CONTINUOUS
10
113.695
20
-151.614
11
113.981
21
-151.471
0
LINE
8
BLACK
6
CONTINUOUS
10
115.981
20
-151.471
11
117.838
21
-151.471
0
LINE
8
BLACK
6
CONTINUOUS
10
117.838
20
-151.471
11
116.838
21
-152.614
0
LINE
8
BLACK
6
CONTINUOUS
10
116.838
20
-152.614
11
117.266
21
-152.614
0
LINE
8
BLACK
6
CONTINUOUS
10
117.266
20
-152.614
11
117.552
21
-152.757
0
LINE
8
BLACK
6
CONTINUOUS
10
117.552
20
-152.757
11
117.695
21
-152.9
0
LINE
8
BLACK
6
CONTINUOUS
10
117.695
20
-152.9
11
117.838
21
-153.185
0
LINE
8
BLACK
6
CONTINUOUS
10
117.838
20
-153.185
11
117.838
21
-153.9
0
LINE
8
BLACK
6
CONTINUOUS
10
117.838
20
-153.9
11
117.695
21
-154.185
0
LINE
8
BLACK
6
CONTINUOUS
10
117.695
20
-154.185
11
117.552
21
-154.328
0
LINE
8
BLACK
6
CONTINUOUS
10
117.552
20
-154.328
11
117.266
21
-154.471
0
LINE
8
BLACK
6
CONTINUOUS
10
117.266
20
-154.471
11
116.409
21
-154.471
0
LINE
8
BLACK
6
CONTINUOUS
10
116.409
20
-154.471
11
116.124
21
-154.328
0
LINE
8
BLACK
6
CONTINUOUS
10
116.124
20
-154.328
11
115.981
21
-154.185
0
LINE
8
BLACK
6
CONTINUOUS
10
120.695
20
-154.471
11
118.981
21
-154.471
0
LINE
8
BLACK
6
CONTINUOUS
10
119.838
20
-154.471
11
119.838
21
-151.471
0
LINE
8
BLACK
6
CONTINUOUS
10
119.838
20
-151.471
11
119.552
21
-151.9
0
LINE
8
BLACK
6
CONTINUOUS
10
119.552
20
-151.9
11
119.266
21
-152.185
0
LINE
8
BLACK
6
CONTINUOUS
10
119.266
20
-152.185
11
118.981
21
-152.328
0
LINE
8
BLACK
6
CONTINUOUS
10
121.838
20
-151.471
11
121.838
21
-152.043
0
LINE
8
BLACK
6
CONTINUOUS
10
122.981
20
-151.471
11
122.981
21
-152.043
0
LINE
8
BLACK
6
CONTINUOUS
10
127.409
20
-155.614
11
127.266
21
-155.471
0
LINE
8
BLACK
6
CONTINUOUS
10
127.266
20
-155.471
11
126.981
21
-155.043
0
LINE
8
BLACK
6
CONTINUOUS
10
126.981
20
-155.043
11
126.838
21
-154.757
0
LINE
8
BLACK
6
CONTINUOUS
10
126.838
20
-154.757
11
126.695
21
-154.328
0
LINE
8
BLACK
6
CONTINUOUS
10
126.695
20
-154.328
11
126.552
21
-153.614
0
LINE
8
BLACK
6
CONTINUOUS
10
126.552
20
-153.614
11
126.552
21
-153.043
0
LINE
8
BLACK
6
CONTINUOUS
10
126.552
20
-153.043
11
126.695
21
-152.328
0
LINE
8
BLACK
6
CONTINUOUS
10
126.695
20
-152.328
11
126.838
21
-151.9
0
LINE
8
BLACK
6
CONTINUOUS
10
126.838
20
-151.9
11
126.981
21
-151.614
0
LINE
8
BLACK
6
CONTINUOUS
10
126.981
20
-151.614
11
127.266
21
-151.185
0
LINE
8
BLACK
6
CONTINUOUS
10
127.266
20
-151.185
11
127.409
21
-151.043
0
LINE
8
BLACK
6
CONTINUOUS
10
128.409
20
-151.757
11
128.552
21
-151.614
0
LINE
8
BLACK
6
CONTINUOUS
10
128.552
20
-151.614
11
128.838
21
-151.471
0
LINE
8
BLACK
6
CONTINUOUS
10
128.838
20
-151.471
11
129.552
21
-151.471
0
LINE
8
BLACK
6
CONTINUOUS
10
129.552
20
-151.471
11
129.838
21
-151.614
0
LINE
8
BLACK
6
CONTINUOUS
10
129.838
20
-151.614
11
129.981
21
-151.757
0
LINE
8
BLACK
6
CONTINUOUS
10
129.981
20
-151.757
11
130.124
21
-152.043
0
LINE
8
BLACK
6
CONTINUOUS
10
130.124
20
-152.043
11
130.124
21
-152.328
0
LINE
8
BLACK
6
CONTINUOUS
10
130.124
20
-152.328
11
129.981
21
-152.757
0
LINE
8
BLACK
6
CONTINUOUS
10
129.981
20
-152.757
11
128.266
21
-154.471
0
LINE
8
BLACK
6
CONTINUOUS
10
128.266
20
-154.471
11
130.124
21
-154.471
0
LINE
8
BLACK
6
CONTINUOUS
10
131.124
20
-151.471
11
132.981
21
-151.471
0
LINE
8
BLACK
6
CONTINUOUS
10
132.981
20
-151.471
11
131.981
21
-152.614
0
LINE
8
BLACK
6
CONTINUOUS
10
131.981
20
-152.614
11
132.409
21
-152.614
0
LINE
8
BLACK
6
CONTINUOUS
10
132.409
20
-152.614
11
132.695
21
-152.757
0
LINE
8
BLACK
6
CONTINUOUS
10
132.695
20
-152.757
11
132.838
21
-152.9
0
LINE
8
BLACK
6
CONTINUOUS
10
132.838
20
-152.9
11
132.981
21
-153.185
0
LINE
8
BLACK
6
CONTINUOUS
10
132.981
20
-153.185
11
132.981
21
-153.9
0
LINE
8
BLACK
6
CONTINUOUS
10
132.981
20
-153.9
11
132.838
21
-154.185
0
LINE
8
BLACK
6
CONTINUOUS
10
132.838
20
-154.185
11
132.695
21
-154.328
0
LINE
8
BLACK
6
CONTINUOUS
10
132.695
20
-154.328
11
132.409
21
-154.471
0
LINE
8
BLACK
6
CONTINUOUS
10
132.409
20
-154.471
11
131.552
21
-154.471
0
LINE
8
BLACK
6
CONTINUOUS
10
131.552
20
-154.471
11
131.266
21
-154.328
0
LINE
8
BLACK
6
CONTINUOUS
10
131.266
20
-154.328
11
131.124
21
-154.185
0
LINE
8
BLACK
6
CONTINUOUS
10
134.124
20
-151.757
11
134.266
21
-151.614
0
LINE
8
BLACK
6
CONTINUOUS
10
134.266
20
-151.614
11
134.552
21
-151.471
0
LINE
8
BLACK
6
CONTINUOUS
10
134.552
20
-151.471
11
135.266
21
-151.471
0
LINE
8
BLACK
6
CONTINUOUS
10
135.266
20
-151.471
11
135.552
21
-151.614
0
LINE
8
BLACK
6
CONTINUOUS
10
135.552
20
-151.614
11
135.695
21
-151.757
0
LINE
8
BLACK
6
CONTINUOUS
10
135.695
20
-151.757
11
135.838
21
-152.043
0
LINE
8
BLACK
6
CONTINUOUS
10
135.838
20
-152.043
11
135.838
21
-152.328
0
LINE
8
BLACK
6
CONTINUOUS
10
135.838
20
-152.328
11
135.695
21
-152.757
0
LINE
8
BLACK
6
CONTINUOUS
10
135.695
20
-152.757
11
133.981
21
-154.471
0
LINE
8
BLACK
6
CONTINUOUS
10
133.981
20
-154.471
11
135.838
21
-154.471
0
LINE
8
BLACK
6
CONTINUOUS
10
139.409
20
-154.471
11
139.409
21
-151.471
0
LINE
8
BLACK
6
CONTINUOUS
10
140.695
20
-154.471
11
140.695
21
-152.9
0
LINE
8
BLACK
6
CONTINUOUS
10
140.695
20
-152.9
11
140.552
21
-152.614
0
LINE
8
BLACK
6
CONTINUOUS
10
140.552
20
-152.614
11
140.266
21
-152.471
0
LINE
8
BLACK
6
CONTINUOUS
10
140.266
20
-152.471
11
139.838
21
-152.471
0
LINE
8
BLACK
6
CONTINUOUS
10
139.838
20
-152.471
11
139.552
21
-152.614
0
LINE
8
BLACK
6
CONTINUOUS
10
139.552
20
-152.614
11
139.409
21
-152.757
0
LINE
8
BLACK
6
CONTINUOUS
10
142.552
20
-154.471
11
142.266
21
-154.328
0
LINE
8
BLACK
6
CONTINUOUS
10
142.266
20
-154.328
11
142.124
21
-154.185
0
LINE
8
BLACK
6
CONTINUOUS
10
142.124
20
-154.185
11
141.981
21
-153.9
0
LINE
8
BLACK
6
CONTINUOUS
10
141.981
20
-153.9
11
141.981
21
-153.043
0
LINE
8
BLACK
6
CONTINUOUS
10
141.981
20
-153.043
11
142.124
21
-152.757
0
LINE
8
BLACK
6
CONTINUOUS
10
142.124
20
-152.757
11
142.266
21
-152.614
0
LINE
8
BLACK
6
CONTINUOUS
10
142.266
20
-152.614
11
142.552
21
-152.471
0
LINE
8
BLACK
6
CONTINUOUS
10
142.552
20
-152.471
11
142.981
21
-152.471
0
LINE
8
BLACK
6
CONTINUOUS
10
142.981
20
-152.471
11
143.266
21
-152.614
0
LINE
8
BLACK
6
CONTINUOUS
10
143.266
20
-152.614
11
143.409
21
-152.757
0
LINE
8
BLACK
6
CONTINUOUS
10
143.409
20
-152.757
11
143.552
21
-153.043
0
LINE
8
BLACK
6
CONTINUOUS
10
143.552
20
-153.043
11
143.552
21
-153.9
0
LINE
8
BLACK
6
CONTINUOUS
10
143.552
20
-153.9
11
143.409
21
-154.185
0
LINE
8
BLACK
6
CONTINUOUS
10
143.409
20
-154.185
11
143.266
21
-154.328
0
LINE
8
BLACK
6
CONTINUOUS
10
143.266
20
-154.328
11
142.981
21
-154.471
0
LINE
8
BLACK
6
CONTINUOUS
10
142.981
20
-154.471
11
142.552
21
-154.471
0
LINE
8
BLACK
6
CONTINUOUS
10
145.266
20
-154.471
11
144.981
21
-154.328
0
LINE
8
BLACK
6
CONTINUOUS
10
144.981
20
-154.328
11
144.838
21
-154.043
0
LINE
8
BLACK
6
CONTINUOUS
10
144.838
20
-154.043
11
144.838
21
-151.471
0
LINE
8
BLACK
6
CONTINUOUS
10
147.552
20
-154.328
11
147.266
21
-154.471
0
LINE
8
BLACK
6
CONTINUOUS
10
147.266
20
-154.471
11
146.695
21
-154.471
0
LINE
8
BLACK
6
CONTINUOUS
10
146.695
20
-154.471
11
146.409
21
-154.328
0
LINE
8
BLACK
6
CONTINUOUS
10
146.409
20
-154.328
11
146.266
21
-154.043
0
LINE
8
BLACK
6
CONTINUOUS
10
146.266
20
-154.043
11
146.266
21
-152.9
0
LINE
8
BLACK
6
CONTINUOUS
10
146.266
20
-152.9
11
146.409
21
-152.614
0
LINE
8
BLACK
6
CONTINUOUS
10
146.409
20
-152.614
11
146.695
21
-152.471
0
LINE
8
BLACK
6
CONTINUOUS
10
146.695
20
-152.471
11
147.266
21
-152.471
0
LINE
8
BLACK
6
CONTINUOUS
10
147.266
20
-152.471
11
147.552
21
-152.614
0
LINE
8
BLACK
6
CONTINUOUS
10
147.552
20
-152.614
11
147.695
21
-152.9
0
LINE
8
BLACK
6
CONTINUOUS
10
147.695
20
-152.9
11
147.695
21
-153.185
0
LINE
8
BLACK
6
CONTINUOUS
10
147.695
20
-153.185
11
146.266
21
-153.471
0
LINE
8
BLACK
6
CONTINUOUS
10
148.838
20
-154.328
11
149.124
21
-154.471
0
LINE
8
BLACK
6
CONTINUOUS
10
149.124
20
-154.471
11
149.695
21
-154.471
0
LINE
8
BLACK
6
CONTINUOUS
10
149.695
20
-154.471
11
149.981
21
-154.328
0
LINE
8
BLACK
6
CONTINUOUS
10
149.981
20
-154.328
11
150.124
21
-154.043
0
LINE
8
BLACK
6
CONTINUOUS
10
150.124
20
-154.043
11
150.124
21
-153.9
0
LINE
8
BLACK
6
CONTINUOUS
10
150.124
20
-153.9
11
149.981
21
-153.614
0
LINE
8
BLACK
6
CONTINUOUS
10
149.981
20
-153.614
11
149.695
21
-153.471
0
LINE
8
BLACK
6
CONTINUOUS
10
149.695
20
-153.471
11
149.266
21
-153.471
0
LINE
8
BLACK
6
CONTINUOUS
10
149.266
20
-153.471
11
148.981
21
-153.328
0
LINE
8
BLACK
6
CONTINUOUS
10
148.981
20
-153.328
11
148.838
21
-153.043
0
LINE
8
BLACK
6
CONTINUOUS
10
148.838
20
-153.043
11
148.838
21
-152.9
0
LINE
8
BLACK
6
CONTINUOUS
10
148.838
20
-152.9
11
148.981
21
-152.614
0
LINE
8
BLACK
6
CONTINUOUS
10
148.981
20
-152.614
11
149.266
21
-152.471
0
LINE
8
BLACK
6
CONTINUOUS
10
149.266
20
-152.471
11
149.695
21
-152.471
0
LINE
8
BLACK
6
CONTINUOUS
10
149.695
20
-152.471
11
149.981
21
-152.614
0
LINE
8
BLACK
6
CONTINUOUS
10
151.124
20
-155.614
11
151.266
21
-155.471
0
LINE
8
BLACK
6
CONTINUOUS
10
151.266
20
-155.471
11
151.552
21
-155.043
0
LINE
8
BLACK
6
CONTINUOUS
10
151.552
20
-155.043
11
151.695
21
-154.757
0
LINE
8
BLACK
6
CONTINUOUS
10
151.695
20
-154.757
11
151.838
21
-154.328
0
LINE
8
BLACK
6
CONTINUOUS
10
151.838
20
-154.328
11
151.981
21
-153.614
0
LINE
8
BLACK
6
CONTINUOUS
10
151.981
20
-153.614
11
151.981
21
-153.043
0
LINE
8
BLACK
6
CONTINUOUS
10
151.981
20
-153.043
11
151.838
21
-152.328
0
LINE
8
BLACK
6
CONTINUOUS
10
151.838
20
-152.328
11
151.695
21
-151.9
0
LINE
8
BLACK
6
CONTINUOUS
10
151.695
20
-151.9
11
151.552
21
-151.614
0
LINE
8
BLACK
6
CONTINUOUS
10
151.552
20
-151.614
11
151.266
21
-151.185
0
LINE
8
BLACK
6
CONTINUOUS
10
151.266
20
-151.185
11
151.124
21
-151.043
0
LINE
8
BLACK
6
CONTINUOUS
10
156.552
20
-155.614
11
156.409
21
-155.471
0
LINE
8
BLACK
6
CONTINUOUS
10
156.409
20
-155.471
11
156.124
21
-155.043
0
LINE
8
BLACK
6
CONTINUOUS
10
156.124
20
-155.043
11
155.981
21
-154.757
0
LINE
8
BLACK
6
CONTINUOUS
10
155.981
20
-154.757
11
155.838
21
-154.328
0
LINE
8
BLACK
6
CONTINUOUS
10
155.838
20
-154.328
11
155.695
21
-153.614
0
LINE
8
BLACK
6
CONTINUOUS
10
155.695
20
-153.614
11
155.695
21
-153.043
0
LINE
8
BLACK
6
CONTINUOUS
10
155.695
20
-153.043
11
155.838
21
-152.328
0
LINE
8
BLACK
6
CONTINUOUS
10
155.838
20
-152.328
11
155.981
21
-151.9
0
LINE
8
BLACK
6
CONTINUOUS
10
155.981
20
-151.9
11
156.124
21
-151.614
0
LINE
8
BLACK
6
CONTINUOUS
10
156.124
20
-151.614
11
156.409
21
-151.185
0
LINE
8
BLACK
6
CONTINUOUS
10
156.409
20
-151.185
11
156.552
21
-151.043
0
LINE
8
BLACK
6
CONTINUOUS
10
157.695
20
-152.471
11
157.695
21
-154.471
0
LINE
8
BLACK
6
CONTINUOUS
10
157.695
20
-152.757
11
157.838
21
-152.614
0
LINE
8
BLACK
6
CONTINUOUS
10
157.838
20
-152.614
11
158.124
21
-152.471
0
LINE
8
BLACK
6
CONTINUOUS
10
158.124
20
-152.471
11
158.552
21
-152.471
0
LINE
8
BLACK
6
CONTINUOUS
10
158.552
20
-152.471
11
158.838
21
-152.614
0
LINE
8
BLACK
6
CONTINUOUS
10
158.838
20
-152.614
11
158.981
21
-152.9
0
LINE
8
BLACK
6
CONTINUOUS
10
158.981
20
-152.9
11
158.981
21
-154.471
0
LINE
8
BLACK
6
CONTINUOUS
10
160.838
20
-154.471
11
160.552
21
-154.328
0
LINE
8
BLACK
6
CONTINUOUS
10
160.552
20
-154.328
11
160.409
21
-154.185
0
LINE
8
BLACK
6
CONTINUOUS
10
160.409
20
-154.185
11
160.266
21
-153.9
0
LINE
8
BLACK
6
CONTINUOUS
10
160.266
20
-153.9
11
160.266
21
-153.043
0
LINE
8
BLACK
6
CONTINUOUS
10
160.266
20
-153.043
11
160.409
21
-152.757
0
LINE
8
BLACK
6
CONTINUOUS
10
160.409
20
-152.757
11
160.552
21
-152.614
0
LINE
8
BLACK
6
CONTINUOUS
10
160.552
20
-152.614
11
160.838
21
-152.471
0
LINE
8
BLACK
6
CONTINUOUS
10
160.838
20
-152.471
11
161.266
21
-152.471
0
LINE
8
BLACK
6
CONTINUOUS
10
161.266
20
-152.471
11
161.552
21
-152.614
0
LINE
8
BLACK
6
CONTINUOUS
10
161.552
20
-152.614
11
161.695
21
-152.757
0
LINE
8
BLACK
6
CONTINUOUS
10
161.695
20
-152.757
11
161.838
21
-153.043
0
LINE
8
BLACK
6
CONTINUOUS
10
161.838
20
-153.043
11
161.838
21
-153.9
0
LINE
8
BLACK
6
CONTINUOUS
10
161.838
20
-153.9
11
161.695
21
-154.185
0
LINE
8
BLACK
6
CONTINUOUS
10
161.695
20
-154.185
11
161.552
21
-154.328
0
LINE
8
BLACK
6
CONTINUOUS
10
161.552
20
-154.328
11
161.266
21
-154.471
0
LINE
8
BLACK
6
CONTINUOUS
10
161.266
20
-154.471
11
160.838
21
-154.471
0
LINE
8
BLACK
6
CONTINUOUS
10
162.695
20
-152.471
11
163.838
21
-152.471
0
LINE
8
BLACK
6
CONTINUOUS
10
163.124
20
-151.471
11
163.124
21
-154.043
0
LINE
8
BLACK
6
CONTINUOUS
10
163.124
20
-154.043
11
163.266
21
-154.328
0
LINE
8
BLACK
6
CONTINUOUS
10
163.266
20
-154.328
11
163.552
21
-154.471
0
LINE
8
BLACK
6
CONTINUOUS
10
163.552
20
-154.471
11
163.838
21
-154.471
0
LINE
8
BLACK
6
CONTINUOUS
10
167.124
20
-152.471
11
167.124
21
-155.471
0
LINE
8
BLACK
6
CONTINUOUS
10
167.124
20
-152.614
11
167.409
21
-152.471
0
LINE
8
BLACK
6
CONTINUOUS
10
167.409
20
-152.471
11
167.981
21
-152.471
0
LINE
8
BLACK
6
CONTINUOUS
10
167.981
20
-152.471
11
168.266
21
-152.614
0
LINE
8
BLACK
6
CONTINUOUS
10
168.266
20
-152.614
11
168.409
21
-152.757
0
LINE
8
BLACK
6
CONTINUOUS
10
168.409
20
-152.757
11
168.552
21
-153.043
0
LINE
8
BLACK
6
CONTINUOUS
10
168.552
20
-153.043
11
168.552
21
-153.9
0
LINE
8
BLACK
6
CONTINUOUS
10
168.552
20
-153.9
11
168.409
21
-154.185
0
LINE
8
BLACK
6
CONTINUOUS
10
168.409
20
-154.185
11
168.266
21
-154.328
0
LINE
8
BLACK
6
CONTINUOUS
10
168.266
20
-154.328
11
167.981
21
-154.471
0
LINE
8
BLACK
6
CONTINUOUS
10
167.981
20
-154.471
11
167.409
21
-154.471
0
LINE
8
BLACK
6
CONTINUOUS
10
167.409
20
-154.471
11
167.124
21
-154.328
0
LINE
8
BLACK
6
CONTINUOUS
10
170.266
20
-154.471
11
169.981
21
-154.328
0
LINE
8
BLACK
6
CONTINUOUS
10
169.981
20
-154.328
11
169.838
21
-154.043
0
LINE
8
BLACK
6
CONTINUOUS
10
169.838
20
-154.043
11
169.838
21
-151.471
0
LINE
8
BLACK
6
CONTINUOUS
10
172.695
20
-154.471
11
172.695
21
-152.9
0
LINE
8
BLACK
6
CONTINUOUS
10
172.695
20
-152.9
11
172.552
21
-152.614
0
LINE
8
BLACK
6
CONTINUOUS
10
172.552
20
-152.614
11
172.266
21
-152.471
0
LINE
8
BLACK
6
CONTINUOUS
10
172.266
20
-152.471
11
171.695
21
-152.471
0
LINE
8
BLACK
6
CONTINUOUS
10
171.695
20
-152.471
11
171.409
21
-152.614
0
LINE
8
BLACK
6
CONTINUOUS
10
172.695
20
-154.328
11
172.409
21
-154.471
0
LINE
8
BLACK
6
CONTINUOUS
10
172.409
20
-154.471
11
171.695
21
-154.471
0
LINE
8
BLACK
6
CONTINUOUS
10
171.695
20
-154.471
11
171.409
21
-154.328
0
LINE
8
BLACK
6
CONTINUOUS
10
171.409
20
-154.328
11
171.266
21
-154.043
0
LINE
8
BLACK
6
CONTINUOUS
10
171.266
20
-154.043
11
171.266
21
-153.757
0
LINE
8
BLACK
6
CONTINUOUS
10
171.266
20
-153.757
11
171.409
21
-153.471
0
LINE
8
BLACK
6
CONTINUOUS
10
171.409
20
-153.471
11
171.695
21
-153.328
0
LINE
8
BLACK
6
CONTINUOUS
10
171.695
20
-153.328
11
172.409
21
-153.328
0
LINE
8
BLACK
6
CONTINUOUS
10
172.409
20
-153.328
11
172.695
21
-153.185
0
LINE
8
BLACK
6
CONTINUOUS
10
173.695
20
-152.471
11
174.838
21
-152.471
0
LINE
8
BLACK
6
CONTINUOUS
10
174.124
20
-151.471
11
174.124
21
-154.043
0
LINE
8
BLACK
6
CONTINUOUS
10
174.124
20
-154.043
11
174.266
21
-154.328
0
LINE
8
BLACK
6
CONTINUOUS
10
174.266
20
-154.328
11
174.552
21
-154.471
0
LINE
8
BLACK
6
CONTINUOUS
10
174.552
20
-154.471
11
174.838
21
-154.471
0
LINE
8
BLACK
6
CONTINUOUS
10
176.981
20
-154.328
11
176.695
21
-154.471
0
LINE
8
BLACK
6
CONTINUOUS
10
176.695
20
-154.471
11
176.124
21
-154.471
0
LINE
8
BLACK
6
CONTINUOUS
10
176.124
20
-154.471
11
175.838
21
-154.328
0
LINE
8
BLACK
6
CONTINUOUS
10
175.838
20
-154.328
11
175.695
21
-154.043
0
LINE
8
BLACK
6
CONTINUOUS
10
175.695
20
-154.043
11
175.695
21
-152.9
0
LINE
8
BLACK
6
CONTINUOUS
10
175.695
20
-152.9
11
175.838
21
-152.614
0
LINE
8
BLACK
6
CONTINUOUS
10
175.838
20
-152.614
11
176.124
21
-152.471
0
LINE
8
BLACK
6
CONTINUOUS
10
176.124
20
-152.471
11
176.695
21
-152.471
0
LINE
8
BLACK
6
CONTINUOUS
10
176.695
20
-152.471
11
176.981
21
-152.614
0
LINE
8
BLACK
6
CONTINUOUS
10
176.981
20
-152.614
11
177.124
21
-152.9
0
LINE
8
BLACK
6
CONTINUOUS
10
177.124
20
-152.9
11
177.124
21
-153.185
0
LINE
8
BLACK
6
CONTINUOUS
10
177.124
20
-153.185
11
175.695
21
-153.471
0
LINE
8
BLACK
6
CONTINUOUS
10
179.695
20
-154.471
11
179.695
21
-151.471
0
LINE
8
BLACK
6
CONTINUOUS
10
179.695
20
-154.328
11
179.409
21
-154.471
0
LINE
8
BLACK
6
CONTINUOUS
10
179.409
20
-154.471
11
178.838
21
-154.471
0
LINE
8
BLACK
6
CONTINUOUS
10
178.838
20
-154.471
11
178.552
21
-154.328
0
LINE
8
BLACK
6
CONTINUOUS
10
178.552
20
-154.328
11
178.409
21
-154.185
0
LINE
8
BLACK
6
CONTINUOUS
10
178.409
20
-154.185
11
178.266
21
-153.9
0
LINE
8
BLACK
6
CONTINUOUS
10
178.266
20
-153.9
11
178.266
21
-153.043
0
LINE
8
BLACK
6
CONTINUOUS
10
178.266
20
-153.043
11
178.409
21
-152.757
0
LINE
8
BLACK
6
CONTINUOUS
10
178.409
20
-152.757
11
178.552
21
-152.614
0
LINE
8
BLACK
6
CONTINUOUS
10
178.552
20
-152.614
11
178.838
21
-152.471
0
LINE
8
BLACK
6
CONTINUOUS
10
178.838
20
-152.471
11
179.409
21
-152.471
0
LINE
8
BLACK
6
CONTINUOUS
10
179.409
20
-152.471
11
179.695
21
-152.614
0
LINE
8
BLACK
6
CONTINUOUS
10
180.838
20
-155.614
11
180.981
21
-155.471
0
LINE
8
BLACK
6
CONTINUOUS
10
180.981
20
-155.471
11
181.266
21
-155.043
0
LINE
8
BLACK
6
CONTINUOUS
10
181.266
20
-155.043
11
181.409
21
-154.757
0
LINE
8
BLACK
6
CONTINUOUS
10
181.409
20
-154.757
11
181.552
21
-154.328
0
LINE
8
BLACK
6
CONTINUOUS
10
181.552
20
-154.328
11
181.695
21
-153.614
0
LINE
8
BLACK
6
CONTINUOUS
10
181.695
20
-153.614
11
181.695
21
-153.043
0
LINE
8
BLACK
6
CONTINUOUS
10
181.695
20
-153.043
11
181.552
21
-152.328
0
LINE
8
BLACK
6
CONTINUOUS
10
181.552
20
-152.328
11
181.409
21
-151.9
0
LINE
8
BLACK
6
CONTINUOUS
10
181.409
20
-151.9
11
181.266
21
-151.614
0
LINE
8
BLACK
6
CONTINUOUS
10
181.266
20
-151.614
11
180.981
21
-151.185
0
LINE
8
BLACK
6
CONTINUOUS
10
180.981
20
-151.185
11
180.838
21
-151.043
0
CIRCLE
8
BLACK
10
80.095
20
-157.074
40
0.45
0
LINE
8
BLACK
6
CONTINUOUS
10
83.9807
20
-155.431
11
84.2664
21
-155.431
0
LINE
8
BLACK
6
CONTINUOUS
10
84.2664
20
-155.431
11
84.5521
21
-155.574
0
LINE
8
BLACK
6
CONTINUOUS
10
84.5521
20
-155.574
11
84.695
21
-155.717
0
LINE
8
BLACK
6
CONTINUOUS
10
84.695
20
-155.717
11
84.8379
21
-156.003
0
LINE
8
BLACK
6
CONTINUOUS
10
84.8379
20
-156.003
11
84.9807
21
-156.574
0
LINE
8
BLACK
6
CONTINUOUS
10
84.9807
20
-156.574
11
84.9807
21
-157.288
0
LINE
8
BLACK
6
CONTINUOUS
10
84.9807
20
-157.288
11
84.8379
21
-157.86
0
LINE
8
BLACK
6
CONTINUOUS
10
84.8379
20
-157.86
11
84.695
21
-158.145
0
LINE
8
BLACK
6
CONTINUOUS
10
84.695
20
-158.145
11
84.5521
21
-158.288
0
LINE
8
BLACK
6
CONTINUOUS
10
84.5521
20
-158.288
11
84.2664
21
-158.431
0
LINE
8
BLACK
6
CONTINUOUS
10
84.2664
20
-158.431
11
83.9807
21
-158.431
0
LINE
8
BLACK
6
CONTINUOUS
10
83.9807
20
-158.431
11
83.695
21
-158.288
0
LINE
8
BLACK
6
CONTINUOUS
10
83.695
20
-158.288
11
83.5521
21
-158.145
0
LINE
8
BLACK
6
CONTINUOUS
10
83.5521
20
-158.145
11
83.4093
21
-157.86
0
LINE
8
BLACK
6
CONTINUOUS
10
83.4093
20
-157.86
11
83.2664
21
-157.288
0
LINE
8
BLACK
6
CONTINUOUS
10
83.2664
20
-157.288
11
83.2664
21
-156.574
0
LINE
8
BLACK
6
CONTINUOUS
10
83.2664
20
-156.574
11
83.4093
21
-156.003
0
LINE
8
BLACK
6
CONTINUOUS
10
83.4093
20
-156.003
11
83.5521
21
-155.717
0
LINE
8
BLACK
6
CONTINUOUS
10
83.5521
20
-155.717
11
83.695
21
-155.574
0
LINE
8
BLACK
6
CONTINUOUS
10
83.695
20
-155.574
11
83.9807
21
-155.431
0
LINE
8
BLACK
6
CONTINUOUS
10
86.2664
20
-158.145
11
86.4093
21
-158.288
0
LINE
8
BLACK
6
CONTINUOUS
10
86.4093
20
-158.288
11
86.2664
21
-158.431
0
LINE
8
BLACK
6
CONTINUOUS
10
86.2664
20
-158.431
11
86.1236
21
-158.288
0
LINE
8
BLACK
6
CONTINUOUS
10
86.1236
20
-158.288
11
86.2664
21
-158.145
0
LINE
8
BLACK
6
CONTINUOUS
10
86.2664
20
-158.145
11
86.2664
21
-158.431
0
LINE
8
BLACK
6
CONTINUOUS
10
87.8379
20
-158.431
11
88.4093
21
-158.431
0
LINE
8
BLACK
6
CONTINUOUS
10
88.4093
20
-158.431
11
88.695
21
-158.288
0
LINE
8
BLACK
6
CONTINUOUS
10
88.695
20
-158.288
11
88.8379
21
-158.145
0
LINE
8
BLACK
6
CONTINUOUS
10
88.8379
20
-158.145
11
89.1236
21
-157.717
0
LINE
8
BLACK
6
CONTINUOUS
10
89.1236
20
-157.717
11
89.2664
21
-157.145
0
LINE
8
BLACK
6
CONTINUOUS
10
89.2664
20
-157.145
11
89.2664
21
-156.003
0
LINE
8
BLACK
6
CONTINUOUS
10
89.2664
20
-156.003
11
89.1236
21
-155.717
0
LINE
8
BLACK
6
CONTINUOUS
10
89.1236
20
-155.717
11
88.9807
21
-155.574
0
LINE
8
BLACK
6
CONTINUOUS
10
88.9807
20
-155.574
11
88.695
21
-155.431
0
LINE
8
BLACK
6
CONTINUOUS
10
88.695
20
-155.431
11
88.1236
21
-155.431
0
LINE
8
BLACK
6
CONTINUOUS
10
88.1236
20
-155.431
11
87.8379
21
-155.574
0
LINE
8
BLACK
6
CONTINUOUS
10
87.8379
20
-155.574
11
87.695
21
-155.717
0
LINE
8
BLACK
6
CONTINUOUS
10
87.695
20
-155.717
11
87.5521
21
-156.003
0
LINE
8
BLACK
6
CONTINUOUS
10
87.5521
20
-156.003
11
87.5521
21
-156.717
0
LINE
8
BLACK
6
CONTINUOUS
10
87.5521
20
-156.717
11
87.695
21
-157.003
0
LINE
8
BLACK
6
CONTINUOUS
10
87.695
20
-157.003
11
87.8379
21
-157.145
0
LINE
8
BLACK
6
CONTINUOUS
10
87.8379
20
-157.145
11
88.1236
21
-157.288
0
LINE
8
BLACK
6
CONTINUOUS
10
88.1236
20
-157.288
11
88.695
21
-157.288
0
LINE
8
BLACK
6
CONTINUOUS
10
88.695
20
-157.288
11
88.9807
21
-157.145
0
LINE
8
BLACK
6
CONTINUOUS
10
88.9807
20
-157.145
11
89.1236
21
-157.003
0
LINE
8
BLACK
6
CONTINUOUS
10
89.1236
20
-157.003
11
89.2664
21
-156.717
0
LINE
8
BLACK
6
CONTINUOUS
10
91.1236
20
-155.431
11
91.4093
21
-155.431
0
LINE
8
BLACK
6
CONTINUOUS
10
91.4093
20
-155.431
11
91.695
21
-155.574
0
LINE
8
BLACK
6
CONTINUOUS
10
91.695
20
-155.574
11
91.8379
21
-155.717
0
LINE
8
BLACK
6
CONTINUOUS
10
91.8379
20
-155.717
11
91.9807
21
-156.003
0
LINE
8
BLACK
6
CONTINUOUS
10
91.9807
20
-156.003
11
92.1236
21
-156.574
0
LINE
8
BLACK
6
CONTINUOUS
10
92.1236
20
-156.574
11
92.1236
21
-157.288
0
LINE
8
BLACK
6
CONTINUOUS
10
92.1236
20
-157.288
11
91.9807
21
-157.86
0
LINE
8
BLACK
6
CONTINUOUS
10
91.9807
20
-157.86
11
91.8379
21
-158.145
0
LINE
8
BLACK
6
CONTINUOUS
10
91.8379
20
-158.145
11
91.695
21
-158.288
0
LINE
8
BLACK
6
CONTINUOUS
10
91.695
20
-158.288
11
91.4093
21
-158.431
0
LINE
8
BLACK
6
CONTINUOUS
10
91.4093
20
-158.431
11
91.1236
21
-158.431
0
LINE
8
BLACK
6
CONTINUOUS
10
91.1236
20
-158.431
11
90.8379
21
-158.288
0
LINE
8
BLACK
6
CONTINUOUS
10
90.8379
20
-158.288
11
90.695
21
-158.145
0
LINE
8
BLACK
6
CONTINUOUS
10
90.695
20
-158.145
11
90.5521
21
-157.86
0
LINE
8
BLACK
6
CONTINUOUS
10
90.5521
20
-157.86
11
90.4093
21
-157.288
0
LINE
8
BLACK
6
CONTINUOUS
10
90.4093
20
-157.288
11
90.4093
21
-156.574
0
LINE
8
BLACK
6
CONTINUOUS
10
90.4093
20
-156.574
11
90.5521
21
-156.003
0
LINE
8
BLACK
6
CONTINUOUS
10
90.5521
20
-156.003
11
90.695
21
-155.717
0
LINE
8
BLACK
6
CONTINUOUS
10
90.695
20
-155.717
11
90.8379
21
-155.574
0
LINE
8
BLACK
6
CONTINUOUS
10
90.8379
20
-155.574
11
91.1236
21
-155.431
0
LINE
8
BLACK
6
CONTINUOUS
10
93.4093
20
-158.431
11
93.4093
21
-156.431
0
LINE
8
BLACK
6
CONTINUOUS
10
93.4093
20
-156.717
11
93.5521
21
-156.574
0
LINE
8
BLACK
6
CONTINUOUS
10
93.5521
20
-156.574
11
93.8379
21
-156.431
0
LINE
8
BLACK
6
CONTINUOUS
10
93.8379
20
-156.431
11
94.2664
21
-156.431
0
LINE
8
BLACK
6
CONTINUOUS
10
94.2664
20
-156.431
11
94.5521
21
-156.574
0
LINE
8
BLACK
6
CONTINUOUS
10
94.5521
20
-156.574
11
94.695
21
-156.86
0
LINE
8
BLACK
6
CONTINUOUS
10
94.695
20
-156.86
11
94.695
21
-158.431
0
LINE
8
BLACK
6
CONTINUOUS
10
94.695
20
-156.86
11
94.8379
21
-156.574
0
LINE
8
BLACK
6
CONTINUOUS
10
94.8379
20
-156.574
11
95.1236
21
-156.431
0
LINE
8
BLACK
6
CONTINUOUS
10
95.1236
20
-156.431
11
95.5521
21
-156.431
0
LINE
8
BLACK
6
CONTINUOUS
10
95.5521
20
-156.431
11
95.8379
21
-156.574
0
LINE
8
BLACK
6
CONTINUOUS
10
95.8379
20
-156.574
11
95.9807
21
-156.86
0
LINE
8
BLACK
6
CONTINUOUS
10
95.9807
20
-156.86
11
95.9807
21
-158.431
0
LINE
8
BLACK
6
CONTINUOUS
10
97.4093
20
-158.431
11
97.4093
21
-156.431
0
LINE
8
BLACK
6
CONTINUOUS
10
97.4093
20
-156.717
11
97.5521
21
-156.574
0
LINE
8
BLACK
6
CONTINUOUS
10
97.5521
20
-156.574
11
97.8379
21
-156.431
0
LINE
8
BLACK
6
CONTINUOUS
10
97.8379
20
-156.431
11
98.2664
21
-156.431
0
LINE
8
BLACK
6
CONTINUOUS
10
98.2664
20
-156.431
11
98.5521
21
-156.574
0
LINE
8
BLACK
6
CONTINUOUS
10
98.5521
20
-156.574
11
98.695
21
-156.86
0
LINE
8
BLACK
6
CONTINUOUS
10
98.695
20
-156.86
11
98.695
21
-158.431
0
LINE
8
BLACK
6
CONTINUOUS
10
98.695
20
-156.86
11
98.8379
21
-156.574
0
LINE
8
BLACK
6
CONTINUOUS
10
98.8379
20
-156.574
11
99.1236
21
-156.431
0
LINE
8
BLACK
6
CONTINUOUS
10
99.1236
20
-156.431
11
99.5521
21
-156.431
0
LINE
8
BLACK
6
CONTINUOUS
10
99.5521
20
-156.431
11
99.8379
21
-156.574
0
LINE
8
BLACK
6
CONTINUOUS
10
99.8379
20
-156.574
11
99.9807
21
-156.86
0
LINE
8
BLACK
6
CONTINUOUS
10
99.9807
20
-156.86
11
99.9807
21
-158.431
0
LINE
8
BLACK
6
CONTINUOUS
10
105.838
20
-155.288
11
103.266
21
-159.145
0
LINE
8
BLACK
6
CONTINUOUS
10
109.695
20
-155.431
11
109.981
21
-155.431
0
LINE
8
BLACK
6
CONTINUOUS
10
109.981
20
-155.431
11
110.266
21
-155.574
0
LINE
8
BLACK
6
CONTINUOUS
10
110.266
20
-155.574
11
110.409
21
-155.717
0
LINE
8
BLACK
6
CONTINUOUS
10
110.409
20
-155.717
11
110.552
21
-156.003
0
LINE
8
BLACK
6
CONTINUOUS
10
110.552
20
-156.003
11
110.695
21
-156.574
0
LINE
8
BLACK
6
CONTINUOUS
10
110.695
20
-156.574
11
110.695
21
-157.288
0
LINE
8
BLACK
6
CONTINUOUS
10
110.695
20
-157.288
11
110.552
21
-157.86
0
LINE
8
BLACK
6
CONTINUOUS
10
110.552
20
-157.86
11
110.409
21
-158.145
0
LINE
8
BLACK
6
CONTINUOUS
10
110.409
20
-158.145
11
110.266
21
-158.288
0
LINE
8
BLACK
6
CONTINUOUS
10
110.266
20
-158.288
11
109.981
21
-158.431
0
LINE
8
BLACK
6
CONTINUOUS
10
109.981
20
-158.431
11
109.695
21
-158.431
0
LINE
8
BLACK
6
CONTINUOUS
10
109.695
20
-158.431
11
109.409
21
-158.288
0
LINE
8
BLACK
6
CONTINUOUS
10
109.409
20
-158.288
11
109.266
21
-158.145
0
LINE
8
BLACK
6
CONTINUOUS
10
109.266
20
-158.145
11
109.124
21
-157.86
0
LINE
8
BLACK
6
CONTINUOUS
10
109.124
20
-157.86
11
108.981
21
-157.288
0
LINE
8
BLACK
6
CONTINUOUS
10
108.981
20
-157.288
11
108.981
21
-156.574
0
LINE
8
BLACK
6
CONTINUOUS
10
108.981
20
-156.574
11
109.124
21
-156.003
0
LINE
8
BLACK
6
CONTINUOUS
10
109.124
20
-156.003
11
109.266
21
-155.717
0
LINE
8
BLACK
6
CONTINUOUS
10
109.266
20
-155.717
11
109.409
21
-155.574
0
LINE
8
BLACK
6
CONTINUOUS
10
109.409
20
-155.574
11
109.695
21
-155.431
0
LINE
8
BLACK
6
CONTINUOUS
10
111.981
20
-158.145
11
112.124
21
-158.288
0
LINE
8
BLACK
6
CONTINUOUS
10
112.124
20
-158.288
11
111.981
21
-158.431
0
LINE
8
BLACK
6
CONTINUOUS
10
111.981
20
-158.431
11
111.838
21
-158.288
0
LINE
8
BLACK
6
CONTINUOUS
10
111.838
20
-158.288
11
111.981
21
-158.145
0
LINE
8
BLACK
6
CONTINUOUS
10
111.981
20
-158.145
11
111.981
21
-158.431
0
LINE
8
BLACK
6
CONTINUOUS
10
113.981
20
-155.431
11
114.266
21
-155.431
0
LINE
8
BLACK
6
CONTINUOUS
10
114.266
20
-155.431
11
114.552
21
-155.574
0
LINE
8
BLACK
6
CONTINUOUS
10
114.552
20
-155.574
11
114.695
21
-155.717
0
LINE
8
BLACK
6
CONTINUOUS
10
114.695
20
-155.717
11
114.838
21
-156.003
0
LINE
8
BLACK
6
CONTINUOUS
10
114.838
20
-156.003
11
114.981
21
-156.574
0
LINE
8
BLACK
6
CONTINUOUS
10
114.981
20
-156.574
11
114.981
21
-157.288
0
LINE
8
BLACK
6
CONTINUOUS
10
114.981
20
-157.288
11
114.838
21
-157.86
0
LINE
8
BLACK
6
CONTINUOUS
10
114.838
20
-157.86
11
114.695
21
-158.145
0
LINE
8
BLACK
6
CONTINUOUS
10
114.695
20
-158.145
11
114.552
21
-158.288
0
LINE
8
BLACK
6
CONTINUOUS
10
114.552
20
-158.288
11
114.266
21
-158.431
0
LINE
8
BLACK
6
CONTINUOUS
10
114.266
20
-158.431
11
113.981
21
-158.431
0
LINE
8
BLACK
6
CONTINUOUS
10
113.981
20
-158.431
11
113.695
21
-158.288
0
LINE
8
BLACK
6
CONTINUOUS
10
113.695
20
-158.288
11
113.552
21
-158.145
0
LINE
8
BLACK
6
CONTINUOUS
10
113.552
20
-158.145
11
113.409
21
-157.86
0
LINE
8
BLACK
6
CONTINUOUS
10
113.409
20
-157.86
11
113.266
21
-157.288
0
LINE
8
BLACK
6
CONTINUOUS
10
113.266
20
-157.288
11
113.266
21
-156.574
0
LINE
8
BLACK
6
CONTINUOUS
10
113.266
20
-156.574
11
113.409
21
-156.003
0
LINE
8
BLACK
6
CONTINUOUS
10
113.409
20
-156.003
11
113.552
21
-155.717
0
LINE
8
BLACK
6
CONTINUOUS
10
113.552
20
-155.717
11
113.695
21
-155.574
0
LINE
8
BLACK
6
CONTINUOUS
10
113.695
20
-155.574
11
113.981
21
-155.431
0
LINE
8
BLACK
6
CONTINUOUS
10
115.981
20
-155.431
11
117.838
21
-155.431
0
LINE
8
BLACK
6
CONTINUOUS
10
117.838
20
-155.431
11
116.838
21
-156.574
0
LINE
8
BLACK
6
CONTINUOUS
10
116.838
20
-156.574
11
117.266
21
-156.574
0
LINE
8
BLACK
6
CONTINUOUS
10
117.266
20
-156.574
11
117.552
21
-156.717
0
LINE
8
BLACK
6
CONTINUOUS
10
117.552
20
-156.717
11
117.695
21
-156.86
0
LINE
8
BLACK
6
CONTINUOUS
10
117.695
20
-156.86
11
117.838
21
-157.145
0
LINE
8
BLACK
6
CONTINUOUS
10
117.838
20
-157.145
11
117.838
21
-157.86
0
LINE
8
BLACK
6
CONTINUOUS
10
117.838
20
-157.86
11
117.695
21
-158.145
0
LINE
8
BLACK
6
CONTINUOUS
10
117.695
20
-158.145
11
117.552
21
-158.288
0
LINE
8
BLACK
6
CONTINUOUS
10
117.552
20
-158.288
11
117.266
21
-158.431
0
LINE
8
BLACK
6
CONTINUOUS
10
117.266
20
-158.431
11
116.409
21
-158.431
0
LINE
8
BLACK
6
CONTINUOUS
10
116.409
20
-158.431
11
116.124
21
-158.288
0
LINE
8
BLACK
6
CONTINUOUS
10
116.124
20
-158.288
11
115.981
21
-158.145
0
LINE
8
BLACK
6
CONTINUOUS
10
120.552
20
-155.431
11
119.124
21
-155.431
0
LINE
8
BLACK
6
CONTINUOUS
10
119.124
20
-155.431
11
118.981
21
-156.86
0
LINE
8
BLACK
6
CONTINUOUS
10
118.981
20
-156.86
11
119.124
21
-156.717
0
LINE
8
BLACK
6
CONTINUOUS
10
119.124
20
-156.717
11
119.409
21
-156.574
0
LINE
8
BLACK
6
CONTINUOUS
10
119.409
20
-156.574
11
120.124
21
-156.574
0
LINE
8
BLACK
6
CONTINUOUS
10
120.124
20
-156.574
11
120.409
21
-156.717
0
LINE
8
BLACK
6
CONTINUOUS
10
120.409
20
-156.717
11
120.552
21
-156.86
0
LINE
8
BLACK
6
CONTINUOUS
10
120.552
20
-156.86
11
120.695
21
-157.145
0
LINE
8
BLACK
6
CONTINUOUS
10
120.695
20
-157.145
11
120.695
21
-157.86
0
LINE
8
BLACK
6
CONTINUOUS
10
120.695
20
-157.86
11
120.552
21
-158.145
0
LINE
8
BLACK
6
CONTINUOUS
10
120.552
20
-158.145
11
120.409
21
-158.288
0
LINE
8
BLACK
6
CONTINUOUS
10
120.409
20
-158.288
11
120.124
21
-158.431
0
LINE
8
BLACK
6
CONTINUOUS
10
120.124
20
-158.431
11
119.409
21
-158.431
0
LINE
8
BLACK
6
CONTINUOUS
10
119.409
20
-158.431
11
119.124
21
-158.288
0
LINE
8
BLACK
6
CONTINUOUS
10
119.124
20
-158.288
11
118.981
21
-158.145
0
LINE
8
BLACK
6
CONTINUOUS
10
121.838
20
-155.431
11
121.838
21
-156.003
0
LINE
8
BLACK
6
CONTINUOUS
10
122.981
20
-155.431
11
122.981
21
-156.003
0
LINE
8
BLACK
6
CONTINUOUS
10
127.409
20
-159.574
11
127.266
21
-159.431
0
LINE
8
BLACK
6
CONTINUOUS
10
127.266
20
-159.431
11
126.981
21
-159.003
0
LINE
8
BLACK
6
CONTINUOUS
10
126.981
20
-159.003
11
126.838
21
-158.717
0
LINE
8
BLACK
6
CONTINUOUS
10
126.838
20
-158.717
11
126.695
21
-158.288
0
LINE
8
BLACK
6
CONTINUOUS
10
126.695
20
-158.288
11
126.552
21
-157.574
0
LINE
8
BLACK
6
CONTINUOUS
10
126.552
20
-157.574
11
126.552
21
-157.003
0
LINE
8
BLACK
6
CONTINUOUS
10
126.552
20
-157.003
11
126.695
21
-156.288
0
LINE
8
BLACK
6
CONTINUOUS
10
126.695
20
-156.288
11
126.838
21
-155.86
0
LINE
8
BLACK
6
CONTINUOUS
10
126.838
20
-155.86
11
126.981
21
-155.574
0
LINE
8
BLACK
6
CONTINUOUS
10
126.981
20
-155.574
11
127.266
21
-155.145
0
LINE
8
BLACK
6
CONTINUOUS
10
127.266
20
-155.145
11
127.409
21
-155.003
0
LINE
8
BLACK
6
CONTINUOUS
10
130.124
20
-158.431
11
128.409
21
-158.431
0
LINE
8
BLACK
6
CONTINUOUS
10
129.266
20
-158.431
11
129.266
21
-155.431
0
LINE
8
BLACK
6
CONTINUOUS
10
129.266
20
-155.431
11
128.981
21
-155.86
0
LINE
8
BLACK
6
CONTINUOUS
10
128.981
20
-155.86
11
128.695
21
-156.145
0
LINE
8
BLACK
6
CONTINUOUS
10
128.695
20
-156.145
11
128.409
21
-156.288
0
LINE
8
BLACK
6
CONTINUOUS
10
131.266
20
-155.717
11
131.409
21
-155.574
0
LINE
8
BLACK
6
CONTINUOUS
10
131.409
20
-155.574
11
131.695
21
-155.431
0
LINE
8
BLACK
6
CONTINUOUS
10
131.695
20
-155.431
11
132.409
21
-155.431
0
LINE
8
BLACK
6
CONTINUOUS
10
132.409
20
-155.431
11
132.695
21
-155.574
0
LINE
8
BLACK
6
CONTINUOUS
10
132.695
20
-155.574
11
132.838
21
-155.717
0
LINE
8
BLACK
6
CONTINUOUS
10
132.838
20
-155.717
11
132.981
21
-156.003
0
LINE
8
BLACK
6
CONTINUOUS
10
132.981
20
-156.003
11
132.981
21
-156.288
0
LINE
8
BLACK
6
CONTINUOUS
10
132.981
20
-156.288
11
132.838
21
-156.717
0
LINE
8
BLACK
6
CONTINUOUS
10
132.838
20
-156.717
11
131.124
21
-158.431
0
LINE
8
BLACK
6
CONTINUOUS
10
131.124
20
-158.431
11
132.981
21
-158.431
0
LINE
8
BLACK
6
CONTINUOUS
10
136.552
20
-158.431
11
136.552
21
-155.431
0
LINE
8
BLACK
6
CONTINUOUS
10
137.838
20
-158.431
11
137.838
21
-156.86
0
LINE
8
BLACK
6
CONTINUOUS
10
137.838
20
-156.86
11
137.695
21
-156.574
0
LINE
8
BLACK
6
CONTINUOUS
10
137.695
20
-156.574
11
137.409
21
-156.431
0
LINE
8
BLACK
6
CONTINUOUS
10
137.409
20
-156.431
11
136.981
21
-156.431
0
LINE
8
BLACK
6
CONTINUOUS
10
136.981
20
-156.431
11
136.695
21
-156.574
0
LINE
8
BLACK
6
CONTINUOUS
10
136.695
20
-156.574
11
136.552
21
-156.717
0
LINE
8
BLACK
6
CONTINUOUS
10
139.695
20
-158.431
11
139.409
21
-158.288
0
LINE
8
BLACK
6
CONTINUOUS
10
139.409
20
-158.288
11
139.266
21
-158.145
0
LINE
8
BLACK
6
CONTINUOUS
10
139.266
20
-158.145
11
139.124
21
-157.86
0
LINE
8
BLACK
6
CONTINUOUS
10
139.124
20
-157.86
11
139.124
21
-157.003
0
LINE
8
BLACK
6
CONTINUOUS
10
139.124
20
-157.003
11
139.266
21
-156.717
0
LINE
8
BLACK
6
CONTINUOUS
10
139.266
20
-156.717
11
139.409
21
-156.574
0
LINE
8
BLACK
6
CONTINUOUS
10
139.409
20
-156.574
11
139.695
21
-156.431
0
LINE
8
BLACK
6
CONTINUOUS
10
139.695
20
-156.431
11
140.124
21
-156.431
0
LINE
8
BLACK
6
CONTINUOUS
10
140.124
20
-156.431
11
140.409
21
-156.574
0
LINE
8
BLACK
6
CONTINUOUS
10
140.409
20
-156.574
11
140.552
21
-156.717
0
LINE
8
BLACK
6
CONTINUOUS
10
140.552
20
-156.717
11
140.695
21
-157.003
0
LINE
8
BLACK
6
CONTINUOUS
10
140.695
20
-157.003
11
140.695
21
-157.86
0
LINE
8
BLACK
6
CONTINUOUS
10
140.695
20
-157.86
11
140.552
21
-158.145
0
LINE
8
BLACK
6
CONTINUOUS
10
140.552
20
-158.145
11
140.409
21
-158.288
0
LINE
8
BLACK
6
CONTINUOUS
10
140.409
20
-158.288
11
140.124
21
-158.431
0
LINE
8
BLACK
6
CONTINUOUS
10
140.124
20
-158.431
11
139.695
21
-158.431
0
LINE
8
BLACK
6
CONTINUOUS
10
142.409
20
-158.431
11
142.124
21
-158.288
0
LINE
8
BLACK
6
CONTINUOUS
10
142.124
20
-158.288
11
141.981
21
-158.003
0
LINE
8
BLACK
6
CONTINUOUS
10
141.981
20
-158.003
11
141.981
21
-155.431
0
LINE
8
BLACK
6
CONTINUOUS
10
144.695
20
-158.288
11
144.409
21
-158.431
0
LINE
8
BLACK
6
CONTINUOUS
10
144.409
20
-158.431
11
143.838
21
-158.431
0
LINE
8
BLACK
6
CONTINUOUS
10
143.838
20
-158.431
11
143.552
21
-158.288
0
LINE
8
BLACK
6
CONTINUOUS
10
143.552
20
-158.288
11
143.409
21
-158.003
0
LINE
8
BLACK
6
CONTINUOUS
10
143.409
20
-158.003
11
143.409
21
-156.86
0
LINE
8
BLACK
6
CONTINUOUS
10
143.409
20
-156.86
11
143.552
21
-156.574
0
LINE
8
BLACK
6
CONTINUOUS
10
143.552
20
-156.574
11
143.838
21
-156.431
0
LINE
8
BLACK
6
CONTINUOUS
10
143.838
20
-156.431
11
144.409
21
-156.431
0
LINE
8
BLACK
6
CONTINUOUS
10
144.409
20
-156.431
11
144.695
21
-156.574
0
LINE
8
BLACK
6
CONTINUOUS
10
144.695
20
-156.574
11
144.838
21
-156.86
0
LINE
8
BLACK
6
CONTINUOUS
10
144.838
20
-156.86
11
144.838
21
-157.145
0
LINE
8
BLACK
6
CONTINUOUS
10
144.838
20
-157.145
11
143.409
21
-157.431
0
LINE
8
BLACK
6
CONTINUOUS
10
145.981
20
-158.288
11
146.266
21
-158.431
0
LINE
8
BLACK
6
CONTINUOUS
10
146.266
20
-158.431
11
146.838
21
-158.431
0
LINE
8
BLACK
6
CONTINUOUS
10
146.838
20
-158.431
11
147.124
21
-158.288
0
LINE
8
BLACK
6
CONTINUOUS
10
147.124
20
-158.288
11
147.266
21
-158.003
0
LINE
8
BLACK
6
CONTINUOUS
10
147.266
20
-158.003
11
147.266
21
-157.86
0
LINE
8
BLACK
6
CONTINUOUS
10
147.266
20
-157.86
11
147.124
21
-157.574
0
LINE
8
BLACK
6
CONTINUOUS
10
147.124
20
-157.574
11
146.838
21
-157.431
0
LINE
8
BLACK
6
CONTINUOUS
10
146.838
20
-157.431
11
146.409
21
-157.431
0
LINE
8
BLACK
6
CONTINUOUS
10
146.409
20
-157.431
11
146.124
21
-157.288
0
LINE
8
BLACK
6
CONTINUOUS
10
146.124
20
-157.288
11
145.981
21
-157.003
0
LINE
8
BLACK
6
CONTINUOUS
10
145.981
20
-157.003
11
145.981
21
-156.86
0
LINE
8
BLACK
6
CONTINUOUS
10
145.981
20
-156.86
11
146.124
21
-156.574
0
LINE
8
BLACK
6
CONTINUOUS
10
146.124
20
-156.574
11
146.409
21
-156.431
0
LINE
8
BLACK
6
CONTINUOUS
10
146.409
20
-156.431
11
146.838
21
-156.431
0
LINE
8
BLACK
6
CONTINUOUS
10
146.838
20
-156.431
11
147.124
21
-156.574
0
LINE
8
BLACK
6
CONTINUOUS
10
148.266
20
-159.574
11
148.409
21
-159.431
0
LINE
8
BLACK
6
CONTINUOUS
10
148.409
20
-159.431
11
148.695
21
-159.003
0
LINE
8
BLACK
6
CONTINUOUS
10
148.695
20
-159.003
11
148.838
21
-158.717
0
LINE
8
BLACK
6
CONTINUOUS
10
148.838
20
-158.717
11
148.981
21
-158.288
0
LINE
8
BLACK
6
CONTINUOUS
10
148.981
20
-158.288
11
149.124
21
-157.574
0
LINE
8
BLACK
6
CONTINUOUS
10
149.124
20
-157.574
11
149.124
21
-157.003
0
LINE
8
BLACK
6
CONTINUOUS
10
149.124
20
-157.003
11
148.981
21
-156.288
0
LINE
8
BLACK
6
CONTINUOUS
10
148.981
20
-156.288
11
148.838
21
-155.86
0
LINE
8
BLACK
6
CONTINUOUS
10
148.838
20
-155.86
11
148.695
21
-155.574
0
LINE
8
BLACK
6
CONTINUOUS
10
148.695
20
-155.574
11
148.409
21
-155.145
0
LINE
8
BLACK
6
CONTINUOUS
10
148.409
20
-155.145
11
148.266
21
-155.003
0
LINE
8
BLACK
6
CONTINUOUS
10
153.695
20
-159.574
11
153.552
21
-159.431
0
LINE
8
BLACK
6
CONTINUOUS
10
153.552
20
-159.431
11
153.266
21
-159.003
0
LINE
8
BLACK
6
CONTINUOUS
10
153.266
20
-159.003
11
153.124
21
-158.717
0
LINE
8
BLACK
6
CONTINUOUS
10
153.124
20
-158.717
11
152.981
21
-158.288
0
LINE
8
BLACK
6
CONTINUOUS
10
152.981
20
-158.288
11
152.838
21
-157.574
0
LINE
8
BLACK
6
CONTINUOUS
10
152.838
20
-157.574
11
152.838
21
-157.003
0
LINE
8
BLACK
6
CONTINUOUS
10
152.838
20
-157.003
11
152.981
21
-156.288
0
LINE
8
BLACK
6
CONTINUOUS
10
152.981
20
-156.288
11
153.124
21
-155.86
0
LINE
8
BLACK
6
CONTINUOUS
10
153.124
20
-155.86
11
153.266
21
-155.574
0
LINE
8
BLACK
6
CONTINUOUS
10
153.266
20
-155.574
11
153.552
21
-155.145
0
LINE
8
BLACK
6
CONTINUOUS
10
153.552
20
-155.145
11
153.695
21
-155.003
0
LINE
8
BLACK
6
CONTINUOUS
10
154.838
20
-156.431
11
154.838
21
-158.431
0
LINE
8
BLACK
6
CONTINUOUS
10
154.838
20
-156.717
11
154.981
21
-156.574
0
LINE
8
BLACK
6
CONTINUOUS
10
154.981
20
-156.574
11
155.266
21
-156.431
0
LINE
8
BLACK
6
CONTINUOUS
10
155.266
20
-156.431
11
155.695
21
-156.431
0
LINE
8
BLACK
6
CONTINUOUS
10
155.695
20
-156.431
11
155.981
21
-156.574
0
LINE
8
BLACK
6
CONTINUOUS
10
155.981
20
-156.574
11
156.124
21
-156.86
0
LINE
8
BLACK
6
CONTINUOUS
10
156.124
20
-156.86
11
156.124
21
-158.431
0
LINE
8
BLACK
6
CONTINUOUS
10
157.981
20
-158.431
11
157.695
21
-158.288
0
LINE
8
BLACK
6
CONTINUOUS
10
157.695
20
-158.288
11
157.552
21
-158.145
0
LINE
8
BLACK
6
CONTINUOUS
10
157.552
20
-158.145
11
157.409
21
-157.86
0
LINE
8
BLACK
6
CONTINUOUS
10
157.409
20
-157.86
11
157.409
21
-157.003
0
LINE
8
BLACK
6
CONTINUOUS
10
157.409
20
-157.003
11
157.552
21
-156.717
0
LINE
8
BLACK
6
CONTINUOUS
10
157.552
20
-156.717
11
157.695
21
-156.574
0
LINE
8
BLACK
6
CONTINUOUS
10
157.695
20
-156.574
11
157.981
21
-156.431
0
LINE
8
BLACK
6
CONTINUOUS
10
157.981
20
-156.431
11
158.409
21
-156.431
0
LINE
8
BLACK
6
CONTINUOUS
10
158.409
20
-156.431
11
158.695
21
-156.574
0
LINE
8
BLACK
6
CONTINUOUS
10
158.695
20
-156.574
11
158.838
21
-156.717
0
LINE
8
BLACK
6
CONTINUOUS
10
158.838
20
-156.717
11
158.981
21
-157.003
0
LINE
8
BLACK
6
CONTINUOUS
10
158.981
20
-157.003
11
158.981
21
-157.86
0
LINE
8
BLACK
6
CONTINUOUS
10
158.981
20
-157.86
11
158.838
21
-158.145
0
LINE
8
BLACK
6
CONTINUOUS
10
158.838
20
-158.145
11
158.695
21
-158.288
0
LINE
8
BLACK
6
CONTINUOUS
10
158.695
20
-158.288
11
158.409
21
-158.431
0
LINE
8
BLACK
6
CONTINUOUS
10
158.409
20
-158.431
11
157.981
21
-158.431
0
LINE
8
BLACK
6
CONTINUOUS
10
159.838
20
-156.431
11
160.981
21
-156.431
0
LINE
8
BLACK
6
CONTINUOUS
10
160.266
20
-155.431
11
160.266
21
-158.003
0
LINE
8
BLACK
6
CONTINUOUS
10
160.266
20
-158.003
11
160.409
21
-158.288
0
LINE
8
BLACK
6
CONTINUOUS
10
160.409
20
-158.288
11
160.695
21
-158.431
0
LINE
8
BLACK
6
CONTINUOUS
10
160.695
20
-158.431
11
160.981
21
-158.431
0
LINE
8
BLACK
6
CONTINUOUS
10
164.266
20
-156.431
11
164.266
21
-159.431
0
LINE
8
BLACK
6
CONTINUOUS
10
164.266
20
-156.574
11
164.552
21
-156.431
0
LINE
8
BLACK
6
CONTINUOUS
10
164.552
20
-156.431
11
165.124
21
-156.431
0
LINE
8
BLACK
6
CONTINUOUS
10
165.124
20
-156.431
11
165.409
21
-156.574
0
LINE
8
BLACK
6
CONTINUOUS
10
165.409
20
-156.574
11
165.552
21
-156.717
0
LINE
8
BLACK
6
CONTINUOUS
10
165.552
20
-156.717
11
165.695
21
-157.003
0
LINE
8
BLACK
6
CONTINUOUS
10
165.695
20
-157.003
11
165.695
21
-157.86
0
LINE
8
BLACK
6
CONTINUOUS
10
165.695
20
-157.86
11
165.552
21
-158.145
0
LINE
8
BLACK
6
CONTINUOUS
10
165.552
20
-158.145
11
165.409
21
-158.288
0
LINE
8
BLACK
6
CONTINUOUS
10
165.409
20
-158.288
11
165.124
21
-158.431
0
LINE
8
BLACK
6
CONTINUOUS
10
165.124
20
-158.431
11
164.552
21
-158.431
0
LINE
8
BLACK
6
CONTINUOUS
10
164.552
20
-158.431
11
164.266
21
-158.288
0
LINE
8
BLACK
6
CONTINUOUS
10
167.409
20
-158.431
11
167.124
21
-158.288
0
LINE
8
BLACK
6
CONTINUOUS
10
167.124
20
-158.288
11
166.981
21
-158.003
0
LINE
8
BLACK
6
CONTINUOUS
10
166.981
20
-158.003
11
166.981
21
-155.431
0
LINE
8
BLACK
6
CONTINUOUS
10
169.838
20
-158.431
11
169.838
21
-156.86
0
LINE
8
BLACK
6
CONTINUOUS
10
169.838
20
-156.86
11
169.695
21
-156.574
0
LINE
8
BLACK
6
CONTINUOUS
10
169.695
20
-156.574
11
169.409
21
-156.431
0
LINE
8
BLACK
6
CONTINUOUS
10
169.409
20
-156.431
11
168.838
21
-156.431
0
LINE
8
BLACK
6
CONTINUOUS
10
168.838
20
-156.431
11
168.552
21
-156.574
0
LINE
8
BLACK
6
CONTINUOUS
10
169.838
20
-158.288
11
169.552
21
-158.431
0
LINE
8
BLACK
6
CONTINUOUS
10
169.552
20
-158.431
11
168.838
21
-158.431
0
LINE
8
BLACK
6
CONTINUOUS
10
168.838
20
-158.431
11
168.552
21
-158.288
0
LINE
8
BLACK
6
CONTINUOUS
10
168.552
20
-158.288
11
168.409
21
-158.003
0
LINE
8
BLACK
6
CONTINUOUS
10
168.409
20
-158.003
11
168.409
21
-157.717
0
LINE
8
BLACK
6
CONTINUOUS
10
168.409
20
-157.717
11
168.552
21
-157.431
0
LINE
8
BLACK
6
CONTINUOUS
10
168.552
20
-157.431
11
168.838
21
-157.288
0
LINE
8
BLACK
6
CONTINUOUS
10
168.838
20
-157.288
11
169.552
21
-157.288
0
LINE
8
BLACK
6
CONTINUOUS
10
169.552
20
-157.288
11
169.838
21
-157.145
0
LINE
8
BLACK
6
CONTINUOUS
10
170.838
20
-156.431
11
171.981
21
-156.431
0
LINE
8
BLACK
6
CONTINUOUS
10
171.266
20
-155.431
11
171.266
21
-158.003
0
LINE
8
BLACK
6
CONTINUOUS
10
171.266
20
-158.003
11
171.409
21
-158.288
0
LINE
8
BLACK
6
CONTINUOUS
10
171.409
20
-158.288
11
171.695
21
-158.431
0
LINE
8
BLACK
6
CONTINUOUS
10
171.695
20
-158.431
11
171.981
21
-158.431
0
LINE
8
BLACK
6
CONTINUOUS
10
174.124
20
-158.288
11
173.838
21
-158.431
0
LINE
8
BLACK
6
CONTINUOUS
10
173.838
20
-158.431
11
173.266
21
-158.431
0
LINE
8
BLACK
6
CONTINUOUS
10
173.266
20
-158.431
11
172.981
21
-158.288
0
LINE
8
BLACK
6
CONTINUOUS
10
172.981
20
-158.288
11
172.838
21
-158.003
0
LINE
8
BLACK
6
CONTINUOUS
10
172.838
20
-158.003
11
172.838
21
-156.86
0
LINE
8
BLACK
6
CONTINUOUS
10
172.838
20
-156.86
11
172.981
21
-156.574
0
LINE
8
BLACK
6
CONTINUOUS
10
172.981
20
-156.574
11
173.266
21
-156.431
0
LINE
8
BLACK
6
CONTINUOUS
10
173.266
20
-156.431
11
173.838
21
-156.431
0
LINE
8
BLACK
6
CONTINUOUS
10
173.838
20
-156.431
11
174.124
21
-156.574
0
LINE
8
BLACK
6
CONTINUOUS
10
174.124
20
-156.574
11
174.266
21
-156.86
0
LINE
8
BLACK
6
CONTINUOUS
10
174.266
20
-156.86
11
174.266
21
-157.145
0
LINE
8
BLACK
6
CONTINUOUS
10
174.266
20
-157.145
11
172.838
21
-157.431
0
LINE
8
BLACK
6
CONTINUOUS
10
176.838
20
-158.431
11
176.838
21
-155.431
0
LINE
8
BLACK
6
CONTINUOUS
10
176.838
20
-158.288
11
176.552
21
-158.431
0
LINE
8
BLACK
6
CONTINUOUS
10
176.552
20
-158.431
11
175.981
21
-158.431
0
LINE
8
BLACK
6
CONTINUOUS
10
175.981
20
-158.431
11
175.695
21
-158.288
0
LINE
8
BLACK
6
CONTINUOUS
10
175.695
20
-158.288
11
175.552
21
-158.145
0
LINE
8
BLACK
6
CONTINUOUS
10
175.552
20
-158.145
11
175.409
21
-157.86
0
LINE
8
BLACK
6
CONTINUOUS
10
175.409
20
-157.86
11
175.409
21
-157.003
0
LINE
8
BLACK
6
CONTINUOUS
10
175.409
20
-157.003
11
175.552
21
-156.717
0
LINE
8
BLACK
6
CONTINUOUS
10
175.552
20
-156.717
11
175.695
21
-156.574
0
LINE
8
BLACK
6
CONTINUOUS
10
175.695
20
-156.574
11
175.981
21
-156.431
0
LINE
8
BLACK
6
CONTINUOUS
10
175.981
20
-156.431
11
176.552
21
-156.431
0
LINE
8
BLACK
6
CONTINUOUS
10
176.552
20
-156.431
11
176.838
21
-156.574
0
LINE
8
BLACK
6
CONTINUOUS
10
177.981
20
-159.574
11
178.124
21
-159.431
0
LINE
8
BLACK
6
CONTINUOUS
10
178.124
20
-159.431
11
178.409
21
-159.003
0
LINE
8
BLACK
6
CONTINUOUS
10
178.409
20
-159.003
11
178.552
21
-158.717
0
LINE
8
BLACK
6
CONTINUOUS
10
178.552
20
-158.717
11
178.695
21
-158.288
0
LINE
8
BLACK
6
CONTINUOUS
10
178.695
20
-158.288
11
178.838
21
-157.574
0
LINE
8
BLACK
6
CONTINUOUS
10
178.838
20
-157.574
11
178.838
21
-157.003
0
LINE
8
BLACK
6
CONTINUOUS
10
178.838
20
-157.003
11
178.695
21
-156.288
0
LINE
8
BLACK
6
CONTINUOUS
10
178.695
20
-156.288
11
178.552
21
-155.86
0
LINE
8
BLACK
6
CONTINUOUS
10
178.552
20
-155.86
11
178.409
21
-155.574
0
LINE
8
BLACK
6
CONTINUOUS
10
178.409
20
-155.574
11
178.124
21
-155.145
0
LINE
8
BLACK
6
CONTINUOUS
10
178.124
20
-155.145
11
177.981
21
-155.003
0
LINE
8
BLACK
6
CONTINUOUS
10
80.045
20
-160.534
11
80.045
21
-161.534
0
LINE
8
BLACK
6
CONTINUOUS
10
79.545
20
-161.034
11
80.545
21
-161.034
0
LINE
8
BLACK
6
CONTINUOUS
10
84.9807
20
-162.391
11
83.2664
21
-162.391
0
LINE
8
BLACK
6
CONTINUOUS
10
84.1236
20
-162.391
11
84.1236
21
-159.391
0
LINE
8
BLACK
6
CONTINUOUS
10
84.1236
20
-159.391
11
83.8379
21
-159.82
0
LINE
8
BLACK
6
CONTINUOUS
10
83.8379
20
-159.82
11
83.5521
21
-160.105
0
LINE
8
BLACK
6
CONTINUOUS
10
83.5521
20
-160.105
11
83.2664
21
-160.248
0
LINE
8
BLACK
6
CONTINUOUS
10
86.2664
20
-162.105
11
86.4093
21
-162.248
0
LINE
8
BLACK
6
CONTINUOUS
10
86.4093
20
-162.248
11
86.2664
21
-162.391
0
LINE
8
BLACK
6
CONTINUOUS
10
86.2664
20
-162.391
11
86.1236
21
-162.248
0
LINE
8
BLACK
6
CONTINUOUS
10
86.1236
20
-162.248
11
86.2664
21
-162.105
0
LINE
8
BLACK
6
CONTINUOUS
10
86.2664
20
-162.105
11
86.2664
21
-162.391
0
LINE
8
BLACK
6
CONTINUOUS
10
88.2664
20
-159.391
11
88.5521
21
-159.391
0
LINE
8
BLACK
6
CONTINUOUS
10
88.5521
20
-159.391
11
88.8379
21
-159.534
0
LINE
8
BLACK
6
CONTINUOUS
10
88.8379
20
-159.534
11
88.9807
21
-159.677
0
LINE
8
BLACK
6
CONTINUOUS
10
88.9807
20
-159.677
11
89.1236
21
-159.963
0
LINE
8
BLACK
6
CONTINUOUS
10
89.1236
20
-159.963
11
89.2664
21
-160.534
0
LINE
8
BLACK
6
CONTINUOUS
10
89.2664
20
-160.534
11
89.2664
21
-161.248
0
LINE
8
BLACK
6
CONTINUOUS
10
89.2664
20
-161.248
11
89.1236
21
-161.82
0
LINE
8
BLACK
6
CONTINUOUS
10
89.1236
20
-161.82
11
88.9807
21
-162.105
0
LINE
8
BLACK
6
CONTINUOUS
10
88.9807
20
-162.105
11
88.8379
21
-162.248
0
LINE
8
BLACK
6
CONTINUOUS
10
88.8379
20
-162.248
11
88.5521
21
-162.391
0
LINE
8
BLACK
6
CONTINUOUS
10
88.5521
20
-162.391
11
88.2664
21
-162.391
0
LINE
8
BLACK
6
CONTINUOUS
10
88.2664
20
-162.391
11
87.9807
21
-162.248
0
LINE
8
BLACK
6
CONTINUOUS
10
87.9807
20
-162.248
11
87.8379
21
-162.105
0
LINE
8
BLACK
6
CONTINUOUS
10
87.8379
20
-162.105
11
87.695
21
-161.82
0
LINE
8
BLACK
6
CONTINUOUS
10
87.695
20
-161.82
11
87.5521
21
-161.248
0
LINE
8
BLACK
6
CONTINUOUS
10
87.5521
20
-161.248
11
87.5521
21
-160.534
0
LINE
8
BLACK
6
CONTINUOUS
10
87.5521
20
-160.534
11
87.695
21
-159.963
0
LINE
8
BLACK
6
CONTINUOUS
10
87.695
20
-159.963
11
87.8379
21
-159.677
0
LINE
8
BLACK
6
CONTINUOUS
10
87.8379
20
-159.677
11
87.9807
21
-159.534
0
LINE
8
BLACK
6
CONTINUOUS
10
87.9807
20
-159.534
11
88.2664
21
-159.391
0
LINE
8
BLACK
6
CONTINUOUS
10
91.1236
20
-159.391
11
91.4093
21
-159.391
0
LINE
8
BLACK
6
CONTINUOUS
10
91.4093
20
-159.391
11
91.695
21
-159.534
0
LINE
8
BLACK
6
CONTINUOUS
10
91.695
20
-159.534
11
91.8379
21
-159.677
0
LINE
8
BLACK
6
CONTINUOUS
10
91.8379
20
-159.677
11
91.9807
21
-159.963
0
LINE
8
BLACK
6
CONTINUOUS
10
91.9807
20
-159.963
11
92.1236
21
-160.534
0
LINE
8
BLACK
6
CONTINUOUS
10
92.1236
20
-160.534
11
92.1236
21
-161.248
0
LINE
8
BLACK
6
CONTINUOUS
10
92.1236
20
-161.248
11
91.9807
21
-161.82
0
LINE
8
BLACK
6
CONTINUOUS
10
91.9807
20
-161.82
11
91.8379
21
-162.105
0
LINE
8
BLACK
6
CONTINUOUS
10
91.8379
20
-162.105
11
91.695
21
-162.248
0
LINE
8
BLACK
6
CONTINUOUS
10
91.695
20
-162.248
11
91.4093
21
-162.391
0
LINE
8
BLACK
6
CONTINUOUS
10
91.4093
20
-162.391
11
91.1236
21
-162.391
0
LINE
8
BLACK
6
CONTINUOUS
10
91.1236
20
-162.391
11
90.8379
21
-162.248
0
LINE
8
BLACK
6
CONTINUOUS
10
90.8379
20
-162.248
11
90.695
21
-162.105
0
LINE
8
BLACK
6
CONTINUOUS
10
90.695
20
-162.105
11
90.5521
21
-161.82
0
LINE
8
BLACK
6
CONTINUOUS
10
90.5521
20
-161.82
11
90.4093
21
-161.248
0
LINE
8
BLACK
6
CONTINUOUS
10
90.4093
20
-161.248
11
90.4093
21
-160.534
0
LINE
8
BLACK
6
CONTINUOUS
10
90.4093
20
-160.534
11
90.5521
21
-159.963
0
LINE
8
BLACK
6
CONTINUOUS
10
90.5521
20
-159.963
11
90.695
21
-159.677
0
LINE
8
BLACK
6
CONTINUOUS
10
90.695
20
-159.677
11
90.8379
21
-159.534
0
LINE
8
BLACK
6
CONTINUOUS
10
90.8379
20
-159.534
11
91.1236
21
-159.391
0
LINE
8
BLACK
6
CONTINUOUS
10
93.4093
20
-162.391
11
93.4093
21
-160.391
0
LINE
8
BLACK
6
CONTINUOUS
10
93.4093
20
-160.677
11
93.5521
21
-160.534
0
LINE
8
BLACK
6
CONTINUOUS
10
93.5521
20
-160.534
11
93.8379
21
-160.391
0
LINE
8
BLACK
6
CONTINUOUS
10
93.8379
20
-160.391
11
94.2664
21
-160.391
0
LINE
8
BLACK
6
CONTINUOUS
10
94.2664
20
-160.391
11
94.5521
21
-160.534
0
LINE
8
BLACK
6
CONTINUOUS
10
94.5521
20
-160.534
11
94.695
21
-160.82
0
LINE
8
BLACK
6
CONTINUOUS
10
94.695
20
-160.82
11
94.695
21
-162.391
0
LINE
8
BLACK
6
CONTINUOUS
10
94.695
20
-160.82
11
94.8379
21
-160.534
0
LINE
8
BLACK
6
CONTINUOUS
10
94.8379
20
-160.534
11
95.1236
21
-160.391
0
LINE
8
BLACK
6
CONTINUOUS
10
95.1236
20
-160.391
11
95.5521
21
-160.391
0
LINE
8
BLACK
6
CONTINUOUS
10
95.5521
20
-160.391
11
95.8379
21
-160.534
0
LINE
8
BLACK
6
CONTINUOUS
10
95.8379
20
-160.534
11
95.9807
21
-160.82
0
LINE
8
BLACK
6
CONTINUOUS
10
95.9807
20
-160.82
11
95.9807
21
-162.391
0
LINE
8
BLACK
6
CONTINUOUS
10
97.4093
20
-162.391
11
97.4093
21
-160.391
0
LINE
8
BLACK
6
CONTINUOUS
10
97.4093
20
-160.677
11
97.5521
21
-160.534
0
LINE
8
BLACK
6
CONTINUOUS
10
97.5521
20
-160.534
11
97.8379
21
-160.391
0
LINE
8
BLACK
6
CONTINUOUS
10
97.8379
20
-160.391
11
98.2664
21
-160.391
0
LINE
8
BLACK
6
CONTINUOUS
10
98.2664
20
-160.391
11
98.5521
21
-160.534
0
LINE
8
BLACK
6
CONTINUOUS
10
98.5521
20
-160.534
11
98.695
21
-160.82
0
LINE
8
BLACK
6
CONTINUOUS
10
98.695
20
-160.82
11
98.695
21
-162.391
0
LINE
8
BLACK
6
CONTINUOUS
10
98.695
20
-160.82
11
98.8379
21
-160.534
0
LINE
8
BLACK
6
CONTINUOUS
10
98.8379
20
-160.534
11
99.1236
21
-160.391
0
LINE
8
BLACK
6
CONTINUOUS
10
99.1236
20
-160.391
11
99.5521
21
-160.391
0
LINE
8
BLACK
6
CONTINUOUS
10
99.5521
20
-160.391
11
99.8379
21
-160.534
0
LINE
8
BLACK
6
CONTINUOUS
10
99.8379
20
-160.534
11
99.9807
21
-160.82
0
LINE
8
BLACK
6
CONTINUOUS
10
99.9807
20
-160.82
11
99.9807
21
-162.391
0
LINE
8
BLACK
6
CONTINUOUS
10
105.838
20
-159.248
11
103.266
21
-163.105
0
LINE
8
BLACK
6
CONTINUOUS
10
109.695
20
-159.391
11
109.981
21
-159.391
0
LINE
8
BLACK
6
CONTINUOUS
10
109.981
20
-159.391
11
110.266
21
-159.534
0
LINE
8
BLACK
6
CONTINUOUS
10
110.266
20
-159.534
11
110.409
21
-159.677
0
LINE
8
BLACK
6
CONTINUOUS
10
110.409
20
-159.677
11
110.552
21
-159.963
0
LINE
8
BLACK
6
CONTINUOUS
10
110.552
20
-159.963
11
110.695
21
-160.534
0
LINE
8
BLACK
6
CONTINUOUS
10
110.695
20
-160.534
11
110.695
21
-161.248
0
LINE
8
BLACK
6
CONTINUOUS
10
110.695
20
-161.248
11
110.552
21
-161.82
0
LINE
8
BLACK
6
CONTINUOUS
10
110.552
20
-161.82
11
110.409
21
-162.105
0
LINE
8
BLACK
6
CONTINUOUS
10
110.409
20
-162.105
11
110.266
21
-162.248
0
LINE
8
BLACK
6
CONTINUOUS
10
110.266
20
-162.248
11
109.981
21
-162.391
0
LINE
8
BLACK
6
CONTINUOUS
10
109.981
20
-162.391
11
109.695
21
-162.391
0
LINE
8
BLACK
6
CONTINUOUS
10
109.695
20
-162.391
11
109.409
21
-162.248
0
LINE
8
BLACK
6
CONTINUOUS
10
109.409
20
-162.248
11
109.266
21
-162.105
0
LINE
8
BLACK
6
CONTINUOUS
10
109.266
20
-162.105
11
109.124
21
-161.82
0
LINE
8
BLACK
6
CONTINUOUS
10
109.124
20
-161.82
11
108.981
21
-161.248
0
LINE
8
BLACK
6
CONTINUOUS
10
108.981
20
-161.248
11
108.981
21
-160.534
0
LINE
8
BLACK
6
CONTINUOUS
10
108.981
20
-160.534
11
109.124
21
-159.963
0
LINE
8
BLACK
6
CONTINUOUS
10
109.124
20
-159.963
11
109.266
21
-159.677
0
LINE
8
BLACK
6
CONTINUOUS
10
109.266
20
-159.677
11
109.409
21
-159.534
0
LINE
8
BLACK
6
CONTINUOUS
10
109.409
20
-159.534
11
109.695
21
-159.391
0
LINE
8
BLACK
6
CONTINUOUS
10
111.981
20
-162.105
11
112.124
21
-162.248
0
LINE
8
BLACK
6
CONTINUOUS
10
112.124
20
-162.248
11
111.981
21
-162.391
0
LINE
8
BLACK
6
CONTINUOUS
10
111.981
20
-162.391
11
111.838
21
-162.248
0
LINE
8
BLACK
6
CONTINUOUS
10
111.838
20
-162.248
11
111.981
21
-162.105
0
LINE
8
BLACK
6
CONTINUOUS
10
111.981
20
-162.105
11
111.981
21
-162.391
0
LINE
8
BLACK
6
CONTINUOUS
10
113.981
20
-159.391
11
114.266
21
-159.391
0
LINE
8
BLACK
6
CONTINUOUS
10
114.266
20
-159.391
11
114.552
21
-159.534
0
LINE
8
BLACK
6
CONTINUOUS
10
114.552
20
-159.534
11
114.695
21
-159.677
0
LINE
8
BLACK
6
CONTINUOUS
10
114.695
20
-159.677
11
114.838
21
-159.963
0
LINE
8
BLACK
6
CONTINUOUS
10
114.838
20
-159.963
11
114.981
21
-160.534
0
LINE
8
BLACK
6
CONTINUOUS
10
114.981
20
-160.534
11
114.981
21
-161.248
0
LINE
8
BLACK
6
CONTINUOUS
10
114.981
20
-161.248
11
114.838
21
-161.82
0
LINE
8
BLACK
6
CONTINUOUS
10
114.838
20
-161.82
11
114.695
21
-162.105
0
LINE
8
BLACK
6
CONTINUOUS
10
114.695
20
-162.105
11
114.552
21
-162.248
0
LINE
8
BLACK
6
CONTINUOUS
10
114.552
20
-162.248
11
114.266
21
-162.391
0
LINE
8
BLACK
6
CONTINUOUS
10
114.266
20
-162.391
11
113.981
21
-162.391
0
LINE
8
BLACK
6
CONTINUOUS
10
113.981
20
-162.391
11
113.695
21
-162.248
0
LINE
8
BLACK
6
CONTINUOUS
10
113.695
20
-162.248
11
113.552
21
-162.105
0
LINE
8
BLACK
6
CONTINUOUS
10
113.552
20
-162.105
11
113.409
21
-161.82
0
LINE
8
BLACK
6
CONTINUOUS
10
113.409
20
-161.82
11
113.266
21
-161.248
0
LINE
8
BLACK
6
CONTINUOUS
10
113.266
20
-161.248
11
113.266
21
-160.534
0
LINE
8
BLACK
6
CONTINUOUS
10
113.266
20
-160.534
11
113.409
21
-159.963
0
LINE
8
BLACK
6
CONTINUOUS
10
113.409
20
-159.963
11
113.552
21
-159.677
0
LINE
8
BLACK
6
CONTINUOUS
10
113.552
20
-159.677
11
113.695
21
-159.534
0
LINE
8
BLACK
6
CONTINUOUS
10
113.695
20
-159.534
11
113.981
21
-159.391
0
LINE
8
BLACK
6
CONTINUOUS
10
115.981
20
-159.391
11
117.838
21
-159.391
0
LINE
8
BLACK
6
CONTINUOUS
10
117.838
20
-159.391
11
116.838
21
-160.534
0
LINE
8
BLACK
6
CONTINUOUS
10
116.838
20
-160.534
11
117.266
21
-160.534
0
LINE
8
BLACK
6
CONTINUOUS
10
117.266
20
-160.534
11
117.552
21
-160.677
0
LINE
8
BLACK
6
CONTINUOUS
10
117.552
20
-160.677
11
117.695
21
-160.82
0
LINE
8
BLACK
6
CONTINUOUS
10
117.695
20
-160.82
11
117.838
21
-161.105
0
LINE
8
BLACK
6
CONTINUOUS
10
117.838
20
-161.105
11
117.838
21
-161.82
0
LINE
8
BLACK
6
CONTINUOUS
10
117.838
20
-161.82
11
117.695
21
-162.105
0
LINE
8
BLACK
6
CONTINUOUS
10
117.695
20
-162.105
11
117.552
21
-162.248
0
LINE
8
BLACK
6
CONTINUOUS
10
117.552
20
-162.248
11
117.266
21
-162.391
0
LINE
8
BLACK
6
CONTINUOUS
10
117.266
20
-162.391
11
116.409
21
-162.391
0
LINE
8
BLACK
6
CONTINUOUS
10
116.409
20
-162.391
11
116.124
21
-162.248
0
LINE
8
BLACK
6
CONTINUOUS
10
116.124
20
-162.248
11
115.981
21
-162.105
0
LINE
8
BLACK
6
CONTINUOUS
10
119.266
20
-162.391
11
119.838
21
-162.391
0
LINE
8
BLACK
6
CONTINUOUS
10
119.838
20
-162.391
11
120.124
21
-162.248
0
LINE
8
BLACK
6
CONTINUOUS
10
120.124
20
-162.248
11
120.266
21
-162.105
0
LINE
8
BLACK
6
CONTINUOUS
10
120.266
20
-162.105
11
120.552
21
-161.677
0
LINE
8
BLACK
6
CONTINUOUS
10
120.552
20
-161.677
11
120.695
21
-161.105
0
LINE
8
BLACK
6
CONTINUOUS
10
120.695
20
-161.105
11
120.695
21
-159.963
0
LINE
8
BLACK
6
CONTINUOUS
10
120.695
20
-159.963
11
120.552
21
-159.677
0
LINE
8
BLACK
6
CONTINUOUS
10
120.552
20
-159.677
11
120.409
21
-159.534
0
LINE
8
BLACK
6
CONTINUOUS
10
120.409
20
-159.534
11
120.124
21
-159.391
0
LINE
8
BLACK
6
CONTINUOUS
10
120.124
20
-159.391
11
119.552
21
-159.391
0
LINE
8
BLACK
6
CONTINUOUS
10
119.552
20
-159.391
11
119.266
21
-159.534
0
LINE
8
BLACK
6
CONTINUOUS
10
119.266
20
-159.534
11
119.124
21
-159.677
0
LINE
8
BLACK
6
CONTINUOUS
10
119.124
20
-159.677
11
118.981
21
-159.963
0
LINE
8
BLACK
6
CONTINUOUS
10
118.981
20
-159.963
11
118.981
21
-160.677
0
LINE
8
BLACK
6
CONTINUOUS
10
118.981
20
-160.677
11
119.124
21
-160.963
0
LINE
8
BLACK
6
CONTINUOUS
10
119.124
20
-160.963
11
119.266
21
-161.105
0
LINE
8
BLACK
6
CONTINUOUS
10
119.266
20
-161.105
11
119.552
21
-161.248
0
LINE
8
BLACK
6
CONTINUOUS
10
119.552
20
-161.248
11
120.124
21
-161.248
0
LINE
8
BLACK
6
CONTINUOUS
10
120.124
20
-161.248
11
120.409
21
-161.105
0
LINE
8
BLACK
6
CONTINUOUS
10
120.409
20
-161.105
11
120.552
21
-160.963
0
LINE
8
BLACK
6
CONTINUOUS
10
120.552
20
-160.963
11
120.695
21
-160.677
0
LINE
8
BLACK
6
CONTINUOUS
10
121.838
20
-159.391
11
121.838
21
-159.963
0
LINE
8
BLACK
6
CONTINUOUS
10
122.981
20
-159.391
11
122.981
21
-159.963
0
LINE
8
BLACK
6
CONTINUOUS
10
127.409
20
-163.534
11
127.266
21
-163.391
0
LINE
8
BLACK
6
CONTINUOUS
10
127.266
20
-163.391
11
126.981
21
-162.963
0
LINE
8
BLACK
6
CONTINUOUS
10
126.981
20
-162.963
11
126.838
21
-162.677
0
LINE
8
BLACK
6
CONTINUOUS
10
126.838
20
-162.677
11
126.695
21
-162.248
0
LINE
8
BLACK
6
CONTINUOUS
10
126.695
20
-162.248
11
126.552
21
-161.534
0
LINE
8
BLACK
6
CONTINUOUS
10
126.552
20
-161.534
11
126.552
21
-160.963
0
LINE
8
BLACK
6
CONTINUOUS
10
126.552
20
-160.963
11
126.695
21
-160.248
0
LINE
8
BLACK
6
CONTINUOUS
10
126.695
20
-160.248
11
126.838
21
-159.82
0
LINE
8
BLACK
6
CONTINUOUS
10
126.838
20
-159.82
11
126.981
21
-159.534
0
LINE
8
BLACK
6
CONTINUOUS
10
126.981
20
-159.534
11
127.266
21
-159.105
0
LINE
8
BLACK
6
CONTINUOUS
10
127.266
20
-159.105
11
127.409
21
-158.963
0
LINE
8
BLACK
6
CONTINUOUS
10
130.124
20
-162.391
11
128.409
21
-162.391
0
LINE
8
BLACK
6
CONTINUOUS
10
129.266
20
-162.391
11
129.266
21
-159.391
0
LINE
8
BLACK
6
CONTINUOUS
10
129.266
20
-159.391
11
128.981
21
-159.82
0
LINE
8
BLACK
6
CONTINUOUS
10
128.981
20
-159.82
11
128.695
21
-160.105
0
LINE
8
BLACK
6
CONTINUOUS
10
128.695
20
-160.105
11
128.409
21
-160.248
0
LINE
8
BLACK
6
CONTINUOUS
10
132.981
20
-162.391
11
131.266
21
-162.391
0
LINE
8
BLACK
6
CONTINUOUS
10
132.124
20
-162.391
11
132.124
21
-159.391
0
LINE
8
BLACK
6
CONTINUOUS
10
132.124
20
-159.391
11
131.838
21
-159.82
0
LINE
8
BLACK
6
CONTINUOUS
10
131.838
20
-159.82
11
131.552
21
-160.105
0
LINE
8
BLACK
6
CONTINUOUS
10
131.552
20
-160.105
11
131.266
21
-160.248
0
LINE
8
BLACK
6
CONTINUOUS
10
135.552
20
-159.391
11
134.981
21
-159.391
0
LINE
8
BLACK
6
CONTINUOUS
10
134.981
20
-159.391
11
134.695
21
-159.534
0
LINE
8
BLACK
6
CONTINUOUS
10
134.695
20
-159.534
11
134.552
21
-159.677
0
LINE
8
BLACK
6
CONTINUOUS
10
134.552
20
-159.677
11
134.266
21
-160.105
0
LINE
8
BLACK
6
CONTINUOUS
10
134.266
20
-160.105
11
134.124
21
-160.677
0
LINE
8
BLACK
6
CONTINUOUS
10
134.124
20
-160.677
11
134.124
21
-161.82
0
LINE
8
BLACK
6
CONTINUOUS
10
134.124
20
-161.82
11
134.266
21
-162.105
0
LINE
8
BLACK
6
CONTINUOUS
10
134.266
20
-162.105
11
134.409
21
-162.248
0
LINE
8
BLACK
6
CONTINUOUS
10
134.409
20
-162.248
11
134.695
21
-162.391
0
LINE
8
BLACK
6
CONTINUOUS
10
134.695
20
-162.391
11
135.266
21
-162.391
0
LINE
8
BLACK
6
CONTINUOUS
10
135.266
20
-162.391
11
135.552
21
-162.248
0
LINE
8
BLACK
6
CONTINUOUS
10
135.552
20
-162.248
11
135.695
21
-162.105
0
LINE
8
BLACK
6
CONTINUOUS
10
135.695
20
-162.105
11
135.838
21
-161.82
0
LINE
8
BLACK
6
CONTINUOUS
10
135.838
20
-161.82
11
135.838
21
-161.105
0
LINE
8
BLACK
6
CONTINUOUS
10
135.838
20
-161.105
11
135.695
21
-160.82
0
LINE
8
BLACK
6
CONTINUOUS
10
135.695
20
-160.82
11
135.552
21
-160.677
0
LINE
8
BLACK
6
CONTINUOUS
10
135.552
20
-160.677
11
135.266
21
-160.534
0
LINE
8
BLACK
6
CONTINUOUS
10
135.266
20
-160.534
11
134.695
21
-160.534
0
LINE
8
BLACK
6
CONTINUOUS
10
134.695
20
-160.534
11
134.409
21
-160.677
0
LINE
8
BLACK
6
CONTINUOUS
10
134.409
20
-160.677
11
134.266
21
-160.82
0
LINE
8
BLACK
6
CONTINUOUS
10
134.266
20
-160.82
11
134.124
21
-161.105
0
LINE
8
BLACK
6
CONTINUOUS
10
139.409
20
-162.391
11
139.409
21
-159.391
0
LINE
8
BLACK
6
CONTINUOUS
10
140.695
20
-162.391
11
140.695
21
-160.82
0
LINE
8
BLACK
6
CONTINUOUS
10
140.695
20
-160.82
11
140.552
21
-160.534
0
LINE
8
BLACK
6
CONTINUOUS
10
140.552
20
-160.534
11
140.266
21
-160.391
0
LINE
8
BLACK
6
CONTINUOUS
10
140.266
20
-160.391
11
139.838
21
-160.391
0
LINE
8
BLACK
6
CONTINUOUS
10
139.838
20
-160.391
11
139.552
21
-160.534
0
LINE
8
BLACK
6
CONTINUOUS
10
139.552
20
-160.534
11
139.409
21
-160.677
0
LINE
8
BLACK
6
CONTINUOUS
10
142.552
20
-162.391
11
142.266
21
-162.248
0
LINE
8
BLACK
6
CONTINUOUS
10
142.266
20
-162.248
11
142.124
21
-162.105
0
LINE
8
BLACK
6
CONTINUOUS
10
142.124
20
-162.105
11
141.981
21
-161.82
0
LINE
8
BLACK
6
CONTINUOUS
10
141.981
20
-161.82
11
141.981
21
-160.963
0
LINE
8
BLACK
6
CONTINUOUS
10
141.981
20
-160.963
11
142.124
21
-160.677
0
LINE
8
BLACK
6
CONTINUOUS
10
142.124
20
-160.677
11
142.266
21
-160.534
0
LINE
8
BLACK
6
CONTINUOUS
10
142.266
20
-160.534
11
142.552
21
-160.391
0
LINE
8
BLACK
6
CONTINUOUS
10
142.552
20
-160.391
11
142.981
21
-160.391
0
LINE
8
BLACK
6
CONTINUOUS
10
142.981
20
-160.391
11
143.266
21
-160.534
0
LINE
8
BLACK
6
CONTINUOUS
10
143.266
20
-160.534
11
143.409
21
-160.677
0
LINE
8
BLACK
6
CONTINUOUS
10
143.409
20
-160.677
11
143.552
21
-160.963
0
LINE
8
BLACK
6
CONTINUOUS
10
143.552
20
-160.963
11
143.552
21
-161.82
0
LINE
8
BLACK
6
CONTINUOUS
10
143.552
20
-161.82
11
143.409
21
-162.105
0
LINE
8
BLACK
6
CONTINUOUS
10
143.409
20
-162.105
11
143.266
21
-162.248
0
LINE
8
BLACK
6
CONTINUOUS
10
143.266
20
-162.248
11
142.981
21
-162.391
0
LINE
8
BLACK
6
CONTINUOUS
10
142.981
20
-162.391
11
142.552
21
-162.391
0
LINE
8
BLACK
6
CONTINUOUS
10
145.266
20
-162.391
11
144.981
21
-162.248
0
LINE
8
BLACK
6
CONTINUOUS
10
144.981
20
-162.248
11
144.838
21
-161.963
0
LINE
8
BLACK
6
CONTINUOUS
10
144.838
20
-161.963
11
144.838
21
-159.391
0
LINE
8
BLACK
6
CONTINUOUS
10
147.552
20
-162.248
11
147.266
21
-162.391
0
LINE
8
BLACK
6
CONTINUOUS
10
147.266
20
-162.391
11
146.695
21
-162.391
0
LINE
8
BLACK
6
CONTINUOUS
10
146.695
20
-162.391
11
146.409
21
-162.248
0
LINE
8
BLACK
6
CONTINUOUS
10
146.409
20
-162.248
11
146.266
21
-161.963
0
LINE
8
BLACK
6
CONTINUOUS
10
146.266
20
-161.963
11
146.266
21
-160.82
0
LINE
8
BLACK
6
CONTINUOUS
10
146.266
20
-160.82
11
146.409
21
-160.534
0
LINE
8
BLACK
6
CONTINUOUS
10
146.409
20
-160.534
11
146.695
21
-160.391
0
LINE
8
BLACK
6
CONTINUOUS
10
146.695
20
-160.391
11
147.266
21
-160.391
0
LINE
8
BLACK
6
CONTINUOUS
10
147.266
20
-160.391
11
147.552
21
-160.534
0
LINE
8
BLACK
6
CONTINUOUS
10
147.552
20
-160.534
11
147.695
21
-160.82
0
LINE
8
BLACK
6
CONTINUOUS
10
147.695
20
-160.82
11
147.695
21
-161.105
0
LINE
8
BLACK
6
CONTINUOUS
10
147.695
20
-161.105
11
146.266
21
-161.391
0
LINE
8
BLACK
6
CONTINUOUS
10
148.838
20
-162.248
11
149.124
21
-162.391
0
LINE
8
BLACK
6
CONTINUOUS
10
149.124
20
-162.391
11
149.695
21
-162.391
0
LINE
8
BLACK
6
CONTINUOUS
10
149.695
20
-162.391
11
149.981
21
-162.248
0
LINE
8
BLACK
6
CONTINUOUS
10
149.981
20
-162.248
11
150.124
21
-161.963
0
LINE
8
BLACK
6
CONTINUOUS
10
150.124
20
-161.963
11
150.124
21
-161.82
0
LINE
8
BLACK
6
CONTINUOUS
10
150.124
20
-161.82
11
149.981
21
-161.534
0
LINE
8
BLACK
6
CONTINUOUS
10
149.981
20
-161.534
11
149.695
21
-161.391
0
LINE
8
BLACK
6
CONTINUOUS
10
149.695
20
-161.391
11
149.266
21
-161.391
0
LINE
8
BLACK
6
CONTINUOUS
10
149.266
20
-161.391
11
148.981
21
-161.248
0
LINE
8
BLACK
6
CONTINUOUS
10
148.981
20
-161.248
11
148.838
21
-160.963
0
LINE
8
BLACK
6
CONTINUOUS
10
148.838
20
-160.963
11
148.838
21
-160.82
0
LINE
8
BLACK
6
CONTINUOUS
10
148.838
20
-160.82
11
148.981
21
-160.534
0
LINE
8
BLACK
6
CONTINUOUS
10
148.981
20
-160.534
11
149.266
21
-160.391
0
LINE
8
BLACK
6
CONTINUOUS
10
149.266
20
-160.391
11
149.695
21
-160.391
0
LINE
8
BLACK
6
CONTINUOUS
10
149.695
20
-160.391
11
149.981
21
-160.534
0
LINE
8
BLACK
6
CONTINUOUS
10
151.124
20
-163.534
11
151.266
21
-163.391
0
LINE
8
BLACK
6
CONTINUOUS
10
151.266
20
-163.391
11
151.552
21
-162.963
0
LINE
8
BLACK
6
CONTINUOUS
10
151.552
20
-162.963
11
151.695
21
-162.677
0
LINE
8
BLACK
6
CONTINUOUS
10
151.695
20
-162.677
11
151.838
21
-162.248
0
LINE
8
BLACK
6
CONTINUOUS
10
151.838
20
-162.248
11
151.981
21
-161.534
0
LINE
8
BLACK
6
CONTINUOUS
10
151.981
20
-161.534
11
151.981
21
-160.963
0
LINE
8
BLACK
6
CONTINUOUS
10
151.981
20
-160.963
11
151.838
21
-160.248
0
LINE
8
BLACK
6
CONTINUOUS
10
151.838
20
-160.248
11
151.695
21
-159.82
0
LINE
8
BLACK
6
CONTINUOUS
10
151.695
20
-159.82
11
151.552
21
-159.534
0
LINE
8
BLACK
6
CONTINUOUS
10
151.552
20
-159.534
11
151.266
21
-159.105
0
LINE
8
BLACK
6
CONTINUOUS
10
151.266
20
-159.105
11
151.124
21
-158.963
0
LINE
8
BLACK
6
CONTINUOUS
10
156.552
20
-163.534
11
156.409
21
-163.391
0
LINE
8
BLACK
6
CONTINUOUS
10
156.409
20
-163.391
11
156.124
21
-162.963
0
LINE
8
BLACK
6
CONTINUOUS
10
156.124
20
-162.963
11
155.981
21
-162.677
0
LINE
8
BLACK
6
CONTINUOUS
10
155.981
20
-162.677
11
155.838
21
-162.248
0
LINE
8
BLACK
6
CONTINUOUS
10
155.838
20
-162.248
11
155.695
21
-161.534
0
LINE
8
BLACK
6
CONTINUOUS
10
155.695
20
-161.534
11
155.695
21
-160.963
0
LINE
8
BLACK
6
CONTINUOUS
10
155.695
20
-160.963
11
155.838
21
-160.248
0
LINE
8
BLACK
6
CONTINUOUS
10
155.838
20
-160.248
11
155.981
21
-159.82
0
LINE
8
BLACK
6
CONTINUOUS
10
155.981
20
-159.82
11
156.124
21
-159.534
0
LINE
8
BLACK
6
CONTINUOUS
10
156.124
20
-159.534
11
156.409
21
-159.105
0
LINE
8
BLACK
6
CONTINUOUS
10
156.409
20
-159.105
11
156.552
21
-158.963
0
LINE
8
BLACK
6
CONTINUOUS
10
157.695
20
-160.391
11
157.695
21
-162.391
0
LINE
8
BLACK
6
CONTINUOUS
10
157.695
20
-160.677
11
157.838
21
-160.534
0
LINE
8
BLACK
6
CONTINUOUS
10
157.838
20
-160.534
11
158.124
21
-160.391
0
LINE
8
BLACK
6
CONTINUOUS
10
158.124
20
-160.391
11
158.552
21
-160.391
0
LINE
8
BLACK
6
CONTINUOUS
10
158.552
20
-160.391
11
158.838
21
-160.534
0
LINE
8
BLACK
6
CONTINUOUS
10
158.838
20
-160.534
11
158.981
21
-160.82
0
LINE
8
BLACK
6
CONTINUOUS
10
158.981
20
-160.82
11
158.981
21
-162.391
0
LINE
8
BLACK
6
CONTINUOUS
10
160.838
20
-162.391
11
160.552
21
-162.248
0
LINE
8
BLACK
6
CONTINUOUS
10
160.552
20
-162.248
11
160.409
21
-162.105
0
LINE
8
BLACK
6
CONTINUOUS
10
160.409
20
-162.105
11
160.266
21
-161.82
0
LINE
8
BLACK
6
CONTINUOUS
10
160.266
20
-161.82
11
160.266
21
-160.963
0
LINE
8
BLACK
6
CONTINUOUS
10
160.266
20
-160.963
11
160.409
21
-160.677
0
LINE
8
BLACK
6
CONTINUOUS
10
160.409
20
-160.677
11
160.552
21
-160.534
0
LINE
8
BLACK
6
CONTINUOUS
10
160.552
20
-160.534
11
160.838
21
-160.391
0
LINE
8
BLACK
6
CONTINUOUS
10
160.838
20
-160.391
11
161.266
21
-160.391
0
LINE
8
BLACK
6
CONTINUOUS
10
161.266
20
-160.391
11
161.552
21
-160.534
0
LINE
8
BLACK
6
CONTINUOUS
10
161.552
20
-160.534
11
161.695
21
-160.677
0
LINE
8
BLACK
6
CONTINUOUS
10
161.695
20
-160.677
11
161.838
21
-160.963
0
LINE
8
BLACK
6
CONTINUOUS
10
161.838
20
-160.963
11
161.838
21
-161.82
0
LINE
8
BLACK
6
CONTINUOUS
10
161.838
20
-161.82
11
161.695
21
-162.105
0
LINE
8
BLACK
6
CONTINUOUS
10
161.695
20
-162.105
11
161.552
21
-162.248
0
LINE
8
BLACK
6
CONTINUOUS
10
161.552
20
-162.248
11
161.266
21
-162.391
0
LINE
8
BLACK
6
CONTINUOUS
10
161.266
20
-162.391
11
160.838
21
-162.391
0
LINE
8
BLACK
6
CONTINUOUS
10
162.695
20
-160.391
11
163.838
21
-160.391
0
LINE
8
BLACK
6
CONTINUOUS
10
163.124
20
-159.391
11
163.124
21
-161.963
0
LINE
8
BLACK
6
CONTINUOUS
10
163.124
20
-161.963
11
163.266
21
-162.248
0
LINE
8
BLACK
6
CONTINUOUS
10
163.266
20
-162.248
11
163.552
21
-162.391
0
LINE
8
BLACK
6
CONTINUOUS
10
163.552
20
-162.391
11
163.838
21
-162.391
0
LINE
8
BLACK
6
CONTINUOUS
10
167.124
20
-160.391
11
167.124
21
-163.391
0
LINE
8
BLACK
6
CONTINUOUS
10
167.124
20
-160.534
11
167.409
21
-160.391
0
LINE
8
BLACK
6
CONTINUOUS
10
167.409
20
-160.391
11
167.981
21
-160.391
0
LINE
8
BLACK
6
CONTINUOUS
10
167.981
20
-160.391
11
168.266
21
-160.534
0
LINE
8
BLACK
6
CONTINUOUS
10
168.266
20
-160.534
11
168.409
21
-160.677
0
LINE
8
BLACK
6
CONTINUOUS
10
168.409
20
-160.677
11
168.552
21
-160.963
0
LINE
8
BLACK
6
CONTINUOUS
10
168.552
20
-160.963
11
168.552
21
-161.82
0
LINE
8
BLACK
6
CONTINUOUS
10
168.552
20
-161.82
11
168.409
21
-162.105
0
LINE
8
BLACK
6
CONTINUOUS
10
168.409
20
-162.105
11
168.266
21
-162.248
0
LINE
8
BLACK
6
CONTINUOUS
10
168.266
20
-162.248
11
167.981
21
-162.391
0
LINE
8
BLACK
6
CONTINUOUS
10
167.981
20
-162.391
11
167.409
21
-162.391
0
LINE
8
BLACK
6
CONTINUOUS
10
167.409
20
-162.391
11
167.124
21
-162.248
0
LINE
8
BLACK
6
CONTINUOUS
10
170.266
20
-162.391
11
169.981
21
-162.248
0
LINE
8
BLACK
6
CONTINUOUS
10
169.981
20
-162.248
11
169.838
21
-161.963
0
LINE
8
BLACK
6
CONTINUOUS
10
169.838
20
-161.963
11
169.838
21
-159.391
0
LINE
8
BLACK
6
CONTINUOUS
10
172.695
20
-162.391
11
172.695
21
-160.82
0
LINE
8
BLACK
6
CONTINUOUS
10
172.695
20
-160.82
11
172.552
21
-160.534
0
LINE
8
BLACK
6
CONTINUOUS
10
172.552
20
-160.534
11
172.266
21
-160.391
0
LINE
8
BLACK
6
CONTINUOUS
10
172.266
20
-160.391
11
171.695
21
-160.391
0
LINE
8
BLACK
6
CONTINUOUS
10
171.695
20
-160.391
11
171.409
21
-160.534
0
LINE
8
BLACK
6
CONTINUOUS
10
172.695
20
-162.248
11
172.409
21
-162.391
0
LINE
8
BLACK
6
CONTINUOUS
10
172.409
20
-162.391
11
171.695
21
-162.391
0
LINE
8
BLACK
6
CONTINUOUS
10
171.695
20
-162.391
11
171.409
21
-162.248
0
LINE
8
BLACK
6
CONTINUOUS
10
171.409
20
-162.248
11
171.266
21
-161.963
0
LINE
8
BLACK
6
CONTINUOUS
10
171.266
20
-161.963
11
171.266
21
-161.677
0
LINE
8
BLACK
6
CONTINUOUS
10
171.266
20
-161.677
11
171.409
21
-161.391
0
LINE
8
BLACK
6
CONTINUOUS
10
171.409
20
-161.391
11
171.695
21
-161.248
0
LINE
8
BLACK
6
CONTINUOUS
10
171.695
20
-161.248
11
172.409
21
-161.248
0
LINE
8
BLACK
6
CONTINUOUS
10
172.409
20
-161.248
11
172.695
21
-161.105
0
LINE
8
BLACK
6
CONTINUOUS
10
173.695
20
-160.391
11
174.838
21
-160.391
0
LINE
8
BLACK
6
CONTINUOUS
10
174.124
20
-159.391
11
174.124
21
-161.963
0
LINE
8
BLACK
6
CONTINUOUS
10
174.124
20
-161.963
11
174.266
21
-162.248
0
LINE
8
BLACK
6
CONTINUOUS
10
174.266
20
-162.248
11
174.552
21
-162.391
0
LINE
8
BLACK
6
CONTINUOUS
10
174.552
20
-162.391
11
174.838
21
-162.391
0
LINE
8
BLACK
6
CONTINUOUS
10
176.981
20
-162.248
11
176.695
21
-162.391
0
LINE
8
BLACK
6
CONTINUOUS
10
176.695
20
-162.391
11
176.124
21
-162.391
0
LINE
8
BLACK
6
CONTINUOUS
10
176.124
20
-162.391
11
175.838
21
-162.248
0
LINE
8
BLACK
6
CONTINUOUS
10
175.838
20
-162.248
11
175.695
21
-161.963
0
LINE
8
BLACK
6
CONTINUOUS
10
175.695
20
-161.963
11
175.695
21
-160.82
0
LINE
8
BLACK
6
CONTINUOUS
10
175.695
20
-160.82
11
175.838
21
-160.534
0
LINE
8
BLACK
6
CONTINUOUS
10
175.838
20
-160.534
11
176.124
21
-160.391
0
LINE
8
BLACK
6
CONTINUOUS
10
176.124
20
-160.391
11
176.695
21
-160.391
0
LINE
8
BLACK
6
CONTINUOUS
10
176.695
20
-160.391
11
176.981
21
-160.534
0
LINE
8
BLACK
6
CONTINUOUS
10
176.981
20
-160.534
11
177.124
21
-160.82
0
LINE
8
BLACK
6
CONTINUOUS
10
177.124
20
-160.82
11
177.124
21
-161.105
0
LINE
8
BLACK
6
CONTINUOUS
10
177.124
20
-161.105
11
175.695
21
-161.391
0
LINE
8
BLACK
6
CONTINUOUS
10
179.695
20
-162.391
11
179.695
21
-159.391
0
LINE
8
BLACK
6
CONTINUOUS
10
179.695
20
-162.248
11
179.409
21
-162.391
0
LINE
8
BLACK
6
CONTINUOUS
10
179.409
20
-162.391
11
178.838
21
-162.391
0
LINE
8
BLACK
6
CONTINUOUS
10
178.838
20
-162.391
11
178.552
21
-162.248
0
LINE
8
BLACK
6
CONTINUOUS
10
178.552
20
-162.248
11
178.409
21
-162.105
0
LINE
8
BLACK
6
CONTINUOUS
10
178.409
20
-162.105
11
178.266
21
-161.82
0
LINE
8
BLACK
6
CONTINUOUS
10
178.266
20
-161.82
11
178.266
21
-160.963
0
LINE
8
BLACK
6
CONTINUOUS
10
178.266
20
-160.963
11
178.409
21
-160.677
0
LINE
8
BLACK
6
CONTINUOUS
10
178.409
20
-160.677
11
178.552
21
-160.534
0
LINE
8
BLACK
6
CONTINUOUS
10
178.552
20
-160.534
11
178.838
21
-160.391
0
LINE
8
BLACK
6
CONTINUOUS
10
178.838
20
-160.391
11
179.409
21
-160.391
0
LINE
8
BLACK
6
CONTINUOUS
10
179.409
20
-160.391
11
179.695
21
-160.534
0
LINE
8
BLACK
6
CONTINUOUS
10
180.838
20
-163.534
11
180.981
21
-163.391
0
LINE
8
BLACK
6
CONTINUOUS
10
180.981
20
-163.391
11
181.266
21
-162.963
0
LINE
8
BLACK
6
CONTINUOUS
10
181.266
20
-162.963
11
181.409
21
-162.677
0
LINE
8
BLACK
6
CONTINUOUS
10
181.409
20
-162.677
11
181.552
21
-162.248
0
LINE
8
BLACK
6
CONTINUOUS
10
181.552
20
-162.248
11
181.695
21
-161.534
0
LINE
8
BLACK
6
CONTINUOUS
10
181.695
20
-161.534
11
181.695
21
-160.963
0
LINE
8
BLACK
6
CONTINUOUS
10
181.695
20
-160.963
11
181.552
21
-160.248
0
LINE
8
BLACK
6
CONTINUOUS
10
181.552
20
-160.248
11
181.409
21
-159.82
0
LINE
8
BLACK
6
CONTINUOUS
10
181.409
20
-159.82
11
181.266
21
-159.534
0
LINE
8
BLACK
6
CONTINUOUS
10
181.266
20
-159.534
11
180.981
21
-159.105
0
LINE
8
BLACK
6
CONTINUOUS
10
180.981
20
-159.105
11
180.838
21
-158.963
0
LINE
8
BLACK
6
CONTINUOUS
10
80.1496
20
-165.949
11
80.1496
21
-164.039
0
LINE
8
BLACK
6
CONTINUOUS
10
80.1496
20
-164.039
11
78.2404
21
-164.039
0
LINE
8
BLACK
6
CONTINUOUS
10
78.2404
20
-164.039
11
78.2404
21
-165.949
0
LINE
8
BLACK
6
CONTINUOUS
10
78.2404
20
-165.949
11
80.1496
21
-165.949
0
LINE
8
BLACK
6
CONTINUOUS
10
83.2664
20
-163.637
11
83.4093
21
-163.494
0
LINE
8
BLACK
6
CONTINUOUS
10
83.4093
20
-163.494
11
83.695
21
-163.351
0
LINE
8
BLACK
6
CONTINUOUS
10
83.695
20
-163.351
11
84.4093
21
-163.351
0
LINE
8
BLACK
6
CONTINUOUS
10
84.4093
20
-163.351
11
84.695
21
-163.494
0
LINE
8
BLACK
6
CONTINUOUS
10
84.695
20
-163.494
11
84.8379
21
-163.637
0
LINE
8
BLACK
6
CONTINUOUS
10
84.8379
20
-163.637
11
84.9807
21
-163.923
0
LINE
8
BLACK
6
CONTINUOUS
10
84.9807
20
-163.923
11
84.9807
21
-164.208
0
LINE
8
BLACK
6
CONTINUOUS
10
84.9807
20
-164.208
11
84.8379
21
-164.637
0
LINE
8
BLACK
6
CONTINUOUS
10
84.8379
20
-164.637
11
83.1236
21
-166.351
0
LINE
8
BLACK
6
CONTINUOUS
10
83.1236
20
-166.351
11
84.9807
21
-166.351
0
LINE
8
BLACK
6
CONTINUOUS
10
86.2664
20
-166.065
11
86.4093
21
-166.208
0
LINE
8
BLACK
6
CONTINUOUS
10
86.4093
20
-166.208
11
86.2664
21
-166.351
0
LINE
8
BLACK
6
CONTINUOUS
10
86.2664
20
-166.351
11
86.1236
21
-166.208
0
LINE
8
BLACK
6
CONTINUOUS
10
86.1236
20
-166.208
11
86.2664
21
-166.065
0
LINE
8
BLACK
6
CONTINUOUS
10
86.2664
20
-166.065
11
86.2664
21
-166.351
0
LINE
8
BLACK
6
CONTINUOUS
10
87.4093
20
-163.351
11
89.4093
21
-163.351
0
LINE
8
BLACK
6
CONTINUOUS
10
89.4093
20
-163.351
11
88.1236
21
-166.351
0
LINE
8
BLACK
6
CONTINUOUS
10
91.1236
20
-163.351
11
91.4093
21
-163.351
0
LINE
8
BLACK
6
CONTINUOUS
10
91.4093
20
-163.351
11
91.695
21
-163.494
0
LINE
8
BLACK
6
CONTINUOUS
10
91.695
20
-163.494
11
91.8379
21
-163.637
0
LINE
8
BLACK
6
CONTINUOUS
10
91.8379
20
-163.637
11
91.9807
21
-163.923
0
LINE
8
BLACK
6
CONTINUOUS
10
91.9807
20
-163.923
11
92.1236
21
-164.494
0
LINE
8
BLACK
6
CONTINUOUS
10
92.1236
20
-164.494
11
92.1236
21
-165.208
0
LINE
8
BLACK
6
CONTINUOUS
10
92.1236
20
-165.208
11
91.9807
21
-165.78
0
LINE
8
BLACK
6
CONTINUOUS
10
91.9807
20
-165.78
11
91.8379
21
-166.065
0
LINE
8
BLACK
6
CONTINUOUS
10
91.8379
20
-166.065
11
91.695
21
-166.208
0
LINE
8
BLACK
6
CONTINUOUS
10
91.695
20
-166.208
11
91.4093
21
-166.351
0
LINE
8
BLACK
6
CONTINUOUS
10
91.4093
20
-166.351
11
91.1236
21
-166.351
0
LINE
8
BLACK
6
CONTINUOUS
10
91.1236
20
-166.351
11
90.8379
21
-166.208
0
LINE
8
BLACK
6
CONTINUOUS
10
90.8379
20
-166.208
11
90.695
21
-166.065
0
LINE
8
BLACK
6
CONTINUOUS
10
90.695
20
-166.065
11
90.5521
21
-165.78
0
LINE
8
BLACK
6
CONTINUOUS
10
90.5521
20
-165.78
11
90.4093
21
-165.208
0
LINE
8
BLACK
6
CONTINUOUS
10
90.4093
20
-165.208
11
90.4093
21
-164.494
0
LINE
8
BLACK
6
CONTINUOUS
10
90.4093
20
-164.494
11
90.5521
21
-163.923
0
LINE
8
BLACK
6
CONTINUOUS
10
90.5521
20
-163.923
11
90.695
21
-163.637
0
LINE
8
BLACK
6
CONTINUOUS
10
90.695
20
-163.637
11
90.8379
21
-163.494
0
LINE
8
BLACK
6
CONTINUOUS
10
90.8379
20
-163.494
11
91.1236
21
-163.351
0
LINE
8
BLACK
6
CONTINUOUS
10
93.4093
20
-166.351
11
93.4093
21
-164.351
0
LINE
8
BLACK
6
CONTINUOUS
10
93.4093
20
-164.637
11
93.5521
21
-164.494
0
LINE
8
BLACK
6
CONTINUOUS
10
93.5521
20
-164.494
11
93.8379
21
-164.351
0
LINE
8
BLACK
6
CONTINUOUS
10
93.8379
20
-164.351
11
94.2664
21
-164.351
0
LINE
8
BLACK
6
CONTINUOUS
10
94.2664
20
-164.351
11
94.5521
21
-164.494
0
LINE
8
BLACK
6
CONTINUOUS
10
94.5521
20
-164.494
11
94.695
21
-164.78
0
LINE
8
BLACK
6
CONTINUOUS
10
94.695
20
-164.78
11
94.695
21
-166.351
0
LINE
8
BLACK
6
CONTINUOUS
10
94.695
20
-164.78
11
94.8379
21
-164.494
0
LINE
8
BLACK
6
CONTINUOUS
10
94.8379
20
-164.494
11
95.1236
21
-164.351
0
LINE
8
BLACK
6
CONTINUOUS
10
95.1236
20
-164.351
11
95.5521
21
-164.351
0
LINE
8
BLACK
6
CONTINUOUS
10
95.5521
20
-164.351
11
95.8379
21
-164.494
0
LINE
8
BLACK
6
CONTINUOUS
10
95.8379
20
-164.494
11
95.9807
21
-164.78
0
LINE
8
BLACK
6
CONTINUOUS
10
95.9807
20
-164.78
11
95.9807
21
-166.351
0
LINE
8
BLACK
6
CONTINUOUS
10
97.4093
20
-166.351
11
97.4093
21
-164.351
0
LINE
8
BLACK
6
CONTINUOUS
10
97.4093
20
-164.637
11
97.5521
21
-164.494
0
LINE
8
BLACK
6
CONTINUOUS
10
97.5521
20
-164.494
11
97.8379
21
-164.351
0
LINE
8
BLACK
6
CONTINUOUS
10
97.8379
20
-164.351
11
98.2664
21
-164.351
0
LINE
8
BLACK
6
CONTINUOUS
10
98.2664
20
-164.351
11
98.5521
21
-164.494
0
LINE
8
BLACK
6
CONTINUOUS
10
98.5521
20
-164.494
11
98.695
21
-164.78
0
LINE
8
BLACK
6
CONTINUOUS
10
98.695
20
-164.78
11
98.695
21
-166.351
0
LINE
8
BLACK
6
CONTINUOUS
10
98.695
20
-164.78
11
98.8379
21
-164.494
0
LINE
8
BLACK
6
CONTINUOUS
10
98.8379
20
-164.494
11
99.1236
21
-164.351
0
LINE
8
BLACK
6
CONTINUOUS
10
99.1236
20
-164.351
11
99.5521
21
-164.351
0
LINE
8
BLACK
6
CONTINUOUS
10
99.5521
20
-164.351
11
99.8379
21
-164.494
0
LINE
8
BLACK
6
CONTINUOUS
10
99.8379
20
-164.494
11
99.9807
21
-164.78
0
LINE
8
BLACK
6
CONTINUOUS
10
99.9807
20
-164.78
11
99.9807
21
-166.351
0
LINE
8
BLACK
6
CONTINUOUS
10
105.838
20
-163.208
11
103.266
21
-167.065
0
LINE
8
BLACK
6
CONTINUOUS
10
109.695
20
-163.351
11
109.981
21
-163.351
0
LINE
8
BLACK
6
CONTINUOUS
10
109.981
20
-163.351
11
110.266
21
-163.494
0
LINE
8
BLACK
6
CONTINUOUS
10
110.266
20
-163.494
11
110.409
21
-163.637
0
LINE
8
BLACK
6
CONTINUOUS
10
110.409
20
-163.637
11
110.552
21
-163.923
0
LINE
8
BLACK
6
CONTINUOUS
10
110.552
20
-163.923
11
110.695
21
-164.494
0
LINE
8
BLACK
6
CONTINUOUS
10
110.695
20
-164.494
11
110.695
21
-165.208
0
LINE
8
BLACK
6
CONTINUOUS
10
110.695
20
-165.208
11
110.552
21
-165.78
0
LINE
8
BLACK
6
CONTINUOUS
10
110.552
20
-165.78
11
110.409
21
-166.065
0
LINE
8
BLACK
6
CONTINUOUS
10
110.409
20
-166.065
11
110.266
21
-166.208
0
LINE
8
BLACK
6
CONTINUOUS
10
110.266
20
-166.208
11
109.981
21
-166.351
0
LINE
8
BLACK
6
CONTINUOUS
10
109.981
20
-166.351
11
109.695
21
-166.351
0
LINE
8
BLACK
6
CONTINUOUS
10
109.695
20
-166.351
11
109.409
21
-166.208
0
LINE
8
BLACK
6
CONTINUOUS
10
109.409
20
-166.208
11
109.266
21
-166.065
0
LINE
8
BLACK
6
CONTINUOUS
10
109.266
20
-166.065
11
109.124
21
-165.78
0
LINE
8
BLACK
6
CONTINUOUS
10
109.124
20
-165.78
11
108.981
21
-165.208
0
LINE
8
BLACK
6
CONTINUOUS
10
108.981
20
-165.208
11
108.981
21
-164.494
0
LINE
8
BLACK
6
CONTINUOUS
10
108.981
20
-164.494
11
109.124
21
-163.923
0
LINE
8
BLACK
6
CONTINUOUS
10
109.124
20
-163.923
11
109.266
21
-163.637
0
LINE
8
BLACK
6
CONTINUOUS
10
109.266
20
-163.637
11
109.409
21
-163.494
0
LINE
8
BLACK
6
CONTINUOUS
10
109.409
20
-163.494
11
109.695
21
-163.351
0
LINE
8
BLACK
6
CONTINUOUS
10
111.981
20
-166.065
11
112.124
21
-166.208
0
LINE
8
BLACK
6
CONTINUOUS
10
112.124
20
-166.208
11
111.981
21
-166.351
0
LINE
8
BLACK
6
CONTINUOUS
10
111.981
20
-166.351
11
111.838
21
-166.208
0
LINE
8
BLACK
6
CONTINUOUS
10
111.838
20
-166.208
11
111.981
21
-166.065
0
LINE
8
BLACK
6
CONTINUOUS
10
111.981
20
-166.065
11
111.981
21
-166.351
0
LINE
8
BLACK
6
CONTINUOUS
10
114.981
20
-166.351
11
113.266
21
-166.351
0
LINE
8
BLACK
6
CONTINUOUS
10
114.124
20
-166.351
11
114.124
21
-163.351
0
LINE
8
BLACK
6
CONTINUOUS
10
114.124
20
-163.351
11
113.838
21
-163.78
0
LINE
8
BLACK
6
CONTINUOUS
10
113.838
20
-163.78
11
113.552
21
-164.065
0
LINE
8
BLACK
6
CONTINUOUS
10
113.552
20
-164.065
11
113.266
21
-164.208
0
LINE
8
BLACK
6
CONTINUOUS
10
116.838
20
-163.351
11
117.124
21
-163.351
0
LINE
8
BLACK
6
CONTINUOUS
10
117.124
20
-163.351
11
117.409
21
-163.494
0
LINE
8
BLACK
6
CONTINUOUS
10
117.409
20
-163.494
11
117.552
21
-163.637
0
LINE
8
BLACK
6
CONTINUOUS
10
117.552
20
-163.637
11
117.695
21
-163.923
0
LINE
8
BLACK
6
CONTINUOUS
10
117.695
20
-163.923
11
117.838
21
-164.494
0
LINE
8
BLACK
6
CONTINUOUS
10
117.838
20
-164.494
11
117.838
21
-165.208
0
LINE
8
BLACK
6
CONTINUOUS
10
117.838
20
-165.208
11
117.695
21
-165.78
0
LINE
8
BLACK
6
CONTINUOUS
10
117.695
20
-165.78
11
117.552
21
-166.065
0
LINE
8
BLACK
6
CONTINUOUS
10
117.552
20
-166.065
11
117.409
21
-166.208
0
LINE
8
BLACK
6
CONTINUOUS
10
117.409
20
-166.208
11
117.124
21
-166.351
0
LINE
8
BLACK
6
CONTINUOUS
10
117.124
20
-166.351
11
116.838
21
-166.351
0
LINE
8
BLACK
6
CONTINUOUS
10
116.838
20
-166.351
11
116.552
21
-166.208
0
LINE
8
BLACK
6
CONTINUOUS
10
116.552
20
-166.208
11
116.409
21
-166.065
0
LINE
8
BLACK
6
CONTINUOUS
10
116.409
20
-166.065
11
116.266
21
-165.78
0
LINE
8
BLACK
6
CONTINUOUS
10
116.266
20
-165.78
11
116.124
21
-165.208
0
LINE
8
BLACK
6
CONTINUOUS
10
116.124
20
-165.208
11
116.124
21
-164.494
0
LINE
8
BLACK
6
CONTINUOUS
10
116.124
20
-164.494
11
116.266
21
-163.923
0
LINE
8
BLACK
6
CONTINUOUS
10
116.266
20
-163.923
11
116.409
21
-163.637
0
LINE
8
BLACK
6
CONTINUOUS
10
116.409
20
-163.637
11
116.552
21
-163.494
0
LINE
8
BLACK
6
CONTINUOUS
10
116.552
20
-163.494
11
116.838
21
-163.351
0
LINE
8
BLACK
6
CONTINUOUS
10
120.409
20
-163.351
11
119.838
21
-163.351
0
LINE
8
BLACK
6
CONTINUOUS
10
119.838
20
-163.351
11
119.552
21
-163.494
0
LINE
8
BLACK
6
CONTINUOUS
10
119.552
20
-163.494
11
119.409
21
-163.637
0
LINE
8
BLACK
6
CONTINUOUS
10
119.409
20
-163.637
11
119.124
21
-164.065
0
LINE
8
BLACK
6
CONTINUOUS
10
119.124
20
-164.065
11
118.981
21
-164.637
0
LINE
8
BLACK
6
CONTINUOUS
10
118.981
20
-164.637
11
118.981
21
-165.78
0
LINE
8
BLACK
6
CONTINUOUS
10
118.981
20
-165.78
11
119.124
21
-166.065
0
LINE
8
BLACK
6
CONTINUOUS
10
119.124
20
-166.065
11
119.266
21
-166.208
0
LINE
8
BLACK
6
CONTINUOUS
10
119.266
20
-166.208
11
119.552
21
-166.351
0
LINE
8
BLACK
6
CONTINUOUS
10
119.552
20
-166.351
11
120.124
21
-166.351
0
LINE
8
BLACK
6
CONTINUOUS
10
120.124
20
-166.351
11
120.409
21
-166.208
0
LINE
8
BLACK
6
CONTINUOUS
10
120.409
20
-166.208
11
120.552
21
-166.065
0
LINE
8
BLACK
6
CONTINUOUS
10
120.552
20
-166.065
11
120.695
21
-165.78
0
LINE
8
BLACK
6
CONTINUOUS
10
120.695
20
-165.78
11
120.695
21
-165.065
0
LINE
8
BLACK
6
CONTINUOUS
10
120.695
20
-165.065
11
120.552
21
-164.78
0
LINE
8
BLACK
6
CONTINUOUS
10
120.552
20
-164.78
11
120.409
21
-164.637
0
LINE
8
BLACK
6
CONTINUOUS
10
120.409
20
-164.637
11
120.124
21
-164.494
0
LINE
8
BLACK
6
CONTINUOUS
10
120.124
20
-164.494
11
119.552
21
-164.494
0
LINE
8
BLACK
6
CONTINUOUS
10
119.552
20
-164.494
11
119.266
21
-164.637
0
LINE
8
BLACK
6
CONTINUOUS
10
119.266
20
-164.637
11
119.124
21
-164.78
0
LINE
8
BLACK
6
CONTINUOUS
10
119.124
20
-164.78
11
118.981
21
-165.065
0
LINE
8
BLACK
6
CONTINUOUS
10
121.838
20
-163.351
11
121.838
21
-163.923
0
LINE
8
BLACK
6
CONTINUOUS
10
122.981
20
-163.351
11
122.981
21
-163.923
0
LINE
8
BLACK
6
CONTINUOUS
10
127.409
20
-167.494
11
127.266
21
-167.351
0
LINE
8
BLACK
6
CONTINUOUS
10
127.266
20
-167.351
11
126.981
21
-166.923
0
LINE
8
BLACK
6
CONTINUOUS
10
126.981
20
-166.923
11
126.838
21
-166.637
0
LINE
8
BLACK
6
CONTINUOUS
10
126.838
20
-166.637
11
126.695
21
-166.208
0
LINE
8
BLACK
6
CONTINUOUS
10
126.695
20
-166.208
11
126.552
21
-165.494
0
LINE
8
BLACK
6
CONTINUOUS
10
126.552
20
-165.494
11
126.552
21
-164.923
0
LINE
8
BLACK
6
CONTINUOUS
10
126.552
20
-164.923
11
126.695
21
-164.208
0
LINE
8
BLACK
6
CONTINUOUS
10
126.695
20
-164.208
11
126.838
21
-163.78
0
LINE
8
BLACK
6
CONTINUOUS
10
126.838
20
-163.78
11
126.981
21
-163.494
0
LINE
8
BLACK
6
CONTINUOUS
10
126.981
20
-163.494
11
127.266
21
-163.065
0
LINE
8
BLACK
6
CONTINUOUS
10
127.266
20
-163.065
11
127.409
21
-162.923
0
LINE
8
BLACK
6
CONTINUOUS
10
129.981
20
-163.351
11
128.552
21
-163.351
0
LINE
8
BLACK
6
CONTINUOUS
10
128.552
20
-163.351
11
128.409
21
-164.78
0
LINE
8
BLACK
6
CONTINUOUS
10
128.409
20
-164.78
11
128.552
21
-164.637
0
LINE
8
BLACK
6
CONTINUOUS
10
128.552
20
-164.637
11
128.838
21
-164.494
0
LINE
8
BLACK
6
CONTINUOUS
10
128.838
20
-164.494
11
129.552
21
-164.494
0
LINE
8
BLACK
6
CONTINUOUS
10
129.552
20
-164.494
11
129.838
21
-164.637
0
LINE
8
BLACK
6
CONTINUOUS
10
129.838
20
-164.637
11
129.981
21
-164.78
0
LINE
8
BLACK
6
CONTINUOUS
10
129.981
20
-164.78
11
130.124
21
-165.065
0
LINE
8
BLACK
6
CONTINUOUS
10
130.124
20
-165.065
11
130.124
21
-165.78
0
LINE
8
BLACK
6
CONTINUOUS
10
130.124
20
-165.78
11
129.981
21
-166.065
0
LINE
8
BLACK
6
CONTINUOUS
10
129.981
20
-166.065
11
129.838
21
-166.208
0
LINE
8
BLACK
6
CONTINUOUS
10
129.838
20
-166.208
11
129.552
21
-166.351
0
LINE
8
BLACK
6
CONTINUOUS
10
129.552
20
-166.351
11
128.838
21
-166.351
0
LINE
8
BLACK
6
CONTINUOUS
10
128.838
20
-166.351
11
128.552
21
-166.208
0
LINE
8
BLACK
6
CONTINUOUS
10
128.552
20
-166.208
11
128.409
21
-166.065
0
LINE
8
BLACK
6
CONTINUOUS
10
133.695
20
-166.351
11
133.695
21
-163.351
0
LINE
8
BLACK
6
CONTINUOUS
10
134.981
20
-166.351
11
134.981
21
-164.78
0
LINE
8
BLACK
6
CONTINUOUS
10
134.981
20
-164.78
11
134.838
21
-164.494
0
LINE
8
BLACK
6
CONTINUOUS
10
134.838
20
-164.494
11
134.552
21
-164.351
0
LINE
8
BLACK
6
CONTINUOUS
10
134.552
20
-164.351
11
134.124
21
-164.351
0
LINE
8
BLACK
6
CONTINUOUS
10
134.124
20
-164.351
11
133.838
21
-164.494
0
LINE
8
BLACK
6
CONTINUOUS
10
133.838
20
-164.494
11
133.695
21
-164.637
0
LINE
8
BLACK
6
CONTINUOUS
10
136.838
20
-166.351
11
136.552
21
-166.208
0
LINE
8
BLACK
6
CONTINUOUS
10
136.552
20
-166.208
11
136.409
21
-166.065
0
LINE
8
BLACK
6
CONTINUOUS
10
136.409
20
-166.065
11
136.266
21
-165.78
0
LINE
8
BLACK
6
CONTINUOUS
10
136.266
20
-165.78
11
136.266
21
-164.923
0
LINE
8
BLACK
6
CONTINUOUS
10
136.266
20
-164.923
11
136.409
21
-164.637
0
LINE
8
BLACK
6
CONTINUOUS
10
136.409
20
-164.637
11
136.552
21
-164.494
0
LINE
8
BLACK
6
CONTINUOUS
10
136.552
20
-164.494
11
136.838
21
-164.351
0
LINE
8
BLACK
6
CONTINUOUS
10
136.838
20
-164.351
11
137.266
21
-164.351
0
LINE
8
BLACK
6
CONTINUOUS
10
137.266
20
-164.351
11
137.552
21
-164.494
0
LINE
8
BLACK
6
CONTINUOUS
10
137.552
20
-164.494
11
137.695
21
-164.637
0
LINE
8
BLACK
6
CONTINUOUS
10
137.695
20
-164.637
11
137.838
21
-164.923
0
LINE
8
BLACK
6
CONTINUOUS
10
137.838
20
-164.923
11
137.838
21
-165.78
0
LINE
8
BLACK
6
CONTINUOUS
10
137.838
20
-165.78
11
137.695
21
-166.065
0
LINE
8
BLACK
6
CONTINUOUS
10
137.695
20
-166.065
11
137.552
21
-166.208
0
LINE
8
BLACK
6
CONTINUOUS
10
137.552
20
-166.208
11
137.266
21
-166.351
0
LINE
8
BLACK
6
CONTINUOUS
10
137.266
20
-166.351
11
136.838
21
-166.351
0
LINE
8
BLACK
6
CONTINUOUS
10
139.552
20
-166.351
11
139.266
21
-166.208
0
LINE
8
BLACK
6
CONTINUOUS
10
139.266
20
-166.208
11
139.124
21
-165.923
0
LINE
8
BLACK
6
CONTINUOUS
10
139.124
20
-165.923
11
139.124
21
-163.351
0
LINE
8
BLACK
6
CONTINUOUS
10
141.838
20
-166.208
11
141.552
21
-166.351
0
LINE
8
BLACK
6
CONTINUOUS
10
141.552
20
-166.351
11
140.981
21
-166.351
0
LINE
8
BLACK
6
CONTINUOUS
10
140.981
20
-166.351
11
140.695
21
-166.208
0
LINE
8
BLACK
6
CONTINUOUS
10
140.695
20
-166.208
11
140.552
21
-165.923
0
LINE
8
BLACK
6
CONTINUOUS
10
140.552
20
-165.923
11
140.552
21
-164.78
0
LINE
8
BLACK
6
CONTINUOUS
10
140.552
20
-164.78
11
140.695
21
-164.494
0
LINE
8
BLACK
6
CONTINUOUS
10
140.695
20
-164.494
11
140.981
21
-164.351
0
LINE
8
BLACK
6
CONTINUOUS
10
140.981
20
-164.351
11
141.552
21
-164.351
0
LINE
8
BLACK
6
CONTINUOUS
10
141.552
20
-164.351
11
141.838
21
-164.494
0
LINE
8
BLACK
6
CONTINUOUS
10
141.838
20
-164.494
11
141.981
21
-164.78
0
LINE
8
BLACK
6
CONTINUOUS
10
141.981
20
-164.78
11
141.981
21
-165.065
0
LINE
8
BLACK
6
CONTINUOUS
10
141.981
20
-165.065
11
140.552
21
-165.351
0
LINE
8
BLACK
6
CONTINUOUS
10
143.124
20
-166.208
11
143.409
21
-166.351
0
LINE
8
BLACK
6
CONTINUOUS
10
143.409
20
-166.351
11
143.981
21
-166.351
0
LINE
8
BLACK
6
CONTINUOUS
10
143.981
20
-166.351
11
144.266
21
-166.208
0
LINE
8
BLACK
6
CONTINUOUS
10
144.266
20
-166.208
11
144.409
21
-165.923
0
LINE
8
BLACK
6
CONTINUOUS
10
144.409
20
-165.923
11
144.409
21
-165.78
0
LINE
8
BLACK
6
CONTINUOUS
10
144.409
20
-165.78
11
144.266
21
-165.494
0
LINE
8
BLACK
6
CONTINUOUS
10
144.266
20
-165.494
11
143.981
21
-165.351
0
LINE
8
BLACK
6
CONTINUOUS
10
143.981
20
-165.351
11
143.552
21
-165.351
0
LINE
8
BLACK
6
CONTINUOUS
10
143.552
20
-165.351
11
143.266
21
-165.208
0
LINE
8
BLACK
6
CONTINUOUS
10
143.266
20
-165.208
11
143.124
21
-164.923
0
LINE
8
BLACK
6
CONTINUOUS
10
143.124
20
-164.923
11
143.124
21
-164.78
0
LINE
8
BLACK
6
CONTINUOUS
10
143.124
20
-164.78
11
143.266
21
-164.494
0
LINE
8
BLACK
6
CONTINUOUS
10
143.266
20
-164.494
11
143.552
21
-164.351
0
LINE
8
BLACK
6
CONTINUOUS
10
143.552
20
-164.351
11
143.981
21
-164.351
0
LINE
8
BLACK
6
CONTINUOUS
10
143.981
20
-164.351
11
144.266
21
-164.494
0
LINE
8
BLACK
6
CONTINUOUS
10
145.409
20
-167.494
11
145.552
21
-167.351
0
LINE
8
BLACK
6
CONTINUOUS
10
145.552
20
-167.351
11
145.838
21
-166.923
0
LINE
8
BLACK
6
CONTINUOUS
10
145.838
20
-166.923
11
145.981
21
-166.637
0
LINE
8
BLACK
6
CONTINUOUS
10
145.981
20
-166.637
11
146.124
21
-166.208
0
LINE
8
BLACK
6
CONTINUOUS
10
146.124
20
-166.208
11
146.266
21
-165.494
0
LINE
8
BLACK
6
CONTINUOUS
10
146.266
20
-165.494
11
146.266
21
-164.923
0
LINE
8
BLACK
6
CONTINUOUS
10
146.266
20
-164.923
11
146.124
21
-164.208
0
LINE
8
BLACK
6
CONTINUOUS
10
146.124
20
-164.208
11
145.981
21
-163.78
0
LINE
8
BLACK
6
CONTINUOUS
10
145.981
20
-163.78
11
145.838
21
-163.494
0
LINE
8
BLACK
6
CONTINUOUS
10
145.838
20
-163.494
11
145.552
21
-163.065
0
LINE
8
BLACK
6
CONTINUOUS
10
145.552
20
-163.065
11
145.409
21
-162.923
0
LINE
8
BLACK
6
CONTINUOUS
10
150.838
20
-167.494
11
150.695
21
-167.351
0
LINE
8
BLACK
6
CONTINUOUS
10
150.695
20
-167.351
11
150.409
21
-166.923
0
LINE
8
BLACK
6
CONTINUOUS
10
150.409
20
-166.923
11
150.266
21
-166.637
0
LINE
8
BLACK
6
CONTINUOUS
10
150.266
20
-166.637
11
150.124
21
-166.208
0
LINE
8
BLACK
6
CONTINUOUS
10
150.124
20
-166.208
11
149.981
21
-165.494
0
LINE
8
BLACK
6
CONTINUOUS
10
149.981
20
-165.494
11
149.981
21
-164.923
0
LINE
8
BLACK
6
CONTINUOUS
10
149.981
20
-164.923
11
150.124
21
-164.208
0
LINE
8
BLACK
6
CONTINUOUS
10
150.124
20
-164.208
11
150.266
21
-163.78
0
LINE
8
BLACK
6
CONTINUOUS
10
150.266
20
-163.78
11
150.409
21
-163.494
0
LINE
8
BLACK
6
CONTINUOUS
10
150.409
20
-163.494
11
150.695
21
-163.065
0
LINE
8
BLACK
6
CONTINUOUS
10
150.695
20
-163.065
11
150.838
21
-162.923
0
LINE
8
BLACK
6
CONTINUOUS
10
151.981
20
-164.351
11
151.981
21
-166.351
0
LINE
8
BLACK
6
CONTINUOUS
10
151.981
20
-164.637
11
152.124
21
-164.494
0
LINE
8
BLACK
6
CONTINUOUS
10
152.124
20
-164.494
11
152.409
21
-164.351
0
LINE
8
BLACK
6
CONTINUOUS
10
152.409
20
-164.351
11
152.838
21
-164.351
0
LINE
8
BLACK
6
CONTINUOUS
10
152.838
20
-164.351
11
153.124
21
-164.494
0
LINE
8
BLACK
6
CONTINUOUS
10
153.124
20
-164.494
11
153.266
21
-164.78
0
LINE
8
BLACK
6
CONTINUOUS
10
153.266
20
-164.78
11
153.266
21
-166.351
0
LINE
8
BLACK
6
CONTINUOUS
10
155.124
20
-166.351
11
154.838
21
-166.208
0
LINE
8
BLACK
6
CONTINUOUS
10
154.838
20
-166.208
11
154.695
21
-166.065
0
LINE
8
BLACK
6
CONTINUOUS
10
154.695
20
-166.065
11
154.552
21
-165.78
0
LINE
8
BLACK
6
CONTINUOUS
10
154.552
20
-165.78
11
154.552
21
-164.923
0
LINE
8
BLACK
6
CONTINUOUS
10
154.552
20
-164.923
11
154.695
21
-164.637
0
LINE
8
BLACK
6
CONTINUOUS
10
154.695
20
-164.637
11
154.838
21
-164.494
0
LINE
8
BLACK
6
CONTINUOUS
10
154.838
20
-164.494
11
155.124
21
-164.351
0
LINE
8
BLACK
6
CONTINUOUS
10
155.124
20
-164.351
11
155.552
21
-164.351
0
LINE
8
BLACK
6
CONTINUOUS
10
155.552
20
-164.351
11
155.838
21
-164.494
0
LINE
8
BLACK
6
CONTINUOUS
10
155.838
20
-164.494
11
155.981
21
-164.637
0
LINE
8
BLACK
6
CONTINUOUS
10
155.981
20
-164.637
11
156.124
21
-164.923
0
LINE
8
BLACK
6
CONTINUOUS
10
156.124
20
-164.923
11
156.124
21
-165.78
0
LINE
8
BLACK
6
CONTINUOUS
10
156.124
20
-165.78
11
155.981
21
-166.065
0
LINE
8
BLACK
6
CONTINUOUS
10
155.981
20
-166.065
11
155.838
21
-166.208
0
LINE
8
BLACK
6
CONTINUOUS
10
155.838
20
-166.208
11
155.552
21
-166.351
0
LINE
8
BLACK
6
CONTINUOUS
10
155.552
20
-166.351
11
155.124
21
-166.351
0
LINE
8
BLACK
6
CONTINUOUS
10
156.981
20
-164.351
11
158.124
21
-164.351
0
LINE
8
BLACK
6
CONTINUOUS
10
157.409
20
-163.351
11
157.409
21
-165.923
0
LINE
8
BLACK
6
CONTINUOUS
10
157.409
20
-165.923
11
157.552
21
-166.208
0
LINE
8
BLACK
6
CONTINUOUS
10
157.552
20
-166.208
11
157.838
21
-166.351
0
LINE
8
BLACK
6
CONTINUOUS
10
157.838
20
-166.351
11
158.124
21
-166.351
0
LINE
8
BLACK
6
CONTINUOUS
10
161.409
20
-164.351
11
161.409
21
-167.351
0
LINE
8
BLACK
6
CONTINUOUS
10
161.409
20
-164.494
11
161.695
21
-164.351
0
LINE
8
BLACK
6
CONTINUOUS
10
161.695
20
-164.351
11
162.266
21
-164.351
0
LINE
8
BLACK
6
CONTINUOUS
10
162.266
20
-164.351
11
162.552
21
-164.494
0
LINE
8
BLACK
6
CONTINUOUS
10
162.552
20
-164.494
11
162.695
21
-164.637
0
LINE
8
BLACK
6
CONTINUOUS
10
162.695
20
-164.637
11
162.838
21
-164.923
0
LINE
8
BLACK
6
CONTINUOUS
10
162.838
20
-164.923
11
162.838
21
-165.78
0
LINE
8
BLACK
6
CONTINUOUS
10
162.838
20
-165.78
11
162.695
21
-166.065
0
LINE
8
BLACK
6
CONTINUOUS
10
162.695
20
-166.065
11
162.552
21
-166.208
0
LINE
8
BLACK
6
CONTINUOUS
10
162.552
20
-166.208
11
162.266
21
-166.351
0
LINE
8
BLACK
6
CONTINUOUS
10
162.266
20
-166.351
11
161.695
21
-166.351
0
LINE
8
BLACK
6
CONTINUOUS
10
161.695
20
-166.351
11
161.409
21
-166.208
0
LINE
8
BLACK
6
CONTINUOUS
10
164.552
20
-166.351
11
164.266
21
-166.208
0
LINE
8
BLACK
6
CONTINUOUS
10
164.266
20
-166.208
11
164.124
21
-165.923
0
LINE
8
BLACK
6
CONTINUOUS
10
164.124
20
-165.923
11
164.124
21
-163.351
0
LINE
8
BLACK
6
CONTINUOUS
10
166.981
20
-166.351
11
166.981
21
-164.78
0
LINE
8
BLACK
6
CONTINUOUS
10
166.981
20
-164.78
11
166.838
21
-164.494
0
LINE
8
BLACK
6
CONTINUOUS
10
166.838
20
-164.494
11
166.552
21
-164.351
0
LINE
8
BLACK
6
CONTINUOUS
10
166.552
20
-164.351
11
165.981
21
-164.351
0
LINE
8
BLACK
6
CONTINUOUS
10
165.981
20
-164.351
11
165.695
21
-164.494
0
LINE
8
BLACK
6
CONTINUOUS
10
166.981
20
-166.208
11
166.695
21
-166.351
0
LINE
8
BLACK
6
CONTINUOUS
10
166.695
20
-166.351
11
165.981
21
-166.351
0
LINE
8
BLACK
6
CONTINUOUS
10
165.981
20
-166.351
11
165.695
21
-166.208
0
LINE
8
BLACK
6
CONTINUOUS
10
165.695
20
-166.208
11
165.552
21
-165.923
0
LINE
8
BLACK
6
CONTINUOUS
10
165.552
20
-165.923
11
165.552
21
-165.637
0
LINE
8
BLACK
6
CONTINUOUS
10
165.552
20
-165.637
11
165.695
21
-165.351
0
LINE
8
BLACK
6
CONTINUOUS
10
165.695
20
-165.351
11
165.981
21
-165.208
0
LINE
8
BLACK
6
CONTINUOUS
10
165.981
20
-165.208
11
166.695
21
-165.208
0
LINE
8
BLACK
6
CONTINUOUS
10
166.695
20
-165.208
11
166.981
21
-165.065
0
LINE
8
BLACK
6
CONTINUOUS
10
167.981
20
-164.351
11
169.124
21
-164.351
0
LINE
8
BLACK
6
CONTINUOUS
10
168.409
20
-163.351
11
168.409
21
-165.923
0
LINE
8
BLACK
6
CONTINUOUS
10
168.409
20
-165.923
11
168.552
21
-166.208
0
LINE
8
BLACK
6
CONTINUOUS
10
168.552
20
-166.208
11
168.838
21
-166.351
0
LINE
8
BLACK
6
CONTINUOUS
10
168.838
20
-166.351
11
169.124
21
-166.351
0
LINE
8
BLACK
6
CONTINUOUS
10
171.266
20
-166.208
11
170.981
21
-166.351
0
LINE
8
BLACK
6
CONTINUOUS
10
170.981
20
-166.351
11
170.409
21
-166.351
0
LINE
8
BLACK
6
CONTINUOUS
10
170.409
20
-166.351
11
170.124
21
-166.208
0
LINE
8
BLACK
6
CONTINUOUS
10
170.124
20
-166.208
11
169.981
21
-165.923
0
LINE
8
BLACK
6
CONTINUOUS
10
169.981
20
-165.923
11
169.981
21
-164.78
0
LINE
8
BLACK
6
CONTINUOUS
10
169.981
20
-164.78
11
170.124
21
-164.494
0
LINE
8
BLACK
6
CONTINUOUS
10
170.124
20
-164.494
11
170.409
21
-164.351
0
LINE
8
BLACK
6
CONTINUOUS
10
170.409
20
-164.351
11
170.981
21
-164.351
0
LINE
8
BLACK
6
CONTINUOUS
10
170.981
20
-164.351
11
171.266
21
-164.494
0
LINE
8
BLACK
6
CONTINUOUS
10
171.266
20
-164.494
11
171.409
21
-164.78
0
LINE
8
BLACK
6
CONTINUOUS
10
171.409
20
-164.78
11
171.409
21
-165.065
0
LINE
8
BLACK
6
CONTINUOUS
10
171.409
20
-165.065
11
169.981
21
-165.351
0
LINE
8
BLACK
6
CONTINUOUS
10
173.981
20
-166.351
11
173.981
21
-163.351
0
LINE
8
BLACK
6
CONTINUOUS
10
173.981
20
-166.208
11
173.695
21
-166.351
0
LINE
8
BLACK
6
CONTINUOUS
10
173.695
20
-166.351
11
173.124
21
-166.351
0
LINE
8
BLACK
6
CONTINUOUS
10
173.124
20
-166.351
11
172.838
21
-166.208
0
LINE
8
BLACK
6
CONTINUOUS
10
172.838
20
-166.208
11
172.695
21
-166.065
0
LINE
8
BLACK
6
CONTINUOUS
10
172.695
20
-166.065
11
172.552
21
-165.78
0
LINE
8
BLACK
6
CONTINUOUS
10
172.552
20
-165.78
11
172.552
21
-164.923
0
LINE
8
BLACK
6
CONTINUOUS
10
172.552
20
-164.923
11
172.695
21
-164.637
0
LINE
8
BLACK
6
CONTINUOUS
10
172.695
20
-164.637
11
172.838
21
-164.494
0
LINE
8
BLACK
6
CONTINUOUS
10
172.838
20
-164.494
11
173.124
21
-164.351
0
LINE
8
BLACK
6
CONTINUOUS
10
173.124
20
-164.351
11
173.695
21
-164.351
0
LINE
8
BLACK
6
CONTINUOUS
10
173.695
20
-164.351
11
173.981
21
-164.494
0
LINE
8
BLACK
6
CONTINUOUS
10
175.124
20
-167.494
11
175.266
21
-167.351
0
LINE
8
BLACK
6
CONTINUOUS
10
175.266
20
-167.351
11
175.552
21
-166.923
0
LINE
8
BLACK
6
CONTINUOUS
10
175.552
20
-166.923
11
175.695
21
-166.637
0
LINE
8
BLACK
6
CONTINUOUS
10
175.695
20
-166.637
11
175.838
21
-166.208
0
LINE
8
BLACK
6
CONTINUOUS
10
175.838
20
-166.208
11
175.981
21
-165.494
0
LINE
8
BLACK
6
CONTINUOUS
10
175.981
20
-165.494
11
175.981
21
-164.923
0
LINE
8
BLACK
6
CONTINUOUS
10
175.981
20
-164.923
11
175.838
21
-164.208
0
LINE
8
BLACK
6
CONTINUOUS
10
175.838
20
-164.208
11
175.695
21
-163.78
0
LINE
8
BLACK
6
CONTINUOUS
10
175.695
20
-163.78
11
175.552
21
-163.494
0
LINE
8
BLACK
6
CONTINUOUS
10
175.552
20
-163.494
11
175.266
21
-163.065
0
LINE
8
BLACK
6
CONTINUOUS
10
175.266
20
-163.065
11
175.124
21
-162.923
  0
ENDSEC
  0
EOF
