G04 #@! TF.GenerationSoftware,KiCad,Pcbnew,(5.1.8)-1*
G04 #@! TF.CreationDate,2021-02-14T00:12:37+02:00*
G04 #@! TF.ProjectId,FR4_Top_Plate,4652345f-546f-4705-9f50-6c6174652e6b,0.95*
G04 #@! TF.SameCoordinates,Original*
G04 #@! TF.FileFunction,Soldermask,Bot*
G04 #@! TF.FilePolarity,Negative*
%FSLAX46Y46*%
G04 Gerber Fmt 4.6, Leading zero omitted, Abs format (unit mm)*
G04 Created by KiCad (PCBNEW (5.1.8)-1) date 2021-02-14 00:12:37*
%MOMM*%
%LPD*%
G01*
G04 APERTURE LIST*
%ADD10C,1.200000*%
%ADD11C,1.400000*%
%ADD12C,1.300000*%
%ADD13C,3.100000*%
G04 APERTURE END LIST*
D10*
X120800000Y-46342400D03*
X120800000Y-53657600D03*
X108000000Y-46342400D03*
X108000000Y-53657600D03*
X110742400Y-43600000D03*
X118057600Y-43600000D03*
D11*
X107821400Y-43421400D03*
X120978600Y-43421400D03*
X120978600Y-56578600D03*
X107821400Y-56578600D03*
D10*
X110742400Y-56400000D03*
X118057600Y-56400000D03*
D12*
X86167000Y-54594000D03*
X86167000Y-53394000D03*
X86167000Y-55794000D03*
X96967000Y-53394000D03*
X96967000Y-54594000D03*
X96967000Y-55794000D03*
X90437000Y-48994000D03*
X91637000Y-48994000D03*
X92837000Y-48994000D03*
X91497000Y-60194000D03*
X90297000Y-60194000D03*
X92697000Y-60194000D03*
D10*
X197000000Y-105892400D03*
X197000000Y-113207600D03*
X184200000Y-105892400D03*
X184200000Y-113207600D03*
X186942400Y-103150000D03*
X194257600Y-103150000D03*
D11*
X184021400Y-102971400D03*
X197178600Y-102971400D03*
X197178600Y-116128600D03*
X184021400Y-116128600D03*
D10*
X186942400Y-115950000D03*
X194257600Y-115950000D03*
X168350000Y-120142400D03*
X168350000Y-127457600D03*
X155550000Y-120142400D03*
X155550000Y-127457600D03*
X158292400Y-117400000D03*
X165607600Y-117400000D03*
D11*
X155371400Y-117221400D03*
X168528600Y-117221400D03*
X168528600Y-130378600D03*
X155371400Y-130378600D03*
D10*
X158292400Y-130200000D03*
X165607600Y-130200000D03*
X149297700Y-121170700D03*
X149297700Y-128485900D03*
X136497700Y-121170700D03*
X136497700Y-128485900D03*
X139240100Y-118428300D03*
X146555300Y-118428300D03*
D11*
X136319100Y-118249700D03*
X149476300Y-118249700D03*
X149476300Y-131406900D03*
X136319100Y-131406900D03*
D10*
X139240100Y-131228300D03*
X146555300Y-131228300D03*
X130250000Y-122542400D03*
X130250000Y-129857600D03*
X117450000Y-122542400D03*
X117450000Y-129857600D03*
X120192400Y-119800000D03*
X127507600Y-119800000D03*
D11*
X117271400Y-119621400D03*
X130428600Y-119621400D03*
X130428600Y-132778600D03*
X117271400Y-132778600D03*
D10*
X120192400Y-132600000D03*
X127507600Y-132600000D03*
X104538575Y-129761263D03*
X98203425Y-133418863D03*
X98138575Y-118676137D03*
X91803425Y-122333737D03*
X101884763Y-119679925D03*
X105542363Y-126015075D03*
D11*
X100578935Y-117060965D03*
X107157535Y-128455435D03*
X95763065Y-135034035D03*
X89184465Y-123639565D03*
D10*
X90799637Y-126079925D03*
X94457237Y-132415075D03*
X96874800Y-94627700D03*
X96874800Y-101942900D03*
X84074800Y-94627700D03*
X84074800Y-101942900D03*
X86817200Y-91885300D03*
X94132400Y-91885300D03*
D11*
X83896200Y-91706700D03*
X97053400Y-91706700D03*
X97053400Y-104863900D03*
X83896200Y-104863900D03*
D10*
X86817200Y-104685300D03*
X94132400Y-104685300D03*
X216050000Y-107392400D03*
X216050000Y-114707600D03*
X203250000Y-107392400D03*
X203250000Y-114707600D03*
X205992400Y-104650000D03*
X213307600Y-104650000D03*
D11*
X203071400Y-104471400D03*
X216228600Y-104471400D03*
X216228600Y-117628600D03*
X203071400Y-117628600D03*
D10*
X205992400Y-117450000D03*
X213307600Y-117450000D03*
X177950000Y-101092400D03*
X177950000Y-108407600D03*
X165150000Y-101092400D03*
X165150000Y-108407600D03*
X167892400Y-98350000D03*
X175207600Y-98350000D03*
D11*
X164971400Y-98171400D03*
X178128600Y-98171400D03*
X178128600Y-111328600D03*
X164971400Y-111328600D03*
D10*
X167892400Y-111150000D03*
X175207600Y-111150000D03*
X158900000Y-99702400D03*
X158900000Y-107017600D03*
X146100000Y-99702400D03*
X146100000Y-107017600D03*
X148842400Y-96960000D03*
X156157600Y-96960000D03*
D11*
X145921400Y-96781400D03*
X159078600Y-96781400D03*
X159078600Y-109938600D03*
X145921400Y-109938600D03*
D10*
X148842400Y-109760000D03*
X156157600Y-109760000D03*
X139850000Y-101092400D03*
X139850000Y-108407600D03*
X127050000Y-101092400D03*
X127050000Y-108407600D03*
X129792400Y-98350000D03*
X137107600Y-98350000D03*
D11*
X126871400Y-98171400D03*
X140028600Y-98171400D03*
X140028600Y-111328600D03*
X126871400Y-111328600D03*
D10*
X129792400Y-111150000D03*
X137107600Y-111150000D03*
X120800000Y-103492400D03*
X120800000Y-110807600D03*
X108000000Y-103492400D03*
X108000000Y-110807600D03*
X110742400Y-100750000D03*
X118057600Y-100750000D03*
D11*
X107821400Y-100571400D03*
X120978600Y-100571400D03*
X120978600Y-113728600D03*
X107821400Y-113728600D03*
D10*
X110742400Y-113550000D03*
X118057600Y-113550000D03*
X216050000Y-88342400D03*
X216050000Y-95657600D03*
X203250000Y-88342400D03*
X203250000Y-95657600D03*
X205992400Y-85600000D03*
X213307600Y-85600000D03*
D11*
X203071400Y-85421400D03*
X216228600Y-85421400D03*
X216228600Y-98578600D03*
X203071400Y-98578600D03*
D10*
X205992400Y-98400000D03*
X213307600Y-98400000D03*
X197000000Y-86842400D03*
X197000000Y-94157600D03*
X184200000Y-86842400D03*
X184200000Y-94157600D03*
X186942400Y-84100000D03*
X194257600Y-84100000D03*
D11*
X184021400Y-83921400D03*
X197178600Y-83921400D03*
X197178600Y-97078600D03*
X184021400Y-97078600D03*
D10*
X186942400Y-96900000D03*
X194257600Y-96900000D03*
X177950000Y-82042400D03*
X177950000Y-89357600D03*
X165150000Y-82042400D03*
X165150000Y-89357600D03*
X167892400Y-79300000D03*
X175207600Y-79300000D03*
D11*
X164971400Y-79121400D03*
X178128600Y-79121400D03*
X178128600Y-92278600D03*
X164971400Y-92278600D03*
D10*
X167892400Y-92100000D03*
X175207600Y-92100000D03*
X158900000Y-80652400D03*
X158900000Y-87967600D03*
X146100000Y-80652400D03*
X146100000Y-87967600D03*
X148842400Y-77910000D03*
X156157600Y-77910000D03*
D11*
X145921400Y-77731400D03*
X159078600Y-77731400D03*
X159078600Y-90888600D03*
X145921400Y-90888600D03*
D10*
X148842400Y-90710000D03*
X156157600Y-90710000D03*
X139850000Y-82042400D03*
X139850000Y-89357600D03*
X127050000Y-82042400D03*
X127050000Y-89357600D03*
X129792400Y-79300000D03*
X137107600Y-79300000D03*
D11*
X126871400Y-79121400D03*
X140028600Y-79121400D03*
X140028600Y-92278600D03*
X126871400Y-92278600D03*
D10*
X129792400Y-92100000D03*
X137107600Y-92100000D03*
X120800000Y-84442400D03*
X120800000Y-91757600D03*
X108000000Y-84442400D03*
X108000000Y-91757600D03*
X110742400Y-81700000D03*
X118057600Y-81700000D03*
D11*
X107821400Y-81521400D03*
X120978600Y-81521400D03*
X120978600Y-94678600D03*
X107821400Y-94678600D03*
D10*
X110742400Y-94500000D03*
X118057600Y-94500000D03*
X216050000Y-69292400D03*
X216050000Y-76607600D03*
X203250000Y-69292400D03*
X203250000Y-76607600D03*
X205992400Y-66550000D03*
X213307600Y-66550000D03*
D11*
X203071400Y-66371400D03*
X216228600Y-66371400D03*
X216228600Y-79528600D03*
X203071400Y-79528600D03*
D10*
X205992400Y-79350000D03*
X213307600Y-79350000D03*
X197000000Y-67792400D03*
X197000000Y-75107600D03*
X184200000Y-67792400D03*
X184200000Y-75107600D03*
X186942400Y-65050000D03*
X194257600Y-65050000D03*
D11*
X184021400Y-64871400D03*
X197178600Y-64871400D03*
X197178600Y-78028600D03*
X184021400Y-78028600D03*
D10*
X186942400Y-77850000D03*
X194257600Y-77850000D03*
X177950000Y-62992400D03*
X177950000Y-70307600D03*
X165150000Y-62992400D03*
X165150000Y-70307600D03*
X167892400Y-60250000D03*
X175207600Y-60250000D03*
D11*
X164971400Y-60071400D03*
X178128600Y-60071400D03*
X178128600Y-73228600D03*
X164971400Y-73228600D03*
D10*
X167892400Y-73050000D03*
X175207600Y-73050000D03*
X158900000Y-61602400D03*
X158900000Y-68917600D03*
X146100000Y-61602400D03*
X146100000Y-68917600D03*
X148842400Y-58860000D03*
X156157600Y-58860000D03*
D11*
X145921400Y-58681400D03*
X159078600Y-58681400D03*
X159078600Y-71838600D03*
X145921400Y-71838600D03*
D10*
X148842400Y-71660000D03*
X156157600Y-71660000D03*
X139850000Y-62992400D03*
X139850000Y-70307600D03*
X127050000Y-62992400D03*
X127050000Y-70307600D03*
X129792400Y-60250000D03*
X137107600Y-60250000D03*
D11*
X126871400Y-60071400D03*
X140028600Y-60071400D03*
X140028600Y-73228600D03*
X126871400Y-73228600D03*
D10*
X129792400Y-73050000D03*
X137107600Y-73050000D03*
X120800000Y-65392400D03*
X120800000Y-72707600D03*
X108000000Y-65392400D03*
X108000000Y-72707600D03*
X110742400Y-62650000D03*
X118057600Y-62650000D03*
D11*
X107821400Y-62471400D03*
X120978600Y-62471400D03*
X120978600Y-75628600D03*
X107821400Y-75628600D03*
D10*
X110742400Y-75450000D03*
X118057600Y-75450000D03*
X216050000Y-50242400D03*
X216050000Y-57557600D03*
X203250000Y-50242400D03*
X203250000Y-57557600D03*
X205992400Y-47500000D03*
X213307600Y-47500000D03*
D11*
X203071400Y-47321400D03*
X216228600Y-47321400D03*
X216228600Y-60478600D03*
X203071400Y-60478600D03*
D10*
X205992400Y-60300000D03*
X213307600Y-60300000D03*
X197000000Y-48742400D03*
X197000000Y-56057600D03*
X184200000Y-48742400D03*
X184200000Y-56057600D03*
X186942400Y-46000000D03*
X194257600Y-46000000D03*
D11*
X184021400Y-45821400D03*
X197178600Y-45821400D03*
X197178600Y-58978600D03*
X184021400Y-58978600D03*
D10*
X186942400Y-58800000D03*
X194257600Y-58800000D03*
X177950000Y-43942400D03*
X177950000Y-51257600D03*
X165150000Y-43942400D03*
X165150000Y-51257600D03*
X167892400Y-41200000D03*
X175207600Y-41200000D03*
D11*
X164971400Y-41021400D03*
X178128600Y-41021400D03*
X178128600Y-54178600D03*
X164971400Y-54178600D03*
D10*
X167892400Y-54000000D03*
X175207600Y-54000000D03*
X158900000Y-42552400D03*
X158900000Y-49867600D03*
X146100000Y-42552400D03*
X146100000Y-49867600D03*
X148842400Y-39810000D03*
X156157600Y-39810000D03*
D11*
X145921400Y-39631400D03*
X159078600Y-39631400D03*
X159078600Y-52788600D03*
X145921400Y-52788600D03*
D10*
X148842400Y-52610000D03*
X156157600Y-52610000D03*
X139850000Y-43942400D03*
X139850000Y-51257600D03*
X127050000Y-43942400D03*
X127050000Y-51257600D03*
X129792400Y-41200000D03*
X137107600Y-41200000D03*
D11*
X126871400Y-41021400D03*
X140028600Y-41021400D03*
X140028600Y-54178600D03*
X126871400Y-54178600D03*
D10*
X129792400Y-54000000D03*
X137107600Y-54000000D03*
D13*
X98894900Y-114109500D03*
X199700000Y-100000000D03*
X124396500Y-95567500D03*
X199700000Y-61800000D03*
X124325380Y-57409080D03*
M02*
